<?xml version="1.0" encoding="UTF-8"?>
<svg xmlns="http://www.w3.org/2000/svg" width="729" height="118">
<path stroke="#000" stroke-width="10" d="M0,5h729
M0,23h243m243,0h243
M0,41h81m81,0h81m243,0h81m81,0h81
M0,59h27m27,0h27m81,0h27m27,0h27m243,0h27m27,0h27m81,0h27m27,0h27
M0,77h9m9,0h9m27,0h9m9,0h9m81,0h9m9,0h9m27,0h9m9,0h9
m243,0h9m9,0h9m27,0h9m9,0h9m81,0h9m9,0h9m27,0h9m9,0h9
M0,95h3m3,0h3m9,0h3m3,0h3m27,0h3m3,0h3m9,0h3m3,0h3
m81,0h3m3,0h3m9,0h3m3,0h3m27,0h3m3,0h3m9,0h3m3,0h3
m243,0h3m3,0h3m9,0h3m3,0h3m27,0h3m3,0h3m9,0h3m3,0h3
m81,0h3m3,0h3m9,0h3m3,0h3m27,0h3m3,0h3m9,0h3m3,0h3
M0,113h1m1,0h1m3,0h1m1,0h1m9,0h1m1,0h1m3,0h1m1,0h1
m27,0h1m1,0h1m3,0h1m1,0h1m9,0h1m1,0h1m3,0h1m1,0h1
m81,0h1m1,0h1m3,0h1m1,0h1m9,0h1m1,0h1m3,0h1m1,0h1
m27,0h1m1,0h1m3,0h1m1,0h1m9,0h1m1,0h1m3,0h1m1,0h1
m243,0h1m1,0h1m3,0h1m1,0h1m9,0h1m1,0h1m3,0h1m1,0h1
m27,0h1m1,0h1m3,0h1m1,0h1m9,0h1m1,0h1m3,0h1m1,0h1
m81,0h1m1,0h1m3,0h1m1,0h1m9,0h1m1,0h1m3,0h1m1,0h1
m27,0h1m1,0h1m3,0h1m1,0h1m9,0h1m1,0h1m3,0h1m1,0h1"/>
</svg>