<?xml version="1.0" encoding="utf-8" standalone="no"?>
<!DOCTYPE svg PUBLIC "-//W3C//DTD SVG 1.1//EN"
  "http://www.w3.org/Graphics/SVG/1.1/DTD/svg11.dtd">
<!-- Created with matplotlib (http://matplotlib.org/) -->
<svg height="203pt" version="1.1" viewBox="0 0 276 203" width="276pt" xmlns="http://www.w3.org/2000/svg" xmlns:xlink="http://www.w3.org/1999/xlink">
 <defs>
  <style type="text/css">
*{stroke-linecap:square;stroke-linejoin:round;}
  </style>
 </defs>
 <g id="figure_1">
  <g id="patch_1">
   <path d="
M0 203.927
L276.558 203.927
L276.558 0
L0 0
z
" style="fill:#ffffff;"/>
  </g>
  <g id="axes_1">
   <g id="patch_2">
    <path d="
M39.3484 196.727
L269.358 196.727
L269.358 7.20058
L39.3484 7.20058
z
" style="fill:#ffffff;"/>
   </g>
   <g id="line2d_1">
    <path clip-path="url(#p7421108cb5)" d="
M43.7717 89.105
L48.1568 160.021
L49.2387 173.806
L50.1739 183.174
L51.0218 189.181
L51.5678 191.64
L51.969 192.693
L52.1696 192.971
L52.4257 193.08
L52.6818 192.91
L52.9379 192.457
L53.4501 190.691
L53.9623 187.774
L54.6692 181.869
L55.4048 173.482
L56.2273 161.582
L57.3665 141.315
L58.8901 109.387
L61.7213 48.8797
L62.8504 29.9363
L63.6156 20.3129
L64.1913 15.1447
L64.7669 11.9458
L65.1075 11.0347
L65.4049 10.8562
L65.7024 11.2625
L65.9999 12.2592
L66.3358 14.096
L66.8975 18.8377
L67.4591 25.6121
L68.1555 36.6563
L69.0141 53.8157
L70.1479 81.0125
L73.3574 161.75
L74.1964 177.143
L74.9165 186.597
L75.4488 190.986
L75.8481 192.708
L76.1142 193.079
L76.2473 193.029
L76.5135 192.45
L76.8275 190.947
L77.2462 187.572
L77.8101 180.61
L78.4224 170.098
L79.2708 151.1
L80.4732 117.792
L82.9757 45.6421
L83.8602 26.817
L84.5146 17.1639
L84.9832 12.8723
L85.3474 11.1651
L85.5295 10.8632
L85.7116 10.9345
L85.8938 11.3811
L86.1669 12.7551
L86.5729 16.3462
L87.0454 22.7914
L87.7309 36.1736
L88.3701 52.3806
L89.3858 83.4719
L91.8454 161.469
L92.6036 178.585
L93.145 187.072
L93.6614 191.814
L93.9925 193.011
L94.1029 193.082
L94.2132 192.986
L94.434 192.295
L94.7651 190.015
L95.2065 184.692
L95.7013 175.776
L96.4033 158.35
L97.3597 127.718
L99.9928 37.8298
L100.671 22.4641
L101.241 14.2501
L101.583 11.6358
L101.8 10.9216
L101.909 10.8463
L102.018 10.9599
L102.235 11.7551
L102.556 14.3044
L102.97 19.9542
L103.487 30.5484
L104.107 47.8197
L104.936 76.747
L107.302 164.113
L107.95 180.413
L108.469 188.927
L108.907 192.554
L109.085 193.047
L109.175 193.075
L109.353 192.694
L109.585 191.33
L109.87 188.322
L110.297 181.143
L110.924 165.28
L111.609 142.024
L113.032 83.7781
L114.156 41.5406
L114.892 21.9861
L115.38 14.1245
L115.705 11.4453
L115.949 10.8454
L116.111 11.1268
L116.35 12.5305
L116.709 16.8174
L117.163 25.8451
L117.736 42.4049
L118.527 72.5261
L120.985 172.162
L121.578 186.019
L121.977 191.326
L122.244 192.9
L122.377 193.081
L122.51 192.855
L122.723 191.646
L123.042 187.903
L123.456 179.739
L123.978 164.568
L124.675 137.608
L127.238 29.323
L127.837 15.8953
L128.237 11.5515
L128.436 10.8624
L128.503 10.8566
L128.636 11.1819
L128.814 12.3199
L129.149 16.6063
L129.596 26.4876
L130.128 43.7882
L130.886 76.1882
L132.872 166.537
L133.473 183.838
L133.912 191.005
L134.204 192.953
L134.35 193.048
L134.496 192.552
L134.724 190.604
L135.051 185.35
L135.461 174.939
L136.043 153.76
L136.861 115.261
L138.449 39.8371
L139.088 20.175
L139.488 13.2053
L139.746 11.1393
L139.924 10.8669
L140.102 11.5452
L140.373 14.3849
L140.742 21.6932
L141.205 35.939
L141.912 66.5196
L144.232 176.715
L144.728 188.594
L145.081 192.58
L145.258 193.082
L145.347 192.954
L145.524 191.94
L145.789 188.543
L146.154 180.312
L146.616 164.583
L147.36 129.708
L149.288 32.6829
L149.815 17.4728
L150.193 11.8839
L150.42 10.8511
L150.496 10.9024
L150.647 11.6
L150.917 14.8032
L151.241 21.8538
L151.695 37.0919
L152.323 66.4469
L154.535 178.216
L154.989 189.24
L155.282 192.58
L155.428 193.076
L155.502 193.026
L155.685 192.033
L155.905 189.212
L156.235 181.765
L156.675 166.352
L157.335 134.042
L159.342 28.1998
L159.809 15.5216
L160.15 11.286
L160.319 10.8528
L160.432 11.1906
L160.601 12.6349
L160.883 17.4983
L161.278 29.1747
L161.786 51.3486
L162.423 86.9576
L163.818 165.236
L164.374 184.813
L164.763 191.817
L164.985 193.069
L165.041 193.062
L165.152 192.66
L165.36 190.524
L165.652 184.569
L166.042 171.626
L166.612 144.141
L168.935 20.0914
L169.302 12.6612
L169.537 10.9066
L169.618 10.8627
L169.779 11.6382
L170.022 14.941
L170.345 23.1899
L170.788 40.9072
L171.413 75.3958
L173.076 172.086
L173.536 187.057
L173.85 192.164
L174.039 193.079
L174.101 193.019
L174.227 192.35
L174.478 188.838
L174.814 179.792
L175.318 157.998
L175.992 118.026
L177.308 38.1164
L177.819 18.8682
L178.202 11.7801
L178.397 10.8453
L178.495 11.0765
L178.642 12.2961
L178.887 16.6206
L179.229 27.2435
L179.669 47.726
L180.348 89.5262
L181.582 165.962
L182.077 185.053
L182.408 191.67
L182.606 193.046
L182.672 193.061
L182.804 192.423
L183.041 189.071
L183.354 180.419
L183.773 162.209
L184.454 120.783
L185.768 37.3132
L186.311 16.9449
L186.624 11.6015
L186.812 10.8552
L186.92 11.278
L187.082 13.0768
L187.352 19.1072
L187.73 33.4566
L188.217 60.2023
L190.253 183.32
L190.626 191.672
L190.813 193.04
L190.875 193.067
L190.976 192.65
L191.178 190.114
L191.482 182.184
L191.892 164.38
L192.514 125.766
L193.967 31.4014
L194.426 15.4427
L194.708 11.2513
L194.817 10.8477
L194.872 10.9054
L194.981 11.5398
L195.199 14.8653
L195.527 24.7835
L195.964 46.0973
L196.626 90.4147
L197.767 166.993
L198.246 186.351
L198.595 192.595
L198.721 193.082
L198.763 193.03
L198.89 192.229
L199.101 188.772
L199.396 179.656
L199.825 158.514
L200.423 118.214
L201.662 34.0223
L202.109 16.6755
L202.388 11.5933
L202.556 10.8506
L202.667 11.3333
L202.835 13.5167
L203.079 19.7459
L203.476 36.9502
L203.965 67.6476
L205.562 176.321
L205.953 189.366
L206.214 192.881
L206.279 193.076
L206.344 192.995
L206.475 192.004
L206.706 187.559
L207.03 175.87
L207.462 151.841
L208.216 96.2441
L209.104 35.2353
L209.547 16.9588
L209.853 11.3566
L209.968 10.8475
L210.026 10.9281
L210.141 11.7597
L210.371 16.0692
L210.659 26.1811
L211.101 50.5241
L211.703 94.7687
L212.717 167.502
L213.193 187.474
L213.47 192.532
L213.6 193.081
L213.645 192.998
L213.78 191.897
L214.006 187.276
L214.321 175.282
L214.772 148.729
L216.718 17.642
L217.003 11.6885
L217.167 10.8503
L217.27 11.3136
L217.474 14.483
L217.781 24.6175
L218.221 49.0089
L218.854 97.0407
L219.831 168.834
L220.277 187.729
L220.541 192.572
L220.673 193.074
L220.761 192.687
L220.937 190.191
L221.202 182.279
L221.598 162.004
L222.129 123.298
L223.345 32.1132
L223.775 15.0215
L224.02 11.1282
L224.082 10.8684
L224.143 10.8974
L224.266 11.8219
L224.45 15.3489
L224.756 26.6572
L225.186 52.2593
L225.985 116.629
L226.747 171.519
L227.169 188.746
L227.451 192.979
L227.498 193.081
L227.544 193.01
L227.668 191.993
L227.858 188.082
L228.164 176.229
L228.584 150.367
L229.513 73.9809
L230.176 28.5426
L230.546 14.5235
L230.785 11.0036
L230.845 10.8456
L230.905 10.9792
L231.025 12.1196
L231.264 17.8287
L231.61 33.5706
L232.108 68.5628
L233.562 179.204
L233.908 190.725
L234.15 193.081
L234.247 192.649
L234.441 189.437
L234.732 178.996
L235.169 152.448
L235.899 91.2997
L236.674 32.431
L237.092 14.8453
L237.331 11.0406
L237.39 10.8479
L237.45 10.9618
L237.609 12.764
L237.849 19.4928
L238.209 37.8337
L238.752 79.4074
L239.902 172.026
L240.306 189.124
L240.548 192.931
L240.606 193.082
L240.664 192.934
L240.781 191.742
L241.013 185.844
L241.362 168.887
L241.885 129.547
L243.162 27.2293
L243.516 13.832
L243.769 10.8462
L243.832 11.0026
L243.958 12.4017
L244.211 19.4442
L244.589 39.5662
L245.147 84.3488
L246.201 171.39
L246.603 189.049
L246.834 192.884
L246.88 193.065
L246.926 193.048
L247.018 192.423
L247.202 188.828
L247.482 177.662
L247.872 152.287
L248.742 74.9911
L249.401 26.6459
L249.772 13.0158
L249.975 10.8509
L250.029 10.9338
L250.137 11.9301
L250.352 17.1898
L250.675 32.691
L251.114 65.436
L252.546 181.639
L252.895 192.125
L253.011 193.055
L253.07 193.023
L253.186 191.968
L253.419 185.958
L253.768 167.96
L254.233 131.111
L255.477 26.6636
L255.854 12.727
L256.042 10.847
L256.08 10.8962
L256.175 11.658
L256.366 15.8882
L256.653 28.6298
L257.083 59.6458
L258.661 186.349
L258.937 192.674
L259.031 193.081
L259.062 193.015
L259.156 192.215
L259.344 187.939
L259.626 175.2
L260.086 141.066
L261.529 20.8413
L261.844 11.6838
L261.976 10.8469
L262.009 10.9235
L262.108 11.8385
L262.311 16.8724
L262.622 32.314
L263.038 64.5705
L264.429 182.303
L264.732 191.887
L264.884 193.082
L264.935 192.931
L264.935 192.931" style="fill:none;stroke:#0000ff;"/>
   </g>
   <g id="matplotlib.axis_1">
    <g id="xtick_1">
     <g id="line2d_2">
      <defs>
       <path d="
M0 0
L0 -4" id="mcb557df647" style="stroke:#000000;stroke-linecap:butt;stroke-width:0.5;"/>
      </defs>
      <g>
       <use style="stroke:#000000;stroke-linecap:butt;stroke-width:0.5;" x="65.8880168269" xlink:href="#mcb557df647" y="101.963656227"/>
      </g>
     </g>
     <g id="text_1">
      <!-- 2 -->
      <defs>
       <path d="
M19.1875 8.29688
L53.6094 8.29688
L53.6094 0
L7.32812 0
L7.32812 8.29688
Q12.9375 14.1094 22.625 23.8906
Q32.3281 33.6875 34.8125 36.5312
Q39.5469 41.8438 41.4219 45.5312
Q43.3125 49.2188 43.3125 52.7812
Q43.3125 58.5938 39.2344 62.25
Q35.1562 65.9219 28.6094 65.9219
Q23.9688 65.9219 18.8125 64.3125
Q13.6719 62.7031 7.8125 59.4219
L7.8125 69.3906
Q13.7656 71.7812 18.9375 73
Q24.125 74.2188 28.4219 74.2188
Q39.75 74.2188 46.4844 68.5469
Q53.2188 62.8906 53.2188 53.4219
Q53.2188 48.9219 51.5312 44.8906
Q49.8594 40.875 45.4062 35.4062
Q44.1875 33.9844 37.6406 27.2188
Q31.1094 20.4531 19.1875 8.29688" id="BitstreamVeraSans-Roman-32"/>
      </defs>
      <g transform="translate(63.5739543269 113.385531227)scale(0.1 -0.1)">
       <use xlink:href="#BitstreamVeraSans-Roman-32"/>
      </g>
     </g>
    </g>
    <g id="xtick_2">
     <g id="line2d_3">
      <g>
       <use style="stroke:#000000;stroke-linecap:butt;stroke-width:0.5;" x="110.120649038" xlink:href="#mcb557df647" y="101.963656227"/>
      </g>
     </g>
     <g id="text_2">
      <!-- 4 -->
      <defs>
       <path d="
M37.7969 64.3125
L12.8906 25.3906
L37.7969 25.3906
z

M35.2031 72.9062
L47.6094 72.9062
L47.6094 25.3906
L58.0156 25.3906
L58.0156 17.1875
L47.6094 17.1875
L47.6094 0
L37.7969 0
L37.7969 17.1875
L4.89062 17.1875
L4.89062 26.7031
z
" id="BitstreamVeraSans-Roman-34"/>
      </defs>
      <g transform="translate(107.464399038 113.254281227)scale(0.1 -0.1)">
       <use xlink:href="#BitstreamVeraSans-Roman-34"/>
      </g>
     </g>
    </g>
    <g id="xtick_3">
     <g id="line2d_4">
      <g>
       <use style="stroke:#000000;stroke-linecap:butt;stroke-width:0.5;" x="154.35328125" xlink:href="#mcb557df647" y="101.963656227"/>
      </g>
     </g>
     <g id="text_3">
      <!-- 6 -->
      <defs>
       <path d="
M33.0156 40.375
Q26.375 40.375 22.4844 35.8281
Q18.6094 31.2969 18.6094 23.3906
Q18.6094 15.5312 22.4844 10.9531
Q26.375 6.39062 33.0156 6.39062
Q39.6562 6.39062 43.5312 10.9531
Q47.4062 15.5312 47.4062 23.3906
Q47.4062 31.2969 43.5312 35.8281
Q39.6562 40.375 33.0156 40.375
M52.5938 71.2969
L52.5938 62.3125
Q48.875 64.0625 45.0938 64.9844
Q41.3125 65.9219 37.5938 65.9219
Q27.8281 65.9219 22.6719 59.3281
Q17.5312 52.7344 16.7969 39.4062
Q19.6719 43.6562 24.0156 45.9219
Q28.375 48.1875 33.5938 48.1875
Q44.5781 48.1875 50.9531 41.5156
Q57.3281 34.8594 57.3281 23.3906
Q57.3281 12.1562 50.6875 5.35938
Q44.0469 -1.42188 33.0156 -1.42188
Q20.3594 -1.42188 13.6719 8.26562
Q6.98438 17.9688 6.98438 36.375
Q6.98438 53.6562 15.1875 63.9375
Q23.3906 74.2188 37.2031 74.2188
Q40.9219 74.2188 44.7031 73.4844
Q48.4844 72.75 52.5938 71.2969" id="BitstreamVeraSans-Roman-36"/>
      </defs>
      <g transform="translate(151.83609375 113.385531227)scale(0.1 -0.1)">
       <use xlink:href="#BitstreamVeraSans-Roman-36"/>
      </g>
     </g>
    </g>
    <g id="xtick_4">
     <g id="line2d_5">
      <g>
       <use style="stroke:#000000;stroke-linecap:butt;stroke-width:0.5;" x="198.585913462" xlink:href="#mcb557df647" y="101.963656227"/>
      </g>
     </g>
     <g id="text_4">
      <!-- 8 -->
      <defs>
       <path d="
M31.7812 34.625
Q24.75 34.625 20.7188 30.8594
Q16.7031 27.0938 16.7031 20.5156
Q16.7031 13.9219 20.7188 10.1562
Q24.75 6.39062 31.7812 6.39062
Q38.8125 6.39062 42.8594 10.1719
Q46.9219 13.9688 46.9219 20.5156
Q46.9219 27.0938 42.8906 30.8594
Q38.875 34.625 31.7812 34.625
M21.9219 38.8125
Q15.5781 40.375 12.0312 44.7188
Q8.5 49.0781 8.5 55.3281
Q8.5 64.0625 14.7188 69.1406
Q20.9531 74.2188 31.7812 74.2188
Q42.6719 74.2188 48.875 69.1406
Q55.0781 64.0625 55.0781 55.3281
Q55.0781 49.0781 51.5312 44.7188
Q48 40.375 41.7031 38.8125
Q48.8281 37.1562 52.7969 32.3125
Q56.7812 27.4844 56.7812 20.5156
Q56.7812 9.90625 50.3125 4.23438
Q43.8438 -1.42188 31.7812 -1.42188
Q19.7344 -1.42188 13.25 4.23438
Q6.78125 9.90625 6.78125 20.5156
Q6.78125 27.4844 10.7812 32.3125
Q14.7969 37.1562 21.9219 38.8125
M18.3125 54.3906
Q18.3125 48.7344 21.8438 45.5625
Q25.3906 42.3906 31.7812 42.3906
Q38.1406 42.3906 41.7188 45.5625
Q45.3125 48.7344 45.3125 54.3906
Q45.3125 60.0625 41.7188 63.2344
Q38.1406 66.4062 31.7812 66.4062
Q25.3906 66.4062 21.8438 63.2344
Q18.3125 60.0625 18.3125 54.3906" id="BitstreamVeraSans-Roman-38"/>
      </defs>
      <g transform="translate(196.085913462 113.385531227)scale(0.1 -0.1)">
       <use xlink:href="#BitstreamVeraSans-Roman-38"/>
      </g>
     </g>
    </g>
    <g id="xtick_5">
     <g id="line2d_6">
      <g>
       <use style="stroke:#000000;stroke-linecap:butt;stroke-width:0.5;" x="242.818545673" xlink:href="#mcb557df647" y="101.963656227"/>
      </g>
     </g>
     <g id="text_5">
      <!-- 10 -->
      <defs>
       <path d="
M31.7812 66.4062
Q24.1719 66.4062 20.3281 58.9062
Q16.5 51.4219 16.5 36.375
Q16.5 21.3906 20.3281 13.8906
Q24.1719 6.39062 31.7812 6.39062
Q39.4531 6.39062 43.2812 13.8906
Q47.125 21.3906 47.125 36.375
Q47.125 51.4219 43.2812 58.9062
Q39.4531 66.4062 31.7812 66.4062
M31.7812 74.2188
Q44.0469 74.2188 50.5156 64.5156
Q56.9844 54.8281 56.9844 36.375
Q56.9844 17.9688 50.5156 8.26562
Q44.0469 -1.42188 31.7812 -1.42188
Q19.5312 -1.42188 13.0625 8.26562
Q6.59375 17.9688 6.59375 36.375
Q6.59375 54.8281 13.0625 64.5156
Q19.5312 74.2188 31.7812 74.2188" id="BitstreamVeraSans-Roman-30"/>
       <path d="
M12.4062 8.29688
L28.5156 8.29688
L28.5156 63.9219
L10.9844 60.4062
L10.9844 69.3906
L28.4219 72.9062
L38.2812 72.9062
L38.2812 8.29688
L54.3906 8.29688
L54.3906 0
L12.4062 0
z
" id="BitstreamVeraSans-Roman-31"/>
      </defs>
      <g transform="translate(237.337295673 113.385531227)scale(0.1 -0.1)">
       <use xlink:href="#BitstreamVeraSans-Roman-31"/>
       <use x="63.623046875" xlink:href="#BitstreamVeraSans-Roman-30"/>
      </g>
     </g>
    </g>
    <g id="xtick_6">
     <g id="line2d_7">
      <defs>
       <path d="
M0 0
L0 -2" id="m6f8f3139b3" style="stroke:#000000;stroke-linecap:butt;stroke-width:0.5;"/>
      </defs>
      <g>
       <use style="stroke:#000000;stroke-linecap:butt;stroke-width:0.5;" x="43.7717007212" xlink:href="#m6f8f3139b3" y="101.963656227"/>
      </g>
     </g>
    </g>
    <g id="xtick_7">
     <g id="line2d_8">
      <g>
       <use style="stroke:#000000;stroke-linecap:butt;stroke-width:0.5;" x="54.829858774" xlink:href="#m6f8f3139b3" y="101.963656227"/>
      </g>
     </g>
    </g>
    <g id="xtick_8">
     <g id="line2d_9">
      <g>
       <use style="stroke:#000000;stroke-linecap:butt;stroke-width:0.5;" x="76.9461748798" xlink:href="#m6f8f3139b3" y="101.963656227"/>
      </g>
     </g>
    </g>
    <g id="xtick_9">
     <g id="line2d_10">
      <g>
       <use style="stroke:#000000;stroke-linecap:butt;stroke-width:0.5;" x="88.0043329327" xlink:href="#m6f8f3139b3" y="101.963656227"/>
      </g>
     </g>
    </g>
    <g id="xtick_10">
     <g id="line2d_11">
      <g>
       <use style="stroke:#000000;stroke-linecap:butt;stroke-width:0.5;" x="99.0624909856" xlink:href="#m6f8f3139b3" y="101.963656227"/>
      </g>
     </g>
    </g>
    <g id="xtick_11">
     <g id="line2d_12">
      <g>
       <use style="stroke:#000000;stroke-linecap:butt;stroke-width:0.5;" x="121.178807091" xlink:href="#m6f8f3139b3" y="101.963656227"/>
      </g>
     </g>
    </g>
    <g id="xtick_12">
     <g id="line2d_13">
      <g>
       <use style="stroke:#000000;stroke-linecap:butt;stroke-width:0.5;" x="132.236965144" xlink:href="#m6f8f3139b3" y="101.963656227"/>
      </g>
     </g>
    </g>
    <g id="xtick_13">
     <g id="line2d_14">
      <g>
       <use style="stroke:#000000;stroke-linecap:butt;stroke-width:0.5;" x="143.295123197" xlink:href="#m6f8f3139b3" y="101.963656227"/>
      </g>
     </g>
    </g>
    <g id="xtick_14">
     <g id="line2d_15">
      <g>
       <use style="stroke:#000000;stroke-linecap:butt;stroke-width:0.5;" x="165.411439303" xlink:href="#m6f8f3139b3" y="101.963656227"/>
      </g>
     </g>
    </g>
    <g id="xtick_15">
     <g id="line2d_16">
      <g>
       <use style="stroke:#000000;stroke-linecap:butt;stroke-width:0.5;" x="176.469597356" xlink:href="#m6f8f3139b3" y="101.963656227"/>
      </g>
     </g>
    </g>
    <g id="xtick_16">
     <g id="line2d_17">
      <g>
       <use style="stroke:#000000;stroke-linecap:butt;stroke-width:0.5;" x="187.527755409" xlink:href="#m6f8f3139b3" y="101.963656227"/>
      </g>
     </g>
    </g>
    <g id="xtick_17">
     <g id="line2d_18">
      <g>
       <use style="stroke:#000000;stroke-linecap:butt;stroke-width:0.5;" x="209.644071514" xlink:href="#m6f8f3139b3" y="101.963656227"/>
      </g>
     </g>
    </g>
    <g id="xtick_18">
     <g id="line2d_19">
      <g>
       <use style="stroke:#000000;stroke-linecap:butt;stroke-width:0.5;" x="220.702229567" xlink:href="#m6f8f3139b3" y="101.963656227"/>
      </g>
     </g>
    </g>
    <g id="xtick_19">
     <g id="line2d_20">
      <g>
       <use style="stroke:#000000;stroke-linecap:butt;stroke-width:0.5;" x="231.76038762" xlink:href="#m6f8f3139b3" y="101.963656227"/>
      </g>
     </g>
    </g>
    <g id="xtick_20">
     <g id="line2d_21">
      <g>
       <use style="stroke:#000000;stroke-linecap:butt;stroke-width:0.5;" x="253.876703726" xlink:href="#m6f8f3139b3" y="101.963656227"/>
      </g>
     </g>
    </g>
   </g>
   <g id="matplotlib.axis_2">
    <g id="ytick_1">
     <g id="line2d_22">
      <defs>
       <path d="
M0 0
L4 0" id="mc8fcea1516" style="stroke:#000000;stroke-linecap:butt;stroke-width:0.5;"/>
      </defs>
      <g>
       <use style="stroke:#000000;stroke-linecap:butt;stroke-width:0.5;" x="29.3484375" xlink:href="#mc8fcea1516" y="193.081999954"/>
      </g>
     </g>
     <g id="text_6">
      <!-- -1 -->
      <defs>
       <path d="
M4.89062 31.3906
L31.2031 31.3906
L31.2031 23.3906
L4.89062 23.3906
z
" id="BitstreamVeraSans-Roman-2d"/>
      </defs>
      <g transform="translate(16.790625 196.727312454)scale(0.1 -0.1)">
       <use xlink:href="#BitstreamVeraSans-Roman-2d"/>
       <use x="36.083984375" xlink:href="#BitstreamVeraSans-Roman-31"/>
      </g>
     </g>
    </g>
    <g id="ytick_2">
     <g id="line2d_23">
      <g>
       <use style="stroke:#000000;stroke-linecap:butt;stroke-width:0.5;" x="29.3484375" xlink:href="#mc8fcea1516" y="147.52282809"/>
      </g>
     </g>
     <g id="text_7">
      <!-- -0.5 -->
      <defs>
       <path d="
M10.6875 12.4062
L21 12.4062
L21 0
L10.6875 0
z
" id="BitstreamVeraSans-Roman-2e"/>
       <path d="
M10.7969 72.9062
L49.5156 72.9062
L49.5156 64.5938
L19.8281 64.5938
L19.8281 46.7344
Q21.9688 47.4688 24.1094 47.8281
Q26.2656 48.1875 28.4219 48.1875
Q40.625 48.1875 47.75 41.5
Q54.8906 34.8125 54.8906 23.3906
Q54.8906 11.625 47.5625 5.09375
Q40.2344 -1.42188 26.9062 -1.42188
Q22.3125 -1.42188 17.5469 -0.640625
Q12.7969 0.140625 7.71875 1.70312
L7.71875 11.625
Q12.1094 9.23438 16.7969 8.0625
Q21.4844 6.89062 26.7031 6.89062
Q35.1562 6.89062 40.0781 11.3281
Q45.0156 15.7656 45.0156 23.3906
Q45.0156 31 40.0781 35.4375
Q35.1562 39.8906 26.7031 39.8906
Q22.75 39.8906 18.8125 39.0156
Q14.8906 38.1406 10.7969 36.2812
z
" id="BitstreamVeraSans-Roman-35"/>
      </defs>
      <g transform="translate(7.2 151.16267184)scale(0.1 -0.1)">
       <use xlink:href="#BitstreamVeraSans-Roman-2d"/>
       <use x="36.083984375" xlink:href="#BitstreamVeraSans-Roman-30"/>
       <use x="99.70703125" xlink:href="#BitstreamVeraSans-Roman-2e"/>
       <use x="131.494140625" xlink:href="#BitstreamVeraSans-Roman-35"/>
      </g>
     </g>
    </g>
    <g id="ytick_3">
     <g id="line2d_24">
      <g>
       <use style="stroke:#000000;stroke-linecap:butt;stroke-width:0.5;" x="29.3484375" xlink:href="#mc8fcea1516" y="101.963656227"/>
      </g>
     </g>
     <g id="text_8">
      <!-- 0 -->
      <g transform="translate(20.309375 105.603499977)scale(0.1 -0.1)">
       <use xlink:href="#BitstreamVeraSans-Roman-30"/>
      </g>
     </g>
    </g>
    <g id="ytick_4">
     <g id="line2d_25">
      <g>
       <use style="stroke:#000000;stroke-linecap:butt;stroke-width:0.5;" x="29.3484375" xlink:href="#mc8fcea1516" y="56.4044843634"/>
      </g>
     </g>
     <g id="text_9">
      <!-- 0.5 -->
      <g transform="translate(10.978125 60.0443281134)scale(0.1 -0.1)">
       <use xlink:href="#BitstreamVeraSans-Roman-30"/>
       <use x="63.623046875" xlink:href="#BitstreamVeraSans-Roman-2e"/>
       <use x="95.41015625" xlink:href="#BitstreamVeraSans-Roman-35"/>
      </g>
     </g>
    </g>
    <g id="ytick_5">
     <g id="line2d_26">
      <g>
       <use style="stroke:#000000;stroke-linecap:butt;stroke-width:0.5;" x="29.3484375" xlink:href="#mc8fcea1516" y="10.8453125"/>
      </g>
     </g>
     <g id="text_10">
      <!-- 1 -->
      <g transform="translate(21.0078125 14.490625)scale(0.1 -0.1)">
       <use xlink:href="#BitstreamVeraSans-Roman-31"/>
      </g>
     </g>
    </g>
    <g id="ytick_6">
     <g id="line2d_27">
      <defs>
       <path d="
M0 0
L2 0" id="m57a2c8792a" style="stroke:#000000;stroke-linecap:butt;stroke-width:0.5;"/>
      </defs>
      <g>
       <use style="stroke:#000000;stroke-linecap:butt;stroke-width:0.5;" x="29.3484375" xlink:href="#m57a2c8792a" y="183.970165581"/>
      </g>
     </g>
    </g>
    <g id="ytick_7">
     <g id="line2d_28">
      <g>
       <use style="stroke:#000000;stroke-linecap:butt;stroke-width:0.5;" x="29.3484375" xlink:href="#m57a2c8792a" y="174.858331208"/>
      </g>
     </g>
    </g>
    <g id="ytick_8">
     <g id="line2d_29">
      <g>
       <use style="stroke:#000000;stroke-linecap:butt;stroke-width:0.5;" x="29.3484375" xlink:href="#m57a2c8792a" y="165.746496836"/>
      </g>
     </g>
    </g>
    <g id="ytick_9">
     <g id="line2d_30">
      <g>
       <use style="stroke:#000000;stroke-linecap:butt;stroke-width:0.5;" x="29.3484375" xlink:href="#m57a2c8792a" y="156.634662463"/>
      </g>
     </g>
    </g>
    <g id="ytick_10">
     <g id="line2d_31">
      <g>
       <use style="stroke:#000000;stroke-linecap:butt;stroke-width:0.5;" x="29.3484375" xlink:href="#m57a2c8792a" y="147.52282809"/>
      </g>
     </g>
    </g>
    <g id="ytick_11">
     <g id="line2d_32">
      <g>
       <use style="stroke:#000000;stroke-linecap:butt;stroke-width:0.5;" x="29.3484375" xlink:href="#m57a2c8792a" y="138.410993718"/>
      </g>
     </g>
    </g>
    <g id="ytick_12">
     <g id="line2d_33">
      <g>
       <use style="stroke:#000000;stroke-linecap:butt;stroke-width:0.5;" x="29.3484375" xlink:href="#m57a2c8792a" y="129.299159345"/>
      </g>
     </g>
    </g>
    <g id="ytick_13">
     <g id="line2d_34">
      <g>
       <use style="stroke:#000000;stroke-linecap:butt;stroke-width:0.5;" x="29.3484375" xlink:href="#m57a2c8792a" y="120.187324972"/>
      </g>
     </g>
    </g>
    <g id="ytick_14">
     <g id="line2d_35">
      <g>
       <use style="stroke:#000000;stroke-linecap:butt;stroke-width:0.5;" x="29.3484375" xlink:href="#m57a2c8792a" y="111.0754906"/>
      </g>
     </g>
    </g>
    <g id="ytick_15">
     <g id="line2d_36">
      <g>
       <use style="stroke:#000000;stroke-linecap:butt;stroke-width:0.5;" x="29.3484375" xlink:href="#m57a2c8792a" y="101.963656227"/>
      </g>
     </g>
    </g>
    <g id="ytick_16">
     <g id="line2d_37">
      <g>
       <use style="stroke:#000000;stroke-linecap:butt;stroke-width:0.5;" x="29.3484375" xlink:href="#m57a2c8792a" y="92.8518218542"/>
      </g>
     </g>
    </g>
    <g id="ytick_17">
     <g id="line2d_38">
      <g>
       <use style="stroke:#000000;stroke-linecap:butt;stroke-width:0.5;" x="29.3484375" xlink:href="#m57a2c8792a" y="83.7399874815"/>
      </g>
     </g>
    </g>
    <g id="ytick_18">
     <g id="line2d_39">
      <g>
       <use style="stroke:#000000;stroke-linecap:butt;stroke-width:0.5;" x="29.3484375" xlink:href="#m57a2c8792a" y="74.6281531088"/>
      </g>
     </g>
    </g>
    <g id="ytick_19">
     <g id="line2d_40">
      <g>
       <use style="stroke:#000000;stroke-linecap:butt;stroke-width:0.5;" x="29.3484375" xlink:href="#m57a2c8792a" y="65.5163187361"/>
      </g>
     </g>
    </g>
    <g id="ytick_20">
     <g id="line2d_41">
      <g>
       <use style="stroke:#000000;stroke-linecap:butt;stroke-width:0.5;" x="29.3484375" xlink:href="#m57a2c8792a" y="56.4044843634"/>
      </g>
     </g>
    </g>
    <g id="ytick_21">
     <g id="line2d_42">
      <g>
       <use style="stroke:#000000;stroke-linecap:butt;stroke-width:0.5;" x="29.3484375" xlink:href="#m57a2c8792a" y="47.2926499907"/>
      </g>
     </g>
    </g>
    <g id="ytick_22">
     <g id="line2d_43">
      <g>
       <use style="stroke:#000000;stroke-linecap:butt;stroke-width:0.5;" x="29.3484375" xlink:href="#m57a2c8792a" y="38.1808156181"/>
      </g>
     </g>
    </g>
    <g id="ytick_23">
     <g id="line2d_44">
      <g>
       <use style="stroke:#000000;stroke-linecap:butt;stroke-width:0.5;" x="29.3484375" xlink:href="#m57a2c8792a" y="29.0689812454"/>
      </g>
     </g>
    </g>
    <g id="ytick_24">
     <g id="line2d_45">
      <g>
       <use style="stroke:#000000;stroke-linecap:butt;stroke-width:0.5;" x="29.3484375" xlink:href="#m57a2c8792a" y="19.9571468727"/>
      </g>
     </g>
    </g>
   </g>
   <g id="patch_3">
    <path d="
M39.3484 101.964
L269.358 101.964" style="fill:none;stroke:#000000;stroke-width:0.8;"/>
   </g>
   <g id="patch_4">
    <path d="
M29.3484 196.727
L29.3484 7.20058" style="fill:none;stroke:#000000;stroke-width:0.8;"/>
   </g>
  </g>
 </g>
 <defs>
  <clipPath id="p7421108cb5">
   <rect height="189.526145986" width="230.0096875" x="39.3484375" y="7.20058380902"/>
  </clipPath>
 </defs>
</svg>
