<?xml version="1.0" standalone="no"?>
<!DOCTYPE svg PUBLIC "-//W3C//DTD SVG 1.1//EN"
  "http://www.w3.org/Graphics/SVG/1.1/DTD/svg11.dtd">
<!-- Created with matplotlib (http://matplotlib.sourceforge.net/) -->
<svg width="666pt" height="154pt" viewBox="0 0 666 154"
   xmlns="http://www.w3.org/2000/svg"
   xmlns:xlink="http://www.w3.org/1999/xlink"
   version="1.1"
   id="svg1">
<filter id="colorAdd"><feComposite in="SourceGraphic" in2="BackgroundImage" operator="arithmetic" k2="1" k3="1"/></filter>
<g id="figure1">
<g id="patch1">
<path style="fill: #ffffff; stroke: #ffffff; stroke-width: 1.000000; stroke-linejoin: round; stroke-linecap: square;  opacity: 1.000000"  d="M0.000000 154.640003L666.318029 154.640003L666.318029 0.000000
L0.000000 0.000000z"/>
</g>
<g id="axes1">
<g id="patch2">
<path style="fill: #ffffff; opacity: 1.000000"  d="M33.896154 146.400000L647.696154 146.400000L647.696154 31.200000
L33.896154 31.200000z"/>
</g>
<g id="line2d1">
<defs>
  <clipPath id="p507f8c22f2b9f15ab3adad5635c0c49f">
<rect x="33.896154" y="31.200000" width="613.800000" height="115.200000"/>
  </clipPath>
</defs><path style="fill: none; stroke: #0000ff; stroke-width: 1.000000; stroke-linejoin: round; stroke-linecap: square;  opacity: 1.000000" clip-path="url(#p507f8c22f2b9f15ab3adad5635c0c49f)" d="M45.700000 117.127876L46.678760 105.268835L46.678760 105.268835
L47.615373 102.950321L48.551985 98.376530L49.488597 90.712407
L50.425210 79.221489L51.361822 65.074416L52.298435 53.137573
L53.235047 47.560733L54.171660 47.558408L55.108272 50.733230
L56.044885 55.533873L58.854722 72.949096L60.727947 84.096650
L62.601172 94.057308L67.284235 117.086702L70.094072 133.600646
L71.030685 137.897596L71.967297 140.712112L72.903910 142.336010
L73.840522 143.225586L74.777135 143.705020L75.713747 143.958785
L77.586972 144.142059L80.396809 144.113527L86.953097 143.731619
L97.255834 142.888217L108.495184 141.745911L125.354209 139.777459
L145.959683 137.406309L159.072258 136.123497L171.248220 135.150497
L183.424183 134.394530L196.536758 133.808495L210.585945 133.410296
L226.508357 133.187394L242.430769 133.130895L242.430769 105.268835
L243.409529 92.281354L243.409529 92.281354L244.346142 86.360661
L245.282754 75.309931L246.219367 61.347350L247.155979 50.424624
L248.092592 46.131056L249.029204 46.931109L249.965817 50.477313
L250.902429 55.432250L256.522104 89.134606L258.395329 98.555919
L261.205166 112.047827L263.078391 122.394030L264.951616 133.579494
L265.888229 137.909057L266.824841 140.740011L267.761454 142.366917
L268.698066 143.253706L269.634679 143.729089L270.571291 143.979234
L272.444516 144.157751L275.254354 144.126508L281.810641 143.745046
L292.113378 142.905068L303.352728 141.765956L320.211753 139.799353
L340.817228 137.425644L353.929802 136.139601L366.105765 135.163265
L378.281727 134.404033L391.394302 133.814814L405.443489 133.413771
L421.365901 133.188520L439.161538 133.131131L439.161538 92.281354
L440.140299 75.864942L440.140299 75.864942L441.076911 65.177460
L442.013523 53.133951L442.950136 46.271344L443.886748 45.320669
L444.823361 47.898849L445.759973 52.298157L447.633198 63.459067
L450.443036 80.739739L452.316261 90.983501L455.126098 104.640849
L456.999323 113.838570L458.872548 124.563556L460.745773 135.466331
L461.682386 139.232999L462.618998 141.540935L463.555611 142.822981
L464.492223 143.511445L465.428836 143.875987L467.302061 144.152358
L470.111898 144.161884L475.731573 143.863315L486.034310 143.060863
L497.273660 141.953259L512.259460 140.230902L537.547997 137.310803
L550.660572 136.043655L562.836534 135.086661L575.012496 134.346281
L588.125071 133.775469L602.174258 133.391021L618.096670 133.179785
L635.892308 133.131633L635.892308 133.131633"/>
</g>
<g id="line2d2">
<path style="fill: none; stroke: #ff0000; stroke-width: 1.000000; stroke-linejoin: round; stroke-linecap: square;  opacity: 1.000000" clip-path="url(#p507f8c22f2b9f15ab3adad5635c0c49f)" d="M45.700000 68.373353L46.189380 67.790533L46.678760 66.570729
L46.678760 66.570729L48.551985 60.444368L49.488597 56.464988
L50.425210 51.371729L52.298435 40.417114L53.235047 36.971413
L54.171660 35.075203L55.108272 34.127573L56.044885 33.682664
L56.981497 33.506062L57.918110 33.494155L58.854722 33.613394
L59.791335 33.868888L60.727947 34.289760L61.664560 34.922365
L62.601172 35.826858L63.537785 37.075428L64.474397 38.752682
L65.411010 40.959692L66.347622 43.821449L67.284235 47.488740
L68.220847 52.101619L71.030685 68.944389L71.967297 72.728642
L72.903910 74.911186L73.840522 76.004595L74.777135 76.509828
L75.713747 76.733894L77.586972 76.873565L84.143259 76.894539
L118.797921 76.682758L159.072258 76.187806L200.283207 75.742913
L234.001257 75.615949L242.430769 75.611073L242.430769 66.570729
L242.920149 64.698748L243.409529 62.155705L243.409529 62.155705
L245.282754 50.736239L246.219367 44.623265L247.155979 39.612054
L248.092592 36.458617L249.029204 34.787616L249.965817 33.970134
L250.902429 33.594220L251.839042 33.453911L252.775654 33.461447
L253.712267 33.591137L254.648879 33.851750L255.585492 34.273958
L256.522104 34.904635L257.458717 35.804000L258.395329 37.044211
L259.331942 38.709947L260.268554 40.902614L261.205166 43.748018
L262.141779 47.398885L263.078391 51.999715L265.888229 68.896980
L266.824841 72.709184L267.761454 74.906101L268.698066 76.004679
L269.634679 76.511188L270.571291 76.735310L272.444516 76.874568
L279.000804 76.895185L313.655466 76.684481L353.929802 76.190235
L395.140752 75.744129L428.858801 75.616072L439.161538 75.610847
L439.161538 62.155705L440.140299 55.159117L440.140299 55.159117
L441.076911 47.880142L442.013523 41.789862L442.950136 37.663590
L443.886748 35.377921L444.823361 34.239731L445.759973 33.702158
L446.696586 33.471950L447.633198 33.415385L448.569811 33.482291
L449.506423 33.666626L450.443036 33.988350L451.379648 34.485415
L452.316261 35.210111L453.252873 36.227197L454.189486 37.613381
L455.126098 39.459318L456.062711 41.875638L456.999323 45.000858
L457.935936 48.996052L458.872548 53.977812L460.745773 65.720769
L461.682386 70.581716L462.618998 73.737718L463.555611 75.439593
L464.492223 76.256493L465.428836 76.624641L467.302061 76.855015
L471.985123 76.901492L503.829947 76.733066L540.357834 76.314705
L590.934908 75.743001L624.652958 75.615832L635.892308 75.610791
L635.892308 75.610791"/>
</g>
<g id="line2d3">
<path style="fill: none; stroke: #a52a2a; stroke-width: 1.000000; stroke-linejoin: round; stroke-linecap: square;  opacity: 1.000000" clip-path="url(#p507f8c22f2b9f15ab3adad5635c0c49f)" d="M45.700000 68.373353L46.678760 68.558885L46.678760 68.558885
L48.551985 69.308031L50.425210 70.395756L53.235047 72.069720
L55.108272 72.963739L57.918110 74.010977L60.727947 74.748478
L62.601172 75.064016L64.474397 75.224096L66.347622 75.218564
L68.220847 75.021709L70.094072 74.549491L71.967297 73.726760
L75.713747 71.588037L81.333422 68.408440L86.016484 65.999307
L90.699547 63.809662L96.319222 61.451314L101.938897 59.362214
L107.558572 57.517663L113.178246 55.894450L119.734534 54.251650
L126.290821 52.849093L132.847109 51.658163L140.340008 50.523390
L148.769521 49.494877L157.199033 48.688343L166.565158 48.007644
L177.804508 47.430279L190.917083 47.004702L206.839495 46.729173
L230.254807 46.574128L242.430769 46.539013L242.430769 68.558885
L243.409529 69.045993L243.409529 69.045993L248.092592 71.987176
L249.965817 72.895838L252.775654 73.960038L255.585492 74.710088
L257.458717 75.032152L259.331942 75.197475L261.205166 75.195924
L263.078391 75.002077L264.951616 74.531975L266.824841 73.709178
L270.571291 71.568217L276.190966 68.387696L280.874029 65.978321
L285.557091 63.788414L291.176766 61.429656L296.796441 59.340068
L302.416116 57.494990L308.035791 55.871252L314.592078 54.227886
L321.148365 52.824846L327.704653 51.633545L335.197553 50.498502
L343.627065 49.469899L352.056577 48.663507L361.422702 47.983237
L372.662052 47.406751L385.774627 46.982656L401.697039 46.709458
L425.112351 46.558411L439.161538 46.521057L439.161538 69.045993
L443.886748 72.081916L445.759973 72.973690L448.569811 74.014913
L451.379648 74.738952L453.252873 75.038669L455.126098 75.177866
L456.999323 75.146010L458.872548 74.909918L460.745773 74.373044
L462.618998 73.489806L468.238673 70.237322L472.921735 67.664925
L477.604798 65.317982L482.287860 63.186603L487.907535 60.892367
L493.527210 58.861334L499.146885 57.069233L504.766560 55.493300
L511.322847 53.899712L517.879135 52.540609L525.372035 51.238729
L532.864934 50.169477L541.294447 49.203972L550.660572 48.378393
L560.963309 47.714914L572.202659 47.220013L585.315234 46.864634
L602.174258 46.635882L630.272633 46.513774L635.892308 46.501822
L635.892308 46.501822"/>
</g>
<g id="line2d4">
<path style="fill: none; stroke: #008000; stroke-width: 1.000000; stroke-linejoin: round; stroke-linecap: square;  opacity: 1.000000" clip-path="url(#p507f8c22f2b9f15ab3adad5635c0c49f)" d="M45.700000 68.373353L46.678760 67.854697L46.678760 67.854697
L48.551985 66.416551L49.488597 65.490382L50.425210 64.289614
L51.361822 62.721424L55.108272 55.137823L56.044885 53.636036
L56.981497 52.362459L57.918110 51.299518L58.854722 50.424633
L59.791335 49.714576L61.664560 48.704740L63.537785 48.128375
L65.411010 47.888628L67.284235 47.933349L69.157460 48.243182
L71.967297 49.087091L82.270034 52.591022L88.826322 54.531745
L95.382609 56.244742L101.938897 57.748687L109.431796 59.233432
L116.924696 60.490915L125.354209 61.661045L133.783721 62.600657
L143.149846 63.408971L153.452583 64.055292L164.691933 64.525122
L177.804508 64.837833L193.726920 64.986133L218.078845 64.960287
L242.430769 64.853460L242.430769 67.854697L243.409529 66.971420
L243.409529 66.971420L244.346142 65.856335L245.282754 64.503974
L246.219367 62.797768L249.965817 55.030409L250.902429 53.532775
L251.839042 52.264914L252.775654 51.207481L253.712267 50.337271
L254.648879 49.630918L256.522104 48.625942L258.395329 48.052079
L260.268554 47.813564L262.141779 47.858966L264.015004 48.169672
L266.824841 49.016812L277.127579 52.533428L283.683866 54.480836
L290.240153 56.199928L296.796441 57.709460L304.289341 59.200030
L311.782241 60.462787L320.211753 61.638233L328.641265 62.582532
L338.007390 63.395339L348.310128 64.045759L359.549477 64.519114
L372.662052 64.834808L388.584464 64.985356L412.936389 64.960861
L439.161538 64.846539L439.161538 66.971420L440.140299 65.617905
L440.140299 65.617905L441.076911 63.931606L445.759973 54.264448
L446.696586 52.870518L447.633198 51.698546L448.569811 50.726353
L449.506423 49.930278L451.379648 48.778168L453.252873 48.090841
L455.126098 47.760843L456.999323 47.724693L458.872548 47.958136
L460.745773 48.434992L464.492223 49.728349L471.048510 51.980420
L477.604798 53.991196L484.161085 55.768526L490.717373 57.331483
L498.210273 58.877769L505.703172 60.191006L513.196072 61.293351
L521.625585 62.307524L530.991709 63.187511L540.357834 63.844647
L550.660572 64.354088L562.836534 64.729006L577.822334 64.948166
L597.491196 64.994323L635.892308 64.842107L635.892308 64.842107"/>
</g>
<g id="matplotlib.axis1">
<g id="xtick1">
<g id="line2d5">
<defs><path id="m30e32995789d870ad79a2e54c91cf9c6" d="M0.000000 0.000000L0.000000 -4.000000"/></defs>
<g ><use style="fill: none; stroke: #000000; stroke-width: 0.500000; stroke-linejoin: round; stroke-linecap: butt;  opacity: 1.000000" xlink:href="#m30e32995789d870ad79a2e54c91cf9c6" x="45.700000" y="77.237812"/>
</g></g>
</g>
<g id="xtick2">
<g id="line2d6">
<g ><use style="fill: none; stroke: #000000; stroke-width: 0.500000; stroke-linejoin: round; stroke-linecap: butt;  opacity: 1.000000" xlink:href="#m30e32995789d870ad79a2e54c91cf9c6" x="143.576005" y="77.237812"/>
</g></g>
<g id="text1">
<defs>
<path id="c_42baa63129a918535c52adb20d687ea7" d="M12.406250 -8.296875l16.109375 0.000000l0.000000 -55.625000l-17.531250 3.515625l0.000000 -8.984375l17.437500 -3.515625l9.859375 0.000000l0.000000 64.609375l16.109375 0.000000l0.000000 8.296875l-41.984375 0.000000z"/>
<path id="c_7a2040fe3b94fcd41d0a72c84e93b115" d="M31.781250 -66.406250q-7.609375 0.000000 -11.453125 7.500000q-3.828125 7.484375 -3.828125 22.531250q0.000000 14.984375 3.828125 22.484375q3.843750 7.500000 11.453125 7.500000q7.671875 0.000000 11.500000 -7.500000q3.843750 -7.500000 3.843750 -22.484375q0.000000 -15.046875 -3.843750 -22.531250q-3.828125 -7.500000 -11.500000 -7.500000M31.781250 -74.218750q12.265625 0.000000 18.734375 9.703125q6.468750 9.687500 6.468750 28.140625q0.000000 18.406250 -6.468750 28.109375q-6.468750 9.687500 -18.734375 9.687500q-12.250000 0.000000 -18.718750 -9.687500q-6.468750 -9.703125 -6.468750 -28.109375q0.000000 -18.453125 6.468750 -28.140625q6.468750 -9.703125 18.718750 -9.703125"/>
</defs>
<g style="fill: #000000; opacity: 1.000000" transform="translate(138.091630,88.659687)scale(0.100000)">
<use xlink:href="#c_42baa63129a918535c52adb20d687ea7"/>
<use xlink:href="#c_7a2040fe3b94fcd41d0a72c84e93b115" x="63.623047"/>
</g>
</g>
</g>
<g id="xtick3">
<g id="line2d7">
<g ><use style="fill: none; stroke: #000000; stroke-width: 0.500000; stroke-linejoin: round; stroke-linecap: butt;  opacity: 1.000000" xlink:href="#m30e32995789d870ad79a2e54c91cf9c6" x="241.452009" y="77.237812"/>
</g></g>
<g id="text2">
<defs>
<path id="c_ed3f3ed3ebfbd18bcb9c012009a68ad1" d="M19.187500 -8.296875l34.421875 0.000000l0.000000 8.296875l-46.281250 0.000000l0.000000 -8.296875q5.609375 -5.812500 15.296875 -15.593750q9.703125 -9.796875 12.187500 -12.640625q4.734375 -5.312500 6.609375 -9.000000q1.890625 -3.687500 1.890625 -7.250000q0.000000 -5.812500 -4.078125 -9.468750q-4.078125 -3.671875 -10.625000 -3.671875q-4.640625 0.000000 -9.796875 1.609375q-5.140625 1.609375 -11.000000 4.890625l0.000000 -9.968750q5.953125 -2.390625 11.125000 -3.609375q5.187500 -1.218750 9.484375 -1.218750q11.328125 0.000000 18.062500 5.671875q6.734375 5.656250 6.734375 15.125000q0.000000 4.500000 -1.687500 8.531250q-1.671875 4.015625 -6.125000 9.484375q-1.218750 1.421875 -7.765625 8.187500q-6.531250 6.765625 -18.453125 18.921875"/>
</defs>
<g style="fill: #000000; opacity: 1.000000" transform="translate(235.787947,88.659687)scale(0.100000)">
<use xlink:href="#c_ed3f3ed3ebfbd18bcb9c012009a68ad1"/>
<use xlink:href="#c_7a2040fe3b94fcd41d0a72c84e93b115" x="63.623047"/>
</g>
</g>
</g>
<g id="xtick4">
<g id="line2d8">
<g ><use style="fill: none; stroke: #000000; stroke-width: 0.500000; stroke-linejoin: round; stroke-linecap: butt;  opacity: 1.000000" xlink:href="#m30e32995789d870ad79a2e54c91cf9c6" x="339.328014" y="77.237812"/>
</g></g>
<g id="text3">
<defs>
<path id="c_3dcfa38a02242cb63ec6726c6e70be7a" d="M40.578125 -39.312500q7.078125 1.515625 11.046875 6.312500q3.984375 4.781250 3.984375 11.812500q0.000000 10.781250 -7.421875 16.703125q-7.421875 5.906250 -21.093750 5.906250q-4.578125 0.000000 -9.437500 -0.906250q-4.859375 -0.906250 -10.031250 -2.718750l0.000000 -9.515625q4.093750 2.390625 8.968750 3.609375q4.890625 1.218750 10.218750 1.218750q9.265625 0.000000 14.125000 -3.656250q4.859375 -3.656250 4.859375 -10.640625q0.000000 -6.453125 -4.515625 -10.078125q-4.515625 -3.640625 -12.562500 -3.640625l-8.500000 0.000000l0.000000 -8.109375l8.890625 0.000000q7.265625 0.000000 11.125000 -2.906250q3.859375 -2.906250 3.859375 -8.375000q0.000000 -5.609375 -3.984375 -8.609375q-3.968750 -3.015625 -11.390625 -3.015625q-4.062500 0.000000 -8.703125 0.890625q-4.640625 0.875000 -10.203125 2.718750l0.000000 -8.781250q5.625000 -1.562500 10.531250 -2.343750q4.906250 -0.781250 9.250000 -0.781250q11.234375 0.000000 17.765625 5.109375q6.546875 5.093750 6.546875 13.781250q0.000000 6.062500 -3.468750 10.234375q-3.468750 4.171875 -9.859375 5.781250"/>
</defs>
<g style="fill: #000000; opacity: 1.000000" transform="translate(333.679576,88.659687)scale(0.100000)">
<use xlink:href="#c_3dcfa38a02242cb63ec6726c6e70be7a"/>
<use xlink:href="#c_7a2040fe3b94fcd41d0a72c84e93b115" x="63.623047"/>
</g>
</g>
</g>
<g id="xtick5">
<g id="line2d9">
<g ><use style="fill: none; stroke: #000000; stroke-width: 0.500000; stroke-linejoin: round; stroke-linecap: butt;  opacity: 1.000000" xlink:href="#m30e32995789d870ad79a2e54c91cf9c6" x="437.204018" y="77.237812"/>
</g></g>
<g id="text4">
<defs>
<path id="c_a0416418d96557a09b8c1332d34883ba" d="M37.796875 -64.312500l-24.906250 38.921875l24.906250 0.000000zM35.203125 -72.906250l12.406250 0.000000l0.000000 47.515625l10.406250 0.000000l0.000000 8.203125l-10.406250 0.000000l0.000000 17.187500l-9.812500 0.000000l0.000000 -17.187500l-32.906250 0.000000l0.000000 -9.515625z"/>
</defs>
<g style="fill: #000000; opacity: 1.000000" transform="translate(431.414956,88.659687)scale(0.100000)">
<use xlink:href="#c_a0416418d96557a09b8c1332d34883ba"/>
<use xlink:href="#c_7a2040fe3b94fcd41d0a72c84e93b115" x="63.623047"/>
</g>
</g>
</g>
<g id="xtick6">
<g id="line2d10">
<g ><use style="fill: none; stroke: #000000; stroke-width: 0.500000; stroke-linejoin: round; stroke-linecap: butt;  opacity: 1.000000" xlink:href="#m30e32995789d870ad79a2e54c91cf9c6" x="535.080023" y="77.237812"/>
</g></g>
<g id="text5">
<defs>
<path id="c_1260a2df50f305f3db244e29828f968e" d="M10.796875 -72.906250l38.718750 0.000000l0.000000 8.312500l-29.687500 0.000000l0.000000 17.859375q2.140625 -0.734375 4.281250 -1.093750q2.156250 -0.359375 4.312500 -0.359375q12.203125 0.000000 19.328125 6.687500q7.140625 6.687500 7.140625 18.109375q0.000000 11.765625 -7.328125 18.296875q-7.328125 6.515625 -20.656250 6.515625q-4.593750 0.000000 -9.359375 -0.781250q-4.750000 -0.781250 -9.828125 -2.343750l0.000000 -9.921875q4.390625 2.390625 9.078125 3.562500q4.687500 1.171875 9.906250 1.171875q8.453125 0.000000 13.375000 -4.437500q4.937500 -4.437500 4.937500 -12.062500q0.000000 -7.609375 -4.937500 -12.046875q-4.921875 -4.453125 -13.375000 -4.453125q-3.953125 0.000000 -7.890625 0.875000q-3.921875 0.875000 -8.015625 2.734375z"/>
</defs>
<g style="fill: #000000; opacity: 1.000000" transform="translate(529.431585,88.659687)scale(0.100000)">
<use xlink:href="#c_1260a2df50f305f3db244e29828f968e"/>
<use xlink:href="#c_7a2040fe3b94fcd41d0a72c84e93b115" x="63.623047"/>
</g>
</g>
</g>
<g id="xtick7">
<g id="line2d11">
<g ><use style="fill: none; stroke: #000000; stroke-width: 0.500000; stroke-linejoin: round; stroke-linecap: butt;  opacity: 1.000000" xlink:href="#m30e32995789d870ad79a2e54c91cf9c6" x="632.956028" y="77.237812"/>
</g></g>
<g id="text6">
<defs>
<path id="c_cc8d6d580d1b10c8632f7a42cd53db8a" d="M33.015625 -40.375000q-6.640625 0.000000 -10.531250 4.546875q-3.875000 4.531250 -3.875000 12.437500q0.000000 7.859375 3.875000 12.437500q3.890625 4.562500 10.531250 4.562500q6.640625 0.000000 10.515625 -4.562500q3.875000 -4.578125 3.875000 -12.437500q0.000000 -7.906250 -3.875000 -12.437500q-3.875000 -4.546875 -10.515625 -4.546875M52.593750 -71.296875l0.000000 8.984375q-3.718750 -1.750000 -7.500000 -2.671875q-3.781250 -0.937500 -7.500000 -0.937500q-9.765625 0.000000 -14.921875 6.593750q-5.140625 6.593750 -5.875000 19.921875q2.875000 -4.250000 7.218750 -6.515625q4.359375 -2.265625 9.578125 -2.265625q10.984375 0.000000 17.359375 6.671875q6.375000 6.656250 6.375000 18.125000q0.000000 11.234375 -6.640625 18.031250q-6.640625 6.781250 -17.671875 6.781250q-12.656250 0.000000 -19.343750 -9.687500q-6.687500 -9.703125 -6.687500 -28.109375q0.000000 -17.281250 8.203125 -27.562500q8.203125 -10.281250 22.015625 -10.281250q3.718750 0.000000 7.500000 0.734375q3.781250 0.734375 7.890625 2.187500"/>
</defs>
<g style="fill: #000000; opacity: 1.000000" transform="translate(627.276340,88.659687)scale(0.100000)">
<use xlink:href="#c_cc8d6d580d1b10c8632f7a42cd53db8a"/>
<use xlink:href="#c_7a2040fe3b94fcd41d0a72c84e93b115" x="63.623047"/>
</g>
</g>
</g>
<g id="xtick8">
<g id="line2d12">
<defs><path id="m3b2d125790092c17af877e29e2858cbc" d="M0.000000 0.000000L0.000000 -2.000000"/></defs>
<g ><use style="fill: none; stroke: #000000; stroke-width: 0.500000; stroke-linejoin: round; stroke-linecap: butt;  opacity: 1.000000" xlink:href="#m3b2d125790092c17af877e29e2858cbc" x="70.169001" y="77.237812"/>
</g></g>
</g>
<g id="xtick9">
<g id="line2d13">
<g ><use style="fill: none; stroke: #000000; stroke-width: 0.500000; stroke-linejoin: round; stroke-linecap: butt;  opacity: 1.000000" xlink:href="#m3b2d125790092c17af877e29e2858cbc" x="94.638002" y="77.237812"/>
</g></g>
</g>
<g id="xtick10">
<g id="line2d14">
<g ><use style="fill: none; stroke: #000000; stroke-width: 0.500000; stroke-linejoin: round; stroke-linecap: butt;  opacity: 1.000000" xlink:href="#m3b2d125790092c17af877e29e2858cbc" x="119.107003" y="77.237812"/>
</g></g>
</g>
<g id="xtick11">
<g id="line2d15">
<g ><use style="fill: none; stroke: #000000; stroke-width: 0.500000; stroke-linejoin: round; stroke-linecap: butt;  opacity: 1.000000" xlink:href="#m3b2d125790092c17af877e29e2858cbc" x="168.045006" y="77.237812"/>
</g></g>
</g>
<g id="xtick12">
<g id="line2d16">
<g ><use style="fill: none; stroke: #000000; stroke-width: 0.500000; stroke-linejoin: round; stroke-linecap: butt;  opacity: 1.000000" xlink:href="#m3b2d125790092c17af877e29e2858cbc" x="192.514007" y="77.237812"/>
</g></g>
</g>
<g id="xtick13">
<g id="line2d17">
<g ><use style="fill: none; stroke: #000000; stroke-width: 0.500000; stroke-linejoin: round; stroke-linecap: butt;  opacity: 1.000000" xlink:href="#m3b2d125790092c17af877e29e2858cbc" x="216.983008" y="77.237812"/>
</g></g>
</g>
<g id="xtick14">
<g id="line2d18">
<g ><use style="fill: none; stroke: #000000; stroke-width: 0.500000; stroke-linejoin: round; stroke-linecap: butt;  opacity: 1.000000" xlink:href="#m3b2d125790092c17af877e29e2858cbc" x="265.921010" y="77.237812"/>
</g></g>
</g>
<g id="xtick15">
<g id="line2d19">
<g ><use style="fill: none; stroke: #000000; stroke-width: 0.500000; stroke-linejoin: round; stroke-linecap: butt;  opacity: 1.000000" xlink:href="#m3b2d125790092c17af877e29e2858cbc" x="290.390011" y="77.237812"/>
</g></g>
</g>
<g id="xtick16">
<g id="line2d20">
<g ><use style="fill: none; stroke: #000000; stroke-width: 0.500000; stroke-linejoin: round; stroke-linecap: butt;  opacity: 1.000000" xlink:href="#m3b2d125790092c17af877e29e2858cbc" x="314.859013" y="77.237812"/>
</g></g>
</g>
<g id="xtick17">
<g id="line2d21">
<g ><use style="fill: none; stroke: #000000; stroke-width: 0.500000; stroke-linejoin: round; stroke-linecap: butt;  opacity: 1.000000" xlink:href="#m3b2d125790092c17af877e29e2858cbc" x="363.797015" y="77.237812"/>
</g></g>
</g>
<g id="xtick18">
<g id="line2d22">
<g ><use style="fill: none; stroke: #000000; stroke-width: 0.500000; stroke-linejoin: round; stroke-linecap: butt;  opacity: 1.000000" xlink:href="#m3b2d125790092c17af877e29e2858cbc" x="388.266016" y="77.237812"/>
</g></g>
</g>
<g id="xtick19">
<g id="line2d23">
<g ><use style="fill: none; stroke: #000000; stroke-width: 0.500000; stroke-linejoin: round; stroke-linecap: butt;  opacity: 1.000000" xlink:href="#m3b2d125790092c17af877e29e2858cbc" x="412.735017" y="77.237812"/>
</g></g>
</g>
<g id="xtick20">
<g id="line2d24">
<g ><use style="fill: none; stroke: #000000; stroke-width: 0.500000; stroke-linejoin: round; stroke-linecap: butt;  opacity: 1.000000" xlink:href="#m3b2d125790092c17af877e29e2858cbc" x="461.673020" y="77.237812"/>
</g></g>
</g>
<g id="xtick21">
<g id="line2d25">
<g ><use style="fill: none; stroke: #000000; stroke-width: 0.500000; stroke-linejoin: round; stroke-linecap: butt;  opacity: 1.000000" xlink:href="#m3b2d125790092c17af877e29e2858cbc" x="486.142021" y="77.237812"/>
</g></g>
</g>
<g id="xtick22">
<g id="line2d26">
<g ><use style="fill: none; stroke: #000000; stroke-width: 0.500000; stroke-linejoin: round; stroke-linecap: butt;  opacity: 1.000000" xlink:href="#m3b2d125790092c17af877e29e2858cbc" x="510.611022" y="77.237812"/>
</g></g>
</g>
<g id="xtick23">
<g id="line2d27">
<g ><use style="fill: none; stroke: #000000; stroke-width: 0.500000; stroke-linejoin: round; stroke-linecap: butt;  opacity: 1.000000" xlink:href="#m3b2d125790092c17af877e29e2858cbc" x="559.549024" y="77.237812"/>
</g></g>
</g>
<g id="xtick24">
<g id="line2d28">
<g ><use style="fill: none; stroke: #000000; stroke-width: 0.500000; stroke-linejoin: round; stroke-linecap: butt;  opacity: 1.000000" xlink:href="#m3b2d125790092c17af877e29e2858cbc" x="584.018025" y="77.237812"/>
</g></g>
</g>
<g id="xtick25">
<g id="line2d29">
<g ><use style="fill: none; stroke: #000000; stroke-width: 0.500000; stroke-linejoin: round; stroke-linecap: butt;  opacity: 1.000000" xlink:href="#m3b2d125790092c17af877e29e2858cbc" x="608.487026" y="77.237812"/>
</g></g>
</g>
<g id="text7">
<defs>
<path id="c_0f8c41144cfbf448378cb6fd1cc8e549" d="M18.312500 -70.218750l0.000000 15.531250l18.500000 0.000000l0.000000 6.984375l-18.500000 0.000000l0.000000 29.687500q0.000000 6.687500 1.828125 8.593750q1.828125 1.906250 7.453125 1.906250l9.218750 0.000000l0.000000 7.515625l-9.218750 0.000000q-10.406250 0.000000 -14.359375 -3.875000q-3.953125 -3.890625 -3.953125 -14.140625l0.000000 -29.687500l-6.593750 0.000000l0.000000 -6.984375l6.593750 0.000000l0.000000 -15.531250z"/>
</defs>
<g style="fill: #000000; opacity: 1.000000" transform="translate(655.696154,77.237812)scale(0.100000)">
<use xlink:href="#c_0f8c41144cfbf448378cb6fd1cc8e549"/>
</g>
</g>
</g>
<g id="matplotlib.axis2">
<g id="ytick1">
<g id="line2d30">
<defs><path id="m3400efa6b1638b3fea9e19e898273957" d="M0.000000 0.000000L4.000000 0.000000"/></defs>
<g ><use style="fill: none; stroke: #000000; stroke-width: 0.500000; stroke-linejoin: round; stroke-linecap: butt;  opacity: 1.000000" xlink:href="#m3400efa6b1638b3fea9e19e898273957" x="45.700000" y="143.721253"/>
</g></g>
<g id="text8">
<defs>
<path id="c_7b26b13f539f13a4c64eef23b6952d29" d="M4.890625 -31.390625l26.312500 0.000000l0.000000 8.000000l-26.312500 0.000000z"/>
<path id="c_ed3e21196fb739f392806f09ca0594ef" d="M10.687500 -12.406250l10.312500 0.000000l0.000000 12.406250l-10.312500 0.000000z"/>
</defs>
<g style="fill: #000000; opacity: 1.000000" transform="translate(23.543750,147.299378)scale(0.100000)">
<use xlink:href="#c_7b26b13f539f13a4c64eef23b6952d29"/>
<use xlink:href="#c_42baa63129a918535c52adb20d687ea7" x="36.083984"/>
<use xlink:href="#c_ed3e21196fb739f392806f09ca0594ef" x="99.707031"/>
<use xlink:href="#c_1260a2df50f305f3db244e29828f968e" x="131.494141"/>
</g>
</g>
</g>
<g id="ytick2">
<g id="line2d31">
<g ><use style="fill: none; stroke: #000000; stroke-width: 0.500000; stroke-linejoin: round; stroke-linecap: butt;  opacity: 1.000000" xlink:href="#m3400efa6b1638b3fea9e19e898273957" x="45.700000" y="121.560106"/>
</g></g>
<g id="text9">
<g style="fill: #000000; opacity: 1.000000" transform="translate(33.137500,125.208543)scale(0.100000)">
<use xlink:href="#c_7b26b13f539f13a4c64eef23b6952d29"/>
<use xlink:href="#c_42baa63129a918535c52adb20d687ea7" x="36.083984"/>
</g>
</g>
</g>
<g id="ytick3">
<g id="line2d32">
<g ><use style="fill: none; stroke: #000000; stroke-width: 0.500000; stroke-linejoin: round; stroke-linecap: butt;  opacity: 1.000000" xlink:href="#m3400efa6b1638b3fea9e19e898273957" x="45.700000" y="99.398959"/>
</g></g>
<g id="text10">
<g style="fill: #000000; opacity: 1.000000" transform="translate(23.543750,103.039584)scale(0.100000)">
<use xlink:href="#c_7b26b13f539f13a4c64eef23b6952d29"/>
<use xlink:href="#c_7a2040fe3b94fcd41d0a72c84e93b115" x="36.083984"/>
<use xlink:href="#c_ed3e21196fb739f392806f09ca0594ef" x="99.707031"/>
<use xlink:href="#c_1260a2df50f305f3db244e29828f968e" x="131.494141"/>
</g>
</g>
</g>
<g id="ytick4">
<g id="line2d33">
<g ><use style="fill: none; stroke: #000000; stroke-width: 0.500000; stroke-linejoin: round; stroke-linecap: butt;  opacity: 1.000000" xlink:href="#m3400efa6b1638b3fea9e19e898273957" x="45.700000" y="77.237812"/>
</g></g>
</g>
<g id="ytick5">
<g id="line2d34">
<g ><use style="fill: none; stroke: #000000; stroke-width: 0.500000; stroke-linejoin: round; stroke-linecap: butt;  opacity: 1.000000" xlink:href="#m3400efa6b1638b3fea9e19e898273957" x="45.700000" y="55.076665"/>
</g></g>
<g id="text11">
<g style="fill: #000000; opacity: 1.000000" transform="translate(27.325000,58.717290)scale(0.100000)">
<use xlink:href="#c_7a2040fe3b94fcd41d0a72c84e93b115"/>
<use xlink:href="#c_ed3e21196fb739f392806f09ca0594ef" x="63.623047"/>
<use xlink:href="#c_1260a2df50f305f3db244e29828f968e" x="95.410156"/>
</g>
</g>
</g>
<g id="ytick6">
<g id="line2d35">
<g ><use style="fill: none; stroke: #000000; stroke-width: 0.500000; stroke-linejoin: round; stroke-linecap: butt;  opacity: 1.000000" xlink:href="#m3400efa6b1638b3fea9e19e898273957" x="45.700000" y="32.915519"/>
</g></g>
<g id="text12">
<g style="fill: #000000; opacity: 1.000000" transform="translate(37.356250,36.563956)scale(0.100000)">
<use xlink:href="#c_42baa63129a918535c52adb20d687ea7"/>
</g>
</g>
</g>
<g id="ytick7">
<g id="line2d36">
<defs><path id="mb39cfcf7402899e54c4d755745537394" d="M0.000000 0.000000L2.000000 0.000000"/></defs>
<g ><use style="fill: none; stroke: #000000; stroke-width: 0.500000; stroke-linejoin: round; stroke-linecap: butt;  opacity: 1.000000" xlink:href="#mb39cfcf7402899e54c4d755745537394" x="45.700000" y="139.289023"/>
</g></g>
</g>
<g id="ytick8">
<g id="line2d37">
<g ><use style="fill: none; stroke: #000000; stroke-width: 0.500000; stroke-linejoin: round; stroke-linecap: butt;  opacity: 1.000000" xlink:href="#mb39cfcf7402899e54c4d755745537394" x="45.700000" y="134.856794"/>
</g></g>
</g>
<g id="ytick9">
<g id="line2d38">
<g ><use style="fill: none; stroke: #000000; stroke-width: 0.500000; stroke-linejoin: round; stroke-linecap: butt;  opacity: 1.000000" xlink:href="#mb39cfcf7402899e54c4d755745537394" x="45.700000" y="130.424565"/>
</g></g>
</g>
<g id="ytick10">
<g id="line2d39">
<g ><use style="fill: none; stroke: #000000; stroke-width: 0.500000; stroke-linejoin: round; stroke-linecap: butt;  opacity: 1.000000" xlink:href="#mb39cfcf7402899e54c4d755745537394" x="45.700000" y="125.992335"/>
</g></g>
</g>
<g id="ytick11">
<g id="line2d40">
<g ><use style="fill: none; stroke: #000000; stroke-width: 0.500000; stroke-linejoin: round; stroke-linecap: butt;  opacity: 1.000000" xlink:href="#mb39cfcf7402899e54c4d755745537394" x="45.700000" y="117.127876"/>
</g></g>
</g>
<g id="ytick12">
<g id="line2d41">
<g ><use style="fill: none; stroke: #000000; stroke-width: 0.500000; stroke-linejoin: round; stroke-linecap: butt;  opacity: 1.000000" xlink:href="#mb39cfcf7402899e54c4d755745537394" x="45.700000" y="112.695647"/>
</g></g>
</g>
<g id="ytick13">
<g id="line2d42">
<g ><use style="fill: none; stroke: #000000; stroke-width: 0.500000; stroke-linejoin: round; stroke-linecap: butt;  opacity: 1.000000" xlink:href="#mb39cfcf7402899e54c4d755745537394" x="45.700000" y="108.263418"/>
</g></g>
</g>
<g id="ytick14">
<g id="line2d43">
<g ><use style="fill: none; stroke: #000000; stroke-width: 0.500000; stroke-linejoin: round; stroke-linecap: butt;  opacity: 1.000000" xlink:href="#mb39cfcf7402899e54c4d755745537394" x="45.700000" y="103.831188"/>
</g></g>
</g>
<g id="ytick15">
<g id="line2d44">
<g ><use style="fill: none; stroke: #000000; stroke-width: 0.500000; stroke-linejoin: round; stroke-linecap: butt;  opacity: 1.000000" xlink:href="#mb39cfcf7402899e54c4d755745537394" x="45.700000" y="94.966730"/>
</g></g>
</g>
<g id="ytick16">
<g id="line2d45">
<g ><use style="fill: none; stroke: #000000; stroke-width: 0.500000; stroke-linejoin: round; stroke-linecap: butt;  opacity: 1.000000" xlink:href="#mb39cfcf7402899e54c4d755745537394" x="45.700000" y="90.534500"/>
</g></g>
</g>
<g id="ytick17">
<g id="line2d46">
<g ><use style="fill: none; stroke: #000000; stroke-width: 0.500000; stroke-linejoin: round; stroke-linecap: butt;  opacity: 1.000000" xlink:href="#mb39cfcf7402899e54c4d755745537394" x="45.700000" y="86.102271"/>
</g></g>
</g>
<g id="ytick18">
<g id="line2d47">
<g ><use style="fill: none; stroke: #000000; stroke-width: 0.500000; stroke-linejoin: round; stroke-linecap: butt;  opacity: 1.000000" xlink:href="#mb39cfcf7402899e54c4d755745537394" x="45.700000" y="81.670042"/>
</g></g>
</g>
<g id="ytick19">
<g id="line2d48">
<g ><use style="fill: none; stroke: #000000; stroke-width: 0.500000; stroke-linejoin: round; stroke-linecap: butt;  opacity: 1.000000" xlink:href="#mb39cfcf7402899e54c4d755745537394" x="45.700000" y="72.805583"/>
</g></g>
</g>
<g id="ytick20">
<g id="line2d49">
<g ><use style="fill: none; stroke: #000000; stroke-width: 0.500000; stroke-linejoin: round; stroke-linecap: butt;  opacity: 1.000000" xlink:href="#mb39cfcf7402899e54c4d755745537394" x="45.700000" y="68.373353"/>
</g></g>
</g>
<g id="ytick21">
<g id="line2d50">
<g ><use style="fill: none; stroke: #000000; stroke-width: 0.500000; stroke-linejoin: round; stroke-linecap: butt;  opacity: 1.000000" xlink:href="#mb39cfcf7402899e54c4d755745537394" x="45.700000" y="63.941124"/>
</g></g>
</g>
<g id="ytick22">
<g id="line2d51">
<g ><use style="fill: none; stroke: #000000; stroke-width: 0.500000; stroke-linejoin: round; stroke-linecap: butt;  opacity: 1.000000" xlink:href="#mb39cfcf7402899e54c4d755745537394" x="45.700000" y="59.508895"/>
</g></g>
</g>
<g id="ytick23">
<g id="line2d52">
<g ><use style="fill: none; stroke: #000000; stroke-width: 0.500000; stroke-linejoin: round; stroke-linecap: butt;  opacity: 1.000000" xlink:href="#mb39cfcf7402899e54c4d755745537394" x="45.700000" y="50.644436"/>
</g></g>
</g>
<g id="ytick24">
<g id="line2d53">
<g ><use style="fill: none; stroke: #000000; stroke-width: 0.500000; stroke-linejoin: round; stroke-linecap: butt;  opacity: 1.000000" xlink:href="#mb39cfcf7402899e54c4d755745537394" x="45.700000" y="46.212207"/>
</g></g>
</g>
<g id="ytick25">
<g id="line2d54">
<g ><use style="fill: none; stroke: #000000; stroke-width: 0.500000; stroke-linejoin: round; stroke-linecap: butt;  opacity: 1.000000" xlink:href="#mb39cfcf7402899e54c4d755745537394" x="45.700000" y="41.779977"/>
</g></g>
</g>
<g id="ytick26">
<g id="line2d55">
<g ><use style="fill: none; stroke: #000000; stroke-width: 0.500000; stroke-linejoin: round; stroke-linecap: butt;  opacity: 1.000000" xlink:href="#mb39cfcf7402899e54c4d755745537394" x="45.700000" y="37.347748"/>
</g></g>
</g>
<g id="text13">
<defs>
<path id="c_10c4672a4a747fc082e25bf684da7a90" d="M22.015625 1.125000l-8.000000 -63.718750q-0.734375 -2.203125 -7.515625 -2.203125q-0.984375 0.000000 -0.984375 -1.312500q0.203125 -1.078125 0.484375 -1.640625q0.296875 -0.562500 1.171875 -0.562500l24.421875 0.000000q0.531250 0.000000 0.781250 0.390625q0.250000 0.390625 0.250000 0.921875q-0.390625 2.203125 -1.328125 2.203125q-7.812500 0.000000 -8.296875 2.687500l6.593750 52.296875l30.812500 -49.171875q0.875000 -1.656250 0.875000 -2.640625q0.000000 -1.750000 -1.593750 -2.453125q-1.578125 -0.718750 -3.687500 -0.718750q-1.015625 0.000000 -1.015625 -1.312500q0.187500 -0.781250 0.328125 -1.218750q0.156250 -0.453125 0.453125 -0.718750q0.296875 -0.265625 0.921875 -0.265625l19.296875 0.000000q0.921875 0.000000 0.921875 1.312500q-0.390625 2.203125 -1.312500 2.203125q-7.531250 0.000000 -11.781250 6.593750q-0.187500 0.187500 -0.328125 0.187500l-36.875000 59.140625q-0.734375 1.078125 -1.906250 1.078125l-1.406250 0.000000q-1.125000 0.000000 -1.281250 -1.078125"/>
<path id="c_06a7a4502300c60b4feec85758ecf628" d="M31.000000 24.812500q-5.562500 -4.406250 -9.593750 -10.093750q-4.015625 -5.687500 -6.593750 -12.140625q-2.562500 -6.437500 -3.828125 -13.468750q-1.265625 -7.031250 -1.265625 -14.109375q0.000000 -7.171875 1.265625 -14.203125q1.265625 -7.031250 3.875000 -13.531250q2.625000 -6.500000 6.671875 -12.156250q4.062500 -5.671875 9.468750 -9.921875q0.000000 -0.187500 0.500000 -0.187500l0.921875 0.000000q0.296875 0.000000 0.531250 0.265625q0.250000 0.265625 0.250000 0.609375q0.000000 0.437500 -0.187500 0.640625q-4.890625 4.781250 -8.140625 10.250000q-3.250000 5.468750 -5.234375 11.656250q-1.968750 6.171875 -2.843750 12.796875q-0.875000 6.609375 -0.875000 13.781250q0.000000 31.781250 16.984375 48.296875q0.296875 0.281250 0.296875 0.828125q0.000000 0.234375 -0.265625 0.546875q-0.265625 0.328125 -0.515625 0.328125l-0.921875 0.000000q-0.500000 0.000000 -0.500000 -0.187500"/>
<path id="c_d385b7bbe58e08154ff387bfd902116e" d="M6.203125 -8.109375q0.000000 -1.468750 0.296875 -2.781250l7.218750 -28.703125l-10.500000 0.000000q-1.015625 0.000000 -1.015625 -1.328125q0.390625 -2.187500 1.312500 -2.187500l11.078125 0.000000l4.015625 -16.312500q0.390625 -1.328125 1.562500 -2.250000q1.171875 -0.921875 2.625000 -0.921875q1.281250 0.000000 2.125000 0.765625q0.859375 0.750000 0.859375 2.015625q0.000000 0.296875 -0.031250 0.468750q-0.015625 0.156250 -0.062500 0.359375l-4.000000 15.875000l10.296875 0.000000q1.031250 0.000000 1.031250 1.312500q-0.062500 0.250000 -0.203125 0.843750q-0.140625 0.578125 -0.390625 0.968750q-0.250000 0.390625 -0.734375 0.390625l-10.890625 0.000000l-7.171875 28.906250q-0.734375 2.828125 -0.734375 4.875000q0.000000 4.296875 2.937500 4.296875q4.390625 0.000000 7.781250 -4.125000q3.390625 -4.125000 5.203125 -9.062500q0.390625 -0.578125 0.781250 -0.578125l1.218750 0.000000q0.390625 0.000000 0.625000 0.265625q0.250000 0.265625 0.250000 0.609375q0.000000 0.203125 -0.093750 0.296875q-2.203125 6.046875 -6.406250 10.640625q-4.187500 4.593750 -9.609375 4.593750q-3.953125 0.000000 -6.671875 -2.578125q-2.703125 -2.593750 -2.703125 -6.656250"/>
<path id="c_b865a8a4692360a5eaaff4ecf56eccf7" d="M6.500000 25.000000q-0.890625 0.000000 -0.890625 -0.875000q0.000000 -0.437500 0.203125 -0.640625q17.093750 -16.703125 17.093750 -48.484375q0.000000 -31.781250 -16.906250 -48.296875q-0.390625 -0.234375 -0.390625 -0.828125q0.000000 -0.343750 0.265625 -0.609375q0.281250 -0.265625 0.625000 -0.265625l0.921875 0.000000q0.296875 0.000000 0.484375 0.187500q7.187500 5.671875 11.968750 13.781250q4.781250 8.093750 7.000000 17.281250q2.234375 9.171875 2.234375 18.750000q0.000000 7.078125 -1.203125 13.937500q-1.203125 6.859375 -3.812500 13.515625q-2.609375 6.671875 -6.609375 12.312500q-4.000000 5.640625 -9.578125 10.046875q-0.187500 0.187500 -0.484375 0.187500z"/>
<path id="c_7d09e94cce4bdf71f2297f5bbc354b76" d="M8.687500 -11.375000q1.031250 2.921875 3.156250 5.328125q2.125000 2.390625 5.031250 3.734375q2.906250 1.328125 6.031250 1.328125q7.218750 0.000000 9.953125 -5.609375q2.734375 -5.609375 2.734375 -13.625000q0.000000 -3.468750 -0.125000 -5.828125q-0.109375 -2.375000 -0.656250 -4.562500q-0.921875 -3.515625 -3.250000 -6.156250q-2.312500 -2.640625 -5.687500 -2.640625q-3.359375 0.000000 -5.781250 1.031250q-2.421875 1.015625 -3.937500 2.390625q-1.500000 1.359375 -2.671875 2.875000q-1.171875 1.515625 -1.468750 1.609375l-1.125000 0.000000q-0.250000 0.000000 -0.625000 -0.312500q-0.359375 -0.312500 -0.359375 -0.609375l0.000000 -33.406250q0.000000 -0.234375 0.312500 -0.500000q0.328125 -0.281250 0.671875 -0.281250l0.296875 0.000000q6.734375 3.234375 14.296875 3.234375q7.421875 0.000000 14.312500 -3.234375l0.296875 0.000000q0.343750 0.000000 0.625000 0.250000q0.296875 0.250000 0.296875 0.531250l0.000000 0.937500q0.000000 0.484375 -0.187500 0.484375q-3.421875 4.546875 -8.578125 7.093750q-5.156250 2.531250 -10.671875 2.531250q-4.000000 0.000000 -8.203125 -1.125000l0.000000 18.890625q3.328125 -2.687500 5.937500 -3.828125q2.609375 -1.156250 6.671875 -1.156250q5.515625 0.000000 9.875000 3.187500q4.375000 3.171875 6.718750 8.281250q2.343750 5.093750 2.343750 10.406250q0.000000 6.015625 -2.953125 11.140625q-2.953125 5.125000 -8.031250 8.156250q-5.078125 3.031250 -11.031250 3.031250q-4.937500 0.000000 -9.062500 -2.531250q-4.125000 -2.546875 -6.500000 -6.843750q-2.359375 -4.296875 -2.359375 -9.140625q0.000000 -2.250000 1.453125 -3.656250q1.468750 -1.421875 3.671875 -1.421875q2.203125 0.000000 3.687500 1.453125q1.484375 1.437500 1.484375 3.625000q0.000000 2.156250 -1.484375 3.640625q-1.484375 1.484375 -3.687500 1.484375q-0.343750 0.000000 -0.781250 -0.062500q-0.437500 -0.078125 -0.640625 -0.125000"/>
<path id="c_f47f2818876b2f1a61c47f270461e46e" d="M25.000000 2.203125q-12.250000 0.000000 -16.671875 -10.078125q-4.421875 -10.093750 -4.421875 -24.015625q0.000000 -8.687500 1.578125 -16.343750q1.593750 -7.671875 6.296875 -13.015625q4.718750 -5.359375 13.218750 -5.359375q6.593750 0.000000 10.781250 3.234375q4.203125 3.218750 6.406250 8.328125q2.203125 5.093750 3.000000 10.937500q0.812500 5.828125 0.812500 12.218750q0.000000 8.593750 -1.593750 16.093750q-1.578125 7.500000 -6.218750 12.750000q-4.640625 5.250000 -13.187500 5.250000M25.000000 -0.390625q5.562500 0.000000 8.296875 -5.703125q2.734375 -5.718750 3.375000 -12.656250q0.640625 -6.937500 0.640625 -14.750000q0.000000 -7.515625 -0.640625 -13.859375q-0.640625 -6.359375 -3.359375 -11.500000q-2.703125 -5.156250 -8.312500 -5.156250q-5.656250 0.000000 -8.390625 5.187500q-2.734375 5.171875 -3.375000 11.500000q-0.640625 6.312500 -0.640625 13.828125q0.000000 5.562500 0.265625 10.500000q0.281250 4.937500 1.453125 10.187500q1.171875 5.250000 3.781250 8.843750q2.609375 3.578125 6.906250 3.578125"/>
<path id="c_01bd98e0cf1b355b13e73042b8c9bdee" d="M9.906250 18.015625q0.000000 -0.437500 0.390625 -0.828125q3.625000 -3.468750 5.625000 -8.015625q2.000000 -4.531250 2.000000 -9.562500l0.000000 -1.218750q-1.609375 1.609375 -4.000000 1.609375q-2.296875 0.000000 -3.906250 -1.609375q-1.609375 -1.609375 -1.609375 -3.906250q0.000000 -2.343750 1.609375 -3.906250q1.609375 -1.562500 3.906250 -1.562500q3.562500 0.000000 5.078125 3.296875q1.515625 3.296875 1.515625 7.296875q0.000000 5.562500 -2.234375 10.562500q-2.218750 5.015625 -6.265625 9.015625q-0.390625 0.203125 -0.640625 0.203125q-0.484375 0.000000 -0.984375 -0.453125q-0.484375 -0.437500 -0.484375 -0.921875"/>
<path id="c_560614b1ec0287947e12f151dc8b925e" d="M7.718750 -1.703125q0.000000 -0.593750 0.093750 -0.890625l7.468750 -29.828125q0.734375 -2.781250 0.734375 -4.890625q0.000000 -4.296875 -2.921875 -4.296875q-3.125000 0.000000 -4.640625 3.750000q-1.515625 3.734375 -2.937500 9.437500q0.000000 0.296875 -0.296875 0.468750q-0.281250 0.171875 -0.531250 0.171875l-1.171875 0.000000q-0.343750 0.000000 -0.593750 -0.359375q-0.234375 -0.375000 -0.234375 -0.671875q1.078125 -4.343750 2.078125 -7.359375q1.000000 -3.031250 3.125000 -5.515625q2.125000 -2.500000 5.296875 -2.500000q3.750000 0.000000 6.625000 2.375000q2.890625 2.359375 2.890625 6.015625q2.984375 -3.906250 6.984375 -6.140625q4.000000 -2.250000 8.500000 -2.250000q4.734375 0.000000 8.171875 2.421875q3.453125 2.406250 3.453125 6.859375q3.062500 -4.359375 7.187500 -6.812500q4.140625 -2.468750 9.015625 -2.468750q5.171875 0.000000 8.312500 2.812500q3.156250 2.796875 3.156250 7.968750q0.000000 4.109375 -1.828125 9.921875q-1.828125 5.812500 -4.562500 12.984375q-1.421875 3.468750 -1.421875 6.000000q0.000000 2.984375 2.343750 2.984375q3.906250 0.000000 6.500000 -4.187500q2.593750 -4.203125 3.656250 -9.000000q0.296875 -0.578125 0.843750 -0.578125l1.171875 0.000000q0.390625 0.000000 0.656250 0.265625q0.265625 0.265625 0.265625 0.609375q0.000000 0.093750 -0.093750 0.296875q-1.375000 5.656250 -4.765625 10.453125q-3.390625 4.781250 -8.468750 4.781250q-3.515625 0.000000 -6.015625 -2.421875q-2.484375 -2.421875 -2.484375 -5.875000q0.000000 -1.765625 0.828125 -3.906250q2.828125 -7.531250 4.703125 -13.437500q1.890625 -5.906250 1.890625 -10.390625q0.000000 -2.796875 -1.125000 -4.750000q-1.125000 -1.953125 -3.750000 -1.953125q-5.468750 0.000000 -9.484375 3.359375q-4.000000 3.343750 -6.921875 8.859375q-0.203125 0.968750 -0.296875 1.515625l-6.453125 25.671875q-0.343750 1.375000 -1.546875 2.343750q-1.187500 0.984375 -2.640625 0.984375q-1.171875 0.000000 -2.078125 -0.781250q-0.906250 -0.781250 -0.906250 -2.046875q0.000000 -0.593750 0.093750 -0.890625l6.406250 -25.484375q1.015625 -4.093750 1.015625 -6.828125q0.000000 -2.796875 -1.156250 -4.750000q-1.140625 -1.953125 -3.875000 -1.953125q-3.656250 0.000000 -6.734375 1.625000q-3.078125 1.609375 -5.375000 4.265625q-2.296875 2.656250 -4.187500 6.328125l-6.796875 27.187500q-0.343750 1.375000 -1.546875 2.343750q-1.187500 0.984375 -2.656250 0.984375q-1.218750 0.000000 -2.093750 -0.781250q-0.875000 -0.781250 -0.875000 -2.046875"/>
<path id="c_67cd85fdc1376f0c16fbfb0d8c843807" d="M5.328125 -1.812500q0.000000 -0.578125 0.093750 -0.875000l14.500000 -57.812500q0.390625 -1.703125 0.484375 -2.687500q0.000000 -1.609375 -6.484375 -1.609375q-1.031250 0.000000 -1.031250 -1.312500q0.046875 -0.250000 0.218750 -0.875000q0.171875 -0.640625 0.437500 -0.984375q0.265625 -0.343750 0.765625 -0.343750l13.468750 -1.078125l0.296875 0.000000q0.000000 0.109375 0.343750 0.281250q0.343750 0.156250 0.390625 0.218750q0.187500 0.484375 0.187500 0.781250l-7.812500 31.187500q6.156250 -7.265625 14.609375 -7.265625q3.515625 0.000000 6.078125 1.218750q2.562500 1.218750 4.000000 3.687500q1.437500 2.468750 1.437500 5.875000q0.000000 4.109375 -1.828125 9.921875q-1.828125 5.812500 -4.562500 12.984375q-1.421875 3.265625 -1.421875 6.000000q0.000000 2.984375 2.296875 2.984375q3.906250 0.000000 6.515625 -4.171875q2.609375 -4.171875 3.687500 -9.015625q0.203125 -0.578125 0.781250 -0.578125l1.218750 0.000000q0.390625 0.000000 0.640625 0.265625q0.250000 0.265625 0.250000 0.609375q0.000000 0.093750 -0.109375 0.296875q-0.875000 3.609375 -2.609375 7.109375q-1.734375 3.484375 -4.375000 5.812500q-2.625000 2.312500 -6.187500 2.312500q-3.515625 0.000000 -6.015625 -2.421875q-2.484375 -2.421875 -2.484375 -5.875000q0.000000 -1.859375 0.781250 -3.906250q2.828125 -7.531250 4.703125 -13.437500q1.890625 -5.906250 1.890625 -10.390625q0.000000 -2.890625 -1.125000 -4.796875q-1.125000 -1.906250 -3.765625 -1.906250q-5.375000 0.000000 -9.375000 3.296875q-4.000000 3.296875 -6.937500 8.718750l-6.781250 27.296875q-0.390625 1.515625 -1.515625 2.468750q-1.125000 0.953125 -2.578125 0.953125q-1.281250 0.000000 -2.187500 -0.859375q-0.890625 -0.859375 -0.890625 -2.078125"/>
<path id="c_4e79783b4799b416f9678acefc53a48a" d="M7.718750 -1.703125q0.000000 -0.593750 0.093750 -0.890625l7.468750 -29.828125q0.734375 -2.781250 0.734375 -4.890625q0.000000 -4.296875 -2.921875 -4.296875q-3.125000 0.000000 -4.640625 3.750000q-1.515625 3.734375 -2.937500 9.437500q0.000000 0.296875 -0.296875 0.468750q-0.281250 0.171875 -0.531250 0.171875l-1.171875 0.000000q-0.343750 0.000000 -0.593750 -0.359375q-0.234375 -0.375000 -0.234375 -0.671875q1.078125 -4.343750 2.078125 -7.359375q1.000000 -3.031250 3.125000 -5.515625q2.125000 -2.500000 5.296875 -2.500000q3.750000 0.000000 6.625000 2.375000q2.890625 2.359375 2.890625 6.015625q2.984375 -3.906250 6.984375 -6.140625q4.000000 -2.250000 8.500000 -2.250000q3.562500 0.000000 6.140625 1.218750q2.593750 1.218750 4.031250 3.687500q1.453125 2.468750 1.453125 5.875000q0.000000 4.109375 -1.843750 9.921875q-1.828125 5.812500 -4.562500 12.984375q-1.406250 3.265625 -1.406250 6.000000q0.000000 2.984375 2.281250 2.984375q3.906250 0.000000 6.515625 -4.187500q2.625000 -4.203125 3.703125 -9.000000q0.187500 -0.578125 0.828125 -0.578125l1.171875 0.000000q0.390625 0.000000 0.656250 0.250000q0.265625 0.234375 0.265625 0.625000q0.000000 0.093750 -0.093750 0.296875q-1.375000 5.656250 -4.765625 10.453125q-3.390625 4.781250 -8.468750 4.781250q-3.515625 0.000000 -6.015625 -2.421875q-2.484375 -2.421875 -2.484375 -5.875000q0.000000 -1.859375 0.781250 -3.906250q1.265625 -3.281250 2.906250 -7.812500q1.640625 -4.546875 2.687500 -8.687500q1.046875 -4.156250 1.046875 -7.328125q0.000000 -2.796875 -1.156250 -4.750000q-1.140625 -1.953125 -3.875000 -1.953125q-3.656250 0.000000 -6.734375 1.625000q-3.078125 1.609375 -5.375000 4.265625q-2.296875 2.656250 -4.187500 6.328125l-6.796875 27.187500q-0.343750 1.375000 -1.546875 2.343750q-1.187500 0.984375 -2.656250 0.984375q-1.218750 0.000000 -2.093750 -0.781250q-0.875000 -0.781250 -0.875000 -2.046875"/>
</defs>
<g id="mathtext1">
<g style="fill: #000000" transform="translate(7.200000,23.200000)">
<use xlink:href="#c_10c4672a4a747fc082e25bf684da7a90" transform="translate(0.000000,-10.750000)scale(0.070000)"/>
<use xlink:href="#c_06a7a4502300c60b4feec85758ecf628" transform="translate(4.081055,-10.750000)scale(0.070000)"/>
<use xlink:href="#c_d385b7bbe58e08154ff387bfd902116e" transform="translate(6.798340,-10.750000)scale(0.070000)"/>
<use xlink:href="#c_b865a8a4692360a5eaaff4ecf56eccf7" transform="translate(9.324219,-10.750000)scale(0.070000)"/>
<use xlink:href="#c_7d09e94cce4bdf71f2297f5bbc354b76" transform="translate(3.000000,-1.215625)scale(0.070000)"/>
<use xlink:href="#c_f47f2818876b2f1a61c47f270461e46e" transform="translate(6.500000,-1.215625)scale(0.070000)"/>
<use xlink:href="#c_01bd98e0cf1b355b13e73042b8c9bdee" transform="translate(13.291504,-5.250000)scale(0.100000)"/>
<use xlink:href="#c_560614b1ec0287947e12f151dc8b925e" transform="translate(16.250488,-5.250000)scale(0.100000)"/>
<use xlink:href="#c_06a7a4502300c60b4feec85758ecf628" transform="translate(25.029785,-5.250000)scale(0.100000)"/>
<use xlink:href="#c_d385b7bbe58e08154ff387bfd902116e" transform="translate(28.911621,-5.250000)scale(0.100000)"/>
<use xlink:href="#c_b865a8a4692360a5eaaff4ecf56eccf7" transform="translate(32.520020,-5.250000)scale(0.100000)"/>
<use xlink:href="#c_01bd98e0cf1b355b13e73042b8c9bdee" transform="translate(36.401855,-5.250000)scale(0.100000)"/>
<use xlink:href="#c_67cd85fdc1376f0c16fbfb0d8c843807" transform="translate(39.360840,-5.250000)scale(0.100000)"/>
<use xlink:href="#c_06a7a4502300c60b4feec85758ecf628" transform="translate(45.122559,-5.250000)scale(0.100000)"/>
<use xlink:href="#c_d385b7bbe58e08154ff387bfd902116e" transform="translate(49.004395,-5.250000)scale(0.100000)"/>
<use xlink:href="#c_b865a8a4692360a5eaaff4ecf56eccf7" transform="translate(52.612793,-5.250000)scale(0.100000)"/>
<use xlink:href="#c_01bd98e0cf1b355b13e73042b8c9bdee" transform="translate(56.494629,-5.250000)scale(0.100000)"/>
<use xlink:href="#c_4e79783b4799b416f9678acefc53a48a" transform="translate(59.453613,-5.250000)scale(0.100000)"/>
<use xlink:href="#c_06a7a4502300c60b4feec85758ecf628" transform="translate(65.454590,-5.250000)scale(0.100000)"/>
<use xlink:href="#c_d385b7bbe58e08154ff387bfd902116e" transform="translate(69.336426,-5.250000)scale(0.100000)"/>
<use xlink:href="#c_b865a8a4692360a5eaaff4ecf56eccf7" transform="translate(72.944824,-5.250000)scale(0.100000)"/>
</g>
<g style="fill: #000000; stroke: none" transform="translate(7.200000,23.200000)">
<rect x="0.000000" y="-7.500000" width="12.041504" height="0.625000" fill="black" stroke="none" /></g></g>
</g>
</g>
<g id="patch3">
<path style="fill: none; stroke: #000000; stroke-width: 0.800000; stroke-linejoin: round; stroke-linecap: square;  opacity: 1.000000"  d="M33.896154 77.237812L647.696154 77.237812"/>
</g>
<g id="patch4">
<path style="fill: none; stroke: #000000; stroke-width: 0.800000; stroke-linejoin: round; stroke-linecap: square;  opacity: 1.000000"  d="M45.700000 146.400000L45.700000 31.200000"/>
</g>
</g>
</g>
</svg>
