<?xml version="1.0" encoding="utf-8" standalone="no"?>
<!DOCTYPE svg PUBLIC "-//W3C//DTD SVG 1.1//EN"
  "http://www.w3.org/Graphics/SVG/1.1/DTD/svg11.dtd">
<!-- Created with matplotlib (http://matplotlib.org/) -->
<svg height="258pt" version="1.1" viewBox="0 0 263 258" width="263pt" xmlns="http://www.w3.org/2000/svg" xmlns:xlink="http://www.w3.org/1999/xlink">
 <defs>
  <style type="text/css">
*{stroke-linecap:square;stroke-linejoin:round;}
  </style>
 </defs>
 <g id="figure_1">
  <g id="patch_1">
   <path d="
M1.9984e-15 258.844
L263.989 258.844
L263.989 0
L1.9984e-15 0
z
" style="fill:#ffffff;"/>
  </g>
  <g id="axes_1">
   <g id="patch_2">
    <path d="
M16.5125 240.08
L249.392 240.08
L249.392 7.2
L16.5125 7.2
z
" style="fill:#ffffff;"/>
   </g>
   <g id="LineCollection_1">
    <defs>
     <path d="
M43.3833 -23.2425
L43.5336 -23.5431
L44.1347 -24.7454
L44.8861 -26.2482
L45.0364 -26.5488
L45.6375 -27.751
L46.3889 -29.2539
L46.5392 -29.5544
L47.1404 -30.7567
L47.8918 -32.2596
L48.0421 -32.5601
L48.6432 -33.7624
L49.3946 -35.2652
L49.5449 -35.5658
L50.146 -36.7681
L50.8975 -38.2709
L51.0478 -38.5715
L51.6489 -39.7738
L52.4003 -41.2766
L52.5506 -41.5772
L53.1517 -42.7794
L53.9031 -44.2823
L54.0534 -44.5828
L54.6546 -45.7851
L55.406 -47.288
L55.5563 -47.5885
L56.1574 -48.7908
L56.9088 -50.2936
L57.0591 -50.5942
L57.6602 -51.7965
L58.4117 -53.2993
L58.5619 -53.5999
L59.1631 -54.8022
L59.9145 -56.305
L60.0648 -56.6056
L60.6659 -57.8078
L61.4173 -59.3107
L61.5676 -59.6112
L62.1688 -60.8135
L62.9202 -62.3163
L63.0705 -62.6169
L63.6716 -63.8192
L64.423 -65.322
L64.5733 -65.6226
L65.1744 -66.8249
L65.9259 -68.3277
L66.0761 -68.6283
L66.6773 -69.8305
L67.4287 -71.3334
L67.579 -71.634
L68.1801 -72.8362
L68.9315 -74.3391
L69.0818 -74.6396
L69.683 -75.8419
L70.4344 -77.3447
L70.5847 -77.6453
L71.1858 -78.8476
L71.9372 -80.3504
L72.0875 -80.651
L72.6886 -81.8533
L73.4401 -83.3561
L73.5903 -83.6567
L74.1915 -84.8589
L74.9429 -86.3618
L75.0932 -86.6623
L75.6943 -87.8646
L76.4457 -89.3675
L76.596 -89.668
L77.1972 -90.8703
L77.9486 -92.3731
L78.0989 -92.6737
L78.7 -93.876
L79.4514 -95.3788
L79.6017 -95.6794
L80.2028 -96.8817
L80.9543 -98.3845
L81.1045 -98.6851
L81.7057 -99.8873
L82.4571 -101.39
L82.6074 -101.691
L83.2085 -102.893
L83.9599 -104.396
L84.1102 -104.696
L84.7114 -105.899
L85.4628 -107.402
L85.6131 -107.702
L86.2142 -108.904
L86.9656 -110.407
L87.1159 -110.708
L87.717 -111.91
L88.4685 -113.413
L88.6187 -113.713
L89.2199 -114.916
L89.9713 -116.419
L90.1216 -116.719
L90.7227 -117.921
L91.4741 -119.424
L91.6244 -119.725
L92.2256 -120.927
L92.977 -122.43
L93.1273 -122.73
L93.7284 -123.933
L94.4798 -125.436
L94.6301 -125.736
L95.2312 -126.938
L95.9826 -128.441
L96.1329 -128.742
L96.7341 -129.944
L97.4855 -131.447
L97.6358 -131.748
L98.2369 -132.95
L98.9883 -134.453
L99.1386 -134.753
L99.7397 -135.955
L100.491 -137.458
L100.641 -137.759
L101.243 -138.961
L101.994 -140.464
L102.144 -140.765
L102.745 -141.967
L103.497 -143.47
L103.647 -143.77
L104.248 -144.973
L105 -146.475
L105.15 -146.776
L105.751 -147.978
L106.503 -149.481
L106.653 -149.782
L107.254 -150.984
L108.005 -152.487
L108.156 -152.787
L108.757 -153.99
L109.508 -155.492
L109.658 -155.793
L110.26 -156.995
L111.011 -158.498
L111.161 -158.799
L111.762 -160.001
L112.514 -161.504
L112.664 -161.804
L113.265 -163.007
L114.017 -164.509
L114.167 -164.81
L114.768 -166.012
L115.52 -167.515
L115.67 -167.816
L116.271 -169.018
L117.022 -170.521
L117.173 -170.821
L117.774 -172.024
L118.525 -173.526
L118.676 -173.827
L119.277 -175.029
L120.028 -176.532
L120.178 -176.833
L120.78 -178.035
L121.531 -179.538
L121.681 -179.838
L122.282 -181.041
L123.034 -182.544
L123.184 -182.844
L123.785 -184.046
L124.537 -185.549
L124.687 -185.85
L125.288 -187.052
L126.039 -188.555
L126.19 -188.855
L126.791 -190.058
L127.542 -191.561
L127.693 -191.861
L128.294 -193.063
L129.045 -194.566
L129.195 -194.867
L129.797 -196.069
L130.548 -197.572
L130.698 -197.872
L131.299 -199.075
L132.051 -200.578
L132.201 -200.878
L132.802 -202.08
L133.554 -203.583
L133.704 -203.884
L134.305 -205.086
L135.056 -206.589
L135.207 -206.89
L135.808 -208.092
L136.559 -209.595
L136.71 -209.895
L137.311 -211.097
L138.062 -212.6
L138.212 -212.901
L138.814 -214.103
L139.565 -215.606
L139.715 -215.907
L140.316 -217.109
L141.068 -218.612
L141.218 -218.912
L141.819 -220.114
L142.571 -221.617
L142.721 -221.918
L143.322 -223.12
L144.074 -224.623
L144.224 -224.924
L144.825 -226.126
L145.576 -227.629
L145.727 -227.929
L146.328 -229.132
L147.079 -230.634
L147.229 -230.935
L147.831 -232.137
L148.582 -233.64
L148.732 -233.941
L149.333 -235.143
L150.085 -236.646
L150.235 -236.946
L150.836 -238.149
L151.588 -239.651
L151.738 -239.952
L152.339 -241.154
L153.091 -242.657
L153.241 -242.958
L153.842 -244.16
L154.593 -245.663
L154.744 -245.963
L155.345 -247.166" id="C0_0_7c7a08343c"/>
    </defs>
    <g clip-path="url(#p8364a59092)">
     <use style="fill:none;stroke:#ff0000;stroke-linecap:butt;" x="0" xlink:href="#C0_0_7c7a08343c" y="258.8440625"/>
    </g>
   </g>
   <g id="LineCollection_2">
    <defs>
     <path d="
M43.3833 -23.2425
L43.5336 -23.5431
L44.1347 -24.7454
L44.8861 -26.2482
L45.0364 -26.5488
L45.6375 -27.751
L46.3889 -29.2539
L46.5392 -29.5544
L47.1404 -30.7567
L47.8918 -32.2596
L48.0421 -32.5601
L48.6432 -33.7624
L49.3946 -35.2652
L49.5449 -35.5658
L50.146 -36.7681
L50.8975 -38.2709
L51.0478 -38.5715
L51.6489 -39.7738
L52.4003 -41.2766
L52.5506 -41.5772
L53.1517 -42.7794
L53.9031 -44.2823
L54.0534 -44.5828
L54.6546 -45.7851
L55.406 -47.288
L55.5563 -47.5885
L56.1574 -48.7908
L56.9088 -50.2936
L57.0591 -50.5942
L57.6602 -51.7965
L58.4117 -53.2993
L58.5619 -53.5999
L59.1631 -54.8022
L59.9145 -56.305
L60.0648 -56.6056
L60.6659 -57.8078
L61.4173 -59.3107
L61.5676 -59.6112
L62.1688 -60.8135
L62.9202 -62.3163
L63.0705 -62.6169
L63.6716 -63.8192
L64.423 -65.322
L64.5733 -65.6226
L65.1744 -66.8249
L65.9259 -68.3277
L66.0761 -68.6283
L66.6773 -69.8305
L67.4287 -71.3334
L67.579 -71.634
L68.1801 -72.8362
L68.9315 -74.3391
L69.0818 -74.6396
L69.683 -75.8419
L70.4344 -77.3447
L70.5847 -77.6453
L71.1858 -78.8476
L71.9372 -80.3504
L72.0875 -80.651
L72.6886 -81.8533
L73.4401 -83.3561
L73.5903 -83.6567
L74.1915 -84.8589
L74.9429 -86.3618
L75.0932 -86.6623
L75.6943 -87.8646
L76.4457 -89.3675
L76.596 -89.668
L77.1972 -90.8703
L77.9486 -92.3731
L78.0989 -92.6737
L78.7 -93.876
L79.4514 -95.3788
L79.6017 -95.6794
L80.2028 -96.8817
L80.9543 -98.3845
L81.1045 -98.6851
L81.7057 -99.8873
L82.4571 -101.39
L82.6074 -101.691
L83.2085 -102.893
L83.9599 -104.396
L84.1102 -104.696
L84.7114 -105.899
L85.4628 -107.402
L85.6131 -107.702
L86.2142 -108.904
L86.9656 -110.407
L87.1159 -110.708
L87.717 -111.91
L88.4685 -113.413
L88.6187 -113.713
L89.2199 -114.916
L89.9713 -116.419
L90.1216 -116.719
L90.7227 -117.921
L91.4741 -119.424
L91.6244 -119.725
L92.2256 -120.927
L92.977 -122.43
L93.1273 -122.73
L93.7284 -123.933
L94.4798 -125.436
L94.6301 -125.736
L95.2312 -126.938
L95.9826 -128.441
L96.1329 -128.742
L96.7341 -129.944
L97.4855 -131.447
L97.6358 -131.748
L98.2369 -132.95
L98.9883 -134.453
L99.1386 -134.753
L99.7397 -135.955
L100.491 -137.458
L100.641 -137.759
L101.243 -138.961
L101.994 -140.464
L102.144 -140.765
L102.745 -141.967
L103.497 -143.47
L103.647 -143.77
L104.248 -144.973
L105 -146.475
L105.15 -146.776
L105.751 -147.978
L106.503 -149.481
L106.653 -149.782
L107.254 -150.984
L108.005 -152.487
L108.156 -152.787
L108.757 -153.99
L109.508 -155.492
L109.658 -155.793
L110.26 -156.995
L111.011 -158.498
L111.161 -158.799
L111.762 -160.001
L112.514 -161.504
L112.664 -161.804
L113.265 -163.007
L114.017 -164.509
L114.167 -164.81
L114.768 -166.012
L115.52 -167.515
L115.67 -167.816
L116.271 -169.018
L117.022 -170.521
L117.173 -170.821
L117.774 -172.024
L118.525 -173.526
L118.676 -173.827
L119.277 -175.029
L120.028 -176.532
L120.178 -176.833
L120.78 -178.035
L121.531 -179.538
L121.681 -179.838
L122.282 -181.041
L123.034 -182.544
L123.184 -182.844
L123.785 -184.046
L124.537 -185.549
L124.687 -185.85
L125.288 -187.052
L126.039 -188.555
L126.19 -188.855
L126.791 -190.058
L127.542 -191.561
L127.693 -191.861
L128.294 -193.063
L129.045 -194.566
L129.195 -194.867
L129.797 -196.069
L130.548 -197.572
L130.698 -197.872
L131.299 -199.075
L132.051 -200.578
L132.201 -200.878
L132.802 -202.08
L133.554 -203.583
L133.704 -203.884
L134.305 -205.086
L135.056 -206.589
L135.207 -206.89
L135.808 -208.092
L136.559 -209.595
L136.71 -209.895
L137.311 -211.097
L138.062 -212.6
L138.212 -212.901
L138.814 -214.103
L139.565 -215.606
L139.715 -215.907
L140.316 -217.109
L141.068 -218.612
L141.218 -218.912
L141.819 -220.114
L142.571 -221.617
L142.721 -221.918
L143.322 -223.12
L144.074 -224.623
L144.224 -224.924
L144.825 -226.126
L145.576 -227.629
L145.727 -227.929
L146.328 -229.132
L147.079 -230.634
L147.229 -230.935
L147.831 -232.137
L148.582 -233.64
L148.732 -233.941
L149.333 -235.143
L150.085 -236.646
L150.235 -236.946
L150.836 -238.149
L151.588 -239.651
L151.738 -239.952
L152.339 -241.154
L153.091 -242.657
L153.241 -242.958
L153.842 -244.16
L154.593 -245.663
L154.744 -245.963
L155.345 -247.166" id="C1_0_7c7a08343c"/>
    </defs>
    <g clip-path="url(#p8364a59092)">
     <use style="fill:none;stroke:#ff0000;stroke-linecap:butt;" x="0" xlink:href="#C1_0_7c7a08343c" y="258.8440625"/>
    </g>
   </g>
   <g id="LineCollection_3">
    <defs>
     <path d="
M244.914 -23.2425
L243.411 -24.7454
L243.411 -24.7454
L241.908 -26.2482
L241.908 -26.2482
L240.406 -27.751
L240.406 -27.751
L238.903 -29.2539
L238.903 -29.2539
L237.4 -30.7567
L237.4 -30.7567
L235.897 -32.2596
L235.897 -32.2596
L234.394 -33.7624
L234.394 -33.7624
L232.891 -35.2652
L232.891 -35.2652
L231.388 -36.7681
L231.388 -36.7681
L229.886 -38.2709
L229.886 -38.2709
L228.383 -39.7738
L228.383 -39.7738
L226.88 -41.2766
L226.88 -41.2766
L225.377 -42.7794
L225.377 -42.7794
L223.874 -44.2823
L223.874 -44.2823
L222.371 -45.7851
L222.371 -45.7851
L220.869 -47.288
L220.869 -47.288
L219.366 -48.7908
L219.366 -48.7908
L217.863 -50.2936
L217.863 -50.2936
L216.36 -51.7965
L216.36 -51.7965
L214.857 -53.2993
L214.857 -53.2993
L213.354 -54.8022
L213.354 -54.8022
L211.852 -56.305
L211.852 -56.305
L210.349 -57.8078
L210.349 -57.8078
L208.846 -59.3107
L208.846 -59.3107
L207.343 -60.8135
L207.343 -60.8135
L205.84 -62.3163
L205.84 -62.3163
L204.337 -63.8192
L204.337 -63.8192
L202.835 -65.322
L202.835 -65.322
L201.332 -66.8249
L201.332 -66.8249
L199.829 -68.3277
L199.829 -68.3277
L198.326 -69.8305
L198.326 -69.8305
L196.823 -71.3334
L196.823 -71.3334
L195.32 -72.8362
L195.32 -72.8362
L193.817 -74.3391
L193.817 -74.3391
L192.315 -75.8419
L192.315 -75.8419
L190.812 -77.3447
L190.812 -77.3447
L189.309 -78.8476
L189.309 -78.8476
L187.806 -80.3504
L187.806 -80.3504
L186.303 -81.8533
L186.303 -81.8533
L184.8 -83.3561
L184.8 -83.3561
L183.298 -84.8589
L183.298 -84.8589
L181.795 -86.3618
L181.795 -86.3618
L180.292 -87.8646
L180.292 -87.8646
L178.789 -89.3675
L178.789 -89.3675
L177.286 -90.8703
L177.286 -90.8703
L175.783 -92.3731
L175.783 -92.3731
L174.281 -93.876
L174.281 -93.876
L172.778 -95.3788
L172.778 -95.3788
L171.275 -96.8817
L171.275 -96.8817
L169.772 -98.3845
L169.772 -98.3845
L168.269 -99.8873
L168.269 -99.8873
L166.766 -101.39
L166.766 -101.39
L165.264 -102.893
L165.264 -102.893
L163.761 -104.396
L163.761 -104.396
L162.258 -105.899
L162.258 -105.899
L160.755 -107.402
L160.755 -107.402
L159.252 -108.904
L159.252 -108.904
L157.749 -110.407
L157.749 -110.407
L156.247 -111.91
L156.247 -111.91
L154.744 -113.413
L154.744 -113.413
L153.241 -114.916
L153.241 -114.916
L151.738 -116.419
L151.738 -116.419
L150.235 -117.921
L150.235 -117.921
L148.732 -119.424
L148.732 -119.424
L147.229 -120.927
L147.229 -120.927
L145.727 -122.43
L145.727 -122.43
L144.224 -123.933
L144.224 -123.933
L142.721 -125.436
L142.721 -125.436
L141.218 -126.938
L141.218 -126.938
L139.715 -128.441
L139.715 -128.441
L138.212 -129.944
L138.212 -129.944
L136.71 -131.447
L136.71 -131.447
L135.207 -132.95
L135.207 -132.95
L133.704 -134.453
L133.704 -134.453
L132.201 -135.955
L132.201 -135.955
L130.698 -137.458
L130.698 -137.458
L129.195 -138.961
L129.195 -138.961
L127.693 -140.464
L127.693 -140.464
L126.19 -141.967
L126.19 -141.967
L124.687 -143.47
L124.687 -143.47
L123.184 -144.973
L123.184 -144.973
L121.681 -146.475
L121.681 -146.475
L120.178 -147.978
L120.178 -147.978
L118.676 -149.481
L118.676 -149.481
L117.173 -150.984
L117.173 -150.984
L115.67 -152.487
L115.67 -152.487
L114.167 -153.99
L114.167 -153.99
L112.664 -155.492
L112.664 -155.492
L111.161 -156.995
L111.161 -156.995
L109.658 -158.498
L109.658 -158.498
L108.156 -160.001
L108.156 -160.001
L106.653 -161.504
L106.653 -161.504
L105.15 -163.007
L105.15 -163.007
L103.647 -164.509
L103.647 -164.509
L102.144 -166.012
L102.144 -166.012
L100.641 -167.515
L100.641 -167.515
L99.1386 -169.018
L99.1386 -169.018
L97.6358 -170.521
L97.6358 -170.521
L96.1329 -172.024
L96.1329 -172.024
L94.6301 -173.526
L94.6301 -173.526
L93.1273 -175.029
L93.1273 -175.029
L91.6244 -176.532
L91.6244 -176.532
L90.1216 -178.035
L90.1216 -178.035
L88.6187 -179.538
L88.6187 -179.538
L87.1159 -181.041
L87.1159 -181.041
L85.6131 -182.544
L85.6131 -182.544
L84.1102 -184.046
L84.1102 -184.046
L82.6074 -185.549
L82.6074 -185.549
L81.1045 -187.052
L81.1045 -187.052
L79.6017 -188.555
L79.6017 -188.555
L78.0989 -190.058
L78.0989 -190.058
L76.596 -191.561
L76.596 -191.561
L75.0932 -193.063
L75.0932 -193.063
L73.5903 -194.566
L73.5903 -194.566
L72.0875 -196.069
L72.0875 -196.069
L70.5847 -197.572
L70.5847 -197.572
L69.0818 -199.075
L69.0818 -199.075
L67.579 -200.578
L67.579 -200.578
L66.0761 -202.08
L66.0761 -202.08
L64.5733 -203.583
L64.5733 -203.583
L63.0705 -205.086
L63.0705 -205.086
L61.5676 -206.589
L61.5676 -206.589
L60.0648 -208.092
L60.0648 -208.092
L58.5619 -209.595
L58.5619 -209.595
L57.0591 -211.097
L57.0591 -211.097
L55.5563 -212.6
L55.5563 -212.6
L54.0534 -214.103
L54.0534 -214.103
L52.5506 -215.606
L52.5506 -215.606
L51.0478 -217.109
L51.0478 -217.109
L49.5449 -218.612
L49.5449 -218.612
L48.0421 -220.114
L48.0421 -220.114
L46.5392 -221.617
L46.5392 -221.617
L45.0364 -223.12
L45.0364 -223.12
L43.5336 -224.623
L43.5336 -224.623
L42.0307 -226.126
L42.0307 -226.126
L40.5279 -227.629
L40.5279 -227.629
L39.025 -229.132
L39.025 -229.132
L37.5222 -230.634
L37.5222 -230.634
L36.0194 -232.137
L36.0194 -232.137
L34.5165 -233.64
L34.5165 -233.64
L33.0137 -235.143
L33.0137 -235.143
L31.5108 -236.646
L31.5108 -236.646
L30.008 -238.149
L30.008 -238.149
L28.5052 -239.651
L28.5052 -239.651
L27.0023 -241.154
L27.0023 -241.154
L25.4995 -242.657
L25.4995 -242.657
L23.9966 -244.16
L23.9966 -244.16
L22.4938 -245.663
L22.4938 -245.663
L20.991 -247.166" id="C2_0_97ad5db486"/>
    </defs>
    <g clip-path="url(#p8364a59092)">
     <use style="fill:none;stroke:#008000;stroke-linecap:butt;" x="0" xlink:href="#C2_0_97ad5db486" y="258.8440625"/>
    </g>
   </g>
   <g id="LineCollection_4">
    <defs>
     <path d="
M244.914 -23.2425
L243.411 -24.7454
L243.411 -24.7454
L241.908 -26.2482
L241.908 -26.2482
L240.406 -27.751
L240.406 -27.751
L238.903 -29.2539
L238.903 -29.2539
L237.4 -30.7567
L237.4 -30.7567
L235.897 -32.2596
L235.897 -32.2596
L234.394 -33.7624
L234.394 -33.7624
L232.891 -35.2652
L232.891 -35.2652
L231.388 -36.7681
L231.388 -36.7681
L229.886 -38.2709
L229.886 -38.2709
L228.383 -39.7738
L228.383 -39.7738
L226.88 -41.2766
L226.88 -41.2766
L225.377 -42.7794
L225.377 -42.7794
L223.874 -44.2823
L223.874 -44.2823
L222.371 -45.7851
L222.371 -45.7851
L220.869 -47.288
L220.869 -47.288
L219.366 -48.7908
L219.366 -48.7908
L217.863 -50.2936
L217.863 -50.2936
L216.36 -51.7965
L216.36 -51.7965
L214.857 -53.2993
L214.857 -53.2993
L213.354 -54.8022
L213.354 -54.8022
L211.852 -56.305
L211.852 -56.305
L210.349 -57.8078
L210.349 -57.8078
L208.846 -59.3107
L208.846 -59.3107
L207.343 -60.8135
L207.343 -60.8135
L205.84 -62.3163
L205.84 -62.3163
L204.337 -63.8192
L204.337 -63.8192
L202.835 -65.322
L202.835 -65.322
L201.332 -66.8249
L201.332 -66.8249
L199.829 -68.3277
L199.829 -68.3277
L198.326 -69.8305
L198.326 -69.8305
L196.823 -71.3334
L196.823 -71.3334
L195.32 -72.8362
L195.32 -72.8362
L193.817 -74.3391
L193.817 -74.3391
L192.315 -75.8419
L192.315 -75.8419
L190.812 -77.3447
L190.812 -77.3447
L189.309 -78.8476
L189.309 -78.8476
L187.806 -80.3504
L187.806 -80.3504
L186.303 -81.8533
L186.303 -81.8533
L184.8 -83.3561
L184.8 -83.3561
L183.298 -84.8589
L183.298 -84.8589
L181.795 -86.3618
L181.795 -86.3618
L180.292 -87.8646
L180.292 -87.8646
L178.789 -89.3675
L178.789 -89.3675
L177.286 -90.8703
L177.286 -90.8703
L175.783 -92.3731
L175.783 -92.3731
L174.281 -93.876
L174.281 -93.876
L172.778 -95.3788
L172.778 -95.3788
L171.275 -96.8817
L171.275 -96.8817
L169.772 -98.3845
L169.772 -98.3845
L168.269 -99.8873
L168.269 -99.8873
L166.766 -101.39
L166.766 -101.39
L165.264 -102.893
L165.264 -102.893
L163.761 -104.396
L163.761 -104.396
L162.258 -105.899
L162.258 -105.899
L160.755 -107.402
L160.755 -107.402
L159.252 -108.904
L159.252 -108.904
L157.749 -110.407
L157.749 -110.407
L156.247 -111.91
L156.247 -111.91
L154.744 -113.413
L154.744 -113.413
L153.241 -114.916
L153.241 -114.916
L151.738 -116.419
L151.738 -116.419
L150.235 -117.921
L150.235 -117.921
L148.732 -119.424
L148.732 -119.424
L147.229 -120.927
L147.229 -120.927
L145.727 -122.43
L145.727 -122.43
L144.224 -123.933
L144.224 -123.933
L142.721 -125.436
L142.721 -125.436
L141.218 -126.938
L141.218 -126.938
L139.715 -128.441
L139.715 -128.441
L138.212 -129.944
L138.212 -129.944
L136.71 -131.447
L136.71 -131.447
L135.207 -132.95
L135.207 -132.95
L133.704 -134.453
L133.704 -134.453
L132.201 -135.955
L132.201 -135.955
L130.698 -137.458
L130.698 -137.458
L129.195 -138.961
L129.195 -138.961
L127.693 -140.464
L127.693 -140.464
L126.19 -141.967
L126.19 -141.967
L124.687 -143.47
L124.687 -143.47
L123.184 -144.973
L123.184 -144.973
L121.681 -146.475
L121.681 -146.475
L120.178 -147.978
L120.178 -147.978
L118.676 -149.481
L118.676 -149.481
L117.173 -150.984
L117.173 -150.984
L115.67 -152.487
L115.67 -152.487
L114.167 -153.99
L114.167 -153.99
L112.664 -155.492
L112.664 -155.492
L111.161 -156.995
L111.161 -156.995
L109.658 -158.498
L109.658 -158.498
L108.156 -160.001
L108.156 -160.001
L106.653 -161.504
L106.653 -161.504
L105.15 -163.007
L105.15 -163.007
L103.647 -164.509
L103.647 -164.509
L102.144 -166.012
L102.144 -166.012
L100.641 -167.515
L100.641 -167.515
L99.1386 -169.018
L99.1386 -169.018
L97.6358 -170.521
L97.6358 -170.521
L96.1329 -172.024
L96.1329 -172.024
L94.6301 -173.526
L94.6301 -173.526
L93.1273 -175.029
L93.1273 -175.029
L91.6244 -176.532
L91.6244 -176.532
L90.1216 -178.035
L90.1216 -178.035
L88.6187 -179.538
L88.6187 -179.538
L87.1159 -181.041
L87.1159 -181.041
L85.6131 -182.544
L85.6131 -182.544
L84.1102 -184.046
L84.1102 -184.046
L82.6074 -185.549
L82.6074 -185.549
L81.1045 -187.052
L81.1045 -187.052
L79.6017 -188.555
L79.6017 -188.555
L78.0989 -190.058
L78.0989 -190.058
L76.596 -191.561
L76.596 -191.561
L75.0932 -193.063
L75.0932 -193.063
L73.5903 -194.566
L73.5903 -194.566
L72.0875 -196.069
L72.0875 -196.069
L70.5847 -197.572
L70.5847 -197.572
L69.0818 -199.075
L69.0818 -199.075
L67.579 -200.578
L67.579 -200.578
L66.0761 -202.08
L66.0761 -202.08
L64.5733 -203.583
L64.5733 -203.583
L63.0705 -205.086
L63.0705 -205.086
L61.5676 -206.589
L61.5676 -206.589
L60.0648 -208.092
L60.0648 -208.092
L58.5619 -209.595
L58.5619 -209.595
L57.0591 -211.097
L57.0591 -211.097
L55.5563 -212.6
L55.5563 -212.6
L54.0534 -214.103
L54.0534 -214.103
L52.5506 -215.606
L52.5506 -215.606
L51.0478 -217.109
L51.0478 -217.109
L49.5449 -218.612
L49.5449 -218.612
L48.0421 -220.114
L48.0421 -220.114
L46.5392 -221.617
L46.5392 -221.617
L45.0364 -223.12
L45.0364 -223.12
L43.5336 -224.623
L43.5336 -224.623
L42.0307 -226.126
L42.0307 -226.126
L40.5279 -227.629
L40.5279 -227.629
L39.025 -229.132
L39.025 -229.132
L37.5222 -230.634
L37.5222 -230.634
L36.0194 -232.137
L36.0194 -232.137
L34.5165 -233.64
L34.5165 -233.64
L33.0137 -235.143
L33.0137 -235.143
L31.5108 -236.646
L31.5108 -236.646
L30.008 -238.149
L30.008 -238.149
L28.5052 -239.651
L28.5052 -239.651
L27.0023 -241.154
L27.0023 -241.154
L25.4995 -242.657
L25.4995 -242.657
L23.9966 -244.16
L23.9966 -244.16
L22.4938 -245.663
L22.4938 -245.663
L20.991 -247.166" id="C3_0_97ad5db486"/>
    </defs>
    <g clip-path="url(#p8364a59092)">
     <use style="fill:none;stroke:#008000;stroke-linecap:butt;" x="0" xlink:href="#C3_0_97ad5db486" y="258.8440625"/>
    </g>
   </g>
   <g id="matplotlib.axis_1">
    <g id="xtick_1">
     <g id="line2d_1">
      <defs>
       <path d="
M0 0
L0 -4" id="mcb557df647" style="stroke:#000000;stroke-linecap:butt;stroke-width:0.5;"/>
      </defs>
      <g>
       <use style="stroke:#000000;stroke-linecap:butt;stroke-width:0.5;" x="20.9909615385" xlink:href="#mcb557df647" y="240.08"/>
      </g>
     </g>
     <g id="line2d_2">
      <defs>
       <path d="
M0 0
L0 4" id="mdad270ee8e" style="stroke:#000000;stroke-linecap:butt;stroke-width:0.5;"/>
      </defs>
      <g>
       <use style="stroke:#000000;stroke-linecap:butt;stroke-width:0.5;" x="20.9909615385" xlink:href="#mdad270ee8e" y="7.2"/>
      </g>
     </g>
     <g id="text_1">
      <!-- 0 -->
      <defs>
       <path d="
M31.7812 66.4062
Q24.1719 66.4062 20.3281 58.9062
Q16.5 51.4219 16.5 36.375
Q16.5 21.3906 20.3281 13.8906
Q24.1719 6.39062 31.7812 6.39062
Q39.4531 6.39062 43.2812 13.8906
Q47.125 21.3906 47.125 36.375
Q47.125 51.4219 43.2812 58.9062
Q39.4531 66.4062 31.7812 66.4062
M31.7812 74.2188
Q44.0469 74.2188 50.5156 64.5156
Q56.9844 54.8281 56.9844 36.375
Q56.9844 17.9688 50.5156 8.26562
Q44.0469 -1.42188 31.7812 -1.42188
Q19.5312 -1.42188 13.0625 8.26562
Q6.59375 17.9688 6.59375 36.375
Q6.59375 54.8281 13.0625 64.5156
Q19.5312 74.2188 31.7812 74.2188" id="BitstreamVeraSans-Roman-30"/>
      </defs>
      <g transform="translate(18.4714302885 251.501875)scale(0.1 -0.1)">
       <use xlink:href="#BitstreamVeraSans-Roman-30"/>
      </g>
     </g>
    </g>
    <g id="xtick_2">
     <g id="line2d_3">
      <g>
       <use style="stroke:#000000;stroke-linecap:butt;stroke-width:0.5;" x="65.7755769231" xlink:href="#mcb557df647" y="240.08"/>
      </g>
     </g>
     <g id="line2d_4">
      <g>
       <use style="stroke:#000000;stroke-linecap:butt;stroke-width:0.5;" x="65.7755769231" xlink:href="#mdad270ee8e" y="7.2"/>
      </g>
     </g>
     <g id="text_2">
      <!-- 1 -->
      <defs>
       <path d="
M12.4062 8.29688
L28.5156 8.29688
L28.5156 63.9219
L10.9844 60.4062
L10.9844 69.3906
L28.4219 72.9062
L38.2812 72.9062
L38.2812 8.29688
L54.3906 8.29688
L54.3906 0
L12.4062 0
z
" id="BitstreamVeraSans-Roman-31"/>
      </defs>
      <g transform="translate(63.6052644231 251.370625)scale(0.1 -0.1)">
       <use xlink:href="#BitstreamVeraSans-Roman-31"/>
      </g>
     </g>
    </g>
    <g id="xtick_3">
     <g id="line2d_5">
      <g>
       <use style="stroke:#000000;stroke-linecap:butt;stroke-width:0.5;" x="110.560192308" xlink:href="#mcb557df647" y="240.08"/>
      </g>
     </g>
     <g id="line2d_6">
      <g>
       <use style="stroke:#000000;stroke-linecap:butt;stroke-width:0.5;" x="110.560192308" xlink:href="#mdad270ee8e" y="7.2"/>
      </g>
     </g>
     <g id="text_3">
      <!-- 2 -->
      <defs>
       <path d="
M19.1875 8.29688
L53.6094 8.29688
L53.6094 0
L7.32812 0
L7.32812 8.29688
Q12.9375 14.1094 22.625 23.8906
Q32.3281 33.6875 34.8125 36.5312
Q39.5469 41.8438 41.4219 45.5312
Q43.3125 49.2188 43.3125 52.7812
Q43.3125 58.5938 39.2344 62.25
Q35.1562 65.9219 28.6094 65.9219
Q23.9688 65.9219 18.8125 64.3125
Q13.6719 62.7031 7.8125 59.4219
L7.8125 69.3906
Q13.7656 71.7812 18.9375 73
Q24.125 74.2188 28.4219 74.2188
Q39.75 74.2188 46.4844 68.5469
Q53.2188 62.8906 53.2188 53.4219
Q53.2188 48.9219 51.5312 44.8906
Q49.8594 40.875 45.4062 35.4062
Q44.1875 33.9844 37.6406 27.2188
Q31.1094 20.4531 19.1875 8.29688" id="BitstreamVeraSans-Roman-32"/>
      </defs>
      <g transform="translate(108.246129808 251.501875)scale(0.1 -0.1)">
       <use xlink:href="#BitstreamVeraSans-Roman-32"/>
      </g>
     </g>
    </g>
    <g id="xtick_4">
     <g id="line2d_7">
      <g>
       <use style="stroke:#000000;stroke-linecap:butt;stroke-width:0.5;" x="155.344807692" xlink:href="#mcb557df647" y="240.08"/>
      </g>
     </g>
     <g id="line2d_8">
      <g>
       <use style="stroke:#000000;stroke-linecap:butt;stroke-width:0.5;" x="155.344807692" xlink:href="#mdad270ee8e" y="7.2"/>
      </g>
     </g>
     <g id="text_4">
      <!-- 3 -->
      <defs>
       <path d="
M40.5781 39.3125
Q47.6562 37.7969 51.625 33
Q55.6094 28.2188 55.6094 21.1875
Q55.6094 10.4062 48.1875 4.48438
Q40.7656 -1.42188 27.0938 -1.42188
Q22.5156 -1.42188 17.6562 -0.515625
Q12.7969 0.390625 7.625 2.20312
L7.625 11.7188
Q11.7188 9.32812 16.5938 8.10938
Q21.4844 6.89062 26.8125 6.89062
Q36.0781 6.89062 40.9375 10.5469
Q45.7969 14.2031 45.7969 21.1875
Q45.7969 27.6406 41.2812 31.2656
Q36.7656 34.9062 28.7188 34.9062
L20.2188 34.9062
L20.2188 43.0156
L29.1094 43.0156
Q36.375 43.0156 40.2344 45.9219
Q44.0938 48.8281 44.0938 54.2969
Q44.0938 59.9062 40.1094 62.9062
Q36.1406 65.9219 28.7188 65.9219
Q24.6562 65.9219 20.0156 65.0312
Q15.375 64.1562 9.8125 62.3125
L9.8125 71.0938
Q15.4375 72.6562 20.3438 73.4375
Q25.25 74.2188 29.5938 74.2188
Q40.8281 74.2188 47.3594 69.1094
Q53.9062 64.0156 53.9062 55.3281
Q53.9062 49.2656 50.4375 45.0938
Q46.9688 40.9219 40.5781 39.3125" id="BitstreamVeraSans-Roman-33"/>
      </defs>
      <g transform="translate(152.945588942 251.501875)scale(0.1 -0.1)">
       <use xlink:href="#BitstreamVeraSans-Roman-33"/>
      </g>
     </g>
    </g>
    <g id="xtick_5">
     <g id="line2d_9">
      <g>
       <use style="stroke:#000000;stroke-linecap:butt;stroke-width:0.5;" x="200.129423077" xlink:href="#mcb557df647" y="240.08"/>
      </g>
     </g>
     <g id="line2d_10">
      <g>
       <use style="stroke:#000000;stroke-linecap:butt;stroke-width:0.5;" x="200.129423077" xlink:href="#mdad270ee8e" y="7.2"/>
      </g>
     </g>
     <g id="text_5">
      <!-- 4 -->
      <defs>
       <path d="
M37.7969 64.3125
L12.8906 25.3906
L37.7969 25.3906
z

M35.2031 72.9062
L47.6094 72.9062
L47.6094 25.3906
L58.0156 25.3906
L58.0156 17.1875
L47.6094 17.1875
L47.6094 0
L37.7969 0
L37.7969 17.1875
L4.89062 17.1875
L4.89062 26.7031
z
" id="BitstreamVeraSans-Roman-34"/>
      </defs>
      <g transform="translate(197.473173077 251.370625)scale(0.1 -0.1)">
       <use xlink:href="#BitstreamVeraSans-Roman-34"/>
      </g>
     </g>
    </g>
    <g id="xtick_6">
     <g id="line2d_11">
      <g>
       <use style="stroke:#000000;stroke-linecap:butt;stroke-width:0.5;" x="244.914038462" xlink:href="#mcb557df647" y="240.08"/>
      </g>
     </g>
     <g id="line2d_12">
      <g>
       <use style="stroke:#000000;stroke-linecap:butt;stroke-width:0.5;" x="244.914038462" xlink:href="#mdad270ee8e" y="7.2"/>
      </g>
     </g>
     <g id="text_6">
      <!-- 5 -->
      <defs>
       <path d="
M10.7969 72.9062
L49.5156 72.9062
L49.5156 64.5938
L19.8281 64.5938
L19.8281 46.7344
Q21.9688 47.4688 24.1094 47.8281
Q26.2656 48.1875 28.4219 48.1875
Q40.625 48.1875 47.75 41.5
Q54.8906 34.8125 54.8906 23.3906
Q54.8906 11.625 47.5625 5.09375
Q40.2344 -1.42188 26.9062 -1.42188
Q22.3125 -1.42188 17.5469 -0.640625
Q12.7969 0.140625 7.71875 1.70312
L7.71875 11.625
Q12.1094 9.23438 16.7969 8.0625
Q21.4844 6.89062 26.7031 6.89062
Q35.1562 6.89062 40.0781 11.3281
Q45.0156 15.7656 45.0156 23.3906
Q45.0156 31 40.0781 35.4375
Q35.1562 39.8906 26.7031 39.8906
Q22.75 39.8906 18.8125 39.0156
Q14.8906 38.1406 10.7969 36.2812
z
" id="BitstreamVeraSans-Roman-35"/>
      </defs>
      <g transform="translate(242.555444712 251.370625)scale(0.1 -0.1)">
       <use xlink:href="#BitstreamVeraSans-Roman-35"/>
      </g>
     </g>
    </g>
    <g id="xtick_7">
     <g id="line2d_13">
      <defs>
       <path d="
M0 0
L0 -2" id="m6f8f3139b3" style="stroke:#000000;stroke-linecap:butt;stroke-width:0.5;"/>
      </defs>
      <g>
       <use style="stroke:#000000;stroke-linecap:butt;stroke-width:0.5;" x="29.9478846154" xlink:href="#m6f8f3139b3" y="240.08"/>
      </g>
     </g>
     <g id="line2d_14">
      <defs>
       <path d="
M0 0
L0 2" id="md27378e979" style="stroke:#000000;stroke-linecap:butt;stroke-width:0.5;"/>
      </defs>
      <g>
       <use style="stroke:#000000;stroke-linecap:butt;stroke-width:0.5;" x="29.9478846154" xlink:href="#md27378e979" y="7.2"/>
      </g>
     </g>
    </g>
    <g id="xtick_8">
     <g id="line2d_15">
      <g>
       <use style="stroke:#000000;stroke-linecap:butt;stroke-width:0.5;" x="38.9048076923" xlink:href="#m6f8f3139b3" y="240.08"/>
      </g>
     </g>
     <g id="line2d_16">
      <g>
       <use style="stroke:#000000;stroke-linecap:butt;stroke-width:0.5;" x="38.9048076923" xlink:href="#md27378e979" y="7.2"/>
      </g>
     </g>
    </g>
    <g id="xtick_9">
     <g id="line2d_17">
      <g>
       <use style="stroke:#000000;stroke-linecap:butt;stroke-width:0.5;" x="47.8617307692" xlink:href="#m6f8f3139b3" y="240.08"/>
      </g>
     </g>
     <g id="line2d_18">
      <g>
       <use style="stroke:#000000;stroke-linecap:butt;stroke-width:0.5;" x="47.8617307692" xlink:href="#md27378e979" y="7.2"/>
      </g>
     </g>
    </g>
    <g id="xtick_10">
     <g id="line2d_19">
      <g>
       <use style="stroke:#000000;stroke-linecap:butt;stroke-width:0.5;" x="56.8186538462" xlink:href="#m6f8f3139b3" y="240.08"/>
      </g>
     </g>
     <g id="line2d_20">
      <g>
       <use style="stroke:#000000;stroke-linecap:butt;stroke-width:0.5;" x="56.8186538462" xlink:href="#md27378e979" y="7.2"/>
      </g>
     </g>
    </g>
    <g id="xtick_11">
     <g id="line2d_21">
      <g>
       <use style="stroke:#000000;stroke-linecap:butt;stroke-width:0.5;" x="65.7755769231" xlink:href="#m6f8f3139b3" y="240.08"/>
      </g>
     </g>
     <g id="line2d_22">
      <g>
       <use style="stroke:#000000;stroke-linecap:butt;stroke-width:0.5;" x="65.7755769231" xlink:href="#md27378e979" y="7.2"/>
      </g>
     </g>
    </g>
    <g id="xtick_12">
     <g id="line2d_23">
      <g>
       <use style="stroke:#000000;stroke-linecap:butt;stroke-width:0.5;" x="74.7325" xlink:href="#m6f8f3139b3" y="240.08"/>
      </g>
     </g>
     <g id="line2d_24">
      <g>
       <use style="stroke:#000000;stroke-linecap:butt;stroke-width:0.5;" x="74.7325" xlink:href="#md27378e979" y="7.2"/>
      </g>
     </g>
    </g>
    <g id="xtick_13">
     <g id="line2d_25">
      <g>
       <use style="stroke:#000000;stroke-linecap:butt;stroke-width:0.5;" x="83.6894230769" xlink:href="#m6f8f3139b3" y="240.08"/>
      </g>
     </g>
     <g id="line2d_26">
      <g>
       <use style="stroke:#000000;stroke-linecap:butt;stroke-width:0.5;" x="83.6894230769" xlink:href="#md27378e979" y="7.2"/>
      </g>
     </g>
    </g>
    <g id="xtick_14">
     <g id="line2d_27">
      <g>
       <use style="stroke:#000000;stroke-linecap:butt;stroke-width:0.5;" x="92.6463461538" xlink:href="#m6f8f3139b3" y="240.08"/>
      </g>
     </g>
     <g id="line2d_28">
      <g>
       <use style="stroke:#000000;stroke-linecap:butt;stroke-width:0.5;" x="92.6463461538" xlink:href="#md27378e979" y="7.2"/>
      </g>
     </g>
    </g>
    <g id="xtick_15">
     <g id="line2d_29">
      <g>
       <use style="stroke:#000000;stroke-linecap:butt;stroke-width:0.5;" x="101.603269231" xlink:href="#m6f8f3139b3" y="240.08"/>
      </g>
     </g>
     <g id="line2d_30">
      <g>
       <use style="stroke:#000000;stroke-linecap:butt;stroke-width:0.5;" x="101.603269231" xlink:href="#md27378e979" y="7.2"/>
      </g>
     </g>
    </g>
    <g id="xtick_16">
     <g id="line2d_31">
      <g>
       <use style="stroke:#000000;stroke-linecap:butt;stroke-width:0.5;" x="110.560192308" xlink:href="#m6f8f3139b3" y="240.08"/>
      </g>
     </g>
     <g id="line2d_32">
      <g>
       <use style="stroke:#000000;stroke-linecap:butt;stroke-width:0.5;" x="110.560192308" xlink:href="#md27378e979" y="7.2"/>
      </g>
     </g>
    </g>
    <g id="xtick_17">
     <g id="line2d_33">
      <g>
       <use style="stroke:#000000;stroke-linecap:butt;stroke-width:0.5;" x="119.517115385" xlink:href="#m6f8f3139b3" y="240.08"/>
      </g>
     </g>
     <g id="line2d_34">
      <g>
       <use style="stroke:#000000;stroke-linecap:butt;stroke-width:0.5;" x="119.517115385" xlink:href="#md27378e979" y="7.2"/>
      </g>
     </g>
    </g>
    <g id="xtick_18">
     <g id="line2d_35">
      <g>
       <use style="stroke:#000000;stroke-linecap:butt;stroke-width:0.5;" x="128.474038462" xlink:href="#m6f8f3139b3" y="240.08"/>
      </g>
     </g>
     <g id="line2d_36">
      <g>
       <use style="stroke:#000000;stroke-linecap:butt;stroke-width:0.5;" x="128.474038462" xlink:href="#md27378e979" y="7.2"/>
      </g>
     </g>
    </g>
    <g id="xtick_19">
     <g id="line2d_37">
      <g>
       <use style="stroke:#000000;stroke-linecap:butt;stroke-width:0.5;" x="137.430961538" xlink:href="#m6f8f3139b3" y="240.08"/>
      </g>
     </g>
     <g id="line2d_38">
      <g>
       <use style="stroke:#000000;stroke-linecap:butt;stroke-width:0.5;" x="137.430961538" xlink:href="#md27378e979" y="7.2"/>
      </g>
     </g>
    </g>
    <g id="xtick_20">
     <g id="line2d_39">
      <g>
       <use style="stroke:#000000;stroke-linecap:butt;stroke-width:0.5;" x="146.387884615" xlink:href="#m6f8f3139b3" y="240.08"/>
      </g>
     </g>
     <g id="line2d_40">
      <g>
       <use style="stroke:#000000;stroke-linecap:butt;stroke-width:0.5;" x="146.387884615" xlink:href="#md27378e979" y="7.2"/>
      </g>
     </g>
    </g>
    <g id="xtick_21">
     <g id="line2d_41">
      <g>
       <use style="stroke:#000000;stroke-linecap:butt;stroke-width:0.5;" x="155.344807692" xlink:href="#m6f8f3139b3" y="240.08"/>
      </g>
     </g>
     <g id="line2d_42">
      <g>
       <use style="stroke:#000000;stroke-linecap:butt;stroke-width:0.5;" x="155.344807692" xlink:href="#md27378e979" y="7.2"/>
      </g>
     </g>
    </g>
    <g id="xtick_22">
     <g id="line2d_43">
      <g>
       <use style="stroke:#000000;stroke-linecap:butt;stroke-width:0.5;" x="164.301730769" xlink:href="#m6f8f3139b3" y="240.08"/>
      </g>
     </g>
     <g id="line2d_44">
      <g>
       <use style="stroke:#000000;stroke-linecap:butt;stroke-width:0.5;" x="164.301730769" xlink:href="#md27378e979" y="7.2"/>
      </g>
     </g>
    </g>
    <g id="xtick_23">
     <g id="line2d_45">
      <g>
       <use style="stroke:#000000;stroke-linecap:butt;stroke-width:0.5;" x="173.258653846" xlink:href="#m6f8f3139b3" y="240.08"/>
      </g>
     </g>
     <g id="line2d_46">
      <g>
       <use style="stroke:#000000;stroke-linecap:butt;stroke-width:0.5;" x="173.258653846" xlink:href="#md27378e979" y="7.2"/>
      </g>
     </g>
    </g>
    <g id="xtick_24">
     <g id="line2d_47">
      <g>
       <use style="stroke:#000000;stroke-linecap:butt;stroke-width:0.5;" x="182.215576923" xlink:href="#m6f8f3139b3" y="240.08"/>
      </g>
     </g>
     <g id="line2d_48">
      <g>
       <use style="stroke:#000000;stroke-linecap:butt;stroke-width:0.5;" x="182.215576923" xlink:href="#md27378e979" y="7.2"/>
      </g>
     </g>
    </g>
    <g id="xtick_25">
     <g id="line2d_49">
      <g>
       <use style="stroke:#000000;stroke-linecap:butt;stroke-width:0.5;" x="191.1725" xlink:href="#m6f8f3139b3" y="240.08"/>
      </g>
     </g>
     <g id="line2d_50">
      <g>
       <use style="stroke:#000000;stroke-linecap:butt;stroke-width:0.5;" x="191.1725" xlink:href="#md27378e979" y="7.2"/>
      </g>
     </g>
    </g>
    <g id="xtick_26">
     <g id="line2d_51">
      <g>
       <use style="stroke:#000000;stroke-linecap:butt;stroke-width:0.5;" x="200.129423077" xlink:href="#m6f8f3139b3" y="240.08"/>
      </g>
     </g>
     <g id="line2d_52">
      <g>
       <use style="stroke:#000000;stroke-linecap:butt;stroke-width:0.5;" x="200.129423077" xlink:href="#md27378e979" y="7.2"/>
      </g>
     </g>
    </g>
    <g id="xtick_27">
     <g id="line2d_53">
      <g>
       <use style="stroke:#000000;stroke-linecap:butt;stroke-width:0.5;" x="209.086346154" xlink:href="#m6f8f3139b3" y="240.08"/>
      </g>
     </g>
     <g id="line2d_54">
      <g>
       <use style="stroke:#000000;stroke-linecap:butt;stroke-width:0.5;" x="209.086346154" xlink:href="#md27378e979" y="7.2"/>
      </g>
     </g>
    </g>
    <g id="xtick_28">
     <g id="line2d_55">
      <g>
       <use style="stroke:#000000;stroke-linecap:butt;stroke-width:0.5;" x="218.043269231" xlink:href="#m6f8f3139b3" y="240.08"/>
      </g>
     </g>
     <g id="line2d_56">
      <g>
       <use style="stroke:#000000;stroke-linecap:butt;stroke-width:0.5;" x="218.043269231" xlink:href="#md27378e979" y="7.2"/>
      </g>
     </g>
    </g>
    <g id="xtick_29">
     <g id="line2d_57">
      <g>
       <use style="stroke:#000000;stroke-linecap:butt;stroke-width:0.5;" x="227.000192308" xlink:href="#m6f8f3139b3" y="240.08"/>
      </g>
     </g>
     <g id="line2d_58">
      <g>
       <use style="stroke:#000000;stroke-linecap:butt;stroke-width:0.5;" x="227.000192308" xlink:href="#md27378e979" y="7.2"/>
      </g>
     </g>
    </g>
    <g id="xtick_30">
     <g id="line2d_59">
      <g>
       <use style="stroke:#000000;stroke-linecap:butt;stroke-width:0.5;" x="235.957115385" xlink:href="#m6f8f3139b3" y="240.08"/>
      </g>
     </g>
     <g id="line2d_60">
      <g>
       <use style="stroke:#000000;stroke-linecap:butt;stroke-width:0.5;" x="235.957115385" xlink:href="#md27378e979" y="7.2"/>
      </g>
     </g>
    </g>
   </g>
   <g id="matplotlib.axis_2">
    <g id="ytick_1">
     <g id="line2d_61">
      <defs>
       <path d="
M0 0
L4 0" id="mc8fcea1516" style="stroke:#000000;stroke-linecap:butt;stroke-width:0.5;"/>
      </defs>
      <g>
       <use style="stroke:#000000;stroke-linecap:butt;stroke-width:0.5;" x="16.5125" xlink:href="#mc8fcea1516" y="235.601538462"/>
      </g>
     </g>
     <g id="line2d_62">
      <defs>
       <path d="
M0 0
L-4 0" id="m0d5b0a6425" style="stroke:#000000;stroke-linecap:butt;stroke-width:0.5;"/>
      </defs>
      <g>
       <use style="stroke:#000000;stroke-linecap:butt;stroke-width:0.5;" x="249.3925" xlink:href="#m0d5b0a6425" y="235.601538462"/>
      </g>
     </g>
     <g id="text_7">
      <!-- 0 -->
      <g transform="translate(7.4734375 239.241382212)scale(0.1 -0.1)">
       <use xlink:href="#BitstreamVeraSans-Roman-30"/>
      </g>
     </g>
    </g>
    <g id="ytick_2">
     <g id="line2d_63">
      <g>
       <use style="stroke:#000000;stroke-linecap:butt;stroke-width:0.5;" x="16.5125" xlink:href="#mc8fcea1516" y="190.816923077"/>
      </g>
     </g>
     <g id="line2d_64">
      <g>
       <use style="stroke:#000000;stroke-linecap:butt;stroke-width:0.5;" x="249.3925" xlink:href="#m0d5b0a6425" y="190.816923077"/>
      </g>
     </g>
     <g id="text_8">
      <!-- 1 -->
      <g transform="translate(8.171875 194.462235577)scale(0.1 -0.1)">
       <use xlink:href="#BitstreamVeraSans-Roman-31"/>
      </g>
     </g>
    </g>
    <g id="ytick_3">
     <g id="line2d_65">
      <g>
       <use style="stroke:#000000;stroke-linecap:butt;stroke-width:0.5;" x="16.5125" xlink:href="#mc8fcea1516" y="146.032307692"/>
      </g>
     </g>
     <g id="line2d_66">
      <g>
       <use style="stroke:#000000;stroke-linecap:butt;stroke-width:0.5;" x="249.3925" xlink:href="#m0d5b0a6425" y="146.032307692"/>
      </g>
     </g>
     <g id="text_9">
      <!-- 2 -->
      <g transform="translate(7.884375 149.743245192)scale(0.1 -0.1)">
       <use xlink:href="#BitstreamVeraSans-Roman-32"/>
      </g>
     </g>
    </g>
    <g id="ytick_4">
     <g id="line2d_67">
      <g>
       <use style="stroke:#000000;stroke-linecap:butt;stroke-width:0.5;" x="16.5125" xlink:href="#mc8fcea1516" y="101.247692308"/>
      </g>
     </g>
     <g id="line2d_68">
      <g>
       <use style="stroke:#000000;stroke-linecap:butt;stroke-width:0.5;" x="249.3925" xlink:href="#m0d5b0a6425" y="101.247692308"/>
      </g>
     </g>
     <g id="text_10">
      <!-- 3 -->
      <g transform="translate(7.7140625 104.887536058)scale(0.1 -0.1)">
       <use xlink:href="#BitstreamVeraSans-Roman-33"/>
      </g>
     </g>
    </g>
    <g id="ytick_5">
     <g id="line2d_69">
      <g>
       <use style="stroke:#000000;stroke-linecap:butt;stroke-width:0.5;" x="16.5125" xlink:href="#mc8fcea1516" y="56.4630769231"/>
      </g>
     </g>
     <g id="line2d_70">
      <g>
       <use style="stroke:#000000;stroke-linecap:butt;stroke-width:0.5;" x="249.3925" xlink:href="#m0d5b0a6425" y="56.4630769231"/>
      </g>
     </g>
     <g id="text_11">
      <!-- 4 -->
      <g transform="translate(7.2 60.1083894231)scale(0.1 -0.1)">
       <use xlink:href="#BitstreamVeraSans-Roman-34"/>
      </g>
     </g>
    </g>
    <g id="ytick_6">
     <g id="line2d_71">
      <g>
       <use style="stroke:#000000;stroke-linecap:butt;stroke-width:0.5;" x="16.5125" xlink:href="#mc8fcea1516" y="11.6784615385"/>
      </g>
     </g>
     <g id="line2d_72">
      <g>
       <use style="stroke:#000000;stroke-linecap:butt;stroke-width:0.5;" x="249.3925" xlink:href="#m0d5b0a6425" y="11.6784615385"/>
      </g>
     </g>
     <g id="text_12">
      <!-- 5 -->
      <g transform="translate(7.7953125 15.2526802885)scale(0.1 -0.1)">
       <use xlink:href="#BitstreamVeraSans-Roman-35"/>
      </g>
     </g>
    </g>
    <g id="ytick_7">
     <g id="line2d_73">
      <defs>
       <path d="
M0 0
L2 0" id="m57a2c8792a" style="stroke:#000000;stroke-linecap:butt;stroke-width:0.5;"/>
      </defs>
      <g>
       <use style="stroke:#000000;stroke-linecap:butt;stroke-width:0.5;" x="16.5125" xlink:href="#m57a2c8792a" y="226.644615385"/>
      </g>
     </g>
     <g id="line2d_74">
      <defs>
       <path d="
M0 0
L-2 0" id="m46a939d668" style="stroke:#000000;stroke-linecap:butt;stroke-width:0.5;"/>
      </defs>
      <g>
       <use style="stroke:#000000;stroke-linecap:butt;stroke-width:0.5;" x="249.3925" xlink:href="#m46a939d668" y="226.644615385"/>
      </g>
     </g>
    </g>
    <g id="ytick_8">
     <g id="line2d_75">
      <g>
       <use style="stroke:#000000;stroke-linecap:butt;stroke-width:0.5;" x="16.5125" xlink:href="#m57a2c8792a" y="217.687692308"/>
      </g>
     </g>
     <g id="line2d_76">
      <g>
       <use style="stroke:#000000;stroke-linecap:butt;stroke-width:0.5;" x="249.3925" xlink:href="#m46a939d668" y="217.687692308"/>
      </g>
     </g>
    </g>
    <g id="ytick_9">
     <g id="line2d_77">
      <g>
       <use style="stroke:#000000;stroke-linecap:butt;stroke-width:0.5;" x="16.5125" xlink:href="#m57a2c8792a" y="208.730769231"/>
      </g>
     </g>
     <g id="line2d_78">
      <g>
       <use style="stroke:#000000;stroke-linecap:butt;stroke-width:0.5;" x="249.3925" xlink:href="#m46a939d668" y="208.730769231"/>
      </g>
     </g>
    </g>
    <g id="ytick_10">
     <g id="line2d_79">
      <g>
       <use style="stroke:#000000;stroke-linecap:butt;stroke-width:0.5;" x="16.5125" xlink:href="#m57a2c8792a" y="199.773846154"/>
      </g>
     </g>
     <g id="line2d_80">
      <g>
       <use style="stroke:#000000;stroke-linecap:butt;stroke-width:0.5;" x="249.3925" xlink:href="#m46a939d668" y="199.773846154"/>
      </g>
     </g>
    </g>
    <g id="ytick_11">
     <g id="line2d_81">
      <g>
       <use style="stroke:#000000;stroke-linecap:butt;stroke-width:0.5;" x="16.5125" xlink:href="#m57a2c8792a" y="190.816923077"/>
      </g>
     </g>
     <g id="line2d_82">
      <g>
       <use style="stroke:#000000;stroke-linecap:butt;stroke-width:0.5;" x="249.3925" xlink:href="#m46a939d668" y="190.816923077"/>
      </g>
     </g>
    </g>
    <g id="ytick_12">
     <g id="line2d_83">
      <g>
       <use style="stroke:#000000;stroke-linecap:butt;stroke-width:0.5;" x="16.5125" xlink:href="#m57a2c8792a" y="181.86"/>
      </g>
     </g>
     <g id="line2d_84">
      <g>
       <use style="stroke:#000000;stroke-linecap:butt;stroke-width:0.5;" x="249.3925" xlink:href="#m46a939d668" y="181.86"/>
      </g>
     </g>
    </g>
    <g id="ytick_13">
     <g id="line2d_85">
      <g>
       <use style="stroke:#000000;stroke-linecap:butt;stroke-width:0.5;" x="16.5125" xlink:href="#m57a2c8792a" y="172.903076923"/>
      </g>
     </g>
     <g id="line2d_86">
      <g>
       <use style="stroke:#000000;stroke-linecap:butt;stroke-width:0.5;" x="249.3925" xlink:href="#m46a939d668" y="172.903076923"/>
      </g>
     </g>
    </g>
    <g id="ytick_14">
     <g id="line2d_87">
      <g>
       <use style="stroke:#000000;stroke-linecap:butt;stroke-width:0.5;" x="16.5125" xlink:href="#m57a2c8792a" y="163.946153846"/>
      </g>
     </g>
     <g id="line2d_88">
      <g>
       <use style="stroke:#000000;stroke-linecap:butt;stroke-width:0.5;" x="249.3925" xlink:href="#m46a939d668" y="163.946153846"/>
      </g>
     </g>
    </g>
    <g id="ytick_15">
     <g id="line2d_89">
      <g>
       <use style="stroke:#000000;stroke-linecap:butt;stroke-width:0.5;" x="16.5125" xlink:href="#m57a2c8792a" y="154.989230769"/>
      </g>
     </g>
     <g id="line2d_90">
      <g>
       <use style="stroke:#000000;stroke-linecap:butt;stroke-width:0.5;" x="249.3925" xlink:href="#m46a939d668" y="154.989230769"/>
      </g>
     </g>
    </g>
    <g id="ytick_16">
     <g id="line2d_91">
      <g>
       <use style="stroke:#000000;stroke-linecap:butt;stroke-width:0.5;" x="16.5125" xlink:href="#m57a2c8792a" y="146.032307692"/>
      </g>
     </g>
     <g id="line2d_92">
      <g>
       <use style="stroke:#000000;stroke-linecap:butt;stroke-width:0.5;" x="249.3925" xlink:href="#m46a939d668" y="146.032307692"/>
      </g>
     </g>
    </g>
    <g id="ytick_17">
     <g id="line2d_93">
      <g>
       <use style="stroke:#000000;stroke-linecap:butt;stroke-width:0.5;" x="16.5125" xlink:href="#m57a2c8792a" y="137.075384615"/>
      </g>
     </g>
     <g id="line2d_94">
      <g>
       <use style="stroke:#000000;stroke-linecap:butt;stroke-width:0.5;" x="249.3925" xlink:href="#m46a939d668" y="137.075384615"/>
      </g>
     </g>
    </g>
    <g id="ytick_18">
     <g id="line2d_95">
      <g>
       <use style="stroke:#000000;stroke-linecap:butt;stroke-width:0.5;" x="16.5125" xlink:href="#m57a2c8792a" y="128.118461538"/>
      </g>
     </g>
     <g id="line2d_96">
      <g>
       <use style="stroke:#000000;stroke-linecap:butt;stroke-width:0.5;" x="249.3925" xlink:href="#m46a939d668" y="128.118461538"/>
      </g>
     </g>
    </g>
    <g id="ytick_19">
     <g id="line2d_97">
      <g>
       <use style="stroke:#000000;stroke-linecap:butt;stroke-width:0.5;" x="16.5125" xlink:href="#m57a2c8792a" y="119.161538462"/>
      </g>
     </g>
     <g id="line2d_98">
      <g>
       <use style="stroke:#000000;stroke-linecap:butt;stroke-width:0.5;" x="249.3925" xlink:href="#m46a939d668" y="119.161538462"/>
      </g>
     </g>
    </g>
    <g id="ytick_20">
     <g id="line2d_99">
      <g>
       <use style="stroke:#000000;stroke-linecap:butt;stroke-width:0.5;" x="16.5125" xlink:href="#m57a2c8792a" y="110.204615385"/>
      </g>
     </g>
     <g id="line2d_100">
      <g>
       <use style="stroke:#000000;stroke-linecap:butt;stroke-width:0.5;" x="249.3925" xlink:href="#m46a939d668" y="110.204615385"/>
      </g>
     </g>
    </g>
    <g id="ytick_21">
     <g id="line2d_101">
      <g>
       <use style="stroke:#000000;stroke-linecap:butt;stroke-width:0.5;" x="16.5125" xlink:href="#m57a2c8792a" y="101.247692308"/>
      </g>
     </g>
     <g id="line2d_102">
      <g>
       <use style="stroke:#000000;stroke-linecap:butt;stroke-width:0.5;" x="249.3925" xlink:href="#m46a939d668" y="101.247692308"/>
      </g>
     </g>
    </g>
    <g id="ytick_22">
     <g id="line2d_103">
      <g>
       <use style="stroke:#000000;stroke-linecap:butt;stroke-width:0.5;" x="16.5125" xlink:href="#m57a2c8792a" y="92.2907692308"/>
      </g>
     </g>
     <g id="line2d_104">
      <g>
       <use style="stroke:#000000;stroke-linecap:butt;stroke-width:0.5;" x="249.3925" xlink:href="#m46a939d668" y="92.2907692308"/>
      </g>
     </g>
    </g>
    <g id="ytick_23">
     <g id="line2d_105">
      <g>
       <use style="stroke:#000000;stroke-linecap:butt;stroke-width:0.5;" x="16.5125" xlink:href="#m57a2c8792a" y="83.3338461538"/>
      </g>
     </g>
     <g id="line2d_106">
      <g>
       <use style="stroke:#000000;stroke-linecap:butt;stroke-width:0.5;" x="249.3925" xlink:href="#m46a939d668" y="83.3338461538"/>
      </g>
     </g>
    </g>
    <g id="ytick_24">
     <g id="line2d_107">
      <g>
       <use style="stroke:#000000;stroke-linecap:butt;stroke-width:0.5;" x="16.5125" xlink:href="#m57a2c8792a" y="74.3769230769"/>
      </g>
     </g>
     <g id="line2d_108">
      <g>
       <use style="stroke:#000000;stroke-linecap:butt;stroke-width:0.5;" x="249.3925" xlink:href="#m46a939d668" y="74.3769230769"/>
      </g>
     </g>
    </g>
    <g id="ytick_25">
     <g id="line2d_109">
      <g>
       <use style="stroke:#000000;stroke-linecap:butt;stroke-width:0.5;" x="16.5125" xlink:href="#m57a2c8792a" y="65.42"/>
      </g>
     </g>
     <g id="line2d_110">
      <g>
       <use style="stroke:#000000;stroke-linecap:butt;stroke-width:0.5;" x="249.3925" xlink:href="#m46a939d668" y="65.42"/>
      </g>
     </g>
    </g>
    <g id="ytick_26">
     <g id="line2d_111">
      <g>
       <use style="stroke:#000000;stroke-linecap:butt;stroke-width:0.5;" x="16.5125" xlink:href="#m57a2c8792a" y="56.4630769231"/>
      </g>
     </g>
     <g id="line2d_112">
      <g>
       <use style="stroke:#000000;stroke-linecap:butt;stroke-width:0.5;" x="249.3925" xlink:href="#m46a939d668" y="56.4630769231"/>
      </g>
     </g>
    </g>
    <g id="ytick_27">
     <g id="line2d_113">
      <g>
       <use style="stroke:#000000;stroke-linecap:butt;stroke-width:0.5;" x="16.5125" xlink:href="#m57a2c8792a" y="47.5061538462"/>
      </g>
     </g>
     <g id="line2d_114">
      <g>
       <use style="stroke:#000000;stroke-linecap:butt;stroke-width:0.5;" x="249.3925" xlink:href="#m46a939d668" y="47.5061538462"/>
      </g>
     </g>
    </g>
    <g id="ytick_28">
     <g id="line2d_115">
      <g>
       <use style="stroke:#000000;stroke-linecap:butt;stroke-width:0.5;" x="16.5125" xlink:href="#m57a2c8792a" y="38.5492307692"/>
      </g>
     </g>
     <g id="line2d_116">
      <g>
       <use style="stroke:#000000;stroke-linecap:butt;stroke-width:0.5;" x="249.3925" xlink:href="#m46a939d668" y="38.5492307692"/>
      </g>
     </g>
    </g>
    <g id="ytick_29">
     <g id="line2d_117">
      <g>
       <use style="stroke:#000000;stroke-linecap:butt;stroke-width:0.5;" x="16.5125" xlink:href="#m57a2c8792a" y="29.5923076923"/>
      </g>
     </g>
     <g id="line2d_118">
      <g>
       <use style="stroke:#000000;stroke-linecap:butt;stroke-width:0.5;" x="249.3925" xlink:href="#m46a939d668" y="29.5923076923"/>
      </g>
     </g>
    </g>
    <g id="ytick_30">
     <g id="line2d_119">
      <g>
       <use style="stroke:#000000;stroke-linecap:butt;stroke-width:0.5;" x="16.5125" xlink:href="#m57a2c8792a" y="20.6353846154"/>
      </g>
     </g>
     <g id="line2d_120">
      <g>
       <use style="stroke:#000000;stroke-linecap:butt;stroke-width:0.5;" x="249.3925" xlink:href="#m46a939d668" y="20.6353846154"/>
      </g>
     </g>
    </g>
   </g>
   <g id="patch_3">
    <path d="
M16.5125 7.2
L249.393 7.2" style="fill:none;stroke:#000000;stroke-width:0.8;"/>
   </g>
   <g id="patch_4">
    <path d="
M249.392 240.08
L249.392 7.2" style="fill:none;stroke:#000000;stroke-width:0.8;"/>
   </g>
   <g id="patch_5">
    <path d="
M16.5125 240.08
L249.393 240.08" style="fill:none;stroke:#000000;stroke-width:0.8;"/>
   </g>
   <g id="patch_6">
    <path d="
M16.5125 240.08
L16.5125 7.2" style="fill:none;stroke:#000000;stroke-width:0.8;"/>
   </g>
   <g id="text_13">
    <!-- $P(2,3)$ -->
    <defs>
     <path d="
M9.51562 7.71875
Q11.8594 4.29688 15.8125 2.64062
Q19.7812 0.984375 24.3125 0.984375
Q30.125 0.984375 32.5625 5.9375
Q35.0156 10.8906 35.0156 17.1875
Q35.0156 20.0156 34.5 22.8438
Q33.9844 25.6875 32.7656 28.125
Q31.5469 30.5625 29.4219 32.0312
Q27.2969 33.5 24.2188 33.5
L17.5781 33.5
Q16.7031 33.5 16.7031 34.4219
L16.7031 35.2969
Q16.7031 36.0781 17.5781 36.0781
L23.0938 36.5312
Q26.6094 36.5312 28.9219 39.1562
Q31.25 41.7969 32.3281 45.5781
Q33.4062 49.3594 33.4062 52.7812
Q33.4062 57.5625 31.1562 60.6406
Q28.9062 63.7188 24.3125 63.7188
Q20.5156 63.7188 17.0469 62.2812
Q13.5781 60.8438 11.5312 57.9062
Q11.7188 57.9531 11.8594 57.9844
Q12.0156 58.0156 12.2031 58.0156
Q14.4531 58.0156 15.9688 56.4531
Q17.4844 54.8906 17.4844 52.6875
Q17.4844 50.5312 15.9688 48.9688
Q14.4531 47.4062 12.2031 47.4062
Q10.0156 47.4062 8.45312 48.9688
Q6.89062 50.5312 6.89062 52.6875
Q6.89062 56.9844 9.46875 60.1562
Q12.0625 63.3281 16.1406 64.9688
Q20.2188 66.6094 24.3125 66.6094
Q27.3438 66.6094 30.7031 65.7031
Q34.0781 64.7969 36.8125 63.1094
Q39.5469 61.4219 41.2812 58.7812
Q43.0156 56.1562 43.0156 52.7812
Q43.0156 48.5781 41.1406 45.0156
Q39.2656 41.4531 35.9844 38.8594
Q32.7188 36.2812 28.8125 35.0156
Q33.1562 34.1875 37.0625 31.7344
Q40.9688 29.2969 43.3281 25.4844
Q45.7031 21.6875 45.7031 17.2812
Q45.7031 11.7656 42.6719 7.29688
Q39.6562 2.82812 34.7188 0.3125
Q29.7812 -2.20312 24.3125 -2.20312
Q19.625 -2.20312 14.9062 -0.40625
Q10.2031 1.375 7.20312 4.9375
Q4.20312 8.5 4.20312 13.4844
Q4.20312 15.9688 5.85938 17.625
Q7.51562 19.2812 10.0156 19.2812
Q11.625 19.2812 12.9688 18.5312
Q14.3125 17.7812 15.0625 16.4062
Q15.8281 15.0469 15.8281 13.4844
Q15.8281 11.0312 14.1094 9.375
Q12.4062 7.71875 10.0156 7.71875
z
" id="Cmr10-33"/>
     <path d="
M4.98438 0
L4.98438 2.6875
Q4.98438 2.9375 5.17188 3.21875
L20.7031 20.4062
Q24.2188 24.2188 26.4062 26.7969
Q28.6094 29.3906 30.75 32.7656
Q32.9062 36.1406 34.1562 39.625
Q35.4062 43.1094 35.4062 47.0156
Q35.4062 51.125 33.8906 54.8594
Q32.375 58.5938 29.375 60.8438
Q26.375 63.0938 22.125 63.0938
Q17.7812 63.0938 14.3125 60.4688
Q10.8438 57.8594 9.42188 53.7188
Q9.8125 53.8125 10.5 53.8125
Q12.75 53.8125 14.3281 52.2969
Q15.9219 50.7812 15.9219 48.3906
Q15.9219 46.0938 14.3281 44.5
Q12.75 42.9219 10.5 42.9219
Q8.15625 42.9219 6.5625 44.5469
Q4.98438 46.1875 4.98438 48.3906
Q4.98438 52.1562 6.39062 55.4375
Q7.8125 58.7344 10.4688 61.2969
Q13.1406 63.875 16.4844 65.2344
Q19.8281 66.6094 23.5781 66.6094
Q29.2969 66.6094 34.2188 64.1875
Q39.1562 61.7656 42.0312 57.3438
Q44.9219 52.9375 44.9219 47.0156
Q44.9219 42.6719 43.0156 38.7656
Q41.1094 34.8594 38.125 31.6562
Q35.1562 28.4688 30.5156 24.4062
Q25.875 20.3594 24.4219 19
L13.0938 8.10938
L22.7031 8.10938
Q29.7812 8.10938 34.5469 8.21875
Q39.3125 8.34375 39.5938 8.59375
Q40.7656 9.85938 42 17.8281
L44.9219 17.8281
L42.0938 0
z
" id="Cmr10-32"/>
     <path d="
M4.89062 0
Q3.90625 0 3.90625 1.3125
Q3.95312 1.5625 4.09375 2.17188
Q4.25 2.78125 4.51562 3.14062
Q4.78125 3.51562 5.17188 3.51562
Q11.2812 3.51562 13.7188 4.20312
Q14.9844 4.64062 15.5781 6.89062
L29.2969 61.8125
Q29.5 62.7969 29.5 63.1875
Q29.5 64.2656 28.3281 64.4062
Q26.4219 64.7969 21.0938 64.7969
Q20.125 64.7969 20.125 66.1094
Q20.1719 66.3594 20.3125 66.9688
Q20.4531 67.5781 20.7188 67.9375
Q21 68.3125 21.3906 68.3125
L55.9062 68.3125
Q60.6406 68.3125 65.0781 66.625
Q69.5312 64.9375 72.3594 61.4688
Q75.2031 58.0156 75.2031 53.0781
Q75.2031 46.7344 70.7344 41.75
Q66.2656 36.7656 59.5938 33.9844
Q52.9375 31.2031 46.6875 31.2031
L30.4219 31.2031
L24.3125 6.5
Q24.125 5.51562 24.125 5.07812
Q24.125 4.6875 24.2344 4.42188
Q24.3594 4.15625 24.5781 4.07812
Q24.8125 4 25.2969 3.90625
Q27.2031 3.51562 32.5156 3.51562
Q33.5 3.51562 33.5 2.20312
Q33.1562 0.78125 32.9531 0.390625
Q32.7656 0 31.7812 0
z

M30.9062 34.1875
L44.9219 34.1875
Q54.6406 34.1875 59.7188 39.4062
Q62.3125 42 63.9375 46.875
Q65.5781 51.7656 65.5781 55.7188
Q65.5781 60.6406 61.8125 62.7188
Q58.0625 64.7969 52.4844 64.7969
L42.9219 64.7969
Q40.1875 64.7969 39.2969 64.3281
Q38.4219 63.875 37.7031 61.375
z
" id="Cmmi10-50"/>
     <path d="
M6.5 -25
Q5.60938 -25 5.60938 -24.125
Q5.60938 -23.6875 5.8125 -23.4844
Q22.9062 -6.78125 22.9062 25
Q22.9062 56.7812 6 73.2969
Q5.60938 73.5312 5.60938 74.125
Q5.60938 74.4688 5.875 74.7344
Q6.15625 75 6.5 75
L7.42188 75
Q7.71875 75 7.90625 74.8125
Q15.0938 69.1406 19.875 61.0312
Q24.6562 52.9375 26.875 43.75
Q29.1094 34.5781 29.1094 25
Q29.1094 17.9219 27.9062 11.0625
Q26.7031 4.20312 24.0938 -2.45312
Q21.4844 -9.125 17.4844 -14.7656
Q13.4844 -20.4062 7.90625 -24.8125
Q7.71875 -25 7.42188 -25
z
" id="Cmr10-29"/>
     <path d="
M31 -24.8125
Q25.4375 -20.4062 21.4062 -14.7188
Q17.3906 -9.03125 14.8125 -2.57812
Q12.25 3.85938 10.9844 10.8906
Q9.71875 17.9219 9.71875 25
Q9.71875 32.1719 10.9844 39.2031
Q12.25 46.2344 14.8594 52.7344
Q17.4844 59.2344 21.5312 64.8906
Q25.5938 70.5625 31 74.8125
Q31 75 31.5 75
L32.4219 75
Q32.7188 75 32.9531 74.7344
Q33.2031 74.4688 33.2031 74.125
Q33.2031 73.6875 33.0156 73.4844
Q28.125 68.7031 24.875 63.2344
Q21.625 57.7656 19.6406 51.5781
Q17.6719 45.4062 16.7969 38.7812
Q15.9219 32.1719 15.9219 25
Q15.9219 -6.78125 32.9062 -23.2969
Q33.2031 -23.5781 33.2031 -24.125
Q33.2031 -24.3594 32.9375 -24.6719
Q32.6719 -25 32.4219 -25
L31.5 -25
Q31 -25 31 -24.8125" id="Cmr10-28"/>
     <path d="
M9.90625 -18.0156
Q9.90625 -17.5781 10.2969 -17.1875
Q13.9219 -13.7188 15.9219 -9.17188
Q17.9219 -4.64062 17.9219 0.390625
L17.9219 1.60938
Q16.3125 0 13.9219 0
Q11.625 0 10.0156 1.60938
Q8.40625 3.21875 8.40625 5.51562
Q8.40625 7.85938 10.0156 9.42188
Q11.625 10.9844 13.9219 10.9844
Q17.4844 10.9844 19 7.6875
Q20.5156 4.39062 20.5156 0.390625
Q20.5156 -5.17188 18.2812 -10.1719
Q16.0625 -15.1875 12.0156 -19.1875
Q11.625 -19.3906 11.375 -19.3906
Q10.8906 -19.3906 10.3906 -18.9375
Q9.90625 -18.5 9.90625 -18.0156" id="Cmmi10-3b"/>
    </defs>
    <g transform="translate(121.990192308 105.508461538)scale(0.13 -0.13)">
     <use transform="translate(0.0 25.0)" xlink:href="#Cmmi10-50"/>
     <use transform="translate(64.208984375 25.0)" xlink:href="#Cmr10-28"/>
     <use transform="translate(103.02734375 25.0)" xlink:href="#Cmr10-32"/>
     <use transform="translate(153.02734375 25.0)" xlink:href="#Cmmi10-3b"/>
     <use transform="translate(182.6953125 25.0)" xlink:href="#Cmr10-33"/>
     <use transform="translate(232.6953125 25.0)" xlink:href="#Cmr10-29"/>
    </g>
   </g>
   <g id="text_14">
    <!-- $2x_1-\,x_2=\,1$ -->
    <defs>
     <path d="
M7.8125 2.875
Q9.57812 1.51562 12.7969 1.51562
Q15.9219 1.51562 18.3125 4.51562
Q20.7031 7.51562 21.5781 11.0781
L26.125 28.8125
Q27.2031 33.6406 27.2031 35.4062
Q27.2031 37.8906 25.8125 39.75
Q24.4219 41.6094 21.9219 41.6094
Q18.75 41.6094 15.9688 39.625
Q13.1875 37.6406 11.2812 34.5938
Q9.375 31.5469 8.59375 28.4219
Q8.40625 27.7812 7.8125 27.7812
L6.59375 27.7812
Q5.8125 27.7812 5.8125 28.7188
L5.8125 29
Q6.78125 32.7188 9.125 36.25
Q11.4688 39.7969 14.8594 41.9844
Q18.2656 44.1875 22.125 44.1875
Q25.7812 44.1875 28.7344 42.2344
Q31.6875 40.2812 32.9062 36.9219
Q34.625 39.9844 37.2812 42.0781
Q39.9375 44.1875 43.1094 44.1875
Q45.2656 44.1875 47.5 43.4219
Q49.75 42.6719 51.1719 41.1094
Q52.5938 39.5469 52.5938 37.2031
Q52.5938 34.6719 50.9531 32.8281
Q49.3125 31 46.7812 31
Q45.1719 31 44.0938 32.0312
Q43.0156 33.0625 43.0156 34.625
Q43.0156 36.7188 44.4531 38.2969
Q45.9062 39.8906 47.9062 40.1875
Q46.0938 41.6094 42.9219 41.6094
Q39.7031 41.6094 37.3281 38.625
Q34.9688 35.6406 33.9844 31.9844
L29.5938 14.3125
Q28.5156 10.2969 28.5156 7.71875
Q28.5156 5.17188 29.9531 3.34375
Q31.3906 1.51562 33.7969 1.51562
Q38.4844 1.51562 42.1562 5.64062
Q45.8438 9.76562 47.0156 14.7031
Q47.2188 15.2812 47.7969 15.2812
L49.0312 15.2812
Q49.4219 15.2812 49.6562 15.0156
Q49.9062 14.75 49.9062 14.4062
Q49.9062 14.3125 49.8125 14.1094
Q48.3906 8.15625 43.8438 3.51562
Q39.3125 -1.125 33.5938 -1.125
Q29.9375 -1.125 26.9844 0.84375
Q24.0312 2.82812 22.7969 6.20312
Q21.2344 3.26562 18.4688 1.0625
Q15.7188 -1.125 12.5938 -1.125
Q10.4531 -1.125 8.17188 -0.359375
Q5.90625 0.390625 4.48438 1.95312
Q3.07812 3.51562 3.07812 5.90625
Q3.07812 8.25 4.70312 10.1719
Q6.34375 12.1094 8.79688 12.1094
Q10.4531 12.1094 11.5781 11.1094
Q12.7031 10.1094 12.7031 8.5
Q12.7031 6.39062 11.2969 4.82812
Q9.90625 3.26562 7.8125 2.875" id="Cmmi10-78"/>
     <path d="
M10.2031 23
Q9.375 23 8.82812 23.625
Q8.29688 24.2656 8.29688 25
Q8.29688 25.7344 8.82812 26.3594
Q9.375 27 10.2031 27
L67.5781 27
Q68.3594 27 68.875 26.3594
Q69.3906 25.7344 69.3906 25
Q69.3906 24.2656 68.875 23.625
Q68.3594 23 67.5781 23
z
" id="Cmsy10-a1"/>
     <path d="
M9.28125 0
L9.28125 3.51562
Q21.7812 3.51562 21.7812 6.6875
L21.7812 59.1875
Q16.6094 56.6875 8.6875 56.6875
L8.6875 60.2031
Q20.9531 60.2031 27.2031 66.6094
L28.6094 66.6094
Q28.9531 66.6094 29.2656 66.3281
Q29.5938 66.0625 29.5938 65.7188
L29.5938 6.6875
Q29.5938 3.51562 42.0938 3.51562
L42.0938 0
z
" id="Cmr10-31"/>
     <path d="
M7.51562 13.2812
Q6.6875 13.2812 6.14062 13.9062
Q5.60938 14.5469 5.60938 15.2812
Q5.60938 16.1094 6.14062 16.6875
Q6.6875 17.2812 7.51562 17.2812
L70.3125 17.2812
Q71.0469 17.2812 71.5781 16.6875
Q72.125 16.1094 72.125 15.2812
Q72.125 14.5469 71.5781 13.9062
Q71.0469 13.2812 70.3125 13.2812
z

M7.51562 32.7188
Q6.6875 32.7188 6.14062 33.2969
Q5.60938 33.8906 5.60938 34.7188
Q5.60938 35.4531 6.14062 36.0781
Q6.6875 36.7188 7.51562 36.7188
L70.3125 36.7188
Q71.0469 36.7188 71.5781 36.0781
Q72.125 35.4531 72.125 34.7188
Q72.125 33.8906 71.5781 33.2969
Q71.0469 32.7188 70.3125 32.7188
z
" id="Cmr10-3d"/>
    </defs>
    <g transform="translate(156.751730769 44.5942307692)scale(0.13 -0.13)">
     <use transform="translate(0.0 26.390625)" xlink:href="#Cmr10-32"/>
     <use transform="translate(50.0 26.390625)" xlink:href="#Cmmi10-78"/>
     <use transform="translate(107.080078125 0.88125)scale(0.7)" xlink:href="#Cmr10-31"/>
     <use transform="translate(157.080078125 26.390625)" xlink:href="#Cmsy10-a1"/>
     <use transform="translate(269.8828125 26.390625)" xlink:href="#Cmmi10-78"/>
     <use transform="translate(326.962890625 0.88125)scale(0.7)" xlink:href="#Cmr10-32"/>
     <use transform="translate(394.521484375 26.390625)" xlink:href="#Cmr10-3d"/>
     <use transform="translate(513.697265625 26.390625)" xlink:href="#Cmr10-31"/>
    </g>
   </g>
   <g id="text_15">
    <!-- $x_1+\,x_2=\,5$ -->
    <defs>
     <path d="
M7.51562 23
Q6.6875 23 6.14062 23.625
Q5.60938 24.2656 5.60938 25
Q5.60938 25.7344 6.14062 26.3594
Q6.6875 27 7.51562 27
L36.9219 27
L36.9219 56.5
Q36.9219 57.2812 37.5 57.7812
Q38.0938 58.2969 38.9219 58.2969
Q39.6562 58.2969 40.2812 57.7812
Q40.9219 57.2812 40.9219 56.5
L40.9219 27
L70.3125 27
Q71.0469 27 71.5781 26.3594
Q72.125 25.7344 72.125 25
Q72.125 24.2656 71.5781 23.625
Q71.0469 23 70.3125 23
L40.9219 23
L40.9219 -6.5
Q40.9219 -7.28125 40.2812 -7.78125
Q39.6562 -8.29688 38.9219 -8.29688
Q38.0938 -8.29688 37.5 -7.78125
Q36.9219 -7.28125 36.9219 -6.5
L36.9219 23
z
" id="Cmr10-2b"/>
     <path d="
M8.6875 11.375
Q9.71875 8.45312 11.8438 6.04688
Q13.9688 3.65625 16.875 2.3125
Q19.7812 0.984375 22.9062 0.984375
Q30.125 0.984375 32.8594 6.59375
Q35.5938 12.2031 35.5938 20.2188
Q35.5938 23.6875 35.4688 26.0469
Q35.3594 28.4219 34.8125 30.6094
Q33.8906 34.125 31.5625 36.7656
Q29.25 39.4062 25.875 39.4062
Q22.5156 39.4062 20.0938 38.375
Q17.6719 37.3594 16.1562 35.9844
Q14.6562 34.625 13.4844 33.1094
Q12.3125 31.5938 12.0156 31.5
L10.8906 31.5
Q10.6406 31.5 10.2656 31.8125
Q9.90625 32.125 9.90625 32.4219
L9.90625 65.8281
Q9.90625 66.0625 10.2188 66.3281
Q10.5469 66.6094 10.8906 66.6094
L11.1875 66.6094
Q17.9219 63.375 25.4844 63.375
Q32.9062 63.375 39.7969 66.6094
L40.0938 66.6094
Q40.4375 66.6094 40.7188 66.3594
Q41.0156 66.1094 41.0156 65.8281
L41.0156 64.8906
Q41.0156 64.4062 40.8281 64.4062
Q37.4062 59.8594 32.25 57.3125
Q27.0938 54.7812 21.5781 54.7812
Q17.5781 54.7812 13.375 55.9062
L13.375 37.0156
Q16.7031 39.7031 19.3125 40.8438
Q21.9219 42 25.9844 42
Q31.5 42 35.8594 38.8125
Q40.2344 35.6406 42.5781 30.5312
Q44.9219 25.4375 44.9219 20.125
Q44.9219 14.1094 41.9688 8.98438
Q39.0156 3.85938 33.9375 0.828125
Q28.8594 -2.20312 22.9062 -2.20312
Q17.9688 -2.20312 13.8438 0.328125
Q9.71875 2.875 7.34375 7.17188
Q4.98438 11.4688 4.98438 16.3125
Q4.98438 18.5625 6.4375 19.9688
Q7.90625 21.3906 10.1094 21.3906
Q12.3125 21.3906 13.7969 19.9375
Q15.2812 18.5 15.2812 16.3125
Q15.2812 14.1562 13.7969 12.6719
Q12.3125 11.1875 10.1094 11.1875
Q9.76562 11.1875 9.32812 11.25
Q8.89062 11.3281 8.6875 11.375" id="Cmr10-35"/>
    </defs>
    <g transform="translate(127.0925 214.775769231)scale(0.13 -0.13)">
     <use transform="translate(0.0 26.390625)" xlink:href="#Cmmi10-78"/>
     <use transform="translate(57.080078125 0.88125)scale(0.7)" xlink:href="#Cmr10-31"/>
     <use transform="translate(124.638671875 26.390625)" xlink:href="#Cmr10-2b"/>
     <use transform="translate(243.814453125 26.390625)" xlink:href="#Cmmi10-78"/>
     <use transform="translate(300.89453125 0.88125)scale(0.7)" xlink:href="#Cmr10-32"/>
     <use transform="translate(368.453125 26.390625)" xlink:href="#Cmr10-3d"/>
     <use transform="translate(487.62890625 26.390625)" xlink:href="#Cmr10-35"/>
    </g>
   </g>
   <g id="PathCollection_1">
    <defs>
     <path d="
M0 1.93649
C0.513564 1.93649 1.00616 1.73245 1.36931 1.36931
C1.73245 1.00616 1.93649 0.513564 1.93649 0
C1.93649 -0.513564 1.73245 -1.00616 1.36931 -1.36931
C1.00616 -1.73245 0.513564 -1.93649 0 -1.93649
C-0.513564 -1.93649 -1.00616 -1.73245 -1.36931 -1.36931
C-1.73245 -1.00616 -1.93649 -0.513564 -1.93649 0
C-1.93649 0.513564 -1.73245 1.00616 -1.36931 1.36931
C-1.00616 1.73245 -0.513564 1.93649 0 1.93649
z
" id="C4_0_43e184535d"/>
    </defs>
    <g clip-path="url(#p8364a59092)">
     <use x="110.560192308" xlink:href="#C4_0_43e184535d" y="101.247692308"/>
    </g>
   </g>
  </g>
 </g>
 <defs>
  <clipPath id="p8364a59092">
   <rect height="232.88" width="232.88" x="16.5125" y="7.2"/>
  </clipPath>
 </defs>
</svg>
