<?xml version="1.0" encoding="utf-8"?>
<!-- Generator: Adobe Illustrator 16.0.0, SVG Export Plug-In . SVG Version: 6.00 Build 0)  -->
<!DOCTYPE svg PUBLIC "-//W3C//DTD SVG 1.1//EN" "http://www.w3.org/Graphics/SVG/1.1/DTD/svg11.dtd">
<svg version="1.1" id="Layer_1" xmlns="http://www.w3.org/2000/svg" xmlns:xlink="http://www.w3.org/1999/xlink" x="0px" y="0px"
	 width="576px" height="432px" viewBox="0 0 576 432" enable-background="new 0 0 576 432" xml:space="preserve">
<g>
	<defs>
		<rect id="SVGID_1_" width="576" height="432"/>
	</defs>
	<clipPath id="SVGID_2_">
		<use xlink:href="#SVGID_1_"  overflow="visible"/>
	</clipPath>
	<rect clip-path="url(#SVGID_2_)" fill="#FFFFFF" width="576" height="432"/>
	<rect x="72" y="43.2" clip-path="url(#SVGID_2_)" fill="#FFFFFF" width="446.4" height="345.6"/>
	<g clip-path="url(#SVGID_2_)">
		<defs>
			<rect id="SVGID_3_" x="72" y="43.2" width="446.4" height="345.6"/>
		</defs>
		<clipPath id="SVGID_4_">
			<use xlink:href="#SVGID_3_"  overflow="visible"/>
		</clipPath>
		
			<polyline clip-path="url(#SVGID_4_)" fill="none" stroke="#0000FF" stroke-linecap="square" stroke-linejoin="round" stroke-miterlimit="10" points="
			72,386.496 80.421,361.746 88.317,339.218 95.733,318.727 102.706,300.106 109.269,283.206 115.452,267.888 121.281,254.027 
			126.839,241.374 132.085,229.976 137.094,219.615 141.822,210.333 146.341,201.943 150.661,194.386 154.738,187.693 
			158.638,181.712 162.366,176.396 165.882,171.763 169.242,167.692 172.455,164.144 175.524,161.078 178.456,158.458 
			181.255,156.25 183.926,154.418 186.519,152.908 188.991,151.722 191.39,150.814 193.719,150.171 195.98,149.779 198.174,149.622 
			200.347,149.691 202.455,149.979 204.586,150.496 206.697,151.238 208.829,152.228 210.982,153.478 213.155,155.001 
			215.348,156.813 217.598,158.965 219.905,161.49 222.228,164.363 224.604,167.656 227.069,171.461 229.583,175.759 
			232.144,180.58 234.786,186.037 237.507,192.179 240.266,198.965 243.099,206.526 246.001,214.915 248.97,224.183 
			252.001,234.381 255.127,245.688 258.309,258.042 261.577,271.634 264.926,286.533 268.353,302.811 271.852,320.532 
			275.419,339.762 279.082,360.741 282.833,383.549 286.668,408.264 290.302,433 		"/>
	</g>
	<g clip-path="url(#SVGID_2_)">
		<defs>
			<rect id="SVGID_5_" x="72" y="43.2" width="446.4" height="345.6"/>
		</defs>
		<clipPath id="SVGID_6_">
			<use xlink:href="#SVGID_5_"  overflow="visible"/>
		</clipPath>
		
			<polyline clip-path="url(#SVGID_6_)" fill="none" stroke="#008000" stroke-linecap="square" stroke-linejoin="round" stroke-miterlimit="10" points="
			72,386.496 78.804,366.566 85.531,347.553 92.103,329.636 98.598,312.572 104.938,296.53 111.201,281.28 117.386,266.801 
			123.417,253.24 129.371,240.394 135.247,228.239 140.968,216.906 146.613,206.212 152.18,196.136 157.669,186.659 
			163.004,177.885 168.262,169.66 173.442,161.964 178.545,154.781 183.571,148.09 188.442,141.971 193.236,136.299 
			197.952,131.057 202.591,126.23 207.153,121.8 211.638,117.752 216.045,114.071 220.375,110.74 224.627,107.744 228.802,105.069 
			232.978,102.658 237.076,100.548 241.096,98.724 245.117,97.145 249.06,95.833 253.003,94.757 256.869,93.93 260.735,93.329 
			264.601,92.955 268.467,92.806 272.333,92.883 276.199,93.186 280.065,93.715 283.931,94.471 287.797,95.452 291.74,96.686 
			295.684,98.155 299.626,99.859 303.646,101.838 307.745,104.107 311.843,106.631 316.018,109.463 320.271,112.618 
			324.601,116.112 329.008,119.959 333.492,124.176 338.054,128.777 342.693,133.779 347.409,139.198 352.203,145.05 
			357.074,151.353 362.022,158.123 367.049,165.378 372.151,173.136 377.332,181.414 382.667,190.363 388.079,199.882 
			393.568,209.989 399.136,220.704 404.857,232.205 410.656,244.367 416.532,257.209 422.563,270.933 428.672,285.394 
			434.856,300.611 441.12,316.609 447.537,333.617 454.032,351.465 460.604,370.174 467.331,390 474.135,410.75 481.094,432.695 
			481.188,433 		"/>
	</g>
	<g clip-path="url(#SVGID_2_)">
		<defs>
			<rect id="SVGID_7_" x="72" y="43.2" width="446.4" height="345.6"/>
		</defs>
		<clipPath id="SVGID_8_">
			<use xlink:href="#SVGID_7_"  overflow="visible"/>
		</clipPath>
		
			<line clip-path="url(#SVGID_8_)" fill="none" stroke="#000000" stroke-width="0.5" stroke-linejoin="round" stroke-miterlimit="10" stroke-dasharray="1,3" x1="72" y1="388.8" x2="72" y2="43.2"/>
	</g>
	<line clip-path="url(#SVGID_2_)" x1="72" y1="388.8" x2="72" y2="384.8"/>
	
		<line clip-path="url(#SVGID_2_)" fill="none" stroke="#000000" stroke-width="0.5" stroke-linejoin="round" stroke-miterlimit="10" x1="72" y1="388.8" x2="72" y2="384.8"/>
	<line clip-path="url(#SVGID_2_)" x1="72" y1="43.2" x2="72" y2="47.2"/>
	
		<line clip-path="url(#SVGID_2_)" fill="none" stroke="#000000" stroke-width="0.5" stroke-linejoin="round" stroke-miterlimit="10" x1="72" y1="43.2" x2="72" y2="47.2"/>
	<path clip-path="url(#SVGID_2_)" d="M72.792,393.021c0.972,0,1.716,0.396,2.244,1.163c0.516,0.78,0.78,1.908,0.78,3.372
		c0,1.477-0.264,2.604-0.78,3.372c-0.528,0.769-1.272,1.152-2.244,1.152c-0.984,0-1.74-0.384-2.256-1.152
		c-0.516-0.768-0.768-1.896-0.768-3.372c0-1.464,0.252-2.592,0.768-3.372C71.053,393.417,71.809,393.021,72.792,393.021
		 M72.792,393.957c-0.612,0-1.068,0.3-1.38,0.9c-0.312,0.6-0.456,1.5-0.456,2.699c0,1.2,0.144,2.101,0.456,2.7
		c0.312,0.601,0.768,0.9,1.38,0.9c0.612,0,1.068-0.3,1.38-0.9c0.3-0.6,0.456-1.5,0.456-2.7c0-1.199-0.156-2.1-0.456-2.699
		C73.86,394.257,73.405,393.957,72.792,393.957"/>
	<g clip-path="url(#SVGID_2_)">
		<defs>
			<rect id="SVGID_9_" x="72" y="43.2" width="446.4" height="345.6"/>
		</defs>
		<clipPath id="SVGID_10_">
			<use xlink:href="#SVGID_9_"  overflow="visible"/>
		</clipPath>
		
			<line clip-path="url(#SVGID_10_)" fill="none" stroke="#000000" stroke-width="0.5" stroke-linejoin="round" stroke-miterlimit="10" stroke-dasharray="1,3" x1="161.28" y1="388.8" x2="161.28" y2="43.2"/>
	</g>
	<line clip-path="url(#SVGID_2_)" x1="161.28" y1="388.8" x2="161.28" y2="384.8"/>
	
		<line clip-path="url(#SVGID_2_)" fill="none" stroke="#000000" stroke-width="0.5" stroke-linejoin="round" stroke-miterlimit="10" x1="161.28" y1="388.8" x2="161.28" y2="384.8"/>
	<line clip-path="url(#SVGID_2_)" x1="161.28" y1="43.2" x2="161.28" y2="47.2"/>
	
		<line clip-path="url(#SVGID_2_)" fill="none" stroke="#000000" stroke-width="0.5" stroke-linejoin="round" stroke-miterlimit="10" x1="161.28" y1="43.2" x2="161.28" y2="47.2"/>
	<path clip-path="url(#SVGID_2_)" d="M152.959,400.929h4.128v0.996h-5.556v-0.996c0.444-0.456,1.056-1.08,1.836-1.872
		c0.768-0.779,1.26-1.283,1.464-1.512c0.384-0.42,0.648-0.78,0.792-1.08c0.144-0.288,0.228-0.588,0.228-0.876
		c0-0.456-0.168-0.84-0.492-1.128c-0.324-0.288-0.744-0.444-1.272-0.444c-0.372,0-0.768,0.072-1.176,0.192
		c-0.408,0.132-0.852,0.324-1.32,0.588v-1.2c0.48-0.191,0.924-0.336,1.332-0.432c0.408-0.096,0.792-0.144,1.14-0.144
		c0.9,0,1.62,0.228,2.16,0.684s0.816,1.056,0.816,1.812c0,0.36-0.072,0.708-0.204,1.021c-0.132,0.324-0.372,0.708-0.732,1.14
		c-0.096,0.12-0.408,0.444-0.936,0.984S153.907,399.957,152.959,400.929"/>
	<path clip-path="url(#SVGID_2_)" d="M162.103,393.021c0.972,0,1.716,0.396,2.244,1.163c0.516,0.78,0.78,1.908,0.78,3.372
		c0,1.477-0.264,2.604-0.78,3.372c-0.528,0.769-1.272,1.152-2.244,1.152c-0.984,0-1.74-0.384-2.256-1.152
		c-0.516-0.768-0.768-1.896-0.768-3.372c0-1.464,0.252-2.592,0.768-3.372C160.363,393.417,161.119,393.021,162.103,393.021
		 M162.103,393.957c-0.612,0-1.068,0.3-1.38,0.9c-0.312,0.6-0.456,1.5-0.456,2.699c0,1.2,0.144,2.101,0.456,2.7
		c0.312,0.601,0.768,0.9,1.38,0.9s1.068-0.3,1.38-0.9c0.3-0.6,0.456-1.5,0.456-2.7c0-1.199-0.156-2.1-0.456-2.699
		C163.171,394.257,162.715,393.957,162.103,393.957"/>
	<path clip-path="url(#SVGID_2_)" d="M169.735,393.021c0.972,0,1.716,0.396,2.244,1.163c0.516,0.78,0.78,1.908,0.78,3.372
		c0,1.477-0.264,2.604-0.78,3.372c-0.528,0.769-1.272,1.152-2.244,1.152c-0.984,0-1.74-0.384-2.256-1.152
		c-0.516-0.768-0.768-1.896-0.768-3.372c0-1.464,0.252-2.592,0.768-3.372C167.995,393.417,168.751,393.021,169.735,393.021
		 M169.735,393.957c-0.612,0-1.068,0.3-1.38,0.9c-0.312,0.6-0.456,1.5-0.456,2.699c0,1.2,0.144,2.101,0.456,2.7
		c0.312,0.601,0.768,0.9,1.38,0.9c0.612,0,1.068-0.3,1.38-0.9c0.3-0.6,0.456-1.5,0.456-2.7c0-1.199-0.156-2.1-0.456-2.699
		C170.803,394.257,170.347,393.957,169.735,393.957"/>
	<g clip-path="url(#SVGID_2_)">
		<defs>
			<rect id="SVGID_11_" x="72" y="43.2" width="446.4" height="345.6"/>
		</defs>
		<clipPath id="SVGID_12_">
			<use xlink:href="#SVGID_11_"  overflow="visible"/>
		</clipPath>
		
			<line clip-path="url(#SVGID_12_)" fill="none" stroke="#000000" stroke-width="0.5" stroke-linejoin="round" stroke-miterlimit="10" stroke-dasharray="1,3" x1="250.56" y1="388.8" x2="250.56" y2="43.2"/>
	</g>
	<line clip-path="url(#SVGID_2_)" x1="250.56" y1="388.8" x2="250.56" y2="384.8"/>
	
		<line clip-path="url(#SVGID_2_)" fill="none" stroke="#000000" stroke-width="0.5" stroke-linejoin="round" stroke-miterlimit="10" x1="250.56" y1="388.8" x2="250.56" y2="384.8"/>
	<line clip-path="url(#SVGID_2_)" x1="250.56" y1="43.2" x2="250.56" y2="47.2"/>
	
		<line clip-path="url(#SVGID_2_)" fill="none" stroke="#000000" stroke-width="0.5" stroke-linejoin="round" stroke-miterlimit="10" x1="250.56" y1="43.2" x2="250.56" y2="47.2"/>
	<path clip-path="url(#SVGID_2_)" d="M244.019,393.177h1.488v5.7h1.248v0.984h-1.248v2.063h-1.176v-2.063h-3.948v-1.141
		L244.019,393.177 M244.331,394.209l-2.988,4.668h2.988V394.209"/>
	<path clip-path="url(#SVGID_2_)" d="M251.242,393.021c0.972,0,1.716,0.396,2.244,1.163c0.516,0.78,0.78,1.908,0.78,3.372
		c0,1.477-0.264,2.604-0.78,3.372c-0.528,0.769-1.272,1.152-2.244,1.152c-0.984,0-1.74-0.384-2.256-1.152
		c-0.516-0.768-0.768-1.896-0.768-3.372c0-1.464,0.252-2.592,0.768-3.372C249.502,393.417,250.258,393.021,251.242,393.021
		 M251.242,393.957c-0.612,0-1.068,0.3-1.38,0.9c-0.312,0.6-0.456,1.5-0.456,2.699c0,1.2,0.144,2.101,0.456,2.7
		c0.312,0.601,0.768,0.9,1.38,0.9c0.612,0,1.068-0.3,1.38-0.9c0.3-0.6,0.456-1.5,0.456-2.7c0-1.199-0.156-2.1-0.456-2.699
		C252.311,394.257,251.854,393.957,251.242,393.957"/>
	<path clip-path="url(#SVGID_2_)" d="M258.875,393.021c0.972,0,1.716,0.396,2.244,1.163c0.516,0.78,0.78,1.908,0.78,3.372
		c0,1.477-0.264,2.604-0.78,3.372c-0.528,0.769-1.272,1.152-2.244,1.152c-0.984,0-1.74-0.384-2.256-1.152
		c-0.516-0.768-0.768-1.896-0.768-3.372c0-1.464,0.252-2.592,0.768-3.372C257.134,393.417,257.891,393.021,258.875,393.021
		 M258.875,393.957c-0.612,0-1.068,0.3-1.38,0.9c-0.312,0.6-0.456,1.5-0.456,2.699c0,1.2,0.144,2.101,0.456,2.7
		c0.312,0.601,0.768,0.9,1.38,0.9c0.612,0,1.068-0.3,1.38-0.9c0.3-0.6,0.456-1.5,0.456-2.7c0-1.199-0.156-2.1-0.456-2.699
		C259.942,394.257,259.486,393.957,258.875,393.957"/>
	<g clip-path="url(#SVGID_2_)">
		<defs>
			<rect id="SVGID_13_" x="72" y="43.2" width="446.4" height="345.6"/>
		</defs>
		<clipPath id="SVGID_14_">
			<use xlink:href="#SVGID_13_"  overflow="visible"/>
		</clipPath>
		
			<line clip-path="url(#SVGID_14_)" fill="none" stroke="#000000" stroke-width="0.5" stroke-linejoin="round" stroke-miterlimit="10" stroke-dasharray="1,3" x1="339.84" y1="388.8" x2="339.84" y2="43.2"/>
	</g>
	<line clip-path="url(#SVGID_2_)" x1="339.84" y1="388.8" x2="339.84" y2="384.8"/>
	
		<line clip-path="url(#SVGID_2_)" fill="none" stroke="#000000" stroke-width="0.5" stroke-linejoin="round" stroke-miterlimit="10" x1="339.84" y1="388.8" x2="339.84" y2="384.8"/>
	<line clip-path="url(#SVGID_2_)" x1="339.84" y1="43.2" x2="339.84" y2="47.2"/>
	
		<line clip-path="url(#SVGID_2_)" fill="none" stroke="#000000" stroke-width="0.5" stroke-linejoin="round" stroke-miterlimit="10" x1="339.84" y1="43.2" x2="339.84" y2="47.2"/>
	<path clip-path="url(#SVGID_2_)" d="M335.512,393.369v1.08c-0.301-0.145-0.601-0.252-0.9-0.324c-0.312-0.072-0.612-0.108-0.9-0.108
		c-0.792,0-1.392,0.265-1.8,0.792c-0.408,0.528-0.647,1.332-0.695,2.389c0.228-0.336,0.516-0.601,0.863-0.78
		c0.349-0.18,0.732-0.276,1.152-0.276c0.876,0,1.572,0.276,2.076,0.805c0.504,0.527,0.768,1.26,0.768,2.172
		c0,0.899-0.275,1.62-0.804,2.16s-1.236,0.804-2.112,0.804c-1.008,0-1.788-0.384-2.315-1.152c-0.54-0.768-0.805-1.896-0.805-3.372
		c0-1.38,0.324-2.483,0.984-3.3c0.648-0.815,1.536-1.235,2.64-1.235c0.288,0,0.588,0.035,0.9,0.084
		C334.863,393.165,335.176,393.249,335.512,393.369 M333.159,397.077c-0.527,0-0.948,0.191-1.26,0.552
		c-0.313,0.36-0.468,0.864-0.468,1.488c0,0.636,0.155,1.14,0.468,1.5c0.312,0.359,0.732,0.54,1.26,0.54
		c0.528,0,0.948-0.181,1.26-0.54c0.313-0.36,0.469-0.864,0.469-1.5c0-0.624-0.156-1.128-0.469-1.488
		C334.107,397.269,333.688,397.077,333.159,397.077"/>
	<path clip-path="url(#SVGID_2_)" d="M340.647,393.021c0.972,0,1.716,0.396,2.244,1.163c0.516,0.78,0.78,1.908,0.78,3.372
		c0,1.477-0.265,2.604-0.78,3.372c-0.528,0.769-1.272,1.152-2.244,1.152c-0.984,0-1.74-0.384-2.256-1.152
		c-0.517-0.768-0.769-1.896-0.769-3.372c0-1.464,0.252-2.592,0.769-3.372C338.907,393.417,339.663,393.021,340.647,393.021
		 M340.647,393.957c-0.612,0-1.068,0.3-1.38,0.9c-0.313,0.6-0.456,1.5-0.456,2.699c0,1.2,0.144,2.101,0.456,2.7
		c0.312,0.601,0.768,0.9,1.38,0.9s1.068-0.3,1.38-0.9c0.3-0.6,0.456-1.5,0.456-2.7c0-1.199-0.156-2.1-0.456-2.699
		C341.716,394.257,341.26,393.957,340.647,393.957"/>
	<path clip-path="url(#SVGID_2_)" d="M348.279,393.021c0.972,0,1.716,0.396,2.244,1.163c0.516,0.78,0.78,1.908,0.78,3.372
		c0,1.477-0.265,2.604-0.78,3.372c-0.528,0.769-1.272,1.152-2.244,1.152c-0.984,0-1.74-0.384-2.256-1.152
		c-0.516-0.768-0.768-1.896-0.768-3.372c0-1.464,0.252-2.592,0.768-3.372C346.539,393.417,347.295,393.021,348.279,393.021
		 M348.279,393.957c-0.612,0-1.068,0.3-1.38,0.9c-0.312,0.6-0.456,1.5-0.456,2.699c0,1.2,0.145,2.101,0.456,2.7
		c0.312,0.601,0.768,0.9,1.38,0.9s1.068-0.3,1.38-0.9c0.3-0.6,0.456-1.5,0.456-2.7c0-1.199-0.156-2.1-0.456-2.699
		C349.348,394.257,348.892,393.957,348.279,393.957"/>
	<g clip-path="url(#SVGID_2_)">
		<defs>
			<rect id="SVGID_15_" x="72" y="43.2" width="446.4" height="345.6"/>
		</defs>
		<clipPath id="SVGID_16_">
			<use xlink:href="#SVGID_15_"  overflow="visible"/>
		</clipPath>
		
			<line clip-path="url(#SVGID_16_)" fill="none" stroke="#000000" stroke-width="0.5" stroke-linejoin="round" stroke-miterlimit="10" stroke-dasharray="1,3" x1="429.12" y1="388.8" x2="429.12" y2="43.2"/>
	</g>
	<line clip-path="url(#SVGID_2_)" x1="429.12" y1="388.8" x2="429.12" y2="384.8"/>
	
		<line clip-path="url(#SVGID_2_)" fill="none" stroke="#000000" stroke-width="0.5" stroke-linejoin="round" stroke-miterlimit="10" x1="429.12" y1="388.8" x2="429.12" y2="384.8"/>
	<line clip-path="url(#SVGID_2_)" x1="429.12" y1="43.2" x2="429.12" y2="47.2"/>
	
		<line clip-path="url(#SVGID_2_)" fill="none" stroke="#000000" stroke-width="0.5" stroke-linejoin="round" stroke-miterlimit="10" x1="429.12" y1="43.2" x2="429.12" y2="47.2"/>
	<path clip-path="url(#SVGID_2_)" d="M420.66,395.397c0,0.455,0.132,0.815,0.42,1.067s0.684,0.372,1.199,0.372
		c0.505,0,0.9-0.12,1.188-0.372s0.432-0.612,0.432-1.067c0-0.456-0.144-0.805-0.432-1.057s-0.684-0.384-1.188-0.384
		c-0.516,0-0.911,0.132-1.199,0.384S420.66,394.941,420.66,395.397 M421.092,397.269c-0.504-0.119-0.9-0.359-1.188-0.708
		c-0.287-0.348-0.42-0.768-0.42-1.271c0-0.696,0.24-1.248,0.744-1.656c0.492-0.408,1.176-0.611,2.052-0.611
		c0.864,0,1.549,0.203,2.053,0.611c0.492,0.408,0.744,0.96,0.744,1.656c0,0.504-0.145,0.924-0.433,1.271
		c-0.288,0.349-0.672,0.589-1.176,0.708c0.563,0.133,1.008,0.396,1.332,0.78c0.312,0.384,0.479,0.864,0.479,1.416
		c0,0.853-0.264,1.5-0.779,1.944c-0.528,0.456-1.26,0.672-2.221,0.672c-0.972,0-1.716-0.216-2.231-0.672
		c-0.517-0.444-0.769-1.092-0.769-1.944c0-0.552,0.156-1.032,0.48-1.416C420.071,397.665,420.516,397.401,421.092,397.269
		 M422.279,397.773c-0.563,0-1.008,0.155-1.332,0.455c-0.323,0.301-0.479,0.708-0.479,1.236s0.156,0.948,0.479,1.248
		c0.324,0.3,0.769,0.444,1.332,0.444c0.553,0,0.996-0.145,1.32-0.456c0.324-0.3,0.492-0.708,0.492-1.236s-0.168-0.936-0.48-1.236
		C423.288,397.929,422.844,397.773,422.279,397.773"/>
	<path clip-path="url(#SVGID_2_)" d="M429.912,393.021c0.972,0,1.716,0.396,2.244,1.163c0.516,0.78,0.779,1.908,0.779,3.372
		c0,1.477-0.264,2.604-0.779,3.372c-0.528,0.769-1.272,1.152-2.244,1.152c-0.984,0-1.74-0.384-2.256-1.152
		c-0.517-0.768-0.769-1.896-0.769-3.372c0-1.464,0.252-2.592,0.769-3.372C428.172,393.417,428.928,393.021,429.912,393.021
		 M429.912,393.957c-0.612,0-1.068,0.3-1.38,0.9c-0.313,0.6-0.456,1.5-0.456,2.699c0,1.2,0.144,2.101,0.456,2.7
		c0.312,0.601,0.768,0.9,1.38,0.9c0.611,0,1.067-0.3,1.38-0.9c0.3-0.6,0.456-1.5,0.456-2.7c0-1.199-0.156-2.1-0.456-2.699
		C430.979,394.257,430.523,393.957,429.912,393.957"/>
	<path clip-path="url(#SVGID_2_)" d="M437.544,393.021c0.972,0,1.716,0.396,2.244,1.163c0.516,0.78,0.779,1.908,0.779,3.372
		c0,1.477-0.264,2.604-0.779,3.372c-0.528,0.769-1.272,1.152-2.244,1.152c-0.984,0-1.74-0.384-2.256-1.152
		c-0.517-0.768-0.769-1.896-0.769-3.372c0-1.464,0.252-2.592,0.769-3.372C435.804,393.417,436.56,393.021,437.544,393.021
		 M437.544,393.957c-0.612,0-1.068,0.3-1.38,0.9c-0.313,0.6-0.456,1.5-0.456,2.699c0,1.2,0.144,2.101,0.456,2.7
		c0.312,0.601,0.768,0.9,1.38,0.9s1.067-0.3,1.38-0.9c0.3-0.6,0.456-1.5,0.456-2.7c0-1.199-0.156-2.1-0.456-2.699
		C438.611,394.257,438.156,393.957,437.544,393.957"/>
	<g clip-path="url(#SVGID_2_)">
		<defs>
			<rect id="SVGID_17_" x="72" y="43.2" width="446.4" height="345.6"/>
		</defs>
		<clipPath id="SVGID_18_">
			<use xlink:href="#SVGID_17_"  overflow="visible"/>
		</clipPath>
		
			<line clip-path="url(#SVGID_18_)" fill="none" stroke="#000000" stroke-width="0.5" stroke-linejoin="round" stroke-miterlimit="10" stroke-dasharray="1,3" x1="518.4" y1="388.8" x2="518.4" y2="43.2"/>
	</g>
	<line clip-path="url(#SVGID_2_)" x1="518.4" y1="388.8" x2="518.4" y2="384.8"/>
	
		<line clip-path="url(#SVGID_2_)" fill="none" stroke="#000000" stroke-width="0.5" stroke-linejoin="round" stroke-miterlimit="10" x1="518.4" y1="388.8" x2="518.4" y2="384.8"/>
	<line clip-path="url(#SVGID_2_)" x1="518.4" y1="43.2" x2="518.4" y2="47.2"/>
	
		<line clip-path="url(#SVGID_2_)" fill="none" stroke="#000000" stroke-width="0.5" stroke-linejoin="round" stroke-miterlimit="10" x1="518.4" y1="43.2" x2="518.4" y2="47.2"/>
	<polyline clip-path="url(#SVGID_2_)" points="505.661,400.929 507.594,400.929 507.594,394.257 505.493,394.677 505.493,393.597 
		507.581,393.177 508.77,393.177 508.77,400.929 510.701,400.929 510.701,401.925 505.661,401.925 505.661,400.929 	"/>
	<path clip-path="url(#SVGID_2_)" d="M515.621,393.021c0.973,0,1.717,0.396,2.244,1.163c0.517,0.78,0.78,1.908,0.78,3.372
		c0,1.477-0.264,2.604-0.78,3.372c-0.527,0.769-1.271,1.152-2.244,1.152c-0.983,0-1.739-0.384-2.256-1.152
		c-0.516-0.768-0.768-1.896-0.768-3.372c0-1.464,0.252-2.592,0.768-3.372C513.882,393.417,514.638,393.021,515.621,393.021
		 M515.621,393.957c-0.611,0-1.067,0.3-1.38,0.9c-0.312,0.6-0.456,1.5-0.456,2.699c0,1.2,0.145,2.101,0.456,2.7
		c0.313,0.601,0.769,0.9,1.38,0.9c0.612,0,1.068-0.3,1.381-0.9c0.3-0.6,0.455-1.5,0.455-2.7c0-1.199-0.155-2.1-0.455-2.699
		C516.689,394.257,516.233,393.957,515.621,393.957"/>
	<path clip-path="url(#SVGID_2_)" d="M523.254,393.021c0.972,0,1.716,0.396,2.243,1.163c0.517,0.78,0.78,1.908,0.78,3.372
		c0,1.477-0.264,2.604-0.78,3.372c-0.527,0.769-1.271,1.152-2.243,1.152c-0.984,0-1.74-0.384-2.257-1.152
		c-0.516-0.768-0.768-1.896-0.768-3.372c0-1.464,0.252-2.592,0.768-3.372C521.514,393.417,522.27,393.021,523.254,393.021
		 M523.254,393.957c-0.612,0-1.068,0.3-1.381,0.9c-0.312,0.6-0.455,1.5-0.455,2.699c0,1.2,0.144,2.101,0.455,2.7
		c0.313,0.601,0.769,0.9,1.381,0.9c0.611,0,1.067-0.3,1.38-0.9c0.3-0.6,0.456-1.5,0.456-2.7c0-1.199-0.156-2.1-0.456-2.699
		C524.321,394.257,523.865,393.957,523.254,393.957"/>
	<path clip-path="url(#SVGID_2_)" d="M530.886,393.021c0.972,0,1.716,0.396,2.244,1.163c0.516,0.78,0.779,1.908,0.779,3.372
		c0,1.477-0.264,2.604-0.779,3.372c-0.528,0.769-1.272,1.152-2.244,1.152c-0.984,0-1.74-0.384-2.256-1.152
		c-0.517-0.768-0.769-1.896-0.769-3.372c0-1.464,0.252-2.592,0.769-3.372C529.146,393.417,529.901,393.021,530.886,393.021
		 M530.886,393.957c-0.612,0-1.068,0.3-1.38,0.9c-0.313,0.6-0.456,1.5-0.456,2.699c0,1.2,0.144,2.101,0.456,2.7
		c0.312,0.601,0.768,0.9,1.38,0.9c0.611,0,1.067-0.3,1.38-0.9c0.3-0.6,0.456-1.5,0.456-2.7c0-1.199-0.156-2.1-0.456-2.699
		C531.953,394.257,531.497,393.957,530.886,393.957"/>
	<polyline clip-path="url(#SVGID_2_)" points="224.571,409.802 225.759,409.802 225.759,413.39 230.055,413.39 230.055,409.802 
		231.243,409.802 231.243,418.55 230.055,418.55 230.055,414.386 225.759,414.386 225.759,418.55 224.571,418.55 224.571,409.802 	
		"/>
	<path clip-path="url(#SVGID_2_)" d="M236.091,411.83c0.936,0,1.668,0.312,2.208,0.912c0.528,0.611,0.804,1.452,0.804,2.532
		c0,1.079-0.276,1.92-0.804,2.52c-0.54,0.612-1.272,0.912-2.208,0.912c-0.948,0-1.692-0.3-2.22-0.912
		c-0.528-0.6-0.792-1.44-0.792-2.52c0-1.08,0.264-1.921,0.792-2.532C234.399,412.142,235.143,411.83,236.091,411.83
		 M236.091,412.742c-0.576,0-1.032,0.228-1.368,0.684s-0.504,1.068-0.504,1.849c0,0.792,0.156,1.403,0.492,1.859
		s0.792,0.672,1.38,0.672c0.576,0,1.032-0.216,1.368-0.672c0.336-0.456,0.504-1.067,0.504-1.859c0-0.769-0.168-1.393-0.504-1.849
		C237.123,412.97,236.667,412.742,236.091,412.742"/>
	<path clip-path="url(#SVGID_2_)" d="M244.695,412.994c-0.12-0.072-0.252-0.12-0.396-0.156c-0.144-0.023-0.3-0.048-0.468-0.048
		c-0.612,0-1.08,0.204-1.404,0.6c-0.336,0.396-0.492,0.96-0.492,1.704v3.456h-1.08v-6.563h1.08v1.02
		c0.216-0.396,0.516-0.696,0.876-0.888c0.36-0.192,0.804-0.288,1.332-0.288c0.072,0,0.156,0.012,0.252,0.012
		c0.084,0.012,0.18,0.024,0.3,0.048V412.994"/>
	<path clip-path="url(#SVGID_2_)" d="M245.823,409.43h1.08v1.368h-1.08V409.43 M245.823,411.986h1.08v6.563h-1.08V411.986"/>
	<polyline clip-path="url(#SVGID_2_)" points="248.691,411.986 253.815,411.986 253.815,412.97 249.759,417.686 253.815,417.686 
		253.815,418.55 248.547,418.55 248.547,417.566 252.603,412.85 248.691,412.85 248.691,411.986 	"/>
	<path clip-path="url(#SVGID_2_)" d="M258.003,411.83c0.936,0,1.668,0.312,2.208,0.912c0.528,0.611,0.804,1.452,0.804,2.532
		c0,1.079-0.276,1.92-0.804,2.52c-0.54,0.612-1.272,0.912-2.208,0.912c-0.948,0-1.692-0.3-2.22-0.912
		c-0.528-0.6-0.792-1.44-0.792-2.52c0-1.08,0.264-1.921,0.792-2.532C256.311,412.142,257.055,411.83,258.003,411.83
		 M258.003,412.742c-0.576,0-1.032,0.228-1.368,0.684s-0.504,1.068-0.504,1.849c0,0.792,0.156,1.403,0.492,1.859
		s0.792,0.672,1.38,0.672c0.576,0,1.032-0.216,1.368-0.672s0.504-1.067,0.504-1.859c0-0.769-0.168-1.393-0.504-1.849
		S258.579,412.742,258.003,412.742"/>
	<path clip-path="url(#SVGID_2_)" d="M268.263,414.59v3.96h-1.08v-3.924c0-0.624-0.132-1.08-0.372-1.392
		c-0.24-0.313-0.6-0.469-1.08-0.469c-0.588,0-1.044,0.192-1.38,0.564s-0.504,0.876-0.504,1.512v3.708h-1.08v-6.563h1.08v1.02
		c0.252-0.384,0.552-0.684,0.912-0.876c0.348-0.191,0.756-0.3,1.212-0.3c0.744,0,1.32,0.24,1.704,0.708
		C268.059,413.006,268.263,413.69,268.263,414.59"/>
	<path clip-path="url(#SVGID_2_)" d="M271.479,410.126v1.86h2.22v0.84h-2.22v3.563c0,0.54,0.072,0.889,0.216,1.032
		c0.144,0.156,0.444,0.229,0.9,0.229h1.104v0.899h-1.104c-0.84,0-1.416-0.156-1.728-0.468c-0.312-0.313-0.468-0.876-0.468-1.692
		v-3.563h-0.792v-0.84h0.792v-1.86H271.479"/>
	<path clip-path="url(#SVGID_2_)" d="M280.251,414.806v3.744h-1.08v-0.996c-0.252,0.408-0.564,0.696-0.924,0.876
		c-0.36,0.181-0.816,0.276-1.344,0.276c-0.672,0-1.212-0.18-1.608-0.552s-0.588-0.876-0.588-1.513c0-0.731,0.24-1.283,0.744-1.668
		c0.492-0.372,1.224-0.563,2.208-0.563h1.512v-0.108c0-0.492-0.168-0.876-0.492-1.151c-0.324-0.265-0.78-0.408-1.368-0.408
		c-0.384,0-0.744,0.048-1.104,0.144c-0.36,0.097-0.696,0.229-1.02,0.396v-0.996c0.384-0.145,0.768-0.264,1.14-0.336
		s0.732-0.12,1.092-0.12c0.948,0,1.656,0.252,2.124,0.744C280.011,413.066,280.251,413.81,280.251,414.806 M278.103,415.25
		c-0.876,0-1.476,0.108-1.812,0.3c-0.336,0.204-0.504,0.54-0.504,1.021c0,0.384,0.12,0.695,0.372,0.912
		c0.252,0.228,0.6,0.336,1.032,0.336c0.6,0,1.08-0.204,1.44-0.637c0.36-0.42,0.54-0.983,0.54-1.691v-0.24H278.103"/>
	<polyline clip-path="url(#SVGID_2_)" points="282.471,409.43 283.551,409.43 283.551,418.55 282.471,418.55 282.471,409.43 	"/>
	<path clip-path="url(#SVGID_2_)" d="M290.271,415.274c0,0.792,0.155,1.416,0.479,1.872c0.324,0.455,0.78,0.672,1.356,0.672
		c0.563,0,1.008-0.217,1.344-0.672c0.324-0.456,0.492-1.08,0.492-1.872s-0.168-1.404-0.492-1.86
		c-0.336-0.456-0.78-0.684-1.344-0.684c-0.576,0-1.032,0.228-1.356,0.684S290.271,414.482,290.271,415.274 M293.943,412.982v-3.553
		h1.08v9.12h-1.08v-0.983c-0.229,0.396-0.517,0.684-0.864,0.863c-0.348,0.181-0.756,0.276-1.236,0.276
		c-0.792,0-1.439-0.313-1.943-0.937c-0.504-0.623-0.744-1.464-0.744-2.495c0-1.032,0.24-1.86,0.744-2.496
		c0.504-0.624,1.151-0.948,1.943-0.948c0.48,0,0.889,0.096,1.236,0.288C293.427,412.31,293.715,412.598,293.943,412.982"/>
	<path clip-path="url(#SVGID_2_)" d="M297.243,409.43h1.08v1.368h-1.08V409.43 M297.243,411.986h1.08v6.563h-1.08V411.986"/>
	<path clip-path="url(#SVGID_2_)" d="M304.768,412.178v1.021c-0.313-0.145-0.624-0.265-0.948-0.349
		c-0.336-0.071-0.672-0.119-1.021-0.119c-0.54,0-0.947,0.084-1.212,0.252c-0.264,0.168-0.396,0.407-0.396,0.731
		c0,0.252,0.096,0.444,0.288,0.588c0.191,0.145,0.575,0.288,1.151,0.408l0.372,0.084c0.769,0.168,1.309,0.408,1.632,0.696
		c0.313,0.3,0.48,0.72,0.48,1.248c0,0.611-0.24,1.092-0.72,1.439c-0.48,0.36-1.152,0.528-1.992,0.528
		c-0.36,0-0.72-0.036-1.104-0.096c-0.384-0.061-0.779-0.156-1.199-0.301v-1.115c0.396,0.216,0.791,0.372,1.176,0.468
		c0.384,0.107,0.768,0.156,1.151,0.156c0.504,0,0.9-0.084,1.177-0.252c0.264-0.168,0.407-0.42,0.407-0.744
		c0-0.288-0.107-0.517-0.3-0.672c-0.191-0.156-0.624-0.313-1.296-0.456l-0.372-0.084c-0.672-0.145-1.164-0.36-1.452-0.648
		c-0.3-0.288-0.443-0.684-0.443-1.2c0-0.611,0.216-1.092,0.647-1.428c0.433-0.336,1.057-0.504,1.872-0.504
		c0.396,0,0.769,0.036,1.128,0.096C304.144,411.986,304.467,412.07,304.768,412.178"/>
	<path clip-path="url(#SVGID_2_)" d="M307.899,410.126v1.86h2.22v0.84h-2.22v3.563c0,0.54,0.071,0.889,0.216,1.032
		c0.144,0.156,0.443,0.229,0.899,0.229h1.104v0.899h-1.104c-0.84,0-1.416-0.156-1.728-0.468c-0.313-0.313-0.468-0.876-0.468-1.692
		v-3.563h-0.792v-0.84h0.792v-1.86H307.899"/>
	<path clip-path="url(#SVGID_2_)" d="M316.671,414.806v3.744h-1.08v-0.996c-0.252,0.408-0.563,0.696-0.924,0.876
		c-0.36,0.181-0.816,0.276-1.344,0.276c-0.672,0-1.212-0.18-1.608-0.552c-0.396-0.372-0.588-0.876-0.588-1.513
		c0-0.731,0.24-1.283,0.744-1.668c0.492-0.372,1.224-0.563,2.208-0.563h1.512v-0.108c0-0.492-0.168-0.876-0.492-1.151
		c-0.323-0.265-0.779-0.408-1.367-0.408c-0.385,0-0.744,0.048-1.104,0.144c-0.36,0.097-0.696,0.229-1.02,0.396v-0.996
		c0.384-0.145,0.768-0.264,1.14-0.336s0.732-0.12,1.092-0.12c0.948,0,1.656,0.252,2.124,0.744S316.671,413.81,316.671,414.806
		 M314.523,415.25c-0.876,0-1.477,0.108-1.813,0.3c-0.336,0.204-0.504,0.54-0.504,1.021c0,0.384,0.12,0.695,0.372,0.912
		c0.252,0.228,0.6,0.336,1.032,0.336c0.6,0,1.08-0.204,1.439-0.637c0.36-0.42,0.54-0.983,0.54-1.691v-0.24H314.523"/>
	<path clip-path="url(#SVGID_2_)" d="M324.352,414.59v3.96h-1.08v-3.924c0-0.624-0.133-1.08-0.372-1.392
		c-0.24-0.313-0.601-0.469-1.08-0.469c-0.588,0-1.044,0.192-1.38,0.564s-0.504,0.876-0.504,1.512v3.708h-1.08v-6.563h1.08v1.02
		c0.252-0.384,0.552-0.684,0.911-0.876c0.349-0.191,0.757-0.3,1.213-0.3c0.743,0,1.319,0.24,1.703,0.708
		C324.147,413.006,324.352,413.69,324.352,414.59"/>
	<path clip-path="url(#SVGID_2_)" d="M331.228,412.238v1.008c-0.313-0.168-0.612-0.288-0.925-0.372
		c-0.312-0.084-0.611-0.132-0.924-0.132c-0.695,0-1.248,0.228-1.632,0.672s-0.576,1.068-0.576,1.86c0,0.804,0.192,1.428,0.576,1.872
		c0.384,0.443,0.937,0.659,1.632,0.659c0.313,0,0.612-0.036,0.924-0.12c0.313-0.084,0.612-0.216,0.925-0.384v0.996
		c-0.313,0.145-0.624,0.252-0.937,0.313c-0.324,0.06-0.672,0.096-1.032,0.096c-0.983,0-1.775-0.3-2.352-0.924
		c-0.588-0.612-0.876-1.452-0.876-2.508c0-1.068,0.288-1.908,0.876-2.521s1.392-0.924,2.424-0.924c0.336,0,0.66,0.036,0.972,0.108
		C330.615,412.01,330.927,412.106,331.228,412.238"/>
	<path clip-path="url(#SVGID_2_)" d="M337.635,414.686c-0.012-0.588-0.18-1.056-0.491-1.416c-0.324-0.348-0.757-0.527-1.284-0.527
		c-0.601,0-1.08,0.18-1.44,0.516c-0.359,0.336-0.576,0.816-0.624,1.428H337.635 M338.715,414.998v0.528h-4.956
		c0.049,0.743,0.265,1.319,0.673,1.704c0.396,0.384,0.947,0.575,1.668,0.575c0.407,0,0.815-0.048,1.199-0.144
		c0.385-0.096,0.78-0.252,1.164-0.468v1.02c-0.384,0.168-0.779,0.3-1.188,0.372s-0.828,0.12-1.236,0.12
		c-1.056,0-1.884-0.3-2.496-0.9c-0.611-0.6-0.912-1.428-0.912-2.472c0-1.068,0.288-1.92,0.864-2.556
		c0.576-0.624,1.368-0.948,2.353-0.948c0.888,0,1.584,0.288,2.1,0.852C338.451,413.258,338.715,414.026,338.715,414.998"/>
	<polyline clip-path="url(#SVGID_2_)" points="340.755,417.062 341.991,417.062 341.991,418.07 341.031,419.93 340.275,419.93 
		340.755,418.07 340.755,417.062 	"/>
	<polyline clip-path="url(#SVGID_2_)" points="348.015,409.43 350.499,409.43 350.499,410.27 349.095,410.27 349.095,419.282 
		350.499,419.282 350.499,420.122 348.015,420.122 348.015,409.43 	"/>
	<path clip-path="url(#SVGID_2_)" d="M357.903,413.246c0.264-0.48,0.588-0.828,0.96-1.068c0.372-0.228,0.815-0.348,1.332-0.348
		c0.672,0,1.2,0.24,1.572,0.72c0.371,0.48,0.563,1.164,0.563,2.04v3.96h-1.08v-3.924c0-0.624-0.12-1.092-0.336-1.404
		c-0.228-0.3-0.563-0.456-1.02-0.456c-0.564,0-1.009,0.192-1.332,0.564c-0.324,0.372-0.48,0.876-0.48,1.512v3.708h-1.08v-3.924
		c0-0.624-0.12-1.092-0.336-1.404c-0.228-0.3-0.576-0.456-1.032-0.456c-0.552,0-0.996,0.192-1.319,0.564
		c-0.324,0.372-0.48,0.876-0.48,1.512v3.708h-1.08v-6.563h1.08v1.02c0.24-0.396,0.54-0.696,0.888-0.888
		c0.336-0.192,0.744-0.288,1.225-0.288c0.479,0,0.876,0.12,1.212,0.36C357.495,412.43,357.735,412.79,357.903,413.246"/>
	<polyline clip-path="url(#SVGID_2_)" points="366.999,409.43 366.999,420.122 364.515,420.122 364.515,419.282 365.919,419.282 
		365.919,410.27 364.515,410.27 364.515,409.43 366.999,409.43 	"/>
	<g clip-path="url(#SVGID_2_)">
		<defs>
			<rect id="SVGID_19_" x="72" y="43.2" width="446.4" height="345.6"/>
		</defs>
		<clipPath id="SVGID_20_">
			<use xlink:href="#SVGID_19_"  overflow="visible"/>
		</clipPath>
		
			<line clip-path="url(#SVGID_20_)" fill="none" stroke="#000000" stroke-width="0.5" stroke-linejoin="round" stroke-miterlimit="10" stroke-dasharray="1,3" x1="72" y1="388.8" x2="518.4" y2="388.8"/>
	</g>
	<line clip-path="url(#SVGID_2_)" x1="72" y1="388.8" x2="76" y2="388.8"/>
	
		<line clip-path="url(#SVGID_2_)" fill="none" stroke="#000000" stroke-width="0.5" stroke-linejoin="round" stroke-miterlimit="10" x1="72" y1="388.8" x2="76" y2="388.8"/>
	<line clip-path="url(#SVGID_2_)" x1="518.4" y1="388.8" x2="514.4" y2="388.8"/>
	
		<line clip-path="url(#SVGID_2_)" fill="none" stroke="#000000" stroke-width="0.5" stroke-linejoin="round" stroke-miterlimit="10" x1="518.4" y1="388.8" x2="514.4" y2="388.8"/>
	<path clip-path="url(#SVGID_2_)" d="M65.769,383.209c0.972,0,1.716,0.396,2.244,1.163c0.516,0.78,0.78,1.908,0.78,3.372
		c0,1.477-0.264,2.604-0.78,3.372c-0.528,0.769-1.272,1.152-2.244,1.152c-0.984,0-1.74-0.384-2.256-1.152
		c-0.516-0.768-0.768-1.896-0.768-3.372c0-1.464,0.252-2.592,0.768-3.372C64.029,383.604,64.785,383.209,65.769,383.209
		 M65.769,384.145c-0.612,0-1.068,0.3-1.38,0.9c-0.312,0.6-0.456,1.5-0.456,2.699c0,1.2,0.144,2.101,0.456,2.7
		c0.312,0.601,0.768,0.9,1.38,0.9c0.612,0,1.068-0.3,1.38-0.9c0.3-0.6,0.456-1.5,0.456-2.7c0-1.199-0.156-2.1-0.456-2.699
		C66.837,384.444,66.381,384.145,65.769,384.145"/>
	<g clip-path="url(#SVGID_2_)">
		<defs>
			<rect id="SVGID_21_" x="72" y="43.2" width="446.4" height="345.6"/>
		</defs>
		<clipPath id="SVGID_22_">
			<use xlink:href="#SVGID_21_"  overflow="visible"/>
		</clipPath>
		
			<line clip-path="url(#SVGID_22_)" fill="none" stroke="#000000" stroke-width="0.5" stroke-linejoin="round" stroke-miterlimit="10" stroke-dasharray="1,3" x1="72" y1="342.72" x2="518.4" y2="342.72"/>
	</g>
	<line clip-path="url(#SVGID_2_)" x1="72" y1="342.72" x2="76" y2="342.72"/>
	
		<line clip-path="url(#SVGID_2_)" fill="none" stroke="#000000" stroke-width="0.5" stroke-linejoin="round" stroke-miterlimit="10" x1="72" y1="342.72" x2="76" y2="342.72"/>
	<line clip-path="url(#SVGID_2_)" x1="518.4" y1="342.72" x2="514.4" y2="342.72"/>
	
		<line clip-path="url(#SVGID_2_)" fill="none" stroke="#000000" stroke-width="0.5" stroke-linejoin="round" stroke-miterlimit="10" x1="518.4" y1="342.72" x2="514.4" y2="342.72"/>
	<path clip-path="url(#SVGID_2_)" d="M56.695,345.036h4.128v0.996h-5.556v-0.996c0.444-0.456,1.056-1.08,1.836-1.872
		c0.768-0.779,1.26-1.283,1.464-1.512c0.384-0.42,0.648-0.78,0.792-1.08c0.144-0.288,0.228-0.588,0.228-0.876
		c0-0.456-0.168-0.84-0.492-1.128c-0.324-0.288-0.744-0.444-1.272-0.444c-0.372,0-0.768,0.072-1.176,0.192
		c-0.408,0.132-0.852,0.324-1.32,0.588v-1.2c0.48-0.191,0.924-0.336,1.332-0.432c0.408-0.096,0.792-0.144,1.14-0.144
		c0.9,0,1.62,0.228,2.16,0.684s0.816,1.056,0.816,1.812c0,0.36-0.072,0.708-0.204,1.021c-0.132,0.324-0.372,0.708-0.732,1.14
		c-0.096,0.12-0.408,0.444-0.936,0.984C58.375,343.309,57.643,344.064,56.695,345.036"/>
	<path clip-path="url(#SVGID_2_)" d="M65.839,337.129c0.972,0,1.716,0.396,2.244,1.164c0.516,0.779,0.78,1.907,0.78,3.371
		c0,1.477-0.264,2.604-0.78,3.372c-0.528,0.769-1.272,1.152-2.244,1.152c-0.984,0-1.74-0.384-2.256-1.152
		c-0.516-0.768-0.768-1.896-0.768-3.372c0-1.464,0.252-2.592,0.768-3.371C64.099,337.524,64.854,337.129,65.839,337.129
		 M65.839,338.064c-0.612,0-1.068,0.3-1.38,0.9c-0.312,0.6-0.456,1.5-0.456,2.699c0,1.2,0.144,2.101,0.456,2.7
		c0.312,0.601,0.768,0.9,1.38,0.9c0.612,0,1.068-0.3,1.38-0.9c0.3-0.6,0.456-1.5,0.456-2.7c0-1.199-0.156-2.1-0.456-2.699
		C66.907,338.364,66.451,338.064,65.839,338.064"/>
	<g clip-path="url(#SVGID_2_)">
		<defs>
			<rect id="SVGID_23_" x="72" y="43.2" width="446.4" height="345.6"/>
		</defs>
		<clipPath id="SVGID_24_">
			<use xlink:href="#SVGID_23_"  overflow="visible"/>
		</clipPath>
		
			<line clip-path="url(#SVGID_24_)" fill="none" stroke="#000000" stroke-width="0.5" stroke-linejoin="round" stroke-miterlimit="10" stroke-dasharray="1,3" x1="72" y1="296.64" x2="518.4" y2="296.64"/>
	</g>
	<line clip-path="url(#SVGID_2_)" x1="72" y1="296.64" x2="76" y2="296.64"/>
	
		<line clip-path="url(#SVGID_2_)" fill="none" stroke="#000000" stroke-width="0.5" stroke-linejoin="round" stroke-miterlimit="10" x1="72" y1="296.64" x2="76" y2="296.64"/>
	<line clip-path="url(#SVGID_2_)" x1="518.4" y1="296.64" x2="514.4" y2="296.64"/>
	
		<line clip-path="url(#SVGID_2_)" fill="none" stroke="#000000" stroke-width="0.5" stroke-linejoin="round" stroke-miterlimit="10" x1="518.4" y1="296.64" x2="514.4" y2="296.64"/>
	<path clip-path="url(#SVGID_2_)" d="M58.333,291.204h1.488v5.7h1.248v0.984h-1.248v2.063h-1.176v-2.063h-3.948v-1.141
		L58.333,291.204 M58.646,292.236l-2.988,4.668h2.988V292.236"/>
	<path clip-path="url(#SVGID_2_)" d="M65.558,291.049c0.972,0,1.716,0.396,2.244,1.164c0.516,0.779,0.78,1.907,0.78,3.372
		c0,1.476-0.264,2.604-0.78,3.371c-0.528,0.769-1.272,1.152-2.244,1.152c-0.984,0-1.74-0.384-2.256-1.152
		c-0.516-0.768-0.768-1.896-0.768-3.371c0-1.465,0.252-2.593,0.768-3.372C63.817,291.444,64.573,291.049,65.558,291.049
		 M65.558,291.984c-0.612,0-1.068,0.3-1.38,0.9c-0.312,0.6-0.456,1.5-0.456,2.7c0,1.199,0.144,2.1,0.456,2.699
		c0.312,0.601,0.768,0.9,1.38,0.9c0.612,0,1.068-0.3,1.38-0.9c0.3-0.6,0.456-1.5,0.456-2.699c0-1.2-0.156-2.101-0.456-2.7
		C66.625,292.284,66.169,291.984,65.558,291.984"/>
	<g clip-path="url(#SVGID_2_)">
		<defs>
			<rect id="SVGID_25_" x="72" y="43.2" width="446.4" height="345.6"/>
		</defs>
		<clipPath id="SVGID_26_">
			<use xlink:href="#SVGID_25_"  overflow="visible"/>
		</clipPath>
		
			<line clip-path="url(#SVGID_26_)" fill="none" stroke="#000000" stroke-width="0.5" stroke-linejoin="round" stroke-miterlimit="10" stroke-dasharray="1,3" x1="72" y1="250.56" x2="518.4" y2="250.56"/>
	</g>
	<line clip-path="url(#SVGID_2_)" x1="72" y1="250.56" x2="76" y2="250.56"/>
	
		<line clip-path="url(#SVGID_2_)" fill="none" stroke="#000000" stroke-width="0.5" stroke-linejoin="round" stroke-miterlimit="10" x1="72" y1="250.56" x2="76" y2="250.56"/>
	<line clip-path="url(#SVGID_2_)" x1="518.4" y1="250.56" x2="514.4" y2="250.56"/>
	
		<line clip-path="url(#SVGID_2_)" fill="none" stroke="#000000" stroke-width="0.5" stroke-linejoin="round" stroke-miterlimit="10" x1="518.4" y1="250.56" x2="514.4" y2="250.56"/>
	<path clip-path="url(#SVGID_2_)" d="M60.671,245.316v1.08c-0.3-0.144-0.6-0.252-0.9-0.324c-0.312-0.071-0.612-0.107-0.9-0.107
		c-0.792,0-1.392,0.264-1.8,0.792c-0.408,0.527-0.648,1.332-0.696,2.388c0.228-0.336,0.516-0.6,0.864-0.78
		c0.348-0.18,0.732-0.275,1.152-0.275c0.876,0,1.572,0.275,2.076,0.804s0.768,1.26,0.768,2.172c0,0.9-0.276,1.62-0.804,2.16
		c-0.528,0.54-1.236,0.804-2.112,0.804c-1.008,0-1.788-0.384-2.316-1.151c-0.54-0.769-0.804-1.896-0.804-3.372
		c0-1.381,0.324-2.484,0.984-3.301c0.648-0.815,1.536-1.235,2.64-1.235c0.288,0,0.588,0.036,0.9,0.084
		C60.023,245.112,60.335,245.196,60.671,245.316 M58.319,249.024c-0.528,0-0.948,0.192-1.26,0.552
		c-0.312,0.36-0.468,0.864-0.468,1.488c0,0.636,0.156,1.14,0.468,1.5s0.732,0.54,1.26,0.54s0.948-0.18,1.26-0.54
		s0.468-0.864,0.468-1.5c0-0.624-0.156-1.128-0.468-1.488C59.268,249.217,58.847,249.024,58.319,249.024"/>
	<path clip-path="url(#SVGID_2_)" d="M65.808,244.969c0.972,0,1.716,0.396,2.244,1.164c0.516,0.779,0.78,1.907,0.78,3.372
		c0,1.476-0.264,2.604-0.78,3.372c-0.528,0.768-1.272,1.151-2.244,1.151c-0.984,0-1.74-0.384-2.256-1.151
		c-0.516-0.769-0.768-1.896-0.768-3.372c0-1.465,0.252-2.593,0.768-3.372C64.067,245.364,64.823,244.969,65.808,244.969
		 M65.808,245.904c-0.612,0-1.068,0.3-1.38,0.9c-0.312,0.6-0.456,1.5-0.456,2.7c0,1.199,0.144,2.1,0.456,2.699
		c0.312,0.601,0.768,0.9,1.38,0.9c0.612,0,1.068-0.3,1.38-0.9c0.3-0.6,0.456-1.5,0.456-2.699c0-1.2-0.156-2.101-0.456-2.7
		C66.875,246.204,66.419,245.904,65.808,245.904"/>
	<g clip-path="url(#SVGID_2_)">
		<defs>
			<rect id="SVGID_27_" x="72" y="43.2" width="446.4" height="345.6"/>
		</defs>
		<clipPath id="SVGID_28_">
			<use xlink:href="#SVGID_27_"  overflow="visible"/>
		</clipPath>
		
			<line clip-path="url(#SVGID_28_)" fill="none" stroke="#000000" stroke-width="0.5" stroke-linejoin="round" stroke-miterlimit="10" stroke-dasharray="1,3" x1="72" y1="204.48" x2="518.4" y2="204.48"/>
	</g>
	<line clip-path="url(#SVGID_2_)" x1="72" y1="204.48" x2="76" y2="204.48"/>
	
		<line clip-path="url(#SVGID_2_)" fill="none" stroke="#000000" stroke-width="0.5" stroke-linejoin="round" stroke-miterlimit="10" x1="72" y1="204.48" x2="76" y2="204.48"/>
	<line clip-path="url(#SVGID_2_)" x1="518.4" y1="204.48" x2="514.4" y2="204.48"/>
	
		<line clip-path="url(#SVGID_2_)" fill="none" stroke="#000000" stroke-width="0.5" stroke-linejoin="round" stroke-miterlimit="10" x1="518.4" y1="204.48" x2="514.4" y2="204.48"/>
	<path clip-path="url(#SVGID_2_)" d="M56.524,201.265c0,0.456,0.132,0.816,0.42,1.068c0.288,0.252,0.684,0.372,1.2,0.372
		c0.504,0,0.9-0.12,1.188-0.372s0.432-0.612,0.432-1.068s-0.144-0.804-0.432-1.056s-0.684-0.384-1.188-0.384
		c-0.516,0-0.912,0.132-1.2,0.384C56.656,200.46,56.524,200.809,56.524,201.265 M56.956,203.137c-0.504-0.12-0.9-0.36-1.188-0.708
		c-0.288-0.348-0.42-0.768-0.42-1.272c0-0.696,0.24-1.248,0.744-1.656c0.492-0.408,1.176-0.612,2.052-0.612
		c0.864,0,1.548,0.204,2.052,0.612c0.492,0.408,0.744,0.96,0.744,1.656c0,0.504-0.144,0.924-0.432,1.272
		c-0.288,0.348-0.672,0.588-1.176,0.708c0.564,0.132,1.008,0.396,1.332,0.78c0.312,0.384,0.48,0.864,0.48,1.416
		c0,0.852-0.264,1.5-0.78,1.944c-0.528,0.456-1.26,0.672-2.22,0.672c-0.972,0-1.716-0.216-2.232-0.672
		c-0.516-0.444-0.768-1.092-0.768-1.944c0-0.552,0.156-1.032,0.48-1.416C55.936,203.533,56.38,203.269,56.956,203.137
		 M58.144,203.641c-0.564,0-1.008,0.156-1.332,0.456c-0.324,0.3-0.48,0.708-0.48,1.236s0.156,0.948,0.48,1.248
		c0.324,0.3,0.768,0.444,1.332,0.444c0.552,0,0.996-0.144,1.32-0.456c0.324-0.3,0.492-0.708,0.492-1.236s-0.168-0.936-0.48-1.236
		C59.152,203.796,58.708,203.641,58.144,203.641"/>
	<path clip-path="url(#SVGID_2_)" d="M65.776,198.889c0.972,0,1.716,0.396,2.244,1.164c0.516,0.78,0.78,1.908,0.78,3.372
		c0,1.476-0.264,2.604-0.78,3.372c-0.528,0.768-1.272,1.152-2.244,1.152c-0.984,0-1.74-0.384-2.256-1.152s-0.768-1.896-0.768-3.372
		c0-1.464,0.252-2.592,0.768-3.372C64.036,199.285,64.792,198.889,65.776,198.889 M65.776,199.825c-0.612,0-1.068,0.3-1.38,0.9
		s-0.456,1.5-0.456,2.7c0,1.2,0.144,2.1,0.456,2.7s0.768,0.9,1.38,0.9c0.612,0,1.068-0.3,1.38-0.9c0.3-0.6,0.456-1.5,0.456-2.7
		c0-1.2-0.156-2.1-0.456-2.7C66.844,200.125,66.388,199.825,65.776,199.825"/>
	<g clip-path="url(#SVGID_2_)">
		<defs>
			<rect id="SVGID_29_" x="72" y="43.2" width="446.4" height="345.6"/>
		</defs>
		<clipPath id="SVGID_30_">
			<use xlink:href="#SVGID_29_"  overflow="visible"/>
		</clipPath>
		
			<line clip-path="url(#SVGID_30_)" fill="none" stroke="#000000" stroke-width="0.5" stroke-linejoin="round" stroke-miterlimit="10" stroke-dasharray="1,3" x1="72" y1="158.4" x2="518.4" y2="158.4"/>
	</g>
	<line clip-path="url(#SVGID_2_)" x1="72" y1="158.4" x2="76" y2="158.4"/>
	
		<line clip-path="url(#SVGID_2_)" fill="none" stroke="#000000" stroke-width="0.5" stroke-linejoin="round" stroke-miterlimit="10" x1="72" y1="158.4" x2="76" y2="158.4"/>
	<line clip-path="url(#SVGID_2_)" x1="518.4" y1="158.4" x2="514.4" y2="158.4"/>
	
		<line clip-path="url(#SVGID_2_)" fill="none" stroke="#000000" stroke-width="0.5" stroke-linejoin="round" stroke-miterlimit="10" x1="518.4" y1="158.4" x2="514.4" y2="158.4"/>
	<polyline clip-path="url(#SVGID_2_)" points="48.675,160.716 50.607,160.716 50.607,154.044 48.507,154.464 48.507,153.384 
		50.596,152.964 51.784,152.964 51.784,160.716 53.715,160.716 53.715,161.712 48.675,161.712 48.675,160.716 	"/>
	<path clip-path="url(#SVGID_2_)" d="M58.636,152.809c0.972,0,1.716,0.396,2.244,1.164c0.516,0.78,0.78,1.908,0.78,3.372
		c0,1.476-0.264,2.604-0.78,3.372c-0.528,0.768-1.272,1.152-2.244,1.152c-0.984,0-1.74-0.384-2.256-1.152s-0.768-1.896-0.768-3.372
		c0-1.464,0.252-2.592,0.768-3.372C56.896,153.205,57.651,152.809,58.636,152.809 M58.636,153.745c-0.612,0-1.068,0.3-1.38,0.9
		s-0.456,1.5-0.456,2.7c0,1.2,0.144,2.1,0.456,2.7s0.768,0.9,1.38,0.9c0.612,0,1.068-0.3,1.38-0.9c0.3-0.6,0.456-1.5,0.456-2.7
		c0-1.2-0.156-2.1-0.456-2.7C59.704,154.044,59.248,153.745,58.636,153.745"/>
	<path clip-path="url(#SVGID_2_)" d="M66.268,152.809c0.972,0,1.716,0.396,2.244,1.164c0.516,0.78,0.78,1.908,0.78,3.372
		c0,1.476-0.264,2.604-0.78,3.372c-0.528,0.768-1.272,1.152-2.244,1.152c-0.984,0-1.74-0.384-2.256-1.152
		c-0.516-0.768-0.768-1.896-0.768-3.372c0-1.464,0.252-2.592,0.768-3.372C64.527,153.205,65.284,152.809,66.268,152.809
		 M66.268,153.745c-0.612,0-1.068,0.3-1.38,0.9s-0.456,1.5-0.456,2.7c0,1.2,0.144,2.1,0.456,2.7s0.768,0.9,1.38,0.9
		s1.068-0.3,1.38-0.9c0.3-0.6,0.456-1.5,0.456-2.7c0-1.2-0.156-2.1-0.456-2.7C67.335,154.044,66.879,153.745,66.268,153.745"/>
	<g clip-path="url(#SVGID_2_)">
		<defs>
			<rect id="SVGID_31_" x="72" y="43.2" width="446.4" height="345.6"/>
		</defs>
		<clipPath id="SVGID_32_">
			<use xlink:href="#SVGID_31_"  overflow="visible"/>
		</clipPath>
		
			<line clip-path="url(#SVGID_32_)" fill="none" stroke="#000000" stroke-width="0.5" stroke-linejoin="round" stroke-miterlimit="10" stroke-dasharray="1,3" x1="72" y1="112.32" x2="518.4" y2="112.32"/>
	</g>
	<line clip-path="url(#SVGID_2_)" x1="72" y1="112.32" x2="76" y2="112.32"/>
	
		<line clip-path="url(#SVGID_2_)" fill="none" stroke="#000000" stroke-width="0.5" stroke-linejoin="round" stroke-miterlimit="10" x1="72" y1="112.32" x2="76" y2="112.32"/>
	<line clip-path="url(#SVGID_2_)" x1="518.4" y1="112.32" x2="514.4" y2="112.32"/>
	
		<line clip-path="url(#SVGID_2_)" fill="none" stroke="#000000" stroke-width="0.5" stroke-linejoin="round" stroke-miterlimit="10" x1="518.4" y1="112.32" x2="514.4" y2="112.32"/>
	<polyline clip-path="url(#SVGID_2_)" points="48.675,114.637 50.607,114.637 50.607,107.964 48.507,108.385 48.507,107.305 
		50.596,106.885 51.784,106.885 51.784,114.637 53.715,114.637 53.715,115.632 48.675,115.632 48.675,114.637 	"/>
	<path clip-path="url(#SVGID_2_)" d="M57.124,114.637h4.128v0.996h-5.556v-0.996c0.444-0.456,1.056-1.08,1.836-1.872
		c0.768-0.78,1.26-1.284,1.464-1.512c0.384-0.42,0.648-0.78,0.792-1.08c0.144-0.288,0.228-0.588,0.228-0.876
		c0-0.456-0.168-0.84-0.492-1.128c-0.324-0.288-0.744-0.444-1.272-0.444c-0.372,0-0.768,0.072-1.176,0.192
		c-0.408,0.132-0.852,0.324-1.32,0.588v-1.2c0.48-0.192,0.924-0.336,1.332-0.432c0.408-0.096,0.792-0.144,1.14-0.144
		c0.9,0,1.62,0.228,2.16,0.684s0.816,1.056,0.816,1.812c0,0.36-0.072,0.708-0.204,1.02c-0.132,0.324-0.372,0.708-0.732,1.14
		c-0.096,0.12-0.408,0.444-0.936,0.984S58.071,113.665,57.124,114.637"/>
	<path clip-path="url(#SVGID_2_)" d="M66.268,106.729c0.972,0,1.716,0.396,2.244,1.164c0.516,0.78,0.78,1.908,0.78,3.372
		c0,1.476-0.264,2.604-0.78,3.372c-0.528,0.768-1.272,1.152-2.244,1.152c-0.984,0-1.74-0.384-2.256-1.152
		c-0.516-0.768-0.768-1.896-0.768-3.372c0-1.464,0.252-2.592,0.768-3.372C64.527,107.125,65.284,106.729,66.268,106.729
		 M66.268,107.665c-0.612,0-1.068,0.3-1.38,0.9s-0.456,1.5-0.456,2.7c0,1.2,0.144,2.1,0.456,2.7s0.768,0.9,1.38,0.9
		s1.068-0.3,1.38-0.9c0.3-0.6,0.456-1.5,0.456-2.7c0-1.2-0.156-2.1-0.456-2.7C67.335,107.964,66.879,107.665,66.268,107.665"/>
	<g clip-path="url(#SVGID_2_)">
		<defs>
			<rect id="SVGID_33_" x="72" y="43.2" width="446.4" height="345.6"/>
		</defs>
		<clipPath id="SVGID_34_">
			<use xlink:href="#SVGID_33_"  overflow="visible"/>
		</clipPath>
		
			<line clip-path="url(#SVGID_34_)" fill="none" stroke="#000000" stroke-width="0.5" stroke-linejoin="round" stroke-miterlimit="10" stroke-dasharray="1,3" x1="72" y1="66.24" x2="518.4" y2="66.24"/>
	</g>
	<line clip-path="url(#SVGID_2_)" x1="72" y1="66.24" x2="76" y2="66.24"/>
	
		<line clip-path="url(#SVGID_2_)" fill="none" stroke="#000000" stroke-width="0.5" stroke-linejoin="round" stroke-miterlimit="10" x1="72" y1="66.24" x2="76" y2="66.24"/>
	<line clip-path="url(#SVGID_2_)" x1="518.4" y1="66.24" x2="514.4" y2="66.24"/>
	
		<line clip-path="url(#SVGID_2_)" fill="none" stroke="#000000" stroke-width="0.5" stroke-linejoin="round" stroke-miterlimit="10" x1="518.4" y1="66.24" x2="514.4" y2="66.24"/>
	<polyline clip-path="url(#SVGID_2_)" points="48.675,68.557 50.607,68.557 50.607,61.884 48.507,62.305 48.507,61.225 
		50.596,60.805 51.784,60.805 51.784,68.557 53.715,68.557 53.715,69.553 48.675,69.553 48.675,68.557 	"/>
	<path clip-path="url(#SVGID_2_)" d="M59.043,60.805h1.488v5.7h1.248v0.984h-1.248v2.064h-1.176v-2.064h-3.948v-1.14L59.043,60.805
		 M59.355,61.836l-2.988,4.668h2.988V61.836"/>
	<path clip-path="url(#SVGID_2_)" d="M66.268,60.648c0.972,0,1.716,0.396,2.244,1.164c0.516,0.78,0.78,1.908,0.78,3.372
		c0,1.476-0.264,2.604-0.78,3.372c-0.528,0.768-1.272,1.152-2.244,1.152c-0.984,0-1.74-0.384-2.256-1.152
		c-0.516-0.768-0.768-1.896-0.768-3.372c0-1.464,0.252-2.592,0.768-3.372C64.527,61.044,65.284,60.648,66.268,60.648 M66.268,61.584
		c-0.612,0-1.068,0.3-1.38,0.9s-0.456,1.5-0.456,2.7c0,1.2,0.144,2.1,0.456,2.7c0.312,0.6,0.768,0.9,1.38,0.9s1.068-0.3,1.38-0.9
		c0.3-0.6,0.456-1.5,0.456-2.7c0-1.2-0.156-2.1-0.456-2.7C67.335,61.884,66.879,61.584,66.268,61.584"/>
	<polyline clip-path="url(#SVGID_2_)" points="39.688,276.217 30.939,279.553 30.939,278.316 38.308,275.545 30.939,272.772 
		30.939,271.536 39.688,274.872 39.688,276.217 	"/>
	<path clip-path="url(#SVGID_2_)" d="M35.824,265.776c-0.588,0.012-1.056,0.18-1.416,0.492c-0.348,0.324-0.528,0.756-0.528,1.284
		c0,0.6,0.18,1.08,0.516,1.439c0.336,0.36,0.816,0.576,1.428,0.624V265.776 M36.136,264.696h0.528v4.956
		c0.744-0.048,1.32-0.264,1.704-0.672c0.384-0.396,0.576-0.948,0.576-1.668c0-0.408-0.048-0.816-0.144-1.2
		c-0.096-0.384-0.252-0.78-0.468-1.164h1.02c0.168,0.384,0.3,0.78,0.372,1.188c0.072,0.407,0.12,0.828,0.12,1.235
		c0,1.057-0.3,1.885-0.9,2.496c-0.6,0.612-1.428,0.912-2.472,0.912c-1.068,0-1.92-0.288-2.556-0.864
		c-0.624-0.575-0.948-1.367-0.948-2.352c0-0.888,0.288-1.584,0.852-2.1C34.396,264.96,35.164,264.696,36.136,264.696"/>
	<path clip-path="url(#SVGID_2_)" d="M34.131,259.128c-0.072,0.12-0.12,0.252-0.156,0.396c-0.024,0.144-0.048,0.3-0.048,0.468
		c0,0.612,0.204,1.08,0.6,1.404c0.396,0.336,0.96,0.492,1.704,0.492h3.456v1.08h-6.564v-1.08h1.02
		c-0.396-0.217-0.696-0.517-0.888-0.876c-0.192-0.36-0.288-0.805-0.288-1.332c0-0.072,0.012-0.156,0.012-0.252
		c0.012-0.084,0.024-0.181,0.048-0.301H34.131"/>
	<path clip-path="url(#SVGID_2_)" d="M31.264,256.933h1.86v-2.221h0.84v2.221h3.564c0.54,0,0.888-0.072,1.032-0.216
		c0.156-0.145,0.228-0.444,0.228-0.9v-1.104h0.9v1.104c0,0.84-0.156,1.416-0.468,1.728c-0.312,0.313-0.876,0.469-1.692,0.469h-3.564
		v0.792h-0.84v-0.792h-1.86V256.933"/>
	<path clip-path="url(#SVGID_2_)" d="M30.567,253.296v-1.079h1.368v1.079H30.567 M33.124,253.296v-1.079h6.564v1.079H33.124"/>
	<path clip-path="url(#SVGID_2_)" d="M33.375,245.232h1.008c-0.168,0.312-0.288,0.612-0.372,0.924
		c-0.084,0.313-0.132,0.612-0.132,0.924c0,0.696,0.228,1.248,0.672,1.632c0.444,0.385,1.068,0.576,1.86,0.576
		c0.804,0,1.428-0.191,1.872-0.576c0.444-0.384,0.66-0.936,0.66-1.632c0-0.312-0.036-0.611-0.12-0.924
		c-0.084-0.312-0.216-0.612-0.384-0.924h0.996c0.144,0.312,0.252,0.624,0.312,0.936c0.06,0.324,0.096,0.673,0.096,1.032
		c0,0.984-0.3,1.776-0.924,2.353c-0.612,0.588-1.452,0.876-2.508,0.876c-1.068,0-1.908-0.288-2.52-0.876
		c-0.612-0.588-0.924-1.393-0.924-2.425c0-0.336,0.036-0.659,0.108-0.972C33.147,245.845,33.244,245.532,33.375,245.232"/>
	<path clip-path="url(#SVGID_2_)" d="M35.943,238.225h3.744v1.08h-0.996c0.408,0.252,0.696,0.563,0.876,0.924
		c0.18,0.359,0.276,0.815,0.276,1.344c0,0.672-0.18,1.212-0.552,1.608c-0.372,0.396-0.876,0.588-1.512,0.588
		c-0.732,0-1.284-0.24-1.668-0.744c-0.372-0.492-0.564-1.224-0.564-2.208v-1.512h-0.108c-0.492,0-0.876,0.168-1.152,0.491
		c-0.264,0.324-0.408,0.78-0.408,1.368c0,0.385,0.048,0.744,0.144,1.104c0.096,0.359,0.228,0.695,0.396,1.02h-0.996
		c-0.144-0.384-0.264-0.768-0.336-1.14c-0.072-0.372-0.12-0.732-0.12-1.092c0-0.948,0.252-1.656,0.744-2.124
		C34.204,238.464,34.947,238.225,35.943,238.225 M36.388,240.372c0,0.876,0.108,1.477,0.3,1.813c0.204,0.336,0.54,0.504,1.02,0.504
		c0.384,0,0.696-0.12,0.912-0.372c0.228-0.252,0.336-0.6,0.336-1.032c0-0.6-0.204-1.08-0.636-1.439
		c-0.42-0.36-0.984-0.54-1.692-0.54h-0.24V240.372"/>
	<polyline clip-path="url(#SVGID_2_)" points="30.567,236.004 30.567,234.924 39.688,234.924 39.688,236.004 30.567,236.004 	"/>
	<path clip-path="url(#SVGID_2_)" d="M36.412,228.204c0.792,0,1.416-0.155,1.872-0.479c0.456-0.324,0.672-0.78,0.672-1.356
		c0-0.563-0.216-1.008-0.672-1.344c-0.456-0.324-1.08-0.492-1.872-0.492s-1.404,0.168-1.86,0.492
		c-0.456,0.336-0.684,0.78-0.684,1.344c0,0.576,0.228,1.032,0.684,1.356C35.007,228.049,35.62,228.204,36.412,228.204
		 M34.12,224.532h-3.552v-1.08h9.12v1.08h-0.984c0.396,0.229,0.684,0.517,0.864,0.864c0.18,0.348,0.276,0.756,0.276,1.236
		c0,0.792-0.312,1.439-0.936,1.943s-1.464,0.744-2.496,0.744c-1.032,0-1.86-0.24-2.496-0.744c-0.624-0.504-0.948-1.151-0.948-1.943
		c0-0.48,0.096-0.889,0.288-1.236S33.735,224.761,34.12,224.532"/>
	<path clip-path="url(#SVGID_2_)" d="M30.567,221.232v-1.08h1.368v1.08H30.567 M33.124,221.232v-1.08h6.564v1.08H33.124"/>
	<path clip-path="url(#SVGID_2_)" d="M33.315,213.708h1.02c-0.144,0.312-0.264,0.624-0.348,0.948c-0.072,0.336-0.12,0.672-0.12,1.02
		c0,0.54,0.084,0.948,0.252,1.212c0.168,0.264,0.408,0.396,0.732,0.396c0.252,0,0.444-0.096,0.588-0.288
		c0.144-0.192,0.288-0.576,0.408-1.152l0.084-0.372c0.168-0.768,0.408-1.308,0.696-1.632c0.3-0.312,0.72-0.48,1.248-0.48
		c0.612,0,1.092,0.24,1.44,0.72c0.36,0.48,0.528,1.152,0.528,1.992c0,0.36-0.036,0.72-0.096,1.104
		c-0.06,0.384-0.156,0.779-0.3,1.199h-1.116c0.216-0.396,0.372-0.792,0.468-1.176c0.108-0.384,0.156-0.768,0.156-1.152
		c0-0.504-0.084-0.9-0.252-1.176c-0.168-0.264-0.42-0.408-0.744-0.408c-0.288,0-0.516,0.108-0.672,0.3
		c-0.156,0.192-0.312,0.624-0.456,1.296l-0.084,0.372c-0.144,0.672-0.36,1.164-0.648,1.452c-0.288,0.3-0.684,0.443-1.2,0.443
		c-0.612,0-1.092-0.216-1.428-0.647c-0.336-0.433-0.504-1.056-0.504-1.872c0-0.396,0.036-0.768,0.096-1.128
		C33.124,214.333,33.208,214.008,33.315,213.708"/>
	<path clip-path="url(#SVGID_2_)" d="M31.264,210.577h1.86v-2.22h0.84v2.22h3.564c0.54,0,0.888-0.072,1.032-0.216
		c0.156-0.144,0.228-0.444,0.228-0.9v-1.104h0.9v1.104c0,0.84-0.156,1.416-0.468,1.728s-0.876,0.468-1.692,0.468h-3.564v0.792h-0.84
		v-0.792h-1.86V210.577"/>
	<path clip-path="url(#SVGID_2_)" d="M35.943,201.805h3.744v1.08h-0.996c0.408,0.252,0.696,0.564,0.876,0.924
		c0.18,0.36,0.276,0.816,0.276,1.344c0,0.672-0.18,1.212-0.552,1.608s-0.876,0.588-1.512,0.588c-0.732,0-1.284-0.24-1.668-0.744
		c-0.372-0.492-0.564-1.224-0.564-2.208v-1.512h-0.108c-0.492,0-0.876,0.168-1.152,0.492c-0.264,0.324-0.408,0.78-0.408,1.368
		c0,0.384,0.048,0.744,0.144,1.104c0.096,0.36,0.228,0.696,0.396,1.02h-0.996c-0.144-0.384-0.264-0.768-0.336-1.14
		c-0.072-0.372-0.12-0.732-0.12-1.092c0-0.948,0.252-1.656,0.744-2.124C34.204,202.044,34.947,201.805,35.943,201.805
		 M36.388,203.953c0,0.876,0.108,1.476,0.3,1.812c0.204,0.336,0.54,0.504,1.02,0.504c0.384,0,0.696-0.12,0.912-0.372
		c0.228-0.252,0.336-0.6,0.336-1.032c0-0.6-0.204-1.08-0.636-1.44c-0.42-0.36-0.984-0.54-1.692-0.54h-0.24V203.953"/>
	<path clip-path="url(#SVGID_2_)" d="M35.728,194.125h3.96v1.08h-3.924c-0.624,0-1.08,0.132-1.392,0.372
		c-0.312,0.24-0.468,0.6-0.468,1.08c0,0.588,0.192,1.044,0.564,1.38c0.372,0.336,0.876,0.504,1.512,0.504h3.708v1.08h-6.564v-1.08
		h1.02c-0.384-0.252-0.684-0.552-0.876-0.912c-0.192-0.348-0.3-0.756-0.3-1.212c0-0.744,0.24-1.32,0.708-1.704
		C34.144,194.329,34.828,194.125,35.728,194.125"/>
	<path clip-path="url(#SVGID_2_)" d="M33.375,187.249h1.008c-0.168,0.312-0.288,0.612-0.372,0.924s-0.132,0.612-0.132,0.924
		c0,0.696,0.228,1.248,0.672,1.632c0.444,0.384,1.068,0.576,1.86,0.576c0.804,0,1.428-0.192,1.872-0.576
		c0.444-0.384,0.66-0.936,0.66-1.632c0-0.312-0.036-0.612-0.12-0.924c-0.084-0.312-0.216-0.612-0.384-0.924h0.996
		c0.144,0.312,0.252,0.624,0.312,0.936c0.06,0.324,0.096,0.672,0.096,1.032c0,0.984-0.3,1.776-0.924,2.352
		c-0.612,0.588-1.452,0.876-2.508,0.876c-1.068,0-1.908-0.288-2.52-0.876c-0.612-0.588-0.924-1.392-0.924-2.424
		c0-0.336,0.036-0.66,0.108-0.972C33.147,187.86,33.244,187.548,33.375,187.249"/>
	<path clip-path="url(#SVGID_2_)" d="M35.824,180.84c-0.588,0.012-1.056,0.18-1.416,0.492c-0.348,0.324-0.528,0.756-0.528,1.284
		c0,0.6,0.18,1.08,0.516,1.44c0.336,0.36,0.816,0.576,1.428,0.624V180.84 M36.136,179.76h0.528v4.956
		c0.744-0.048,1.32-0.264,1.704-0.672c0.384-0.396,0.576-0.948,0.576-1.668c0-0.408-0.048-0.816-0.144-1.2
		c-0.096-0.384-0.252-0.78-0.468-1.164h1.02c0.168,0.384,0.3,0.78,0.372,1.188c0.072,0.408,0.12,0.828,0.12,1.236
		c0,1.056-0.3,1.884-0.9,2.496c-0.6,0.612-1.428,0.912-2.472,0.912c-1.068,0-1.92-0.288-2.556-0.864
		c-0.624-0.576-0.948-1.368-0.948-2.352c0-0.888,0.288-1.584,0.852-2.1C34.396,180.024,35.164,179.76,36.136,179.76"/>
	<polyline clip-path="url(#SVGID_2_)" points="38.2,177.72 38.2,176.484 39.208,176.484 41.067,177.444 41.067,178.2 39.208,177.72 
		38.2,177.72 	"/>
	<polyline clip-path="url(#SVGID_2_)" points="30.567,170.46 30.567,167.977 31.408,167.977 31.408,169.38 40.419,169.38 
		40.419,167.977 41.259,167.977 41.259,170.46 30.567,170.46 	"/>
	<path clip-path="url(#SVGID_2_)" d="M34.383,160.572c-0.48-0.264-0.828-0.588-1.068-0.96c-0.228-0.372-0.348-0.816-0.348-1.332
		c0-0.672,0.24-1.2,0.72-1.572s1.164-0.564,2.04-0.564h3.96v1.08h-3.924c-0.624,0-1.092,0.12-1.404,0.336
		c-0.3,0.228-0.456,0.564-0.456,1.02c0,0.564,0.192,1.008,0.564,1.332c0.372,0.324,0.876,0.48,1.512,0.48h3.708v1.08h-3.924
		c-0.624,0-1.092,0.12-1.404,0.336c-0.3,0.228-0.456,0.576-0.456,1.032c0,0.552,0.192,0.996,0.564,1.32
		c0.372,0.324,0.876,0.48,1.512,0.48h3.708v1.08h-6.564v-1.08h1.02c-0.396-0.24-0.696-0.54-0.888-0.888
		c-0.192-0.336-0.288-0.744-0.288-1.224s0.12-0.876,0.36-1.212C33.567,160.98,33.928,160.74,34.383,160.572"/>
	<polyline clip-path="url(#SVGID_2_)" points="30.567,151.477 41.259,151.477 41.259,153.96 40.419,153.96 40.419,152.557 
		31.408,152.557 31.408,153.96 30.567,153.96 30.567,151.477 	"/>
	
		<line clip-path="url(#SVGID_2_)" fill="none" stroke="#000000" stroke-linejoin="round" stroke-miterlimit="10" x1="72" y1="43.2" x2="518.4" y2="43.2"/>
	
		<line clip-path="url(#SVGID_2_)" fill="none" stroke="#000000" stroke-linejoin="round" stroke-miterlimit="10" x1="518.4" y1="388.8" x2="518.4" y2="43.2"/>
	
		<line clip-path="url(#SVGID_2_)" fill="none" stroke="#000000" stroke-linejoin="round" stroke-miterlimit="10" x1="72" y1="388.8" x2="518.4" y2="388.8"/>
	
		<line clip-path="url(#SVGID_2_)" fill="none" stroke="#000000" stroke-linejoin="round" stroke-miterlimit="10" x1="72" y1="388.8" x2="72" y2="43.2"/>
	<polyline clip-path="url(#SVGID_2_)" points="184.171,27.703 193.042,27.703 193.042,28.897 189.312,28.897 189.312,38.2 
		187.886,38.2 187.886,28.897 184.171,28.897 184.171,27.703 	"/>
	<path clip-path="url(#SVGID_2_)" d="M198.917,31.533c-0.144-0.086-0.302-0.144-0.475-0.187c-0.173-0.029-0.36-0.058-0.562-0.058
		c-0.734,0-1.296,0.245-1.685,0.72c-0.403,0.476-0.591,1.152-0.591,2.045V38.2h-1.296v-7.877h1.296v1.224
		c0.259-0.475,0.62-0.835,1.051-1.066c0.432-0.23,0.965-0.345,1.599-0.345c0.086,0,0.187,0.014,0.302,0.014
		c0.101,0.015,0.216,0.029,0.36,0.058V31.533"/>
	<path clip-path="url(#SVGID_2_)" d="M206.434,33.707V38.2h-1.296v-1.195c-0.302,0.49-0.677,0.835-1.108,1.051
		c-0.432,0.216-0.979,0.331-1.613,0.331c-0.807,0-1.455-0.216-1.93-0.663c-0.475-0.446-0.706-1.051-0.706-1.814
		c0-0.878,0.288-1.541,0.893-2.001c0.59-0.446,1.469-0.677,2.65-0.677h1.814v-0.129c0-0.59-0.201-1.051-0.59-1.382
		c-0.389-0.317-0.936-0.49-1.642-0.49c-0.46,0-0.893,0.058-1.325,0.173s-0.835,0.273-1.224,0.475v-1.195
		c0.461-0.173,0.922-0.317,1.368-0.403s0.878-0.144,1.311-0.144c1.138,0,1.987,0.302,2.549,0.893S206.434,32.512,206.434,33.707
		 M203.856,34.24c-1.051,0-1.771,0.129-2.174,0.36c-0.403,0.245-0.605,0.648-0.605,1.224c0,0.46,0.144,0.835,0.446,1.094
		c0.302,0.273,0.72,0.403,1.238,0.403c0.72,0,1.296-0.245,1.728-0.763c0.432-0.504,0.648-1.181,0.648-2.031V34.24H203.856"/>
	<path clip-path="url(#SVGID_2_)" d="M209.098,27.256h1.296v1.642h-1.296V27.256 M209.098,30.323h1.296v8.006
		c0,0.994-0.202,1.713-0.576,2.174c-0.389,0.446-1.008,0.677-1.843,0.677h-0.475v-1.094h0.331c0.49,0,0.821-0.115,0.994-0.346
		s0.274-0.706,0.274-1.411V30.323"/>
	<path clip-path="url(#SVGID_2_)" d="M218.544,33.563c-0.015-0.706-0.216-1.267-0.59-1.699c-0.389-0.418-0.907-0.634-1.541-0.634
		c-0.72,0-1.296,0.216-1.728,0.619c-0.432,0.403-0.691,0.979-0.749,1.713H218.544 M219.84,33.938v0.634h-5.947
		c0.058,0.893,0.317,1.584,0.807,2.045c0.475,0.46,1.138,0.691,2.001,0.691c0.49,0,0.979-0.058,1.44-0.173s0.936-0.302,1.397-0.562
		v1.224c-0.461,0.202-0.936,0.36-1.426,0.446s-0.994,0.144-1.483,0.144c-1.268,0-2.261-0.36-2.996-1.08
		c-0.734-0.72-1.094-1.713-1.094-2.966c0-1.282,0.346-2.304,1.037-3.067c0.691-0.749,1.642-1.137,2.823-1.137
		c1.065,0,1.901,0.345,2.52,1.022C219.523,31.85,219.84,32.771,219.84,33.938"/>
	<path clip-path="url(#SVGID_2_)" d="M227.63,30.625v1.209c-0.375-0.201-0.734-0.345-1.109-0.446
		c-0.375-0.101-0.734-0.158-1.109-0.158c-0.835,0-1.498,0.273-1.958,0.806c-0.461,0.533-0.691,1.282-0.691,2.232
		c0,0.965,0.23,1.714,0.691,2.247c0.46,0.533,1.123,0.792,1.958,0.792c0.375,0,0.734-0.043,1.109-0.144
		c0.375-0.101,0.734-0.259,1.109-0.46v1.195c-0.375,0.173-0.749,0.303-1.123,0.375c-0.389,0.072-0.807,0.115-1.239,0.115
		c-1.181,0-2.131-0.36-2.822-1.109c-0.706-0.734-1.051-1.742-1.051-3.01c0-1.281,0.346-2.29,1.051-3.024s1.67-1.108,2.909-1.108
		c0.403,0,0.792,0.043,1.167,0.129S227.271,30.467,227.63,30.625"/>
	<path clip-path="url(#SVGID_2_)" d="M231.158,28.091v2.232h2.664v1.008h-2.664v4.277c0,0.648,0.086,1.066,0.259,1.238
		c0.173,0.188,0.533,0.274,1.08,0.274h1.325v1.08h-1.325c-1.008,0-1.699-0.188-2.074-0.562c-0.374-0.374-0.562-1.051-0.562-2.03
		v-4.277h-0.95v-1.008h0.95v-2.232H231.158"/>
	<path clip-path="url(#SVGID_2_)" d="M238.574,30.136c1.124,0,2.002,0.374,2.65,1.094c0.633,0.734,0.965,1.742,0.965,3.038
		c0,1.296-0.332,2.304-0.965,3.024c-0.648,0.734-1.526,1.094-2.65,1.094c-1.137,0-2.03-0.36-2.664-1.094
		c-0.634-0.72-0.951-1.728-0.951-3.024c0-1.296,0.317-2.304,0.951-3.038C236.544,30.51,237.437,30.136,238.574,30.136
		 M238.574,31.23c-0.691,0-1.238,0.273-1.642,0.821c-0.403,0.547-0.604,1.282-0.604,2.217c0,0.951,0.187,1.685,0.59,2.232
		c0.403,0.547,0.95,0.806,1.656,0.806c0.691,0,1.239-0.259,1.642-0.806c0.403-0.547,0.605-1.282,0.605-2.232
		c0-0.921-0.202-1.67-0.605-2.217C239.813,31.504,239.266,31.23,238.574,31.23"/>
	<path clip-path="url(#SVGID_2_)" d="M248.899,31.533c-0.144-0.086-0.303-0.144-0.476-0.187c-0.173-0.029-0.36-0.058-0.562-0.058
		c-0.734,0-1.296,0.245-1.685,0.72c-0.403,0.476-0.59,1.152-0.59,2.045V38.2h-1.296v-7.877h1.296v1.224
		c0.259-0.475,0.619-0.835,1.051-1.066c0.432-0.23,0.965-0.345,1.599-0.345c0.086,0,0.187,0.014,0.302,0.014
		c0.101,0.015,0.216,0.029,0.36,0.058V31.533"/>
	<path clip-path="url(#SVGID_2_)" d="M253.536,38.92c-0.375,0.922-0.734,1.541-1.08,1.829c-0.346,0.288-0.807,0.432-1.382,0.432
		h-1.037v-1.08h0.763c0.346,0,0.619-0.086,0.821-0.259s0.418-0.562,0.663-1.195l0.23-0.576l-3.183-7.747h1.368l2.462,6.163
		l2.462-6.163h1.368L253.536,38.92"/>
	<path clip-path="url(#SVGID_2_)" d="M266.409,30.136c1.124,0,2.002,0.374,2.65,1.094c0.633,0.734,0.965,1.742,0.965,3.038
		c0,1.296-0.332,2.304-0.965,3.024c-0.648,0.734-1.526,1.094-2.65,1.094c-1.137,0-2.03-0.36-2.664-1.094
		c-0.634-0.72-0.951-1.728-0.951-3.024c0-1.296,0.317-2.304,0.951-3.038C264.379,30.51,265.272,30.136,266.409,30.136
		 M266.409,31.23c-0.691,0-1.238,0.273-1.642,0.821c-0.403,0.547-0.604,1.282-0.604,2.217c0,0.951,0.187,1.685,0.59,2.232
		c0.403,0.547,0.95,0.806,1.656,0.806c0.691,0,1.239-0.259,1.642-0.806c0.403-0.547,0.605-1.282,0.605-2.232
		c0-0.921-0.202-1.67-0.605-2.217C267.648,31.504,267.101,31.23,266.409,31.23"/>
	<path clip-path="url(#SVGID_2_)" d="M276.158,27.256v1.08h-1.238c-0.461,0-0.792,0.101-0.965,0.288
		c-0.188,0.187-0.274,0.519-0.274,1.008v0.691h2.131v1.008h-2.131V38.2h-1.296v-6.869h-1.238v-1.008h1.238v-0.547
		c0-0.864,0.202-1.512,0.605-1.915s1.051-0.605,1.944-0.605H276.158"/>
	<path clip-path="url(#SVGID_2_)" d="M287.98,33.707V38.2h-1.296v-1.195c-0.302,0.49-0.677,0.835-1.109,1.051
		c-0.432,0.216-0.979,0.331-1.613,0.331c-0.806,0-1.454-0.216-1.93-0.663c-0.475-0.446-0.706-1.051-0.706-1.814
		c0-0.878,0.288-1.541,0.893-2.001c0.59-0.446,1.469-0.677,2.649-0.677h1.814v-0.129c0-0.59-0.202-1.051-0.59-1.382
		c-0.389-0.317-0.936-0.49-1.642-0.49c-0.461,0-0.893,0.058-1.325,0.173c-0.432,0.115-0.835,0.273-1.224,0.475v-1.195
		c0.461-0.173,0.921-0.317,1.368-0.403c0.446-0.086,0.878-0.144,1.31-0.144c1.138,0,1.987,0.302,2.549,0.893
		S287.98,32.512,287.98,33.707 M285.403,34.24c-1.051,0-1.771,0.129-2.174,0.36c-0.403,0.245-0.605,0.648-0.605,1.224
		c0,0.46,0.144,0.835,0.447,1.094c0.302,0.273,0.72,0.403,1.238,0.403c0.72,0,1.296-0.245,1.728-0.763
		c0.432-0.504,0.648-1.181,0.648-2.031V34.24H285.403"/>
	<path clip-path="url(#SVGID_2_)" d="M299.213,27.256v1.08h-1.238c-0.461,0-0.793,0.101-0.965,0.288
		c-0.188,0.187-0.274,0.519-0.274,1.008v0.691h2.132v1.008h-2.132V38.2h-1.296v-6.869h-1.238v-1.008h1.238v-0.547
		c0-0.864,0.202-1.512,0.605-1.915c0.402-0.403,1.051-0.605,1.943-0.605H299.213"/>
	<path clip-path="url(#SVGID_2_)" d="M300.293,27.256h1.296v1.642h-1.296V27.256 M300.293,30.323h1.296V38.2h-1.296V30.323"/>
	<path clip-path="url(#SVGID_2_)" d="M308.86,31.533c-0.144-0.086-0.302-0.144-0.475-0.187c-0.173-0.029-0.36-0.058-0.562-0.058
		c-0.734,0-1.297,0.245-1.686,0.72c-0.403,0.476-0.59,1.152-0.59,2.045V38.2h-1.296v-7.877h1.296v1.224
		c0.259-0.475,0.619-0.835,1.051-1.066c0.433-0.23,0.965-0.345,1.599-0.345c0.086,0,0.188,0.014,0.303,0.014
		c0.101,0.015,0.216,0.029,0.359,0.058V31.533"/>
	<path clip-path="url(#SVGID_2_)" d="M315.657,33.563c-0.015-0.706-0.216-1.267-0.59-1.699c-0.39-0.418-0.907-0.634-1.541-0.634
		c-0.721,0-1.296,0.216-1.729,0.619c-0.432,0.403-0.69,0.979-0.748,1.713H315.657 M316.953,33.938v0.634h-5.947
		c0.058,0.893,0.317,1.584,0.807,2.045c0.476,0.46,1.138,0.691,2.002,0.691c0.489,0,0.979-0.058,1.439-0.173
		s0.937-0.302,1.397-0.562v1.224c-0.461,0.202-0.937,0.36-1.426,0.446c-0.49,0.086-0.994,0.144-1.483,0.144
		c-1.268,0-2.261-0.36-2.995-1.08c-0.734-0.72-1.095-1.713-1.095-2.966c0-1.282,0.346-2.304,1.037-3.067
		c0.691-0.749,1.642-1.137,2.822-1.137c1.065,0,1.9,0.345,2.52,1.022C316.637,31.85,316.953,32.771,316.953,33.938"/>
	<path clip-path="url(#SVGID_2_)" d="M319.848,34.269c0,0.951,0.188,1.699,0.576,2.247s0.936,0.807,1.627,0.807
		c0.677,0,1.21-0.259,1.613-0.807c0.389-0.547,0.59-1.296,0.59-2.247c0-0.95-0.201-1.685-0.59-2.232
		c-0.403-0.547-0.937-0.821-1.613-0.821c-0.691,0-1.238,0.274-1.627,0.821C320.035,32.584,319.848,33.318,319.848,34.269
		 M324.254,31.519v-4.263h1.296V38.2h-1.296v-1.181c-0.273,0.476-0.619,0.821-1.036,1.037c-0.418,0.216-0.907,0.331-1.483,0.331
		c-0.95,0-1.729-0.375-2.333-1.123c-0.604-0.749-0.893-1.757-0.893-2.996c0-1.238,0.288-2.232,0.893-2.995
		c0.604-0.749,1.383-1.137,2.333-1.137c0.576,0,1.065,0.115,1.483,0.345C323.635,30.712,323.98,31.058,324.254,31.519"/>
	<path clip-path="url(#SVGID_2_)" d="M338.467,30.625v1.209c-0.374-0.201-0.734-0.345-1.108-0.446
		c-0.375-0.101-0.734-0.158-1.109-0.158c-0.835,0-1.497,0.273-1.958,0.806c-0.461,0.533-0.691,1.282-0.691,2.232
		c0,0.965,0.23,1.714,0.691,2.247s1.123,0.792,1.958,0.792c0.375,0,0.734-0.043,1.109-0.144c0.374-0.101,0.734-0.259,1.108-0.46
		v1.195c-0.374,0.173-0.749,0.303-1.123,0.375c-0.389,0.072-0.807,0.115-1.238,0.115c-1.181,0-2.132-0.36-2.822-1.109
		c-0.706-0.734-1.052-1.742-1.052-3.01c0-1.281,0.346-2.29,1.052-3.024c0.705-0.734,1.67-1.108,2.908-1.108
		c0.403,0,0.792,0.043,1.167,0.129C337.732,30.352,338.106,30.467,338.467,30.625"/>
	<path clip-path="url(#SVGID_2_)" d="M346.877,33.707V38.2h-1.297v-1.195c-0.302,0.49-0.677,0.835-1.108,1.051
		c-0.432,0.216-0.979,0.331-1.612,0.331c-0.807,0-1.455-0.216-1.93-0.663c-0.476-0.446-0.706-1.051-0.706-1.814
		c0-0.878,0.288-1.541,0.893-2.001c0.591-0.446,1.469-0.677,2.649-0.677h1.814v-0.129c0-0.59-0.201-1.051-0.59-1.382
		c-0.389-0.317-0.937-0.49-1.642-0.49c-0.461,0-0.893,0.058-1.325,0.173c-0.432,0.115-0.835,0.273-1.224,0.475v-1.195
		c0.461-0.173,0.922-0.317,1.368-0.403s0.878-0.144,1.311-0.144c1.137,0,1.986,0.302,2.549,0.893
		C346.589,31.619,346.877,32.512,346.877,33.707 M344.299,34.24c-1.051,0-1.771,0.129-2.175,0.36
		c-0.402,0.245-0.604,0.648-0.604,1.224c0,0.46,0.145,0.835,0.446,1.094c0.303,0.273,0.721,0.403,1.238,0.403
		c0.721,0,1.296-0.245,1.729-0.763c0.432-0.504,0.647-1.181,0.647-2.031V34.24H344.299"/>
	<path clip-path="url(#SVGID_2_)" d="M356.093,33.448V38.2h-1.296v-4.709c0-0.749-0.158-1.296-0.446-1.67s-0.721-0.562-1.297-0.562
		c-0.705,0-1.252,0.23-1.655,0.677s-0.605,1.051-0.605,1.814v4.45h-1.296v-7.877h1.296v1.224c0.303-0.461,0.663-0.821,1.095-1.051
		c0.418-0.23,0.907-0.36,1.454-0.36c0.894,0,1.584,0.288,2.045,0.85C355.848,31.547,356.093,32.368,356.093,33.448"/>
	<path clip-path="url(#SVGID_2_)" d="M365.223,33.448V38.2h-1.297v-4.709c0-0.749-0.158-1.296-0.446-1.67s-0.72-0.562-1.296-0.562
		c-0.705,0-1.253,0.23-1.656,0.677c-0.402,0.446-0.604,1.051-0.604,1.814v4.45h-1.296v-7.877h1.296v1.224
		c0.303-0.461,0.662-0.821,1.095-1.051c0.417-0.23,0.907-0.36,1.454-0.36c0.893,0,1.584,0.288,2.045,0.85
		C364.978,31.547,365.223,32.368,365.223,33.448"/>
	<path clip-path="url(#SVGID_2_)" d="M370.853,30.136c1.123,0,2.002,0.374,2.649,1.094c0.634,0.734,0.965,1.742,0.965,3.038
		c0,1.296-0.331,2.304-0.965,3.024c-0.647,0.734-1.526,1.094-2.649,1.094c-1.138,0-2.03-0.36-2.664-1.094
		c-0.634-0.72-0.95-1.728-0.95-3.024c0-1.296,0.316-2.304,0.95-3.038C368.822,30.51,369.715,30.136,370.853,30.136 M370.853,31.23
		c-0.691,0-1.238,0.273-1.642,0.821s-0.604,1.282-0.604,2.217c0,0.951,0.187,1.685,0.59,2.232c0.403,0.547,0.951,0.806,1.656,0.806
		c0.691,0,1.238-0.259,1.642-0.806c0.403-0.547,0.604-1.282,0.604-2.232c0-0.921-0.201-1.67-0.604-2.217
		S371.544,31.23,370.853,31.23"/>
	<path clip-path="url(#SVGID_2_)" d="M383.165,33.448V38.2h-1.297v-4.709c0-0.749-0.158-1.296-0.446-1.67s-0.72-0.562-1.296-0.562
		c-0.705,0-1.253,0.23-1.655,0.677c-0.403,0.446-0.605,1.051-0.605,1.814v4.45h-1.296v-7.877h1.296v1.224
		c0.303-0.461,0.662-0.821,1.095-1.051c0.417-0.23,0.907-0.36,1.454-0.36c0.893,0,1.584,0.288,2.045,0.85
		C382.92,31.547,383.165,32.368,383.165,33.448"/>
	<path clip-path="url(#SVGID_2_)" d="M386.995,31.519c0.259-0.461,0.604-0.807,1.022-1.037s0.922-0.345,1.497-0.345
		c0.951,0,1.729,0.389,2.333,1.137c0.591,0.763,0.893,1.757,0.893,2.995c0,1.239-0.302,2.247-0.893,2.996
		c-0.604,0.749-1.382,1.123-2.333,1.123c-0.575,0-1.079-0.115-1.497-0.331c-0.418-0.216-0.764-0.562-1.022-1.037V38.2h-1.296V27.256
		h1.296V31.519 M391.401,34.269c0-0.95-0.201-1.685-0.59-2.232c-0.403-0.547-0.937-0.821-1.613-0.821
		c-0.691,0-1.224,0.274-1.612,0.821c-0.403,0.547-0.591,1.282-0.591,2.232c0,0.951,0.188,1.699,0.591,2.247
		c0.389,0.547,0.921,0.807,1.612,0.807c0.677,0,1.21-0.259,1.613-0.807C391.2,35.968,391.401,35.219,391.401,34.269"/>
	<path clip-path="url(#SVGID_2_)" d="M401.05,33.707V38.2h-1.297v-1.195c-0.302,0.49-0.677,0.835-1.108,1.051
		c-0.432,0.216-0.979,0.331-1.612,0.331c-0.807,0-1.455-0.216-1.93-0.663c-0.476-0.446-0.706-1.051-0.706-1.814
		c0-0.878,0.288-1.541,0.893-2.001c0.591-0.446,1.469-0.677,2.65-0.677h1.813v-0.129c0-0.59-0.201-1.051-0.59-1.382
		c-0.389-0.317-0.937-0.49-1.642-0.49c-0.461,0-0.893,0.058-1.325,0.173c-0.432,0.115-0.835,0.273-1.224,0.475v-1.195
		c0.461-0.173,0.922-0.317,1.368-0.403s0.878-0.144,1.311-0.144c1.138,0,1.987,0.302,2.549,0.893S401.05,32.512,401.05,33.707
		 M398.472,34.24c-1.051,0-1.771,0.129-2.174,0.36c-0.403,0.245-0.605,0.648-0.605,1.224c0,0.46,0.145,0.835,0.446,1.094
		c0.303,0.273,0.721,0.403,1.238,0.403c0.721,0,1.297-0.245,1.729-0.763c0.432-0.504,0.647-1.181,0.647-2.031V34.24H398.472"/>
	<polyline clip-path="url(#SVGID_2_)" points="403.714,27.256 405.01,27.256 405.01,38.2 403.714,38.2 403.714,27.256 	"/>
	<polyline clip-path="url(#SVGID_2_)" points="407.717,27.256 409.013,27.256 409.013,38.2 407.717,38.2 407.717,27.256 	"/>
	<rect x="343.688" y="50.4" clip-path="url(#SVGID_2_)" fill="#FFFFFF" width="167.512" height="45.814"/>
	
		<rect x="343.688" y="50.4" clip-path="url(#SVGID_2_)" fill="none" stroke="#000000" stroke-linejoin="round" stroke-miterlimit="10" width="167.512" height="45.814"/>
	
		<line clip-path="url(#SVGID_2_)" fill="none" stroke="#0000FF" stroke-linecap="square" stroke-linejoin="round" stroke-miterlimit="10" x1="353.769" y1="61.761" x2="373.928" y2="61.761"/>
	<polyline clip-path="url(#SVGID_2_)" points="390.243,56.303 391.684,56.303 393.887,65.173 396.09,56.303 397.688,56.303 
		399.892,65.173 402.095,56.303 403.534,56.303 400.899,66.801 399.113,66.801 396.896,57.686 394.664,66.801 392.879,66.801 
		390.243,56.303 	"/>
	<path clip-path="url(#SVGID_2_)" d="M405.363,55.856h1.296v1.642h-1.296V55.856 M405.363,58.924h1.296v7.877h-1.296V58.924"/>
	<path clip-path="url(#SVGID_2_)" d="M410.648,56.692v2.232h2.664v1.008h-2.664v4.277c0,0.648,0.086,1.066,0.259,1.239
		c0.173,0.187,0.533,0.273,1.08,0.273h1.325v1.08h-1.325c-1.008,0-1.699-0.188-2.073-0.562c-0.375-0.375-0.562-1.051-0.562-2.031
		v-4.277h-0.951v-1.008h0.951v-2.232H410.648"/>
	<path clip-path="url(#SVGID_2_)" d="M421.563,62.049v4.752h-1.296v-4.709c0-0.749-0.158-1.296-0.446-1.67s-0.721-0.562-1.297-0.562
		c-0.705,0-1.252,0.23-1.655,0.677s-0.605,1.051-0.605,1.814v4.45h-1.296V55.856h1.296v4.292c0.303-0.461,0.663-0.821,1.095-1.051
		c0.418-0.23,0.907-0.36,1.454-0.36c0.894,0,1.584,0.288,2.045,0.85C421.318,60.148,421.563,60.969,421.563,62.049"/>
	<path clip-path="url(#SVGID_2_)" d="M434.883,62.308v4.493h-1.296v-1.195c-0.302,0.49-0.677,0.835-1.108,1.051
		c-0.432,0.216-0.979,0.331-1.613,0.331c-0.806,0-1.454-0.216-1.93-0.663c-0.475-0.446-0.705-1.051-0.705-1.814
		c0-0.878,0.288-1.541,0.893-2.002c0.591-0.446,1.469-0.677,2.649-0.677h1.814v-0.129c0-0.59-0.201-1.051-0.59-1.382
		c-0.389-0.317-0.937-0.49-1.642-0.49c-0.461,0-0.893,0.058-1.325,0.173c-0.432,0.115-0.835,0.273-1.224,0.475v-1.195
		c0.461-0.173,0.922-0.317,1.368-0.403c0.446-0.086,0.878-0.144,1.31-0.144c1.138,0,1.987,0.302,2.549,0.893
		C434.596,60.22,434.883,61.113,434.883,62.308 M432.306,62.841c-1.051,0-1.771,0.129-2.175,0.36
		c-0.402,0.245-0.604,0.648-0.604,1.224c0,0.46,0.144,0.835,0.446,1.094c0.303,0.273,0.72,0.403,1.238,0.403
		c0.721,0,1.296-0.245,1.729-0.763c0.432-0.504,0.647-1.181,0.647-2.031v-0.288H432.306"/>
	<path clip-path="url(#SVGID_2_)" d="M437.547,55.856h1.297v1.642h-1.297V55.856 M437.547,58.924h1.297v7.877h-1.297V58.924"/>
	<path clip-path="url(#SVGID_2_)" d="M446.115,60.133c-0.144-0.086-0.303-0.144-0.476-0.187c-0.173-0.029-0.359-0.058-0.562-0.058
		c-0.734,0-1.296,0.245-1.685,0.72c-0.403,0.476-0.59,1.152-0.59,2.045v4.147h-1.297v-7.877h1.297v1.224
		c0.259-0.475,0.619-0.835,1.051-1.066c0.432-0.23,0.965-0.345,1.599-0.345c0.086,0,0.187,0.014,0.302,0.014
		c0.102,0.015,0.217,0.029,0.36,0.058V60.133"/>
	<path clip-path="url(#SVGID_2_)" d="M452.825,62.87c0,0.95,0.188,1.699,0.576,2.246c0.389,0.547,0.937,0.807,1.627,0.807
		c0.677,0,1.21-0.259,1.613-0.807c0.389-0.547,0.591-1.296,0.591-2.246c0-0.951-0.202-1.685-0.591-2.232
		c-0.403-0.547-0.937-0.821-1.613-0.821c-0.69,0-1.238,0.274-1.627,0.821C453.013,61.185,452.825,61.919,452.825,62.87
		 M457.232,60.119v-4.263h1.296v10.944h-1.296V65.62c-0.274,0.476-0.62,0.821-1.037,1.037c-0.418,0.216-0.907,0.331-1.483,0.331
		c-0.95,0-1.728-0.375-2.333-1.123c-0.604-0.749-0.893-1.757-0.893-2.995c0-1.239,0.288-2.232,0.893-2.996
		c0.605-0.749,1.383-1.137,2.333-1.137c0.576,0,1.065,0.115,1.483,0.345C456.612,59.313,456.958,59.658,457.232,60.119"/>
	<path clip-path="url(#SVGID_2_)" d="M465.757,60.133c-0.145-0.086-0.303-0.144-0.476-0.187c-0.173-0.029-0.359-0.058-0.562-0.058
		c-0.734,0-1.296,0.245-1.685,0.72c-0.403,0.476-0.591,1.152-0.591,2.045v4.147h-1.296v-7.877h1.296v1.224
		c0.26-0.475,0.619-0.835,1.052-1.066c0.432-0.23,0.965-0.345,1.599-0.345c0.086,0,0.187,0.014,0.302,0.014
		c0.101,0.015,0.216,0.029,0.36,0.058V60.133"/>
	<path clip-path="url(#SVGID_2_)" d="M473.273,62.308v4.493h-1.296v-1.195c-0.303,0.49-0.677,0.835-1.109,1.051
		c-0.432,0.216-0.979,0.331-1.612,0.331c-0.807,0-1.454-0.216-1.93-0.663c-0.476-0.446-0.705-1.051-0.705-1.814
		c0-0.878,0.287-1.541,0.893-2.002c0.59-0.446,1.469-0.677,2.649-0.677h1.814v-0.129c0-0.59-0.202-1.051-0.591-1.382
		c-0.389-0.317-0.936-0.49-1.642-0.49c-0.461,0-0.893,0.058-1.324,0.173c-0.433,0.115-0.836,0.273-1.225,0.475v-1.195
		c0.461-0.173,0.922-0.317,1.368-0.403c0.446-0.086,0.879-0.144,1.311-0.144c1.138,0,1.987,0.302,2.549,0.893
		S473.273,61.113,473.273,62.308 M470.695,62.841c-1.051,0-1.771,0.129-2.174,0.36c-0.403,0.245-0.604,0.648-0.604,1.224
		c0,0.46,0.144,0.835,0.446,1.094c0.302,0.273,0.72,0.403,1.238,0.403c0.72,0,1.296-0.245,1.728-0.763
		c0.433-0.504,0.648-1.181,0.648-2.031v-0.288H470.695"/>
	<path clip-path="url(#SVGID_2_)" d="M482.418,65.821c0,1.325-0.303,2.318-0.894,2.981c-0.604,0.648-1.512,0.979-2.735,0.979
		c-0.461,0-0.879-0.043-1.282-0.101c-0.403-0.072-0.806-0.173-1.181-0.317v-1.253c0.375,0.202,0.749,0.346,1.123,0.447
		c0.375,0.101,0.749,0.158,1.138,0.158c0.835,0,1.469-0.23,1.901-0.663c0.417-0.446,0.633-1.108,0.633-2.001v-0.633
		c-0.273,0.46-0.619,0.806-1.036,1.037c-0.418,0.23-0.907,0.346-1.483,0.346c-0.979,0-1.757-0.36-2.348-1.095
		c-0.59-0.734-0.878-1.713-0.878-2.938c0-1.209,0.288-2.188,0.878-2.923c0.591-0.734,1.368-1.108,2.348-1.108
		c0.576,0,1.065,0.115,1.483,0.345c0.417,0.23,0.763,0.576,1.036,1.037v-1.195h1.297V65.821 M481.121,62.769
		c0-0.921-0.201-1.656-0.575-2.174c-0.39-0.519-0.937-0.778-1.628-0.778c-0.69,0-1.238,0.259-1.627,0.778s-0.576,1.253-0.576,2.174
		c0,0.936,0.188,1.656,0.576,2.174c0.389,0.519,0.937,0.778,1.627,0.778c0.691,0,1.238-0.259,1.628-0.778
		C480.92,64.425,481.121,63.705,481.121,62.769"/>
	
		<line clip-path="url(#SVGID_2_)" fill="none" stroke="#008000" stroke-linecap="square" stroke-linejoin="round" stroke-miterlimit="10" x1="353.769" y1="82.507" x2="373.928" y2="82.507"/>
	<polyline clip-path="url(#SVGID_2_)" points="390.243,77.05 391.684,77.05 393.887,85.92 396.09,77.05 397.688,77.05 
		399.892,85.92 402.095,77.05 403.534,77.05 400.899,87.547 399.113,87.547 396.896,78.432 394.664,87.547 392.879,87.547 
		390.243,77.05 	"/>
	<path clip-path="url(#SVGID_2_)" d="M405.363,76.604h1.296v1.642h-1.296V76.604 M405.363,79.671h1.296v7.876h-1.296V79.671"/>
	<path clip-path="url(#SVGID_2_)" d="M410.648,77.438v2.232h2.664v1.008h-2.664v4.277c0,0.648,0.086,1.065,0.259,1.238
		c0.173,0.187,0.533,0.273,1.08,0.273h1.325v1.08h-1.325c-1.008,0-1.699-0.187-2.073-0.562c-0.375-0.375-0.562-1.051-0.562-2.03
		v-4.277h-0.951v-1.008h0.951v-2.232H410.648"/>
	<path clip-path="url(#SVGID_2_)" d="M421.563,82.795v4.752h-1.296v-4.708c0-0.749-0.158-1.296-0.446-1.67
		c-0.288-0.375-0.721-0.562-1.297-0.562c-0.705,0-1.252,0.23-1.655,0.677c-0.403,0.446-0.605,1.051-0.605,1.814v4.45h-1.296V76.604
		h1.296v4.291c0.303-0.46,0.663-0.821,1.095-1.051c0.418-0.23,0.907-0.36,1.454-0.36c0.894,0,1.584,0.288,2.045,0.85
		S421.563,81.715,421.563,82.795"/>
	<path clip-path="url(#SVGID_2_)" d="M427.193,79.483c1.124,0,2.002,0.375,2.65,1.095c0.633,0.734,0.965,1.742,0.965,3.038
		s-0.332,2.304-0.965,3.024c-0.648,0.734-1.526,1.095-2.65,1.095c-1.138,0-2.03-0.36-2.664-1.095c-0.633-0.72-0.95-1.728-0.95-3.024
		s0.317-2.304,0.95-3.038C425.163,79.858,426.056,79.483,427.193,79.483 M427.193,80.578c-0.69,0-1.238,0.273-1.642,0.82
		c-0.403,0.547-0.604,1.282-0.604,2.218c0,0.951,0.188,1.685,0.591,2.232c0.403,0.547,0.95,0.807,1.655,0.807
		c0.691,0,1.238-0.259,1.642-0.807c0.403-0.547,0.605-1.281,0.605-2.232c0-0.921-0.202-1.67-0.605-2.218
		C428.432,80.852,427.885,80.578,427.193,80.578"/>
	<path clip-path="url(#SVGID_2_)" d="M436.078,79.483L436.078,79.483 M432.824,84.437v-4.766h1.296v4.723
		c0,0.749,0.144,1.296,0.432,1.67c0.288,0.374,0.721,0.562,1.311,0.562c0.691,0,1.253-0.216,1.656-0.663s0.604-1.051,0.604-1.829
		v-4.464h1.296v7.876h-1.296v-1.209c-0.316,0.49-0.691,0.835-1.094,1.065c-0.418,0.216-0.894,0.332-1.44,0.332
		c-0.907,0-1.599-0.274-2.06-0.835C433.055,86.353,432.824,85.531,432.824,84.437"/>
	<path clip-path="url(#SVGID_2_)" d="M443.365,77.438v2.232h2.664v1.008h-2.664v4.277c0,0.648,0.086,1.065,0.259,1.238
		c0.173,0.187,0.533,0.273,1.08,0.273h1.325v1.08h-1.325c-1.008,0-1.699-0.187-2.073-0.562c-0.375-0.375-0.562-1.051-0.562-2.03
		v-4.277h-0.951v-1.008h0.951v-2.232H443.365"/>
	<path clip-path="url(#SVGID_2_)" d="M458.471,83.055v4.493h-1.296v-1.195c-0.303,0.489-0.677,0.835-1.109,1.051
		c-0.432,0.216-0.979,0.332-1.612,0.332c-0.807,0-1.455-0.216-1.93-0.663c-0.476-0.446-0.706-1.051-0.706-1.814
		c0-0.878,0.288-1.541,0.893-2.001c0.591-0.446,1.47-0.677,2.65-0.677h1.814v-0.13c0-0.59-0.202-1.051-0.591-1.382
		c-0.389-0.317-0.936-0.489-1.642-0.489c-0.461,0-0.893,0.058-1.325,0.172c-0.432,0.115-0.835,0.274-1.224,0.476v-1.195
		c0.461-0.173,0.922-0.317,1.368-0.403s0.878-0.144,1.311-0.144c1.138,0,1.987,0.303,2.549,0.893S458.471,81.859,458.471,83.055
		 M455.893,83.587c-1.051,0-1.771,0.13-2.174,0.36c-0.403,0.245-0.605,0.648-0.605,1.224c0,0.461,0.145,0.835,0.446,1.095
		c0.303,0.273,0.721,0.403,1.239,0.403c0.72,0,1.296-0.245,1.728-0.763c0.432-0.504,0.648-1.181,0.648-2.03v-0.288H455.893"/>
	<path clip-path="url(#SVGID_2_)" d="M461.135,76.604h1.296v1.642h-1.296V76.604 M461.135,79.671h1.296v7.876h-1.296V79.671"/>
	<path clip-path="url(#SVGID_2_)" d="M469.702,80.88c-0.144-0.086-0.302-0.144-0.475-0.188c-0.173-0.029-0.36-0.057-0.562-0.057
		c-0.734,0-1.296,0.245-1.686,0.72c-0.402,0.475-0.59,1.152-0.59,2.045v4.147h-1.296v-7.876h1.296v1.224
		c0.259-0.475,0.619-0.835,1.051-1.065c0.433-0.23,0.965-0.346,1.599-0.346c0.087,0,0.188,0.015,0.303,0.015
		c0.101,0.014,0.216,0.029,0.359,0.058V80.88"/>
	<path clip-path="url(#SVGID_2_)" d="M476.413,83.616c0,0.951,0.187,1.699,0.575,2.247c0.39,0.547,0.937,0.806,1.628,0.806
		c0.677,0,1.209-0.259,1.612-0.806c0.389-0.547,0.591-1.296,0.591-2.247c0-0.95-0.202-1.685-0.591-2.232
		c-0.403-0.547-0.936-0.821-1.612-0.821c-0.691,0-1.238,0.273-1.628,0.821C476.6,81.932,476.413,82.666,476.413,83.616
		 M480.819,80.866v-4.262h1.296v10.944h-1.296v-1.181c-0.273,0.475-0.619,0.821-1.037,1.037c-0.417,0.216-0.907,0.332-1.483,0.332
		c-0.95,0-1.728-0.375-2.332-1.124c-0.605-0.749-0.894-1.757-0.894-2.995s0.288-2.232,0.894-2.995
		c0.604-0.749,1.382-1.138,2.332-1.138c0.576,0,1.066,0.115,1.483,0.346C480.2,80.06,480.546,80.405,480.819,80.866"/>
	<path clip-path="url(#SVGID_2_)" d="M489.344,80.88c-0.144-0.086-0.303-0.144-0.475-0.188c-0.173-0.029-0.36-0.057-0.563-0.057
		c-0.734,0-1.296,0.245-1.685,0.72c-0.403,0.475-0.59,1.152-0.59,2.045v4.147h-1.296v-7.876h1.296v1.224
		c0.259-0.475,0.619-0.835,1.051-1.065s0.965-0.346,1.599-0.346c0.086,0,0.188,0.015,0.303,0.015
		c0.101,0.014,0.216,0.029,0.359,0.058V80.88"/>
	<path clip-path="url(#SVGID_2_)" d="M496.86,83.055v4.493h-1.296v-1.195c-0.303,0.489-0.677,0.835-1.108,1.051
		c-0.433,0.216-0.979,0.332-1.613,0.332c-0.806,0-1.454-0.216-1.93-0.663c-0.475-0.446-0.705-1.051-0.705-1.814
		c0-0.878,0.288-1.541,0.893-2.001c0.591-0.446,1.469-0.677,2.649-0.677h1.814v-0.13c0-0.59-0.201-1.051-0.59-1.382
		c-0.39-0.317-0.937-0.489-1.642-0.489c-0.461,0-0.894,0.058-1.325,0.172c-0.432,0.115-0.835,0.274-1.224,0.476v-1.195
		c0.46-0.173,0.921-0.317,1.367-0.403c0.447-0.086,0.879-0.144,1.311-0.144c1.138,0,1.987,0.303,2.549,0.893
		S496.86,81.859,496.86,83.055 M494.283,83.587c-1.052,0-1.771,0.13-2.175,0.36c-0.403,0.245-0.604,0.648-0.604,1.224
		c0,0.461,0.144,0.835,0.446,1.095c0.303,0.273,0.72,0.403,1.238,0.403c0.72,0,1.296-0.245,1.729-0.763
		c0.432-0.504,0.647-1.181,0.647-2.03v-0.288H494.283"/>
	<path clip-path="url(#SVGID_2_)" d="M506.005,86.568c0,1.325-0.303,2.318-0.893,2.98c-0.605,0.648-1.513,0.979-2.736,0.979
		c-0.461,0-0.879-0.043-1.281-0.101c-0.403-0.072-0.807-0.173-1.182-0.317v-1.253c0.375,0.202,0.749,0.346,1.124,0.446
		c0.374,0.101,0.748,0.159,1.137,0.159c0.836,0,1.47-0.23,1.901-0.663c0.418-0.446,0.634-1.109,0.634-2.001v-0.634
		c-0.273,0.461-0.619,0.807-1.037,1.037c-0.418,0.23-0.907,0.346-1.483,0.346c-0.979,0-1.757-0.36-2.347-1.094
		c-0.591-0.734-0.879-1.714-0.879-2.938c0-1.21,0.288-2.189,0.879-2.923c0.59-0.734,1.368-1.109,2.347-1.109
		c0.576,0,1.065,0.115,1.483,0.346s0.764,0.576,1.037,1.037v-1.195h1.296V86.568 M504.709,83.516c0-0.922-0.202-1.656-0.576-2.174
		c-0.389-0.519-0.937-0.778-1.627-0.778c-0.691,0-1.238,0.259-1.628,0.778c-0.389,0.518-0.575,1.252-0.575,2.174
		c0,0.936,0.187,1.656,0.575,2.174c0.39,0.519,0.937,0.777,1.628,0.777c0.69,0,1.238-0.259,1.627-0.777
		C504.507,85.171,504.709,84.452,504.709,83.516"/>
</g>
</svg>
