<?xml version="1.0" encoding="utf-8"?>
<!-- Generator: Adobe Illustrator 16.0.0, SVG Export Plug-In . SVG Version: 6.00 Build 0)  -->
<!DOCTYPE svg PUBLIC "-//W3C//DTD SVG 1.1//EN" "http://www.w3.org/Graphics/SVG/1.1/DTD/svg11.dtd">
<svg version="1.1" id="Layer_1" xmlns="http://www.w3.org/2000/svg" xmlns:xlink="http://www.w3.org/1999/xlink" x="0px" y="0px"
	 width="402.52px" height="51.023px" viewBox="0 0 402.52 51.023" enable-background="new 0 0 402.52 51.023" xml:space="preserve">
<line fill="none" stroke="#000000" stroke-width="0.8" stroke-linecap="round" stroke-linejoin="round" x1="116.672" y1="32.703" x2="281.73" y2="32.703"/>
<path fill-rule="evenodd" clip-rule="evenodd" d="M277.547,30.766l5.242,1.93l-5.242,1.929
	C278.383,33.484,278.379,31.926,277.547,30.766z"/>
<line fill="none" stroke="#8C0000" stroke-width="0.8" stroke-linecap="round" stroke-dasharray="2.4,2.4" x1="123.191" y1="23.723" x2="154.434" y2="18.945"/>
<ellipse fill="#8C0000" cx="122.732" cy="23.84" rx="1.381" ry="1.586"/>
<ellipse fill="none" stroke="#000000" stroke-width="0.24" stroke-linecap="round" stroke-linejoin="round" cx="122.732" cy="23.84" rx="1.381" ry="1.586"/>
<line fill="none" stroke="#8C0000" stroke-width="0.8" stroke-linecap="round" stroke-dasharray="2.4,2.4" x1="154.695" y1="18.898" x2="186.047" y2="16.477"/>
<line fill="none" stroke="#8C0000" stroke-width="0.8" stroke-linecap="round" stroke-dasharray="2.4,2.4" x1="186.191" y1="16.477" x2="218.172" y2="15.176"/>
<path fill="#8C0000" d="M187.578,16.488c0,0.879-0.617,1.586-1.379,1.586c-0.765,0-1.382-0.707-1.382-1.586
	c0-0.875,0.618-1.586,1.382-1.586C186.961,14.902,187.578,15.613,187.578,16.488z"/>
<path fill="none" stroke="#000000" stroke-width="0.24" stroke-linecap="round" stroke-linejoin="round" d="M187.578,16.488
	c0,0.879-0.617,1.586-1.379,1.586c-0.765,0-1.382-0.707-1.382-1.586c0-0.875,0.618-1.586,1.382-1.586
	C186.961,14.902,187.578,15.613,187.578,16.488z"/>
<path fill="#8C0000" d="M156.102,18.848c0,0.879-0.617,1.586-1.379,1.586c-0.765,0-1.383-0.707-1.383-1.586
	c0-0.875,0.618-1.586,1.383-1.586C155.484,17.262,156.102,17.973,156.102,18.848z"/>
<path fill="none" stroke="#000000" stroke-width="0.24" stroke-linecap="round" stroke-linejoin="round" d="M156.102,18.848
	c0,0.879-0.617,1.586-1.379,1.586c-0.765,0-1.383-0.707-1.383-1.586c0-0.875,0.618-1.586,1.383-1.586
	C155.484,17.262,156.102,17.973,156.102,18.848z"/>
<line fill="none" stroke="#8C0000" stroke-width="0.8" stroke-linecap="round" stroke-dasharray="2.4,2.4" x1="218.238" y1="15.168" x2="250.848" y2="16.988"/>
<path fill="#8C0000" d="M252.012,17.051c0,0.875-0.617,1.586-1.379,1.586s-1.379-0.711-1.379-1.586c0-0.879,0.617-1.586,1.379-1.586
	S252.012,16.172,252.012,17.051z"/>
<path fill="none" stroke="#000000" stroke-width="0.24" stroke-linecap="round" stroke-linejoin="round" d="M252.012,17.051
	c0,0.875-0.617,1.586-1.379,1.586s-1.379-0.711-1.379-1.586c0-0.879,0.617-1.586,1.379-1.586S252.012,16.172,252.012,17.051z"/>
<path d="M288.094,36.473h1.316c0.281,0,0.406,0,0.406-0.281c0-0.153-0.125-0.153-0.379-0.153h-1.23
	c0.504-1.972,0.574-2.253,0.574-2.339c0-0.223-0.168-0.364-0.406-0.364c-0.043,0-0.434,0.017-0.559,0.493l-0.531,2.21h-1.316
	c-0.281,0-0.422,0-0.422,0.267c0,0.168,0.113,0.168,0.391,0.168h1.234c-1.008,3.949-1.066,4.188-1.066,4.438
	c0,0.757,0.535,1.273,1.277,1.273c1.426,0,2.223-2.027,2.223-2.142c0-0.14-0.109-0.14-0.168-0.14c-0.125,0-0.137,0.054-0.207,0.195
	c-0.602,1.457-1.344,1.793-1.82,1.793c-0.281,0-0.422-0.185-0.422-0.646c0-0.335,0.027-0.433,0.07-0.671L288.094,36.473z"/>
<line fill="none" stroke="#000000" stroke-width="0.8" stroke-linecap="round" x1="154.574" y1="30.858" x2="154.574" y2="34.395"/>
<line fill="none" stroke="#000000" stroke-width="0.8" stroke-linecap="round" x1="122.574" y1="30.858" x2="122.574" y2="34.395"/>
<line fill="none" stroke="#000000" stroke-width="0.8" stroke-linecap="round" x1="186.574" y1="30.858" x2="186.574" y2="34.395"/>
<line fill="none" stroke="#000000" stroke-width="0.8" stroke-linecap="round" x1="218.574" y1="30.858" x2="218.574" y2="34.395"/>
<line fill="none" stroke="#000000" stroke-width="0.8" stroke-linecap="round" x1="250.574" y1="30.91" x2="250.574" y2="34.444"/>
<path fill="#8C0000" d="M219.555,15.043c0,0.879-0.617,1.586-1.379,1.586s-1.379-0.707-1.379-1.586c0-0.875,0.617-1.586,1.379-1.586
	S219.555,14.168,219.555,15.043z"/>
<path fill="none" stroke="#000000" stroke-width="0.24" stroke-linecap="round" stroke-linejoin="round" d="M219.555,15.043
	c0,0.879-0.617,1.586-1.379,1.586s-1.379-0.707-1.379-1.586c0-0.875,0.617-1.586,1.379-1.586S219.555,14.168,219.555,15.043z"/>
<path d="M121.555,41.281h1.316c0.281,0,0.406,0,0.406-0.282c0-0.151-0.125-0.151-0.379-0.151h-1.23
	c0.504-1.978,0.574-2.254,0.574-2.34c0-0.223-0.168-0.363-0.406-0.363c-0.043,0-0.434,0.016-0.563,0.492l-0.531,2.211h-1.316
	c-0.278,0-0.418,0-0.418,0.266c0,0.168,0.113,0.168,0.39,0.168h1.235c-1.008,3.949-1.067,4.188-1.067,4.438
	c0,0.758,0.532,1.273,1.274,1.273c1.43,0,2.226-2.032,2.226-2.141c0-0.142-0.109-0.142-0.168-0.142c-0.125,0-0.14,0.056-0.21,0.196
	c-0.602,1.457-1.344,1.793-1.817,1.793c-0.281,0-0.422-0.184-0.422-0.645c0-0.336,0.028-0.435,0.071-0.672L121.555,41.281z"/>
<path d="M128.75,45.831v-0.394l-0.012-0.18l-0.015-0.168l-0.012-0.184l-0.016-0.168l-0.027-0.153l-0.027-0.155l-0.043-0.152
	l-0.043-0.157l-0.043-0.136l-0.11-0.281l-0.07-0.125l-0.07-0.141l-0.043-0.059l-0.043-0.066c-0.293-0.449-0.895-0.84-1.68-0.84
	v0.276c0.52,0,1.039,0.325,1.207,0.884c0.152,0.53,0.168,1.23,0.168,2.07c0,0.73,0,1.445-0.129,2.059
	c-0.195,0.883-0.851,1.094-1.246,1.094c-0.445,0-1.051-0.254-1.246-1.067c-0.125-0.558-0.125-1.354-0.125-2.085
	c0-0.711,0-1.454,0.141-1.984c0.211-0.773,0.824-0.97,1.23-0.97v-0.276c-2.266,0-2.266,2.656-2.266,3.358c0,0.7,0,3.306,2.266,3.306
	C128.75,49.137,128.75,46.531,128.75,45.831z"/>
<path d="M152.043,41.316h1.312c0.282,0,0.407,0,0.407-0.281c0-0.152-0.125-0.152-0.375-0.152h-1.235
	c0.504-1.977,0.575-2.254,0.575-2.341c0-0.222-0.168-0.362-0.407-0.362c-0.039,0-0.433,0.016-0.558,0.487l-0.532,2.216h-1.316
	c-0.281,0-0.422,0-0.422,0.266c0,0.168,0.113,0.168,0.395,0.168h1.23c-1.008,3.945-1.062,4.183-1.062,4.438
	c0,0.754,0.531,1.273,1.273,1.273c1.426,0,2.227-2.032,2.227-2.141c0-0.142-0.114-0.142-0.168-0.142
	c-0.129,0-0.141,0.056-0.211,0.196c-0.602,1.457-1.344,1.793-1.821,1.793c-0.281,0-0.421-0.184-0.421-0.645
	c0-0.336,0.031-0.434,0.07-0.673L152.043,41.316z"/>
<path d="M157.473,42.785v-0.168l-0.012-0.016v-0.027h-0.016v-0.027h-0.015v-0.012h-0.028V42.52h-0.07v-0.016h-0.152
	c-0.618,0.616-1.512,0.633-1.907,0.633v0.348c0.239,0,0.883,0,1.415-0.278v4.97c0,0.319,0,0.448-0.977,0.448h-0.367v0.349
	c0.168-0.013,1.375-0.043,1.738-0.043c0.293,0,1.523,0.03,1.734,0.043v-0.349h-0.363c-0.98,0-0.98-0.129-0.98-0.448V42.785z"/>
<path d="M185.379,41.465h1.316c0.282,0,0.407,0,0.407-0.277c0-0.156-0.125-0.156-0.379-0.156h-1.231
	c0.504-1.973,0.574-2.254,0.574-2.336c0-0.227-0.168-0.364-0.406-0.364c-0.043,0-0.433,0.013-0.558,0.489l-0.536,2.211h-1.316
	c-0.277,0-0.418,0-0.418,0.266c0,0.168,0.113,0.168,0.391,0.168h1.234c-1.008,3.948-1.066,4.188-1.066,4.441
	c0,0.754,0.531,1.273,1.273,1.273c1.43,0,2.227-2.031,2.227-2.145c0-0.137-0.11-0.137-0.168-0.137c-0.125,0-0.141,0.055-0.207,0.195
	c-0.606,1.453-1.348,1.789-1.821,1.789c-0.281,0-0.422-0.18-0.422-0.641c0-0.336,0.028-0.438,0.071-0.672L185.379,41.465z"/>
<path d="M192.477,47.348h-0.336c-0.028,0.223-0.125,0.797-0.25,0.895c-0.086,0.055-0.829,0.055-0.969,0.055h-1.789
	c1.019-0.91,1.355-1.177,1.945-1.637c0.727-0.575,1.399-1.176,1.399-2.098c0-1.18-1.036-1.906-2.282-1.906
	c-1.218,0-2.031,0.855-2.031,1.75c0,0.492,0.422,0.547,0.52,0.547c0.238,0,0.519-0.168,0.519-0.52c0-0.18-0.07-0.517-0.574-0.517
	c0.293-0.687,0.965-0.909,1.414-0.909c0.98,0,1.484,0.754,1.484,1.555c0,0.84-0.605,1.512-0.91,1.859l-2.351,2.323
	c-0.102,0.086-0.102,0.099-0.102,0.379h4.02L192.477,47.348z"/>
<path d="M217.258,41.91h1.316c0.281,0,0.406,0,0.406-0.281c0-0.156-0.125-0.156-0.375-0.156h-1.234
	c0.504-1.974,0.574-2.254,0.574-2.336c0-0.224-0.168-0.363-0.406-0.363c-0.043,0-0.434,0.012-0.559,0.488l-0.531,2.211h-1.316
	c-0.281,0-0.422,0-0.422,0.27c0,0.168,0.113,0.168,0.395,0.168h1.23c-1.008,3.945-1.063,4.184-1.063,4.438
	c0,0.754,0.531,1.272,1.273,1.272c1.426,0,2.227-2.03,2.227-2.14c0-0.141-0.113-0.141-0.168-0.141c-0.129,0-0.141,0.055-0.211,0.195
	c-0.602,1.457-1.344,1.793-1.82,1.793c-0.281,0-0.422-0.184-0.422-0.645c0-0.336,0.027-0.435,0.07-0.672L217.258,41.91z"/>
<path d="M222.09,46.32h0.141l0.07,0.011h0.07l0.055,0.017l0.07,0.026l0.055,0.013l0.07,0.03l0.055,0.028l0.059,0.027l0.109,0.055
	l0.043,0.043l0.059,0.043l0.039,0.043l0.043,0.054l0.043,0.044l0.043,0.055l0.039,0.055l0.027,0.059l0.043,0.07l0.027,0.07
	l0.031,0.066l0.027,0.07l0.012,0.07l0.027,0.086l0.016,0.07l0.016,0.082v0.098l0.012,0.086v0.097l0.016,0.099
	c0,1.203-0.715,1.566-1.273,1.566c-0.395,0-1.246-0.109-1.668-0.684c0.461-0.027,0.574-0.353,0.574-0.547
	c0-0.31-0.238-0.531-0.531-0.531c-0.281,0-0.547,0.168-0.547,0.558c0,0.911,1.008,1.513,2.184,1.513c1.359,0,2.297-0.91,2.297-1.875
	c0-0.77-0.63-1.527-1.695-1.75c1.023-0.363,1.387-1.095,1.387-1.695c0-0.77-0.883-1.344-1.961-1.344
	c-1.09,0-1.918,0.531-1.918,1.305c0,0.336,0.211,0.515,0.504,0.515c0.309,0,0.504-0.222,0.504-0.487
	c0-0.281-0.195-0.492-0.504-0.504c0.352-0.434,1.023-0.547,1.387-0.547c0.434,0,1.051,0.223,1.051,1.063
	c0,0.406-0.141,0.855-0.391,1.164c-0.324,0.363-0.602,0.39-1.078,0.418c-0.254,0.015-0.266,0.015-0.324,0.027
	c-0.012,0-0.098,0.016-0.098,0.129c0,0.141,0.098,0.141,0.254,0.141H222.09z"/>
<path d="M249.48,42.581h1.316c0.277,0,0.406,0,0.406-0.276c0-0.156-0.129-0.156-0.379-0.156h-1.234
	c0.504-1.973,0.574-2.254,0.574-2.336c0-0.223-0.168-0.363-0.406-0.363c-0.039,0-0.434,0.011-0.559,0.488l-0.531,2.211h-1.316
	c-0.281,0-0.422,0-0.422,0.265c0,0.168,0.113,0.168,0.395,0.168h1.23c-1.008,3.95-1.063,4.188-1.063,4.442
	c0,0.754,0.531,1.273,1.273,1.273c1.426,0,2.227-2.031,2.227-2.145c0-0.137-0.113-0.137-0.168-0.137
	c-0.125,0-0.141,0.055-0.211,0.194c-0.602,1.453-1.344,1.789-1.82,1.789c-0.281,0-0.418-0.179-0.418-0.64
	c0-0.336,0.027-0.434,0.066-0.672L249.48,42.581z"/>
<path d="M256.801,48.645v-0.348h-1.078v-4.341c0-0.211,0-0.28-0.211-0.28c-0.125,0-0.152,0-0.25,0.141l-3.234,4.48v0.348h2.871
	l0.07-0.348h-2.578l2.578-3.57v3.57l-0.07,0.348v0.801c0,0.32,0,0.445-0.785,0.445h-0.266v0.352
	c0.488-0.027,1.105-0.043,1.457-0.043c0.363,0,0.992,0.016,1.469,0.043v-0.352h-0.254c-0.797,0-0.797-0.125-0.797-0.445v-0.801
	H256.801z"/>
<line fill="none" stroke="#8C0000" stroke-width="0.8" stroke-linecap="round" stroke-dasharray="2.4,2.4" x1="250.629" y1="17.074" x2="278.266" y2="14.586"/>
<path d="M124.574,10.585v-0.14l-0.015-0.028v-0.082l-0.016-0.058l-0.012-0.055l-0.015-0.059l-0.012-0.054l-0.016-0.043l-0.015-0.039
	l-0.012-0.043l-0.016-0.043l-0.027-0.028l-0.012-0.043l-0.031-0.027l-0.012-0.027l-0.027-0.028l-0.031-0.027l-0.012-0.016
	l-0.027-0.027l-0.028-0.015l-0.031-0.012l-0.055-0.031l-0.015-0.012l-0.028-0.016h-0.027l-0.027-0.012h-0.043l-0.028-0.015h-0.027
	c-0.352,0-0.687,0.363-0.687,0.672c0,0.183,0.07,0.265,0.226,0.422c0.293,0.277,0.473,0.644,0.473,1.132
	c0,0.59-0.852,3.782-2.477,3.782c-0.715,0-1.035-0.493-1.035-1.219c0-0.785,0.379-1.793,0.813-2.941
	c0.097-0.239,0.168-0.434,0.168-0.7c0-0.629-0.45-1.148-1.149-1.148c-1.301,0-1.836,2.015-1.836,2.14
	c0,0.141,0.141,0.141,0.168,0.141c0.141,0,0.156-0.027,0.227-0.25c0.406-1.402,0.992-1.723,1.398-1.723c0.113,0,0.352,0,0.352,0.45
	c0,0.347-0.141,0.726-0.239,0.98c-0.601,1.61-0.785,2.254-0.785,2.84c0,1.512,1.219,1.723,1.864,1.723
	C123.773,15.906,124.574,11.313,124.574,10.585z"/>
<path d="M129.836,14.743v-0.391l-0.012-0.18v-0.168l-0.031-0.183l-0.012-0.168l-0.027-0.157l-0.031-0.152l-0.039-0.152l-0.043-0.156
	l-0.043-0.141l-0.055-0.137l-0.055-0.14l-0.07-0.129l-0.07-0.137l-0.043-0.059l-0.043-0.07c-0.293-0.445-0.895-0.84-1.68-0.84v0.281
	c0.531,0,1.035,0.321,1.203,0.883c0.156,0.532,0.168,1.231,0.168,2.071c0,0.73,0,1.441-0.125,2.058
	c-0.195,0.883-0.855,1.094-1.246,1.094c-0.449,0-1.051-0.254-1.246-1.066c-0.125-0.559-0.125-1.356-0.125-2.086
	c0-0.715,0-1.457,0.141-1.989c0.207-0.769,0.824-0.965,1.23-0.965v-0.281c-2.266,0-2.266,2.66-2.266,3.36
	c0,0.703,0,3.304,2.266,3.304C129.836,18.046,129.836,15.445,129.836,14.743z"/>
<path d="M155.105,7.121V6.98l-0.011-0.027V6.868l-0.016-0.055l-0.012-0.055l-0.015-0.058l-0.016-0.055l-0.012-0.043l-0.015-0.043
	l-0.012-0.039l-0.016-0.043l-0.027-0.027l-0.015-0.043l-0.028-0.028l-0.012-0.027l-0.07-0.07l-0.031-0.028l-0.055-0.031
	l-0.027-0.012l-0.027-0.015l-0.016-0.012l-0.027-0.016h-0.028l-0.027-0.015h-0.043l-0.027-0.012h-0.028
	c-0.351,0-0.687,0.363-0.687,0.672c0,0.18,0.07,0.266,0.222,0.418c0.297,0.281,0.477,0.644,0.477,1.137
	c0,0.586-0.852,3.777-2.477,3.777c-0.715,0-1.035-0.488-1.035-1.215c0-0.785,0.375-1.793,0.809-2.941
	c0.101-0.239,0.168-0.434,0.168-0.7c0-0.632-0.446-1.148-1.145-1.148c-1.304,0-1.836,2.016-1.836,2.141
	c0,0.14,0.141,0.14,0.168,0.14c0.141,0,0.156-0.027,0.223-0.25c0.406-1.402,0.996-1.722,1.402-1.722c0.114,0,0.348,0,0.348,0.445
	c0,0.351-0.137,0.73-0.234,0.98c-0.606,1.61-0.786,2.254-0.786,2.844c0,1.512,1.219,1.723,1.86,1.723
	C154.309,12.441,155.105,7.848,155.105,7.121z"/>
<path d="M158.605,8.199V8.031l-0.011-0.016V7.988l-0.016-0.016V7.96h-0.012V7.945h-0.031V7.934h-0.07V7.917h-0.153
	c-0.617,0.618-1.496,0.629-1.902,0.629v0.352c0.238,0,0.879,0,1.414-0.281v4.972c0,0.321,0,0.446-0.98,0.446h-0.364v0.351
	c0.168-0.016,1.372-0.043,1.735-0.043c0.293,0,1.527,0.027,1.734,0.043v-0.351h-0.363c-0.981,0-0.981-0.125-0.981-0.446V8.199z"/>
<path d="M185.602,3.679V3.539l-0.016-0.027V3.425l-0.012-0.055l-0.015-0.054l-0.016-0.059l-0.012-0.054l-0.015-0.043l-0.012-0.04
	l-0.031-0.085l-0.028-0.028l-0.011-0.043l-0.028-0.027l-0.015-0.027l-0.028-0.028l-0.027-0.031l-0.016-0.012l-0.027-0.027
	l-0.055-0.031l-0.031-0.012l-0.027-0.016l-0.012-0.011l-0.031-0.016h-0.028l-0.027-0.012h-0.043l-0.027-0.015h-0.028
	c-0.351,0-0.687,0.363-0.687,0.671c0,0.184,0.07,0.266,0.226,0.422C184.816,4.07,185,4.434,185,4.925
	c0,0.586-0.855,3.781-2.48,3.781c-0.715,0-1.036-0.492-1.036-1.218c0-0.785,0.379-1.793,0.813-2.942
	c0.098-0.238,0.168-0.433,0.168-0.699c0-0.629-0.449-1.148-1.149-1.148c-1.3,0-1.832,2.015-1.832,2.14
	c0,0.141,0.137,0.141,0.168,0.141c0.137,0,0.153-0.027,0.223-0.25c0.406-1.402,0.992-1.723,1.398-1.723c0.114,0,0.352,0,0.352,0.449
	c0,0.348-0.141,0.727-0.238,0.977c-0.602,1.613-0.785,2.254-0.785,2.844c0,1.511,1.218,1.722,1.863,1.722
	C184.801,9,185.602,4.406,185.602,3.679z"/>
<path d="M190.766,9.167h-0.336c-0.028,0.223-0.125,0.797-0.25,0.895c-0.086,0.058-0.828,0.058-0.969,0.058h-1.789
	c1.019-0.91,1.355-1.179,1.945-1.64c0.727-0.574,1.399-1.176,1.399-2.098c0-1.176-1.036-1.906-2.282-1.906
	c-1.203,0-2.031,0.855-2.031,1.75c0,0.492,0.422,0.547,0.52,0.547c0.238,0,0.519-0.168,0.519-0.52c0-0.179-0.07-0.515-0.574-0.515
	c0.293-0.688,0.965-0.91,1.414-0.91c0.98,0,1.484,0.753,1.484,1.554c0,0.84-0.605,1.512-0.91,1.86l-2.355,2.324
	c-0.098,0.086-0.098,0.097-0.098,0.379h4.02L190.766,9.167z"/>
<path d="M219.016,3.57V3.434l-0.012-0.031V3.32l-0.016-0.055l-0.016-0.059l-0.012-0.054l-0.016-0.055l-0.012-0.043l-0.031-0.086
	l-0.012-0.039l-0.027-0.031l-0.016-0.039l-0.027-0.031L218.805,2.8l-0.098-0.097l-0.027-0.012l-0.055-0.031l-0.027-0.012
	l-0.016-0.016l-0.027-0.012h-0.027L218.5,2.605h-0.043l-0.027-0.012h-0.031c-0.348,0-0.684,0.363-0.684,0.672
	c0,0.18,0.07,0.266,0.224,0.418c0.292,0.281,0.476,0.645,0.476,1.133c0,0.59-0.855,3.781-2.476,3.781
	c-0.716,0-1.04-0.488-1.04-1.219c0-0.781,0.379-1.789,0.813-2.937c0.098-0.238,0.168-0.434,0.168-0.703
	c0-0.629-0.445-1.145-1.148-1.145c-1.301,0-1.832,2.016-1.832,2.141c0,0.14,0.141,0.14,0.168,0.14c0.141,0,0.152-0.027,0.223-0.254
	c0.406-1.398,0.996-1.722,1.402-1.722c0.109,0,0.348,0,0.348,0.449c0,0.352-0.141,0.727-0.238,0.981
	c-0.602,1.609-0.781,2.253-0.781,2.839c0,1.516,1.215,1.723,1.859,1.723C218.219,8.891,219.016,4.3,219.016,3.57z"/>
<path d="M221.914,7.589h0.141l0.07,0.016h0.07l0.055,0.012l0.07,0.027l0.055,0.016l0.07,0.027l0.059,0.027l0.055,0.028l0.055,0.031
	l0.059,0.027l0.039,0.043l0.059,0.039l0.039,0.043l0.043,0.055l0.043,0.043l0.044,0.055l0.038,0.058l0.031,0.055l0.039,0.07
	l0.031,0.07l0.055,0.141l0.012,0.07l0.031,0.082l0.013,0.071l0.015,0.086l0.012,0.097v0.18l0.016,0.098
	c0,1.207-0.715,1.57-1.273,1.57c-0.396,0-1.246-0.113-1.652-0.688c0.449-0.027,0.559-0.347,0.559-0.546
	c0-0.305-0.238-0.532-0.531-0.532c-0.281,0-0.547,0.168-0.547,0.563c0,0.91,1.008,1.512,2.184,1.512
	c1.359,0,2.297-0.911,2.297-1.879c0-0.77-0.617-1.524-1.695-1.75c1.023-0.364,1.387-1.09,1.387-1.692
	c0-0.769-0.879-1.344-1.957-1.344s-1.918,0.532-1.918,1.301c0,0.336,0.223,0.52,0.504,0.52c0.305,0,0.504-0.227,0.504-0.492
	c0-0.282-0.199-0.489-0.504-0.504c0.348-0.434,1.02-0.547,1.383-0.547c0.434,0,1.051,0.226,1.051,1.066
	c0,0.406-0.141,0.852-0.391,1.16c-0.324,0.364-0.59,0.395-1.078,0.422c-0.254,0.012-0.266,0.012-0.309,0.028
	c-0.027,0-0.113,0.015-0.113,0.125c0,0.14,0.098,0.14,0.266,0.14H221.914z"/>
<path d="M251.457,2.813V2.671l-0.016-0.027V2.559l-0.012-0.055l-0.016-0.058l-0.012-0.055l-0.016-0.055l-0.016-0.043l-0.012-0.043
	l-0.016-0.039l-0.012-0.043l-0.027-0.027l-0.016-0.043l-0.027-0.027l-0.016-0.028l-0.027-0.031l-0.027-0.027l-0.016-0.012
	l-0.027-0.031l-0.027-0.012l-0.027-0.016l-0.027-0.011l-0.031-0.016l-0.012-0.016l-0.027-0.011h-0.027l-0.03-0.016h-0.04
	l-0.031-0.012h-0.027c-0.348,0-0.684,0.364-0.684,0.672c0,0.18,0.07,0.266,0.223,0.418c0.293,0.282,0.477,0.645,0.477,1.137
	c0,0.586-0.855,3.777-2.48,3.777c-0.711,0-1.035-0.488-1.035-1.218c0-0.782,0.379-1.789,0.813-2.938
	c0.098-0.238,0.168-0.434,0.168-0.699c0-0.633-0.449-1.149-1.148-1.149c-1.301,0-1.832,2.016-1.832,2.141
	c0,0.141,0.141,0.141,0.168,0.141c0.141,0,0.152-0.028,0.223-0.254c0.406-1.399,0.996-1.719,1.402-1.719
	c0.109,0,0.348,0,0.348,0.445c0,0.352-0.141,0.731-0.238,0.981c-0.602,1.609-0.785,2.254-0.785,2.844
	c0,1.511,1.219,1.722,1.863,1.722C250.66,8.132,251.457,3.539,251.457,2.813z"/>
<path d="M256.859,8.48V8.132h-1.09v-4.34c0-0.211,0-0.281-0.211-0.281c-0.125,0-0.152,0-0.25,0.141l-3.234,4.48V8.48h2.867
	l0.07-0.348h-2.573l2.573-3.57v3.57l-0.07,0.348v0.797c0,0.324,0,0.449-0.781,0.449h-0.266v0.352
	c0.488-0.028,1.105-0.043,1.453-0.043c0.367,0,0.996,0.015,1.473,0.043V9.727h-0.254c-0.797,0-0.797-0.125-0.797-0.449V8.48H256.859
	z"/>
</svg>
