<?xml version="1.0" standalone="no"?>
<!DOCTYPE svg PUBLIC "-//W3C//DTD SVG 1.1//EN"
  "http://www.w3.org/Graphics/SVG/1.1/DTD/svg11.dtd">
<!-- Created with matplotlib (http://matplotlib.sourceforge.net/) -->
<svg width="253pt" height="243pt" viewBox="0 0 253 243"
   xmlns="http://www.w3.org/2000/svg"
   xmlns:xlink="http://www.w3.org/1999/xlink"
   version="1.1"
   id="svg1">
<filter id="colorAdd"><feComposite in="SourceGraphic" in2="BackgroundImage" operator="arithmetic" k2="1" k3="1"/></filter>
<g id="figure1">
<g id="patch1">
<path style="fill: #ffffff; stroke: #ffffff; stroke-width: 1.000000; stroke-linejoin: round; stroke-linecap: square;  opacity: 1.000000"  d="M0.000000 243.154808L253.520192 243.154808L253.520192 0.000000
L0.000000 0.000000z"/>
</g>
<g id="axes1">
<g id="patch2">
<path style="fill: #ffffff; opacity: 1.000000"  d="M16.512500 224.392308L232.512500 224.392308L232.512500 8.392308
L16.512500 8.392308z"/>
</g>
<g id="LineCollection1">
<defs>
<path id="coll0_0_c0418b0e8cc86effbe8a924e4b8a7e43" d="M41.435577 -22.916346L41.574968 -23.195128L42.132531 -24.310254
L42.829485 -25.704162L42.968876 -25.982944L43.526439 -27.098070
L44.223393 -28.491979L44.362784 -28.770760L44.920347 -29.885887
L45.617301 -31.279795L45.756692 -31.558576L46.314255 -32.673703
L47.011209 -34.067611L47.150600 -34.346393L47.708163 -35.461519
L48.405117 -36.855427L48.544508 -37.134209L49.102072 -38.249335
L49.799026 -39.643243L49.938416 -39.922025L50.495980 -41.037152
L51.192934 -42.431060L51.332324 -42.709841L51.889888 -43.824968
L52.586842 -45.218876L52.726233 -45.497657L53.283796 -46.612784
L53.980750 -48.006692L54.120141 -48.285474L54.677704 -49.400600
L55.374658 -50.794508L55.514049 -51.073290L56.071612 -52.188416
L56.768566 -53.582324L56.907957 -53.861106L57.465520 -54.976233
L58.162474 -56.370141L58.301865 -56.648922L58.859428 -57.764049
L59.556382 -59.157957L59.695773 -59.436739L60.253336 -60.551865
L60.950290 -61.945773L61.089681 -62.224555L61.647244 -63.339681
L62.344199 -64.733589L62.483589 -65.012371L63.041153 -66.127497
L63.738107 -67.521406L63.877497 -67.800187L64.435061 -68.915314
L65.132015 -70.309222L65.271406 -70.588003L65.828969 -71.703130
L66.525923 -73.097038L66.665314 -73.375820L67.222877 -74.490946
L67.919831 -75.884854L68.059222 -76.163636L68.616785 -77.278762
L69.313739 -78.672670L69.453130 -78.951452L70.010693 -80.066578
L70.707647 -81.460487L70.847038 -81.739268L71.404601 -82.854395
L72.101555 -84.248303L72.240946 -84.527084L72.798509 -85.642211
L73.495463 -87.036119L73.634854 -87.314901L74.192417 -88.430027
L74.889371 -89.823935L75.028762 -90.102717L75.586326 -91.217843
L76.283280 -92.611751L76.422670 -92.890533L76.980234 -94.005660
L77.677188 -95.399568L77.816578 -95.678349L78.374142 -96.793476
L79.071096 -98.187384L79.210487 -98.466165L79.768050 -99.581292
L80.465004 -100.975200L80.604395 -101.253982L81.161958 -102.369108
L81.858912 -103.763016L81.998303 -104.041798L82.555866 -105.156924
L83.252820 -106.550832L83.392211 -106.829614L83.949774 -107.944741
L84.646728 -109.338649L84.786119 -109.617430L85.343682 -110.732557
L86.040636 -112.126465L86.180027 -112.405247L86.737590 -113.520373
L87.434544 -114.914281L87.573935 -115.193063L88.131498 -116.308189
L88.828453 -117.702097L88.967843 -117.980879L89.525407 -119.096005
L90.222361 -120.489914L90.361751 -120.768695L90.919315 -121.883822
L91.616269 -123.277730L91.755660 -123.556511L92.313223 -124.671638
L93.010177 -126.065546L93.149568 -126.344328L93.707131 -127.459454
L94.404085 -128.853362L94.543476 -129.132144L95.101039 -130.247270
L95.797993 -131.641178L95.937384 -131.919960L96.494947 -133.035086
L97.191901 -134.428995L97.331292 -134.707776L97.888855 -135.822903
L98.585809 -137.216811L98.725200 -137.495592L99.282763 -138.610719
L99.979717 -140.004627L100.119108 -140.283409L100.676671 -141.398535
L101.373625 -142.792443L101.513016 -143.071225L102.070580 -144.186351
L102.767534 -145.580259L102.906924 -145.859041L103.464488 -146.974168
L104.161442 -148.368076L104.300832 -148.646857L104.858396 -149.761984
L105.555350 -151.155892L105.694741 -151.434673L106.252304 -152.549800
L106.949258 -153.943708L107.088649 -154.222490L107.646212 -155.337616
L108.343166 -156.731524L108.482557 -157.010306L109.040120 -158.125432
L109.737074 -159.519340L109.876465 -159.798122L110.434028 -160.913249
L111.130982 -162.307157L111.270373 -162.585938L111.827936 -163.701065
L112.524890 -165.094973L112.664281 -165.373755L113.221844 -166.488881
L113.918798 -167.882789L114.058189 -168.161571L114.615752 -169.276697
L115.312707 -170.670605L115.452097 -170.949387L116.009661 -172.064513
L116.706615 -173.458422L116.846005 -173.737203L117.403569 -174.852330
L118.100523 -176.246238L118.239914 -176.525019L118.797477 -177.640146
L119.494431 -179.034054L119.633822 -179.312836L120.191385 -180.427962
L120.888339 -181.821870L121.027730 -182.100652L121.585293 -183.215778
L122.282247 -184.609686L122.421638 -184.888468L122.979201 -186.003594
L123.676155 -187.397503L123.815546 -187.676284L124.373109 -188.791411
L125.070063 -190.185319L125.209454 -190.464100L125.767017 -191.579227
L126.463971 -192.973135L126.603362 -193.251917L127.160925 -194.367043
L127.857879 -195.760951L127.997270 -196.039733L128.554834 -197.154859
L129.251788 -198.548767L129.391178 -198.827549L129.948742 -199.942676
L130.645696 -201.336584L130.785086 -201.615365L131.342650 -202.730492
L132.039604 -204.124400L132.178995 -204.403181L132.736558 -205.518308
L133.433512 -206.912216L133.572903 -207.190998L134.130466 -208.306124
L134.827420 -209.700032L134.966811 -209.978814L135.524374 -211.093940
L136.221328 -212.487848L136.360719 -212.766630L136.918282 -213.881757
L137.615236 -215.275665L137.754627 -215.554446L138.312190 -216.669573
L139.009144 -218.063481L139.148535 -218.342263L139.706098 -219.457389
L140.403052 -220.851297L140.542443 -221.130079L141.100006 -222.245205
L141.796961 -223.639113L141.936351 -223.917895L142.493915 -225.033021
L143.190869 -226.426930L143.330259 -226.705711L143.887823 -227.820838
L144.584777 -229.214746L144.724168 -229.493527L145.281731 -230.608654"/>
</defs>
<defs>
  <clipPath id="pb46c386742fd882829d94ef40c6f583c">
<rect x="16.512500" y="8.392308" width="216.000000" height="216.000000"/>
  </clipPath>
</defs><g clip-path="url(#pb46c386742fd882829d94ef40c6f583c)"><use style="fill: none; stroke: #ff0000; stroke-width: 1.000000; stroke-linejoin: round; stroke-linecap: butt;  opacity: 1.000000" xlink:href="#coll0_0_c0418b0e8cc86effbe8a924e4b8a7e43" x="0.000000" y="243.154808"/>
</g></g>
<g id="LineCollection2">
<defs>
<path id="coll1_0_c0418b0e8cc86effbe8a924e4b8a7e43" d="M41.435577 -22.916346L41.574968 -23.195128L42.132531 -24.310254
L42.829485 -25.704162L42.968876 -25.982944L43.526439 -27.098070
L44.223393 -28.491979L44.362784 -28.770760L44.920347 -29.885887
L45.617301 -31.279795L45.756692 -31.558576L46.314255 -32.673703
L47.011209 -34.067611L47.150600 -34.346393L47.708163 -35.461519
L48.405117 -36.855427L48.544508 -37.134209L49.102072 -38.249335
L49.799026 -39.643243L49.938416 -39.922025L50.495980 -41.037152
L51.192934 -42.431060L51.332324 -42.709841L51.889888 -43.824968
L52.586842 -45.218876L52.726233 -45.497657L53.283796 -46.612784
L53.980750 -48.006692L54.120141 -48.285474L54.677704 -49.400600
L55.374658 -50.794508L55.514049 -51.073290L56.071612 -52.188416
L56.768566 -53.582324L56.907957 -53.861106L57.465520 -54.976233
L58.162474 -56.370141L58.301865 -56.648922L58.859428 -57.764049
L59.556382 -59.157957L59.695773 -59.436739L60.253336 -60.551865
L60.950290 -61.945773L61.089681 -62.224555L61.647244 -63.339681
L62.344199 -64.733589L62.483589 -65.012371L63.041153 -66.127497
L63.738107 -67.521406L63.877497 -67.800187L64.435061 -68.915314
L65.132015 -70.309222L65.271406 -70.588003L65.828969 -71.703130
L66.525923 -73.097038L66.665314 -73.375820L67.222877 -74.490946
L67.919831 -75.884854L68.059222 -76.163636L68.616785 -77.278762
L69.313739 -78.672670L69.453130 -78.951452L70.010693 -80.066578
L70.707647 -81.460487L70.847038 -81.739268L71.404601 -82.854395
L72.101555 -84.248303L72.240946 -84.527084L72.798509 -85.642211
L73.495463 -87.036119L73.634854 -87.314901L74.192417 -88.430027
L74.889371 -89.823935L75.028762 -90.102717L75.586326 -91.217843
L76.283280 -92.611751L76.422670 -92.890533L76.980234 -94.005660
L77.677188 -95.399568L77.816578 -95.678349L78.374142 -96.793476
L79.071096 -98.187384L79.210487 -98.466165L79.768050 -99.581292
L80.465004 -100.975200L80.604395 -101.253982L81.161958 -102.369108
L81.858912 -103.763016L81.998303 -104.041798L82.555866 -105.156924
L83.252820 -106.550832L83.392211 -106.829614L83.949774 -107.944741
L84.646728 -109.338649L84.786119 -109.617430L85.343682 -110.732557
L86.040636 -112.126465L86.180027 -112.405247L86.737590 -113.520373
L87.434544 -114.914281L87.573935 -115.193063L88.131498 -116.308189
L88.828453 -117.702097L88.967843 -117.980879L89.525407 -119.096005
L90.222361 -120.489914L90.361751 -120.768695L90.919315 -121.883822
L91.616269 -123.277730L91.755660 -123.556511L92.313223 -124.671638
L93.010177 -126.065546L93.149568 -126.344328L93.707131 -127.459454
L94.404085 -128.853362L94.543476 -129.132144L95.101039 -130.247270
L95.797993 -131.641178L95.937384 -131.919960L96.494947 -133.035086
L97.191901 -134.428995L97.331292 -134.707776L97.888855 -135.822903
L98.585809 -137.216811L98.725200 -137.495592L99.282763 -138.610719
L99.979717 -140.004627L100.119108 -140.283409L100.676671 -141.398535
L101.373625 -142.792443L101.513016 -143.071225L102.070580 -144.186351
L102.767534 -145.580259L102.906924 -145.859041L103.464488 -146.974168
L104.161442 -148.368076L104.300832 -148.646857L104.858396 -149.761984
L105.555350 -151.155892L105.694741 -151.434673L106.252304 -152.549800
L106.949258 -153.943708L107.088649 -154.222490L107.646212 -155.337616
L108.343166 -156.731524L108.482557 -157.010306L109.040120 -158.125432
L109.737074 -159.519340L109.876465 -159.798122L110.434028 -160.913249
L111.130982 -162.307157L111.270373 -162.585938L111.827936 -163.701065
L112.524890 -165.094973L112.664281 -165.373755L113.221844 -166.488881
L113.918798 -167.882789L114.058189 -168.161571L114.615752 -169.276697
L115.312707 -170.670605L115.452097 -170.949387L116.009661 -172.064513
L116.706615 -173.458422L116.846005 -173.737203L117.403569 -174.852330
L118.100523 -176.246238L118.239914 -176.525019L118.797477 -177.640146
L119.494431 -179.034054L119.633822 -179.312836L120.191385 -180.427962
L120.888339 -181.821870L121.027730 -182.100652L121.585293 -183.215778
L122.282247 -184.609686L122.421638 -184.888468L122.979201 -186.003594
L123.676155 -187.397503L123.815546 -187.676284L124.373109 -188.791411
L125.070063 -190.185319L125.209454 -190.464100L125.767017 -191.579227
L126.463971 -192.973135L126.603362 -193.251917L127.160925 -194.367043
L127.857879 -195.760951L127.997270 -196.039733L128.554834 -197.154859
L129.251788 -198.548767L129.391178 -198.827549L129.948742 -199.942676
L130.645696 -201.336584L130.785086 -201.615365L131.342650 -202.730492
L132.039604 -204.124400L132.178995 -204.403181L132.736558 -205.518308
L133.433512 -206.912216L133.572903 -207.190998L134.130466 -208.306124
L134.827420 -209.700032L134.966811 -209.978814L135.524374 -211.093940
L136.221328 -212.487848L136.360719 -212.766630L136.918282 -213.881757
L137.615236 -215.275665L137.754627 -215.554446L138.312190 -216.669573
L139.009144 -218.063481L139.148535 -218.342263L139.706098 -219.457389
L140.403052 -220.851297L140.542443 -221.130079L141.100006 -222.245205
L141.796961 -223.639113L141.936351 -223.917895L142.493915 -225.033021
L143.190869 -226.426930L143.330259 -226.705711L143.887823 -227.820838
L144.584777 -229.214746L144.724168 -229.493527L145.281731 -230.608654"/>
</defs>
<g clip-path="url(#pb46c386742fd882829d94ef40c6f583c)"><use style="fill: none; stroke: #ff0000; stroke-width: 1.000000; stroke-linejoin: round; stroke-linecap: butt;  opacity: 1.000000" xlink:href="#coll1_0_c0418b0e8cc86effbe8a924e4b8a7e43" x="0.000000" y="243.154808"/>
</g></g>
<g id="LineCollection3">
<defs>
<path id="coll2_0_b0033ec1e280405c965db95e572bfb0a" d="M228.358654 -22.916346L226.964746 -24.310254L226.964746 -24.310254
L225.570838 -25.704162L225.570838 -25.704162L224.176930 -27.098070
L224.176930 -27.098070L222.783021 -28.491979L222.783021 -28.491979
L221.389113 -29.885887L221.389113 -29.885887L219.995205 -31.279795
L219.995205 -31.279795L218.601297 -32.673703L218.601297 -32.673703
L217.207389 -34.067611L217.207389 -34.067611L215.813481 -35.461519
L215.813481 -35.461519L214.419573 -36.855427L214.419573 -36.855427
L213.025665 -38.249335L213.025665 -38.249335L211.631757 -39.643243
L211.631757 -39.643243L210.237848 -41.037152L210.237848 -41.037152
L208.843940 -42.431060L208.843940 -42.431060L207.450032 -43.824968
L207.450032 -43.824968L206.056124 -45.218876L206.056124 -45.218876
L204.662216 -46.612784L204.662216 -46.612784L203.268308 -48.006692
L203.268308 -48.006692L201.874400 -49.400600L201.874400 -49.400600
L200.480492 -50.794508L200.480492 -50.794508L199.086584 -52.188416
L199.086584 -52.188416L197.692676 -53.582324L197.692676 -53.582324
L196.298767 -54.976233L196.298767 -54.976233L194.904859 -56.370141
L194.904859 -56.370141L193.510951 -57.764049L193.510951 -57.764049
L192.117043 -59.157957L192.117043 -59.157957L190.723135 -60.551865
L190.723135 -60.551865L189.329227 -61.945773L189.329227 -61.945773
L187.935319 -63.339681L187.935319 -63.339681L186.541411 -64.733589
L186.541411 -64.733589L185.147503 -66.127497L185.147503 -66.127497
L183.753594 -67.521406L183.753594 -67.521406L182.359686 -68.915314
L182.359686 -68.915314L180.965778 -70.309222L180.965778 -70.309222
L179.571870 -71.703130L179.571870 -71.703130L178.177962 -73.097038
L178.177962 -73.097038L176.784054 -74.490946L176.784054 -74.490946
L175.390146 -75.884854L175.390146 -75.884854L173.996238 -77.278762
L173.996238 -77.278762L172.602330 -78.672670L172.602330 -78.672670
L171.208422 -80.066578L171.208422 -80.066578L169.814513 -81.460487
L169.814513 -81.460487L168.420605 -82.854395L168.420605 -82.854395
L167.026697 -84.248303L167.026697 -84.248303L165.632789 -85.642211
L165.632789 -85.642211L164.238881 -87.036119L164.238881 -87.036119
L162.844973 -88.430027L162.844973 -88.430027L161.451065 -89.823935
L161.451065 -89.823935L160.057157 -91.217843L160.057157 -91.217843
L158.663249 -92.611751L158.663249 -92.611751L157.269340 -94.005660
L157.269340 -94.005660L155.875432 -95.399568L155.875432 -95.399568
L154.481524 -96.793476L154.481524 -96.793476L153.087616 -98.187384
L153.087616 -98.187384L151.693708 -99.581292L151.693708 -99.581292
L150.299800 -100.975200L150.299800 -100.975200L148.905892 -102.369108
L148.905892 -102.369108L147.511984 -103.763016L147.511984 -103.763016
L146.118076 -105.156924L146.118076 -105.156924L144.724168 -106.550832
L144.724168 -106.550832L143.330259 -107.944741L143.330259 -107.944741
L141.936351 -109.338649L141.936351 -109.338649L140.542443 -110.732557
L140.542443 -110.732557L139.148535 -112.126465L139.148535 -112.126465
L137.754627 -113.520373L137.754627 -113.520373L136.360719 -114.914281
L136.360719 -114.914281L134.966811 -116.308189L134.966811 -116.308189
L133.572903 -117.702097L133.572903 -117.702097L132.178995 -119.096005
L132.178995 -119.096005L130.785086 -120.489914L130.785086 -120.489914
L129.391178 -121.883822L129.391178 -121.883822L127.997270 -123.277730
L127.997270 -123.277730L126.603362 -124.671638L126.603362 -124.671638
L125.209454 -126.065546L125.209454 -126.065546L123.815546 -127.459454
L123.815546 -127.459454L122.421638 -128.853362L122.421638 -128.853362
L121.027730 -130.247270L121.027730 -130.247270L119.633822 -131.641178
L119.633822 -131.641178L118.239914 -133.035086L118.239914 -133.035086
L116.846005 -134.428995L116.846005 -134.428995L115.452097 -135.822903
L115.452097 -135.822903L114.058189 -137.216811L114.058189 -137.216811
L112.664281 -138.610719L112.664281 -138.610719L111.270373 -140.004627
L111.270373 -140.004627L109.876465 -141.398535L109.876465 -141.398535
L108.482557 -142.792443L108.482557 -142.792443L107.088649 -144.186351
L107.088649 -144.186351L105.694741 -145.580259L105.694741 -145.580259
L104.300832 -146.974168L104.300832 -146.974168L102.906924 -148.368076
L102.906924 -148.368076L101.513016 -149.761984L101.513016 -149.761984
L100.119108 -151.155892L100.119108 -151.155892L98.725200 -152.549800
L98.725200 -152.549800L97.331292 -153.943708L97.331292 -153.943708
L95.937384 -155.337616L95.937384 -155.337616L94.543476 -156.731524
L94.543476 -156.731524L93.149568 -158.125432L93.149568 -158.125432
L91.755660 -159.519340L91.755660 -159.519340L90.361751 -160.913249
L90.361751 -160.913249L88.967843 -162.307157L88.967843 -162.307157
L87.573935 -163.701065L87.573935 -163.701065L86.180027 -165.094973
L86.180027 -165.094973L84.786119 -166.488881L84.786119 -166.488881
L83.392211 -167.882789L83.392211 -167.882789L81.998303 -169.276697
L81.998303 -169.276697L80.604395 -170.670605L80.604395 -170.670605
L79.210487 -172.064513L79.210487 -172.064513L77.816578 -173.458422
L77.816578 -173.458422L76.422670 -174.852330L76.422670 -174.852330
L75.028762 -176.246238L75.028762 -176.246238L73.634854 -177.640146
L73.634854 -177.640146L72.240946 -179.034054L72.240946 -179.034054
L70.847038 -180.427962L70.847038 -180.427962L69.453130 -181.821870
L69.453130 -181.821870L68.059222 -183.215778L68.059222 -183.215778
L66.665314 -184.609686L66.665314 -184.609686L65.271406 -186.003594
L65.271406 -186.003594L63.877497 -187.397503L63.877497 -187.397503
L62.483589 -188.791411L62.483589 -188.791411L61.089681 -190.185319
L61.089681 -190.185319L59.695773 -191.579227L59.695773 -191.579227
L58.301865 -192.973135L58.301865 -192.973135L56.907957 -194.367043
L56.907957 -194.367043L55.514049 -195.760951L55.514049 -195.760951
L54.120141 -197.154859L54.120141 -197.154859L52.726233 -198.548767
L52.726233 -198.548767L51.332324 -199.942676L51.332324 -199.942676
L49.938416 -201.336584L49.938416 -201.336584L48.544508 -202.730492
L48.544508 -202.730492L47.150600 -204.124400L47.150600 -204.124400
L45.756692 -205.518308L45.756692 -205.518308L44.362784 -206.912216
L44.362784 -206.912216L42.968876 -208.306124L42.968876 -208.306124
L41.574968 -209.700032L41.574968 -209.700032L40.181060 -211.093940
L40.181060 -211.093940L38.787152 -212.487848L38.787152 -212.487848
L37.393243 -213.881757L37.393243 -213.881757L35.999335 -215.275665
L35.999335 -215.275665L34.605427 -216.669573L34.605427 -216.669573
L33.211519 -218.063481L33.211519 -218.063481L31.817611 -219.457389
L31.817611 -219.457389L30.423703 -220.851297L30.423703 -220.851297
L29.029795 -222.245205L29.029795 -222.245205L27.635887 -223.639113
L27.635887 -223.639113L26.241979 -225.033021L26.241979 -225.033021
L24.848070 -226.426930L24.848070 -226.426930L23.454162 -227.820838
L23.454162 -227.820838L22.060254 -229.214746L22.060254 -229.214746
L20.666346 -230.608654"/>
</defs>
<g clip-path="url(#pb46c386742fd882829d94ef40c6f583c)"><use style="fill: none; stroke: #008000; stroke-width: 1.000000; stroke-linejoin: round; stroke-linecap: butt;  opacity: 1.000000" xlink:href="#coll2_0_b0033ec1e280405c965db95e572bfb0a" x="0.000000" y="243.154808"/>
</g></g>
<g id="LineCollection4">
<defs>
<path id="coll3_0_b0033ec1e280405c965db95e572bfb0a" d="M228.358654 -22.916346L226.964746 -24.310254L226.964746 -24.310254
L225.570838 -25.704162L225.570838 -25.704162L224.176930 -27.098070
L224.176930 -27.098070L222.783021 -28.491979L222.783021 -28.491979
L221.389113 -29.885887L221.389113 -29.885887L219.995205 -31.279795
L219.995205 -31.279795L218.601297 -32.673703L218.601297 -32.673703
L217.207389 -34.067611L217.207389 -34.067611L215.813481 -35.461519
L215.813481 -35.461519L214.419573 -36.855427L214.419573 -36.855427
L213.025665 -38.249335L213.025665 -38.249335L211.631757 -39.643243
L211.631757 -39.643243L210.237848 -41.037152L210.237848 -41.037152
L208.843940 -42.431060L208.843940 -42.431060L207.450032 -43.824968
L207.450032 -43.824968L206.056124 -45.218876L206.056124 -45.218876
L204.662216 -46.612784L204.662216 -46.612784L203.268308 -48.006692
L203.268308 -48.006692L201.874400 -49.400600L201.874400 -49.400600
L200.480492 -50.794508L200.480492 -50.794508L199.086584 -52.188416
L199.086584 -52.188416L197.692676 -53.582324L197.692676 -53.582324
L196.298767 -54.976233L196.298767 -54.976233L194.904859 -56.370141
L194.904859 -56.370141L193.510951 -57.764049L193.510951 -57.764049
L192.117043 -59.157957L192.117043 -59.157957L190.723135 -60.551865
L190.723135 -60.551865L189.329227 -61.945773L189.329227 -61.945773
L187.935319 -63.339681L187.935319 -63.339681L186.541411 -64.733589
L186.541411 -64.733589L185.147503 -66.127497L185.147503 -66.127497
L183.753594 -67.521406L183.753594 -67.521406L182.359686 -68.915314
L182.359686 -68.915314L180.965778 -70.309222L180.965778 -70.309222
L179.571870 -71.703130L179.571870 -71.703130L178.177962 -73.097038
L178.177962 -73.097038L176.784054 -74.490946L176.784054 -74.490946
L175.390146 -75.884854L175.390146 -75.884854L173.996238 -77.278762
L173.996238 -77.278762L172.602330 -78.672670L172.602330 -78.672670
L171.208422 -80.066578L171.208422 -80.066578L169.814513 -81.460487
L169.814513 -81.460487L168.420605 -82.854395L168.420605 -82.854395
L167.026697 -84.248303L167.026697 -84.248303L165.632789 -85.642211
L165.632789 -85.642211L164.238881 -87.036119L164.238881 -87.036119
L162.844973 -88.430027L162.844973 -88.430027L161.451065 -89.823935
L161.451065 -89.823935L160.057157 -91.217843L160.057157 -91.217843
L158.663249 -92.611751L158.663249 -92.611751L157.269340 -94.005660
L157.269340 -94.005660L155.875432 -95.399568L155.875432 -95.399568
L154.481524 -96.793476L154.481524 -96.793476L153.087616 -98.187384
L153.087616 -98.187384L151.693708 -99.581292L151.693708 -99.581292
L150.299800 -100.975200L150.299800 -100.975200L148.905892 -102.369108
L148.905892 -102.369108L147.511984 -103.763016L147.511984 -103.763016
L146.118076 -105.156924L146.118076 -105.156924L144.724168 -106.550832
L144.724168 -106.550832L143.330259 -107.944741L143.330259 -107.944741
L141.936351 -109.338649L141.936351 -109.338649L140.542443 -110.732557
L140.542443 -110.732557L139.148535 -112.126465L139.148535 -112.126465
L137.754627 -113.520373L137.754627 -113.520373L136.360719 -114.914281
L136.360719 -114.914281L134.966811 -116.308189L134.966811 -116.308189
L133.572903 -117.702097L133.572903 -117.702097L132.178995 -119.096005
L132.178995 -119.096005L130.785086 -120.489914L130.785086 -120.489914
L129.391178 -121.883822L129.391178 -121.883822L127.997270 -123.277730
L127.997270 -123.277730L126.603362 -124.671638L126.603362 -124.671638
L125.209454 -126.065546L125.209454 -126.065546L123.815546 -127.459454
L123.815546 -127.459454L122.421638 -128.853362L122.421638 -128.853362
L121.027730 -130.247270L121.027730 -130.247270L119.633822 -131.641178
L119.633822 -131.641178L118.239914 -133.035086L118.239914 -133.035086
L116.846005 -134.428995L116.846005 -134.428995L115.452097 -135.822903
L115.452097 -135.822903L114.058189 -137.216811L114.058189 -137.216811
L112.664281 -138.610719L112.664281 -138.610719L111.270373 -140.004627
L111.270373 -140.004627L109.876465 -141.398535L109.876465 -141.398535
L108.482557 -142.792443L108.482557 -142.792443L107.088649 -144.186351
L107.088649 -144.186351L105.694741 -145.580259L105.694741 -145.580259
L104.300832 -146.974168L104.300832 -146.974168L102.906924 -148.368076
L102.906924 -148.368076L101.513016 -149.761984L101.513016 -149.761984
L100.119108 -151.155892L100.119108 -151.155892L98.725200 -152.549800
L98.725200 -152.549800L97.331292 -153.943708L97.331292 -153.943708
L95.937384 -155.337616L95.937384 -155.337616L94.543476 -156.731524
L94.543476 -156.731524L93.149568 -158.125432L93.149568 -158.125432
L91.755660 -159.519340L91.755660 -159.519340L90.361751 -160.913249
L90.361751 -160.913249L88.967843 -162.307157L88.967843 -162.307157
L87.573935 -163.701065L87.573935 -163.701065L86.180027 -165.094973
L86.180027 -165.094973L84.786119 -166.488881L84.786119 -166.488881
L83.392211 -167.882789L83.392211 -167.882789L81.998303 -169.276697
L81.998303 -169.276697L80.604395 -170.670605L80.604395 -170.670605
L79.210487 -172.064513L79.210487 -172.064513L77.816578 -173.458422
L77.816578 -173.458422L76.422670 -174.852330L76.422670 -174.852330
L75.028762 -176.246238L75.028762 -176.246238L73.634854 -177.640146
L73.634854 -177.640146L72.240946 -179.034054L72.240946 -179.034054
L70.847038 -180.427962L70.847038 -180.427962L69.453130 -181.821870
L69.453130 -181.821870L68.059222 -183.215778L68.059222 -183.215778
L66.665314 -184.609686L66.665314 -184.609686L65.271406 -186.003594
L65.271406 -186.003594L63.877497 -187.397503L63.877497 -187.397503
L62.483589 -188.791411L62.483589 -188.791411L61.089681 -190.185319
L61.089681 -190.185319L59.695773 -191.579227L59.695773 -191.579227
L58.301865 -192.973135L58.301865 -192.973135L56.907957 -194.367043
L56.907957 -194.367043L55.514049 -195.760951L55.514049 -195.760951
L54.120141 -197.154859L54.120141 -197.154859L52.726233 -198.548767
L52.726233 -198.548767L51.332324 -199.942676L51.332324 -199.942676
L49.938416 -201.336584L49.938416 -201.336584L48.544508 -202.730492
L48.544508 -202.730492L47.150600 -204.124400L47.150600 -204.124400
L45.756692 -205.518308L45.756692 -205.518308L44.362784 -206.912216
L44.362784 -206.912216L42.968876 -208.306124L42.968876 -208.306124
L41.574968 -209.700032L41.574968 -209.700032L40.181060 -211.093940
L40.181060 -211.093940L38.787152 -212.487848L38.787152 -212.487848
L37.393243 -213.881757L37.393243 -213.881757L35.999335 -215.275665
L35.999335 -215.275665L34.605427 -216.669573L34.605427 -216.669573
L33.211519 -218.063481L33.211519 -218.063481L31.817611 -219.457389
L31.817611 -219.457389L30.423703 -220.851297L30.423703 -220.851297
L29.029795 -222.245205L29.029795 -222.245205L27.635887 -223.639113
L27.635887 -223.639113L26.241979 -225.033021L26.241979 -225.033021
L24.848070 -226.426930L24.848070 -226.426930L23.454162 -227.820838
L23.454162 -227.820838L22.060254 -229.214746L22.060254 -229.214746
L20.666346 -230.608654"/>
</defs>
<g clip-path="url(#pb46c386742fd882829d94ef40c6f583c)"><use style="fill: none; stroke: #008000; stroke-width: 1.000000; stroke-linejoin: round; stroke-linecap: butt;  opacity: 1.000000" xlink:href="#coll3_0_b0033ec1e280405c965db95e572bfb0a" x="0.000000" y="243.154808"/>
</g></g>
<g id="matplotlib.axis1">
<g id="xtick1">
<g id="line2d1">
<defs><path id="m30e32995789d870ad79a2e54c91cf9c6" d="M0.000000 0.000000L0.000000 -4.000000"/></defs>
<g ><use style="fill: none; stroke: #000000; stroke-width: 0.500000; stroke-linejoin: round; stroke-linecap: butt;  opacity: 1.000000" xlink:href="#m30e32995789d870ad79a2e54c91cf9c6" x="20.666346" y="224.392308"/>
</g></g>
<g id="line2d2">
<defs><path id="m9281cae24120827b11d5ea8a7ad3e96b" d="M0.000000 0.000000L0.000000 4.000000"/></defs>
<g ><use style="fill: none; stroke: #000000; stroke-width: 0.500000; stroke-linejoin: round; stroke-linecap: butt;  opacity: 1.000000" xlink:href="#m9281cae24120827b11d5ea8a7ad3e96b" x="20.666346" y="8.392308"/>
</g></g>
<g id="text1">
<defs>
<path id="c_7a2040fe3b94fcd41d0a72c84e93b115" d="M31.781250 -66.406250q-7.609375 0.000000 -11.453125 7.500000q-3.828125 7.484375 -3.828125 22.531250q0.000000 14.984375 3.828125 22.484375q3.843750 7.500000 11.453125 7.500000q7.671875 0.000000 11.500000 -7.500000q3.843750 -7.500000 3.843750 -22.484375q0.000000 -15.046875 -3.843750 -22.531250q-3.828125 -7.500000 -11.500000 -7.500000M31.781250 -74.218750q12.265625 0.000000 18.734375 9.703125q6.468750 9.687500 6.468750 28.140625q0.000000 18.406250 -6.468750 28.109375q-6.468750 9.687500 -18.734375 9.687500q-12.250000 0.000000 -18.718750 -9.687500q-6.468750 -9.703125 -6.468750 -28.109375q0.000000 -18.453125 6.468750 -28.140625q6.468750 -9.703125 18.718750 -9.703125"/>
</defs>
<g style="fill: #000000; opacity: 1.000000" transform="translate(18.142909,235.814183)scale(0.100000)">
<use xlink:href="#c_7a2040fe3b94fcd41d0a72c84e93b115"/>
</g>
</g>
</g>
<g id="xtick2">
<g id="line2d3">
<g ><use style="fill: none; stroke: #000000; stroke-width: 0.500000; stroke-linejoin: round; stroke-linecap: butt;  opacity: 1.000000" xlink:href="#m30e32995789d870ad79a2e54c91cf9c6" x="62.204808" y="224.392308"/>
</g></g>
<g id="line2d4">
<g ><use style="fill: none; stroke: #000000; stroke-width: 0.500000; stroke-linejoin: round; stroke-linecap: butt;  opacity: 1.000000" xlink:href="#m9281cae24120827b11d5ea8a7ad3e96b" x="62.204808" y="8.392308"/>
</g></g>
<g id="text2">
<defs>
<path id="c_42baa63129a918535c52adb20d687ea7" d="M12.406250 -8.296875l16.109375 0.000000l0.000000 -55.625000l-17.531250 3.515625l0.000000 -8.984375l17.437500 -3.515625l9.859375 0.000000l0.000000 64.609375l16.109375 0.000000l0.000000 8.296875l-41.984375 0.000000z"/>
</defs>
<g style="fill: #000000; opacity: 1.000000" transform="translate(60.032933,235.689183)scale(0.100000)">
<use xlink:href="#c_42baa63129a918535c52adb20d687ea7"/>
</g>
</g>
</g>
<g id="xtick3">
<g id="line2d5">
<g ><use style="fill: none; stroke: #000000; stroke-width: 0.500000; stroke-linejoin: round; stroke-linecap: butt;  opacity: 1.000000" xlink:href="#m30e32995789d870ad79a2e54c91cf9c6" x="103.743269" y="224.392308"/>
</g></g>
<g id="line2d6">
<g ><use style="fill: none; stroke: #000000; stroke-width: 0.500000; stroke-linejoin: round; stroke-linecap: butt;  opacity: 1.000000" xlink:href="#m9281cae24120827b11d5ea8a7ad3e96b" x="103.743269" y="8.392308"/>
</g></g>
<g id="text3">
<defs>
<path id="c_ed3f3ed3ebfbd18bcb9c012009a68ad1" d="M19.187500 -8.296875l34.421875 0.000000l0.000000 8.296875l-46.281250 0.000000l0.000000 -8.296875q5.609375 -5.812500 15.296875 -15.593750q9.703125 -9.796875 12.187500 -12.640625q4.734375 -5.312500 6.609375 -9.000000q1.890625 -3.687500 1.890625 -7.250000q0.000000 -5.812500 -4.078125 -9.468750q-4.078125 -3.671875 -10.625000 -3.671875q-4.640625 0.000000 -9.796875 1.609375q-5.140625 1.609375 -11.000000 4.890625l0.000000 -9.968750q5.953125 -2.390625 11.125000 -3.609375q5.187500 -1.218750 9.484375 -1.218750q11.328125 0.000000 18.062500 5.671875q6.734375 5.656250 6.734375 15.125000q0.000000 4.500000 -1.687500 8.531250q-1.671875 4.015625 -6.125000 9.484375q-1.218750 1.421875 -7.765625 8.187500q-6.531250 6.765625 -18.453125 18.921875"/>
</defs>
<g style="fill: #000000; opacity: 1.000000" transform="translate(101.430769,235.814183)scale(0.100000)">
<use xlink:href="#c_ed3f3ed3ebfbd18bcb9c012009a68ad1"/>
</g>
</g>
</g>
<g id="xtick4">
<g id="line2d7">
<g ><use style="fill: none; stroke: #000000; stroke-width: 0.500000; stroke-linejoin: round; stroke-linecap: butt;  opacity: 1.000000" xlink:href="#m30e32995789d870ad79a2e54c91cf9c6" x="145.281731" y="224.392308"/>
</g></g>
<g id="line2d8">
<g ><use style="fill: none; stroke: #000000; stroke-width: 0.500000; stroke-linejoin: round; stroke-linecap: butt;  opacity: 1.000000" xlink:href="#m9281cae24120827b11d5ea8a7ad3e96b" x="145.281731" y="8.392308"/>
</g></g>
<g id="text4">
<defs>
<path id="c_3dcfa38a02242cb63ec6726c6e70be7a" d="M40.578125 -39.312500q7.078125 1.515625 11.046875 6.312500q3.984375 4.781250 3.984375 11.812500q0.000000 10.781250 -7.421875 16.703125q-7.421875 5.906250 -21.093750 5.906250q-4.578125 0.000000 -9.437500 -0.906250q-4.859375 -0.906250 -10.031250 -2.718750l0.000000 -9.515625q4.093750 2.390625 8.968750 3.609375q4.890625 1.218750 10.218750 1.218750q9.265625 0.000000 14.125000 -3.656250q4.859375 -3.656250 4.859375 -10.640625q0.000000 -6.453125 -4.515625 -10.078125q-4.515625 -3.640625 -12.562500 -3.640625l-8.500000 0.000000l0.000000 -8.109375l8.890625 0.000000q7.265625 0.000000 11.125000 -2.906250q3.859375 -2.906250 3.859375 -8.375000q0.000000 -5.609375 -3.984375 -8.609375q-3.968750 -3.015625 -11.390625 -3.015625q-4.062500 0.000000 -8.703125 0.890625q-4.640625 0.875000 -10.203125 2.718750l0.000000 -8.781250q5.625000 -1.562500 10.531250 -2.343750q4.906250 -0.781250 9.250000 -0.781250q11.234375 0.000000 17.765625 5.109375q6.546875 5.093750 6.546875 13.781250q0.000000 6.062500 -3.468750 10.234375q-3.468750 4.171875 -9.859375 5.781250"/>
</defs>
<g style="fill: #000000; opacity: 1.000000" transform="translate(142.883293,235.814183)scale(0.100000)">
<use xlink:href="#c_3dcfa38a02242cb63ec6726c6e70be7a"/>
</g>
</g>
</g>
<g id="xtick5">
<g id="line2d9">
<g ><use style="fill: none; stroke: #000000; stroke-width: 0.500000; stroke-linejoin: round; stroke-linecap: butt;  opacity: 1.000000" xlink:href="#m30e32995789d870ad79a2e54c91cf9c6" x="186.820192" y="224.392308"/>
</g></g>
<g id="line2d10">
<g ><use style="fill: none; stroke: #000000; stroke-width: 0.500000; stroke-linejoin: round; stroke-linecap: butt;  opacity: 1.000000" xlink:href="#m9281cae24120827b11d5ea8a7ad3e96b" x="186.820192" y="8.392308"/>
</g></g>
<g id="text5">
<defs>
<path id="c_a0416418d96557a09b8c1332d34883ba" d="M37.796875 -64.312500l-24.906250 38.921875l24.906250 0.000000zM35.203125 -72.906250l12.406250 0.000000l0.000000 47.515625l10.406250 0.000000l0.000000 8.203125l-10.406250 0.000000l0.000000 17.187500l-9.812500 0.000000l0.000000 -17.187500l-32.906250 0.000000l0.000000 -9.515625z"/>
</defs>
<g style="fill: #000000; opacity: 1.000000" transform="translate(184.163942,235.689183)scale(0.100000)">
<use xlink:href="#c_a0416418d96557a09b8c1332d34883ba"/>
</g>
</g>
</g>
<g id="xtick6">
<g id="line2d11">
<g ><use style="fill: none; stroke: #000000; stroke-width: 0.500000; stroke-linejoin: round; stroke-linecap: butt;  opacity: 1.000000" xlink:href="#m30e32995789d870ad79a2e54c91cf9c6" x="228.358654" y="224.392308"/>
</g></g>
<g id="line2d12">
<g ><use style="fill: none; stroke: #000000; stroke-width: 0.500000; stroke-linejoin: round; stroke-linecap: butt;  opacity: 1.000000" xlink:href="#m9281cae24120827b11d5ea8a7ad3e96b" x="228.358654" y="8.392308"/>
</g></g>
<g id="text6">
<defs>
<path id="c_1260a2df50f305f3db244e29828f968e" d="M10.796875 -72.906250l38.718750 0.000000l0.000000 8.312500l-29.687500 0.000000l0.000000 17.859375q2.140625 -0.734375 4.281250 -1.093750q2.156250 -0.359375 4.312500 -0.359375q12.203125 0.000000 19.328125 6.687500q7.140625 6.687500 7.140625 18.109375q0.000000 11.765625 -7.328125 18.296875q-7.328125 6.515625 -20.656250 6.515625q-4.593750 0.000000 -9.359375 -0.781250q-4.750000 -0.781250 -9.828125 -2.343750l0.000000 -9.921875q4.390625 2.390625 9.078125 3.562500q4.687500 1.171875 9.906250 1.171875q8.453125 0.000000 13.375000 -4.437500q4.937500 -4.437500 4.937500 -12.062500q0.000000 -7.609375 -4.937500 -12.046875q-4.921875 -4.453125 -13.375000 -4.453125q-3.953125 0.000000 -7.890625 0.875000q-3.921875 0.875000 -8.015625 2.734375z"/>
</defs>
<g style="fill: #000000; opacity: 1.000000" transform="translate(225.999279,235.689183)scale(0.100000)">
<use xlink:href="#c_1260a2df50f305f3db244e29828f968e"/>
</g>
</g>
</g>
<g id="xtick7">
<g id="line2d13">
<defs><path id="m3b2d125790092c17af877e29e2858cbc" d="M0.000000 0.000000L0.000000 -2.000000"/></defs>
<g ><use style="fill: none; stroke: #000000; stroke-width: 0.500000; stroke-linejoin: round; stroke-linecap: butt;  opacity: 1.000000" xlink:href="#m3b2d125790092c17af877e29e2858cbc" x="31.050962" y="224.392308"/>
</g></g>
<g id="line2d14">
<defs><path id="ma703e823af2458ee1159643fa9e31d3d" d="M0.000000 0.000000L0.000000 2.000000"/></defs>
<g ><use style="fill: none; stroke: #000000; stroke-width: 0.500000; stroke-linejoin: round; stroke-linecap: butt;  opacity: 1.000000" xlink:href="#ma703e823af2458ee1159643fa9e31d3d" x="31.050962" y="8.392308"/>
</g></g>
</g>
<g id="xtick8">
<g id="line2d15">
<g ><use style="fill: none; stroke: #000000; stroke-width: 0.500000; stroke-linejoin: round; stroke-linecap: butt;  opacity: 1.000000" xlink:href="#m3b2d125790092c17af877e29e2858cbc" x="41.435577" y="224.392308"/>
</g></g>
<g id="line2d16">
<g ><use style="fill: none; stroke: #000000; stroke-width: 0.500000; stroke-linejoin: round; stroke-linecap: butt;  opacity: 1.000000" xlink:href="#ma703e823af2458ee1159643fa9e31d3d" x="41.435577" y="8.392308"/>
</g></g>
</g>
<g id="xtick9">
<g id="line2d17">
<g ><use style="fill: none; stroke: #000000; stroke-width: 0.500000; stroke-linejoin: round; stroke-linecap: butt;  opacity: 1.000000" xlink:href="#m3b2d125790092c17af877e29e2858cbc" x="51.820192" y="224.392308"/>
</g></g>
<g id="line2d18">
<g ><use style="fill: none; stroke: #000000; stroke-width: 0.500000; stroke-linejoin: round; stroke-linecap: butt;  opacity: 1.000000" xlink:href="#ma703e823af2458ee1159643fa9e31d3d" x="51.820192" y="8.392308"/>
</g></g>
</g>
<g id="xtick10">
<g id="line2d19">
<g ><use style="fill: none; stroke: #000000; stroke-width: 0.500000; stroke-linejoin: round; stroke-linecap: butt;  opacity: 1.000000" xlink:href="#m3b2d125790092c17af877e29e2858cbc" x="72.589423" y="224.392308"/>
</g></g>
<g id="line2d20">
<g ><use style="fill: none; stroke: #000000; stroke-width: 0.500000; stroke-linejoin: round; stroke-linecap: butt;  opacity: 1.000000" xlink:href="#ma703e823af2458ee1159643fa9e31d3d" x="72.589423" y="8.392308"/>
</g></g>
</g>
<g id="xtick11">
<g id="line2d21">
<g ><use style="fill: none; stroke: #000000; stroke-width: 0.500000; stroke-linejoin: round; stroke-linecap: butt;  opacity: 1.000000" xlink:href="#m3b2d125790092c17af877e29e2858cbc" x="82.974038" y="224.392308"/>
</g></g>
<g id="line2d22">
<g ><use style="fill: none; stroke: #000000; stroke-width: 0.500000; stroke-linejoin: round; stroke-linecap: butt;  opacity: 1.000000" xlink:href="#ma703e823af2458ee1159643fa9e31d3d" x="82.974038" y="8.392308"/>
</g></g>
</g>
<g id="xtick12">
<g id="line2d23">
<g ><use style="fill: none; stroke: #000000; stroke-width: 0.500000; stroke-linejoin: round; stroke-linecap: butt;  opacity: 1.000000" xlink:href="#m3b2d125790092c17af877e29e2858cbc" x="93.358654" y="224.392308"/>
</g></g>
<g id="line2d24">
<g ><use style="fill: none; stroke: #000000; stroke-width: 0.500000; stroke-linejoin: round; stroke-linecap: butt;  opacity: 1.000000" xlink:href="#ma703e823af2458ee1159643fa9e31d3d" x="93.358654" y="8.392308"/>
</g></g>
</g>
<g id="xtick13">
<g id="line2d25">
<g ><use style="fill: none; stroke: #000000; stroke-width: 0.500000; stroke-linejoin: round; stroke-linecap: butt;  opacity: 1.000000" xlink:href="#m3b2d125790092c17af877e29e2858cbc" x="114.127885" y="224.392308"/>
</g></g>
<g id="line2d26">
<g ><use style="fill: none; stroke: #000000; stroke-width: 0.500000; stroke-linejoin: round; stroke-linecap: butt;  opacity: 1.000000" xlink:href="#ma703e823af2458ee1159643fa9e31d3d" x="114.127885" y="8.392308"/>
</g></g>
</g>
<g id="xtick14">
<g id="line2d27">
<g ><use style="fill: none; stroke: #000000; stroke-width: 0.500000; stroke-linejoin: round; stroke-linecap: butt;  opacity: 1.000000" xlink:href="#m3b2d125790092c17af877e29e2858cbc" x="124.512500" y="224.392308"/>
</g></g>
<g id="line2d28">
<g ><use style="fill: none; stroke: #000000; stroke-width: 0.500000; stroke-linejoin: round; stroke-linecap: butt;  opacity: 1.000000" xlink:href="#ma703e823af2458ee1159643fa9e31d3d" x="124.512500" y="8.392308"/>
</g></g>
</g>
<g id="xtick15">
<g id="line2d29">
<g ><use style="fill: none; stroke: #000000; stroke-width: 0.500000; stroke-linejoin: round; stroke-linecap: butt;  opacity: 1.000000" xlink:href="#m3b2d125790092c17af877e29e2858cbc" x="134.897115" y="224.392308"/>
</g></g>
<g id="line2d30">
<g ><use style="fill: none; stroke: #000000; stroke-width: 0.500000; stroke-linejoin: round; stroke-linecap: butt;  opacity: 1.000000" xlink:href="#ma703e823af2458ee1159643fa9e31d3d" x="134.897115" y="8.392308"/>
</g></g>
</g>
<g id="xtick16">
<g id="line2d31">
<g ><use style="fill: none; stroke: #000000; stroke-width: 0.500000; stroke-linejoin: round; stroke-linecap: butt;  opacity: 1.000000" xlink:href="#m3b2d125790092c17af877e29e2858cbc" x="155.666346" y="224.392308"/>
</g></g>
<g id="line2d32">
<g ><use style="fill: none; stroke: #000000; stroke-width: 0.500000; stroke-linejoin: round; stroke-linecap: butt;  opacity: 1.000000" xlink:href="#ma703e823af2458ee1159643fa9e31d3d" x="155.666346" y="8.392308"/>
</g></g>
</g>
<g id="xtick17">
<g id="line2d33">
<g ><use style="fill: none; stroke: #000000; stroke-width: 0.500000; stroke-linejoin: round; stroke-linecap: butt;  opacity: 1.000000" xlink:href="#m3b2d125790092c17af877e29e2858cbc" x="166.050962" y="224.392308"/>
</g></g>
<g id="line2d34">
<g ><use style="fill: none; stroke: #000000; stroke-width: 0.500000; stroke-linejoin: round; stroke-linecap: butt;  opacity: 1.000000" xlink:href="#ma703e823af2458ee1159643fa9e31d3d" x="166.050962" y="8.392308"/>
</g></g>
</g>
<g id="xtick18">
<g id="line2d35">
<g ><use style="fill: none; stroke: #000000; stroke-width: 0.500000; stroke-linejoin: round; stroke-linecap: butt;  opacity: 1.000000" xlink:href="#m3b2d125790092c17af877e29e2858cbc" x="176.435577" y="224.392308"/>
</g></g>
<g id="line2d36">
<g ><use style="fill: none; stroke: #000000; stroke-width: 0.500000; stroke-linejoin: round; stroke-linecap: butt;  opacity: 1.000000" xlink:href="#ma703e823af2458ee1159643fa9e31d3d" x="176.435577" y="8.392308"/>
</g></g>
</g>
<g id="xtick19">
<g id="line2d37">
<g ><use style="fill: none; stroke: #000000; stroke-width: 0.500000; stroke-linejoin: round; stroke-linecap: butt;  opacity: 1.000000" xlink:href="#m3b2d125790092c17af877e29e2858cbc" x="197.204808" y="224.392308"/>
</g></g>
<g id="line2d38">
<g ><use style="fill: none; stroke: #000000; stroke-width: 0.500000; stroke-linejoin: round; stroke-linecap: butt;  opacity: 1.000000" xlink:href="#ma703e823af2458ee1159643fa9e31d3d" x="197.204808" y="8.392308"/>
</g></g>
</g>
<g id="xtick20">
<g id="line2d39">
<g ><use style="fill: none; stroke: #000000; stroke-width: 0.500000; stroke-linejoin: round; stroke-linecap: butt;  opacity: 1.000000" xlink:href="#m3b2d125790092c17af877e29e2858cbc" x="207.589423" y="224.392308"/>
</g></g>
<g id="line2d40">
<g ><use style="fill: none; stroke: #000000; stroke-width: 0.500000; stroke-linejoin: round; stroke-linecap: butt;  opacity: 1.000000" xlink:href="#ma703e823af2458ee1159643fa9e31d3d" x="207.589423" y="8.392308"/>
</g></g>
</g>
<g id="xtick21">
<g id="line2d41">
<g ><use style="fill: none; stroke: #000000; stroke-width: 0.500000; stroke-linejoin: round; stroke-linecap: butt;  opacity: 1.000000" xlink:href="#m3b2d125790092c17af877e29e2858cbc" x="217.974038" y="224.392308"/>
</g></g>
<g id="line2d42">
<g ><use style="fill: none; stroke: #000000; stroke-width: 0.500000; stroke-linejoin: round; stroke-linecap: butt;  opacity: 1.000000" xlink:href="#ma703e823af2458ee1159643fa9e31d3d" x="217.974038" y="8.392308"/>
</g></g>
</g>
</g>
<g id="matplotlib.axis2">
<g id="ytick1">
<g id="line2d43">
<defs><path id="m3400efa6b1638b3fea9e19e898273957" d="M0.000000 0.000000L4.000000 0.000000"/></defs>
<g ><use style="fill: none; stroke: #000000; stroke-width: 0.500000; stroke-linejoin: round; stroke-linecap: butt;  opacity: 1.000000" xlink:href="#m3400efa6b1638b3fea9e19e898273957" x="16.512500" y="220.238462"/>
</g></g>
<g id="line2d44">
<defs><path id="m20b58b2501143cb5e0a5e8f1ef6f1643" d="M0.000000 0.000000L-4.000000 0.000000"/></defs>
<g ><use style="fill: none; stroke: #000000; stroke-width: 0.500000; stroke-linejoin: round; stroke-linecap: butt;  opacity: 1.000000" xlink:href="#m20b58b2501143cb5e0a5e8f1ef6f1643" x="232.512500" y="220.238462"/>
</g></g>
<g id="text7">
<g style="fill: #000000; opacity: 1.000000" transform="translate(7.465625,223.879087)scale(0.100000)">
<use xlink:href="#c_7a2040fe3b94fcd41d0a72c84e93b115"/>
</g>
</g>
</g>
<g id="ytick2">
<g id="line2d45">
<g ><use style="fill: none; stroke: #000000; stroke-width: 0.500000; stroke-linejoin: round; stroke-linecap: butt;  opacity: 1.000000" xlink:href="#m3400efa6b1638b3fea9e19e898273957" x="16.512500" y="178.700000"/>
</g></g>
<g id="line2d46">
<g ><use style="fill: none; stroke: #000000; stroke-width: 0.500000; stroke-linejoin: round; stroke-linecap: butt;  opacity: 1.000000" xlink:href="#m20b58b2501143cb5e0a5e8f1ef6f1643" x="232.512500" y="178.700000"/>
</g></g>
<g id="text8">
<g style="fill: #000000; opacity: 1.000000" transform="translate(8.168750,182.348438)scale(0.100000)">
<use xlink:href="#c_42baa63129a918535c52adb20d687ea7"/>
</g>
</g>
</g>
<g id="ytick3">
<g id="line2d47">
<g ><use style="fill: none; stroke: #000000; stroke-width: 0.500000; stroke-linejoin: round; stroke-linecap: butt;  opacity: 1.000000" xlink:href="#m3400efa6b1638b3fea9e19e898273957" x="16.512500" y="137.161538"/>
</g></g>
<g id="line2d48">
<g ><use style="fill: none; stroke: #000000; stroke-width: 0.500000; stroke-linejoin: round; stroke-linecap: butt;  opacity: 1.000000" xlink:href="#m20b58b2501143cb5e0a5e8f1ef6f1643" x="232.512500" y="137.161538"/>
</g></g>
<g id="text9">
<g style="fill: #000000; opacity: 1.000000" transform="translate(7.887500,140.872476)scale(0.100000)">
<use xlink:href="#c_ed3f3ed3ebfbd18bcb9c012009a68ad1"/>
</g>
</g>
</g>
<g id="ytick4">
<g id="line2d49">
<g ><use style="fill: none; stroke: #000000; stroke-width: 0.500000; stroke-linejoin: round; stroke-linecap: butt;  opacity: 1.000000" xlink:href="#m3400efa6b1638b3fea9e19e898273957" x="16.512500" y="95.623077"/>
</g></g>
<g id="line2d50">
<g ><use style="fill: none; stroke: #000000; stroke-width: 0.500000; stroke-linejoin: round; stroke-linecap: butt;  opacity: 1.000000" xlink:href="#m20b58b2501143cb5e0a5e8f1ef6f1643" x="232.512500" y="95.623077"/>
</g></g>
<g id="text10">
<g style="fill: #000000; opacity: 1.000000" transform="translate(7.715625,99.263702)scale(0.100000)">
<use xlink:href="#c_3dcfa38a02242cb63ec6726c6e70be7a"/>
</g>
</g>
</g>
<g id="ytick5">
<g id="line2d51">
<g ><use style="fill: none; stroke: #000000; stroke-width: 0.500000; stroke-linejoin: round; stroke-linecap: butt;  opacity: 1.000000" xlink:href="#m3400efa6b1638b3fea9e19e898273957" x="16.512500" y="54.084615"/>
</g></g>
<g id="line2d52">
<g ><use style="fill: none; stroke: #000000; stroke-width: 0.500000; stroke-linejoin: round; stroke-linecap: butt;  opacity: 1.000000" xlink:href="#m20b58b2501143cb5e0a5e8f1ef6f1643" x="232.512500" y="54.084615"/>
</g></g>
<g id="text11">
<g style="fill: #000000; opacity: 1.000000" transform="translate(7.200000,57.733053)scale(0.100000)">
<use xlink:href="#c_a0416418d96557a09b8c1332d34883ba"/>
</g>
</g>
</g>
<g id="ytick6">
<g id="line2d53">
<g ><use style="fill: none; stroke: #000000; stroke-width: 0.500000; stroke-linejoin: round; stroke-linecap: butt;  opacity: 1.000000" xlink:href="#m3400efa6b1638b3fea9e19e898273957" x="16.512500" y="12.546154"/>
</g></g>
<g id="line2d54">
<g ><use style="fill: none; stroke: #000000; stroke-width: 0.500000; stroke-linejoin: round; stroke-linecap: butt;  opacity: 1.000000" xlink:href="#m20b58b2501143cb5e0a5e8f1ef6f1643" x="232.512500" y="12.546154"/>
</g></g>
<g id="text12">
<g style="fill: #000000; opacity: 1.000000" transform="translate(7.793750,16.124279)scale(0.100000)">
<use xlink:href="#c_1260a2df50f305f3db244e29828f968e"/>
</g>
</g>
</g>
<g id="ytick7">
<g id="line2d55">
<defs><path id="mb39cfcf7402899e54c4d755745537394" d="M0.000000 0.000000L2.000000 0.000000"/></defs>
<g ><use style="fill: none; stroke: #000000; stroke-width: 0.500000; stroke-linejoin: round; stroke-linecap: butt;  opacity: 1.000000" xlink:href="#mb39cfcf7402899e54c4d755745537394" x="16.512500" y="209.853846"/>
</g></g>
<g id="line2d56">
<defs><path id="m6046ccd8b6d57b9fb587e3fdd930e9c5" d="M0.000000 0.000000L-2.000000 0.000000"/></defs>
<g ><use style="fill: none; stroke: #000000; stroke-width: 0.500000; stroke-linejoin: round; stroke-linecap: butt;  opacity: 1.000000" xlink:href="#m6046ccd8b6d57b9fb587e3fdd930e9c5" x="232.512500" y="209.853846"/>
</g></g>
</g>
<g id="ytick8">
<g id="line2d57">
<g ><use style="fill: none; stroke: #000000; stroke-width: 0.500000; stroke-linejoin: round; stroke-linecap: butt;  opacity: 1.000000" xlink:href="#mb39cfcf7402899e54c4d755745537394" x="16.512500" y="199.469231"/>
</g></g>
<g id="line2d58">
<g ><use style="fill: none; stroke: #000000; stroke-width: 0.500000; stroke-linejoin: round; stroke-linecap: butt;  opacity: 1.000000" xlink:href="#m6046ccd8b6d57b9fb587e3fdd930e9c5" x="232.512500" y="199.469231"/>
</g></g>
</g>
<g id="ytick9">
<g id="line2d59">
<g ><use style="fill: none; stroke: #000000; stroke-width: 0.500000; stroke-linejoin: round; stroke-linecap: butt;  opacity: 1.000000" xlink:href="#mb39cfcf7402899e54c4d755745537394" x="16.512500" y="189.084615"/>
</g></g>
<g id="line2d60">
<g ><use style="fill: none; stroke: #000000; stroke-width: 0.500000; stroke-linejoin: round; stroke-linecap: butt;  opacity: 1.000000" xlink:href="#m6046ccd8b6d57b9fb587e3fdd930e9c5" x="232.512500" y="189.084615"/>
</g></g>
</g>
<g id="ytick10">
<g id="line2d61">
<g ><use style="fill: none; stroke: #000000; stroke-width: 0.500000; stroke-linejoin: round; stroke-linecap: butt;  opacity: 1.000000" xlink:href="#mb39cfcf7402899e54c4d755745537394" x="16.512500" y="168.315385"/>
</g></g>
<g id="line2d62">
<g ><use style="fill: none; stroke: #000000; stroke-width: 0.500000; stroke-linejoin: round; stroke-linecap: butt;  opacity: 1.000000" xlink:href="#m6046ccd8b6d57b9fb587e3fdd930e9c5" x="232.512500" y="168.315385"/>
</g></g>
</g>
<g id="ytick11">
<g id="line2d63">
<g ><use style="fill: none; stroke: #000000; stroke-width: 0.500000; stroke-linejoin: round; stroke-linecap: butt;  opacity: 1.000000" xlink:href="#mb39cfcf7402899e54c4d755745537394" x="16.512500" y="157.930769"/>
</g></g>
<g id="line2d64">
<g ><use style="fill: none; stroke: #000000; stroke-width: 0.500000; stroke-linejoin: round; stroke-linecap: butt;  opacity: 1.000000" xlink:href="#m6046ccd8b6d57b9fb587e3fdd930e9c5" x="232.512500" y="157.930769"/>
</g></g>
</g>
<g id="ytick12">
<g id="line2d65">
<g ><use style="fill: none; stroke: #000000; stroke-width: 0.500000; stroke-linejoin: round; stroke-linecap: butt;  opacity: 1.000000" xlink:href="#mb39cfcf7402899e54c4d755745537394" x="16.512500" y="147.546154"/>
</g></g>
<g id="line2d66">
<g ><use style="fill: none; stroke: #000000; stroke-width: 0.500000; stroke-linejoin: round; stroke-linecap: butt;  opacity: 1.000000" xlink:href="#m6046ccd8b6d57b9fb587e3fdd930e9c5" x="232.512500" y="147.546154"/>
</g></g>
</g>
<g id="ytick13">
<g id="line2d67">
<g ><use style="fill: none; stroke: #000000; stroke-width: 0.500000; stroke-linejoin: round; stroke-linecap: butt;  opacity: 1.000000" xlink:href="#mb39cfcf7402899e54c4d755745537394" x="16.512500" y="126.776923"/>
</g></g>
<g id="line2d68">
<g ><use style="fill: none; stroke: #000000; stroke-width: 0.500000; stroke-linejoin: round; stroke-linecap: butt;  opacity: 1.000000" xlink:href="#m6046ccd8b6d57b9fb587e3fdd930e9c5" x="232.512500" y="126.776923"/>
</g></g>
</g>
<g id="ytick14">
<g id="line2d69">
<g ><use style="fill: none; stroke: #000000; stroke-width: 0.500000; stroke-linejoin: round; stroke-linecap: butt;  opacity: 1.000000" xlink:href="#mb39cfcf7402899e54c4d755745537394" x="16.512500" y="116.392308"/>
</g></g>
<g id="line2d70">
<g ><use style="fill: none; stroke: #000000; stroke-width: 0.500000; stroke-linejoin: round; stroke-linecap: butt;  opacity: 1.000000" xlink:href="#m6046ccd8b6d57b9fb587e3fdd930e9c5" x="232.512500" y="116.392308"/>
</g></g>
</g>
<g id="ytick15">
<g id="line2d71">
<g ><use style="fill: none; stroke: #000000; stroke-width: 0.500000; stroke-linejoin: round; stroke-linecap: butt;  opacity: 1.000000" xlink:href="#mb39cfcf7402899e54c4d755745537394" x="16.512500" y="106.007692"/>
</g></g>
<g id="line2d72">
<g ><use style="fill: none; stroke: #000000; stroke-width: 0.500000; stroke-linejoin: round; stroke-linecap: butt;  opacity: 1.000000" xlink:href="#m6046ccd8b6d57b9fb587e3fdd930e9c5" x="232.512500" y="106.007692"/>
</g></g>
</g>
<g id="ytick16">
<g id="line2d73">
<g ><use style="fill: none; stroke: #000000; stroke-width: 0.500000; stroke-linejoin: round; stroke-linecap: butt;  opacity: 1.000000" xlink:href="#mb39cfcf7402899e54c4d755745537394" x="16.512500" y="85.238462"/>
</g></g>
<g id="line2d74">
<g ><use style="fill: none; stroke: #000000; stroke-width: 0.500000; stroke-linejoin: round; stroke-linecap: butt;  opacity: 1.000000" xlink:href="#m6046ccd8b6d57b9fb587e3fdd930e9c5" x="232.512500" y="85.238462"/>
</g></g>
</g>
<g id="ytick17">
<g id="line2d75">
<g ><use style="fill: none; stroke: #000000; stroke-width: 0.500000; stroke-linejoin: round; stroke-linecap: butt;  opacity: 1.000000" xlink:href="#mb39cfcf7402899e54c4d755745537394" x="16.512500" y="74.853846"/>
</g></g>
<g id="line2d76">
<g ><use style="fill: none; stroke: #000000; stroke-width: 0.500000; stroke-linejoin: round; stroke-linecap: butt;  opacity: 1.000000" xlink:href="#m6046ccd8b6d57b9fb587e3fdd930e9c5" x="232.512500" y="74.853846"/>
</g></g>
</g>
<g id="ytick18">
<g id="line2d77">
<g ><use style="fill: none; stroke: #000000; stroke-width: 0.500000; stroke-linejoin: round; stroke-linecap: butt;  opacity: 1.000000" xlink:href="#mb39cfcf7402899e54c4d755745537394" x="16.512500" y="64.469231"/>
</g></g>
<g id="line2d78">
<g ><use style="fill: none; stroke: #000000; stroke-width: 0.500000; stroke-linejoin: round; stroke-linecap: butt;  opacity: 1.000000" xlink:href="#m6046ccd8b6d57b9fb587e3fdd930e9c5" x="232.512500" y="64.469231"/>
</g></g>
</g>
<g id="ytick19">
<g id="line2d79">
<g ><use style="fill: none; stroke: #000000; stroke-width: 0.500000; stroke-linejoin: round; stroke-linecap: butt;  opacity: 1.000000" xlink:href="#mb39cfcf7402899e54c4d755745537394" x="16.512500" y="43.700000"/>
</g></g>
<g id="line2d80">
<g ><use style="fill: none; stroke: #000000; stroke-width: 0.500000; stroke-linejoin: round; stroke-linecap: butt;  opacity: 1.000000" xlink:href="#m6046ccd8b6d57b9fb587e3fdd930e9c5" x="232.512500" y="43.700000"/>
</g></g>
</g>
<g id="ytick20">
<g id="line2d81">
<g ><use style="fill: none; stroke: #000000; stroke-width: 0.500000; stroke-linejoin: round; stroke-linecap: butt;  opacity: 1.000000" xlink:href="#mb39cfcf7402899e54c4d755745537394" x="16.512500" y="33.315385"/>
</g></g>
<g id="line2d82">
<g ><use style="fill: none; stroke: #000000; stroke-width: 0.500000; stroke-linejoin: round; stroke-linecap: butt;  opacity: 1.000000" xlink:href="#m6046ccd8b6d57b9fb587e3fdd930e9c5" x="232.512500" y="33.315385"/>
</g></g>
</g>
<g id="ytick21">
<g id="line2d83">
<g ><use style="fill: none; stroke: #000000; stroke-width: 0.500000; stroke-linejoin: round; stroke-linecap: butt;  opacity: 1.000000" xlink:href="#mb39cfcf7402899e54c4d755745537394" x="16.512500" y="22.930769"/>
</g></g>
<g id="line2d84">
<g ><use style="fill: none; stroke: #000000; stroke-width: 0.500000; stroke-linejoin: round; stroke-linecap: butt;  opacity: 1.000000" xlink:href="#m6046ccd8b6d57b9fb587e3fdd930e9c5" x="232.512500" y="22.930769"/>
</g></g>
</g>
</g>
<g id="patch3">
<path style="fill: none; stroke: #000000; stroke-width: 0.800000; stroke-linejoin: round; stroke-linecap: square;  opacity: 1.000000"  d="M16.512500 8.392308L232.512500 8.392308"/>
</g>
<g id="patch4">
<path style="fill: none; stroke: #000000; stroke-width: 0.800000; stroke-linejoin: round; stroke-linecap: square;  opacity: 1.000000"  d="M232.512500 224.392308L232.512500 8.392308"/>
</g>
<g id="patch5">
<path style="fill: none; stroke: #000000; stroke-width: 0.800000; stroke-linejoin: round; stroke-linecap: square;  opacity: 1.000000"  d="M16.512500 224.392308L232.512500 224.392308"/>
</g>
<g id="patch6">
<path style="fill: none; stroke: #000000; stroke-width: 0.800000; stroke-linejoin: round; stroke-linecap: square;  opacity: 1.000000"  d="M16.512500 224.392308L16.512500 8.392308"/>
</g>
<g id="text13">
<defs>
<path id="c_c06fc3894830aaebaf17bddc04d101f6" d="M4.890625 -0.000000q-0.984375 0.000000 -0.984375 -1.312500q0.046875 -0.250000 0.187500 -0.859375q0.156250 -0.609375 0.421875 -0.968750q0.265625 -0.375000 0.656250 -0.375000q6.109375 0.000000 8.546875 -0.687500q1.265625 -0.437500 1.859375 -2.687500l13.718750 -54.921875q0.203125 -0.984375 0.203125 -1.375000q0.000000 -1.078125 -1.171875 -1.218750q-1.906250 -0.390625 -7.234375 -0.390625q-0.968750 0.000000 -0.968750 -1.312500q0.046875 -0.250000 0.187500 -0.859375q0.140625 -0.609375 0.406250 -0.968750q0.281250 -0.375000 0.671875 -0.375000l34.515625 0.000000q4.734375 0.000000 9.171875 1.687500q4.453125 1.687500 7.281250 5.156250q2.843750 3.453125 2.843750 8.390625q0.000000 6.343750 -4.468750 11.328125q-4.468750 4.984375 -11.140625 7.765625q-6.656250 2.781250 -12.906250 2.781250l-16.265625 0.000000l-6.109375 24.703125q-0.187500 0.984375 -0.187500 1.421875q0.000000 0.390625 0.109375 0.656250q0.125000 0.265625 0.343750 0.343750q0.234375 0.078125 0.718750 0.171875q1.906250 0.390625 7.218750 0.390625q0.984375 0.000000 0.984375 1.312500q-0.343750 1.421875 -0.546875 1.812500q-0.187500 0.390625 -1.171875 0.390625zM30.906250 -34.187500l14.015625 0.000000q9.718750 0.000000 14.796875 -5.218750q2.593750 -2.593750 4.218750 -7.468750q1.640625 -4.890625 1.640625 -8.843750q0.000000 -4.921875 -3.765625 -7.000000q-3.750000 -2.078125 -9.328125 -2.078125l-9.562500 0.000000q-2.734375 0.000000 -3.625000 0.468750q-0.875000 0.453125 -1.593750 2.953125z"/>
<path id="c_06a7a4502300c60b4feec85758ecf628" d="M31.000000 24.812500q-5.562500 -4.406250 -9.593750 -10.093750q-4.015625 -5.687500 -6.593750 -12.140625q-2.562500 -6.437500 -3.828125 -13.468750q-1.265625 -7.031250 -1.265625 -14.109375q0.000000 -7.171875 1.265625 -14.203125q1.265625 -7.031250 3.875000 -13.531250q2.625000 -6.500000 6.671875 -12.156250q4.062500 -5.671875 9.468750 -9.921875q0.000000 -0.187500 0.500000 -0.187500l0.921875 0.000000q0.296875 0.000000 0.531250 0.265625q0.250000 0.265625 0.250000 0.609375q0.000000 0.437500 -0.187500 0.640625q-4.890625 4.781250 -8.140625 10.250000q-3.250000 5.468750 -5.234375 11.656250q-1.968750 6.171875 -2.843750 12.796875q-0.875000 6.609375 -0.875000 13.781250q0.000000 31.781250 16.984375 48.296875q0.296875 0.281250 0.296875 0.828125q0.000000 0.234375 -0.265625 0.546875q-0.265625 0.328125 -0.515625 0.328125l-0.921875 0.000000q-0.500000 0.000000 -0.500000 -0.187500"/>
<path id="c_1210e7f4d85518601ea3049211d562d0" d="M4.984375 -0.000000l0.000000 -2.687500q0.000000 -0.250000 0.187500 -0.531250l15.531250 -17.187500q3.515625 -3.812500 5.703125 -6.390625q2.203125 -2.593750 4.343750 -5.968750q2.156250 -3.375000 3.406250 -6.859375q1.250000 -3.484375 1.250000 -7.390625q0.000000 -4.109375 -1.515625 -7.843750q-1.515625 -3.734375 -4.515625 -5.984375q-3.000000 -2.250000 -7.250000 -2.250000q-4.343750 0.000000 -7.812500 2.625000q-3.468750 2.609375 -4.890625 6.750000q0.390625 -0.093750 1.078125 -0.093750q2.250000 0.000000 3.828125 1.515625q1.593750 1.515625 1.593750 3.906250q0.000000 2.296875 -1.593750 3.890625q-1.578125 1.578125 -3.828125 1.578125q-2.343750 0.000000 -3.937500 -1.625000q-1.578125 -1.640625 -1.578125 -3.843750q0.000000 -3.765625 1.406250 -7.046875q1.421875 -3.296875 4.078125 -5.859375q2.671875 -2.578125 6.015625 -3.937500q3.343750 -1.375000 7.093750 -1.375000q5.718750 0.000000 10.640625 2.421875q4.937500 2.421875 7.812500 6.843750q2.890625 4.406250 2.890625 10.328125q0.000000 4.343750 -1.906250 8.250000q-1.906250 3.906250 -4.890625 7.109375q-2.968750 3.187500 -7.609375 7.250000q-4.640625 4.046875 -6.093750 5.406250l-11.328125 10.890625l9.609375 0.000000q7.078125 0.000000 11.843750 -0.109375q4.765625 -0.125000 5.046875 -0.375000q1.171875 -1.265625 2.406250 -9.234375l2.921875 0.000000l-2.828125 17.828125z"/>
<path id="c_01bd98e0cf1b355b13e73042b8c9bdee" d="M9.906250 18.015625q0.000000 -0.437500 0.390625 -0.828125q3.625000 -3.468750 5.625000 -8.015625q2.000000 -4.531250 2.000000 -9.562500l0.000000 -1.218750q-1.609375 1.609375 -4.000000 1.609375q-2.296875 0.000000 -3.906250 -1.609375q-1.609375 -1.609375 -1.609375 -3.906250q0.000000 -2.343750 1.609375 -3.906250q1.609375 -1.562500 3.906250 -1.562500q3.562500 0.000000 5.078125 3.296875q1.515625 3.296875 1.515625 7.296875q0.000000 5.562500 -2.234375 10.562500q-2.218750 5.015625 -6.265625 9.015625q-0.390625 0.203125 -0.640625 0.203125q-0.484375 0.000000 -0.984375 -0.453125q-0.484375 -0.437500 -0.484375 -0.921875"/>
<path id="c_4b4b135d81e9b78c16b841add313c4b1" d="M9.515625 -7.718750q2.343750 3.421875 6.296875 5.078125q3.968750 1.656250 8.500000 1.656250q5.812500 0.000000 8.250000 -4.953125q2.453125 -4.953125 2.453125 -11.250000q0.000000 -2.828125 -0.515625 -5.656250q-0.515625 -2.843750 -1.734375 -5.281250q-1.218750 -2.437500 -3.343750 -3.906250q-2.125000 -1.468750 -5.203125 -1.468750l-6.640625 0.000000q-0.875000 0.000000 -0.875000 -0.921875l0.000000 -0.875000q0.000000 -0.781250 0.875000 -0.781250l5.515625 -0.453125q3.515625 0.000000 5.828125 -2.625000q2.328125 -2.640625 3.406250 -6.421875q1.078125 -3.781250 1.078125 -7.203125q0.000000 -4.781250 -2.250000 -7.859375q-2.250000 -3.078125 -6.843750 -3.078125q-3.796875 0.000000 -7.265625 1.437500q-3.468750 1.437500 -5.515625 4.375000q0.187500 -0.046875 0.328125 -0.078125q0.156250 -0.031250 0.343750 -0.031250q2.250000 0.000000 3.765625 1.562500q1.515625 1.562500 1.515625 3.765625q0.000000 2.156250 -1.515625 3.718750q-1.515625 1.562500 -3.765625 1.562500q-2.187500 0.000000 -3.750000 -1.562500q-1.562500 -1.562500 -1.562500 -3.718750q0.000000 -4.296875 2.578125 -7.468750q2.593750 -3.171875 6.671875 -4.812500q4.078125 -1.640625 8.171875 -1.640625q3.031250 0.000000 6.390625 0.906250q3.375000 0.906250 6.109375 2.593750q2.734375 1.687500 4.468750 4.328125q1.734375 2.625000 1.734375 6.000000q0.000000 4.203125 -1.875000 7.765625q-1.875000 3.562500 -5.156250 6.156250q-3.265625 2.578125 -7.171875 3.843750q4.343750 0.828125 8.250000 3.281250q3.906250 2.437500 6.265625 6.250000q2.375000 3.796875 2.375000 8.203125q0.000000 5.515625 -3.031250 9.984375q-3.015625 4.468750 -7.953125 6.984375q-4.937500 2.515625 -10.406250 2.515625q-4.687500 0.000000 -9.406250 -1.796875q-4.703125 -1.781250 -7.703125 -5.343750q-3.000000 -3.562500 -3.000000 -8.546875q0.000000 -2.484375 1.656250 -4.140625q1.656250 -1.656250 4.156250 -1.656250q1.609375 0.000000 2.953125 0.750000q1.343750 0.750000 2.093750 2.125000q0.765625 1.359375 0.765625 2.921875q0.000000 2.453125 -1.718750 4.109375q-1.703125 1.656250 -4.093750 1.656250z"/>
<path id="c_b865a8a4692360a5eaaff4ecf56eccf7" d="M6.500000 25.000000q-0.890625 0.000000 -0.890625 -0.875000q0.000000 -0.437500 0.203125 -0.640625q17.093750 -16.703125 17.093750 -48.484375q0.000000 -31.781250 -16.906250 -48.296875q-0.390625 -0.234375 -0.390625 -0.828125q0.000000 -0.343750 0.265625 -0.609375q0.281250 -0.265625 0.625000 -0.265625l0.921875 0.000000q0.296875 0.000000 0.484375 0.187500q7.187500 5.671875 11.968750 13.781250q4.781250 8.093750 7.000000 17.281250q2.234375 9.171875 2.234375 18.750000q0.000000 7.078125 -1.203125 13.937500q-1.203125 6.859375 -3.812500 13.515625q-2.609375 6.671875 -6.609375 12.312500q-4.000000 5.640625 -9.578125 10.046875q-0.187500 0.187500 -0.484375 0.187500z"/>
</defs>
<g id="mathtext1">
<g style="fill: #000000" transform="translate(112.743269,100.546154)">
<use xlink:href="#c_c06fc3894830aaebaf17bddc04d101f6" transform="translate(0.000000,-4.250000)scale(0.130000)"/>
<use xlink:href="#c_06a7a4502300c60b4feec85758ecf628" transform="translate(8.347168,-4.250000)scale(0.130000)"/>
<use xlink:href="#c_1210e7f4d85518601ea3049211d562d0" transform="translate(13.393555,-4.250000)scale(0.130000)"/>
<use xlink:href="#c_01bd98e0cf1b355b13e73042b8c9bdee" transform="translate(19.893555,-4.250000)scale(0.130000)"/>
<use xlink:href="#c_4b4b135d81e9b78c16b841add313c4b1" transform="translate(23.738672,-4.250000)scale(0.130000)"/>
<use xlink:href="#c_b865a8a4692360a5eaaff4ecf56eccf7" transform="translate(30.238672,-4.250000)scale(0.130000)"/>
</g>
</g>
</g>
<g id="text14">
<defs>
<path id="c_277960698c3e9ebfcde4d2161536ce57" d="M7.812500 -2.875000q1.765625 1.359375 4.984375 1.359375q3.125000 0.000000 5.515625 -3.000000q2.390625 -3.000000 3.265625 -6.562500l4.546875 -17.734375q1.078125 -4.828125 1.078125 -6.593750q0.000000 -2.484375 -1.390625 -4.343750q-1.390625 -1.859375 -3.890625 -1.859375q-3.171875 0.000000 -5.953125 1.984375q-2.781250 1.984375 -4.687500 5.031250q-1.906250 3.046875 -2.687500 6.171875q-0.187500 0.640625 -0.781250 0.640625l-1.218750 0.000000q-0.781250 0.000000 -0.781250 -0.937500l0.000000 -0.281250q0.968750 -3.718750 3.312500 -7.250000q2.343750 -3.546875 5.734375 -5.734375q3.406250 -2.203125 7.265625 -2.203125q3.656250 0.000000 6.609375 1.953125q2.953125 1.953125 4.171875 5.312500q1.718750 -3.062500 4.375000 -5.156250q2.656250 -2.109375 5.828125 -2.109375q2.156250 0.000000 4.390625 0.765625q2.250000 0.750000 3.671875 2.312500q1.421875 1.562500 1.421875 3.906250q0.000000 2.531250 -1.640625 4.375000q-1.640625 1.828125 -4.171875 1.828125q-1.609375 0.000000 -2.687500 -1.031250q-1.078125 -1.031250 -1.078125 -2.593750q0.000000 -2.093750 1.437500 -3.671875q1.453125 -1.593750 3.453125 -1.890625q-1.812500 -1.421875 -4.984375 -1.421875q-3.218750 0.000000 -5.593750 2.984375q-2.359375 2.984375 -3.343750 6.640625l-4.390625 17.671875q-1.078125 4.015625 -1.078125 6.593750q0.000000 2.546875 1.437500 4.375000q1.437500 1.828125 3.843750 1.828125q4.687500 0.000000 8.359375 -4.125000q3.687500 -4.125000 4.859375 -9.062500q0.203125 -0.578125 0.781250 -0.578125l1.234375 0.000000q0.390625 0.000000 0.625000 0.265625q0.250000 0.265625 0.250000 0.609375q0.000000 0.093750 -0.093750 0.296875q-1.421875 5.953125 -5.968750 10.593750q-4.531250 4.640625 -10.250000 4.640625q-3.656250 0.000000 -6.609375 -1.968750q-2.953125 -1.984375 -4.187500 -5.359375q-1.562500 2.937500 -4.328125 5.140625q-2.750000 2.187500 -5.875000 2.187500q-2.140625 0.000000 -4.421875 -0.765625q-2.265625 -0.750000 -3.687500 -2.312500q-1.406250 -1.562500 -1.406250 -3.953125q0.000000 -2.343750 1.625000 -4.265625q1.640625 -1.937500 4.093750 -1.937500q1.656250 0.000000 2.781250 1.000000q1.125000 1.000000 1.125000 2.609375q0.000000 2.109375 -1.406250 3.671875q-1.390625 1.562500 -3.484375 1.953125"/>
<path id="c_1a459ac34855d27ec37ccb0e66298d36" d="M9.281250 -0.000000l0.000000 -3.515625q12.500000 0.000000 12.500000 -3.171875l0.000000 -52.500000q-5.171875 2.500000 -13.093750 2.500000l0.000000 -3.515625q12.265625 0.000000 18.515625 -6.406250l1.406250 0.000000q0.343750 0.000000 0.656250 0.281250q0.328125 0.265625 0.328125 0.609375l0.000000 59.031250q0.000000 3.171875 12.500000 3.171875l0.000000 3.515625z"/>
<path id="c_61c20b1e4c944de7566e5fda525fb070" d="M10.203125 -23.000000q-0.828125 0.000000 -1.375000 -0.625000q-0.531250 -0.640625 -0.531250 -1.375000q0.000000 -0.734375 0.531250 -1.359375q0.546875 -0.640625 1.375000 -0.640625l57.375000 0.000000q0.781250 0.000000 1.296875 0.640625q0.515625 0.625000 0.515625 1.359375q0.000000 0.734375 -0.515625 1.375000q-0.515625 0.625000 -1.296875 0.625000z"/>
<path id="c_7bbc93c01755cdeb977d08bdfb9ce616" d="M7.515625 -13.281250q-0.828125 0.000000 -1.375000 -0.625000q-0.531250 -0.640625 -0.531250 -1.375000q0.000000 -0.828125 0.531250 -1.406250q0.546875 -0.593750 1.375000 -0.593750l62.796875 0.000000q0.734375 0.000000 1.265625 0.593750q0.546875 0.578125 0.546875 1.406250q0.000000 0.734375 -0.546875 1.375000q-0.531250 0.625000 -1.265625 0.625000zM7.515625 -32.718750q-0.828125 0.000000 -1.375000 -0.578125q-0.531250 -0.593750 -0.531250 -1.421875q0.000000 -0.734375 0.531250 -1.359375q0.546875 -0.640625 1.375000 -0.640625l62.796875 0.000000q0.734375 0.000000 1.265625 0.640625q0.546875 0.625000 0.546875 1.359375q0.000000 0.828125 -0.546875 1.421875q-0.531250 0.578125 -1.265625 0.578125z"/>
</defs>
<g id="mathtext2">
<g style="fill: #000000" transform="translate(141.589423,43.969231)">
<use xlink:href="#c_1210e7f4d85518601ea3049211d562d0" transform="translate(0.000000,-4.343750)scale(0.130000)"/>
<use xlink:href="#c_277960698c3e9ebfcde4d2161536ce57" transform="translate(11.065234,-4.343750)scale(0.130000)"/>
<use xlink:href="#c_1a459ac34855d27ec37ccb0e66298d36" transform="translate(18.485645,-1.027531)scale(0.091000)"/>
<use xlink:href="#c_61c20b1e4c944de7566e5fda525fb070" transform="translate(24.985645,-4.343750)scale(0.130000)"/>
<use xlink:href="#c_277960698c3e9ebfcde4d2161536ce57" transform="translate(39.650000,-4.343750)scale(0.130000)"/>
<use xlink:href="#c_1210e7f4d85518601ea3049211d562d0" transform="translate(47.070410,-1.027531)scale(0.091000)"/>
<use xlink:href="#c_7bbc93c01755cdeb977d08bdfb9ce616" transform="translate(55.853027,-4.343750)scale(0.130000)"/>
<use xlink:href="#c_1a459ac34855d27ec37ccb0e66298d36" transform="translate(71.341504,-4.343750)scale(0.130000)"/>
</g>
</g>
</g>
<g id="text15">
<defs>
<path id="c_6a3a612567bb59e037cbf13158797929" d="M7.515625 -23.000000q-0.828125 0.000000 -1.375000 -0.625000q-0.531250 -0.640625 -0.531250 -1.375000q0.000000 -0.734375 0.531250 -1.359375q0.546875 -0.640625 1.375000 -0.640625l29.406250 0.000000l0.000000 -29.500000q0.000000 -0.781250 0.578125 -1.281250q0.593750 -0.515625 1.421875 -0.515625q0.734375 0.000000 1.359375 0.515625q0.640625 0.500000 0.640625 1.281250l0.000000 29.500000l29.390625 0.000000q0.734375 0.000000 1.265625 0.640625q0.546875 0.625000 0.546875 1.359375q0.000000 0.734375 -0.546875 1.375000q-0.531250 0.625000 -1.265625 0.625000l-29.390625 0.000000l0.000000 29.500000q0.000000 0.781250 -0.640625 1.281250q-0.625000 0.515625 -1.359375 0.515625q-0.828125 0.000000 -1.421875 -0.515625q-0.578125 -0.500000 -0.578125 -1.281250l0.000000 -29.500000z"/>
<path id="c_7d09e94cce4bdf71f2297f5bbc354b76" d="M8.687500 -11.375000q1.031250 2.921875 3.156250 5.328125q2.125000 2.390625 5.031250 3.734375q2.906250 1.328125 6.031250 1.328125q7.218750 0.000000 9.953125 -5.609375q2.734375 -5.609375 2.734375 -13.625000q0.000000 -3.468750 -0.125000 -5.828125q-0.109375 -2.375000 -0.656250 -4.562500q-0.921875 -3.515625 -3.250000 -6.156250q-2.312500 -2.640625 -5.687500 -2.640625q-3.359375 0.000000 -5.781250 1.031250q-2.421875 1.015625 -3.937500 2.390625q-1.500000 1.359375 -2.671875 2.875000q-1.171875 1.515625 -1.468750 1.609375l-1.125000 0.000000q-0.250000 0.000000 -0.625000 -0.312500q-0.359375 -0.312500 -0.359375 -0.609375l0.000000 -33.406250q0.000000 -0.234375 0.312500 -0.500000q0.328125 -0.281250 0.671875 -0.281250l0.296875 0.000000q6.734375 3.234375 14.296875 3.234375q7.421875 0.000000 14.312500 -3.234375l0.296875 0.000000q0.343750 0.000000 0.625000 0.250000q0.296875 0.250000 0.296875 0.531250l0.000000 0.937500q0.000000 0.484375 -0.187500 0.484375q-3.421875 4.546875 -8.578125 7.093750q-5.156250 2.531250 -10.671875 2.531250q-4.000000 0.000000 -8.203125 -1.125000l0.000000 18.890625q3.328125 -2.687500 5.937500 -3.828125q2.609375 -1.156250 6.671875 -1.156250q5.515625 0.000000 9.875000 3.187500q4.375000 3.171875 6.718750 8.281250q2.343750 5.093750 2.343750 10.406250q0.000000 6.015625 -2.953125 11.140625q-2.953125 5.125000 -8.031250 8.156250q-5.078125 3.031250 -11.031250 3.031250q-4.937500 0.000000 -9.062500 -2.531250q-4.125000 -2.546875 -6.500000 -6.843750q-2.359375 -4.296875 -2.359375 -9.140625q0.000000 -2.250000 1.453125 -3.656250q1.468750 -1.421875 3.671875 -1.421875q2.203125 0.000000 3.687500 1.453125q1.484375 1.437500 1.484375 3.625000q0.000000 2.156250 -1.484375 3.640625q-1.484375 1.484375 -3.687500 1.484375q-0.343750 0.000000 -0.781250 -0.062500q-0.437500 -0.078125 -0.640625 -0.125000"/>
</defs>
<g id="mathtext3">
<g style="fill: #000000" transform="translate(116.512500,201.815385)">
<use xlink:href="#c_277960698c3e9ebfcde4d2161536ce57" transform="translate(0.000000,-4.343750)scale(0.130000)"/>
<use xlink:href="#c_1a459ac34855d27ec37ccb0e66298d36" transform="translate(7.420410,-1.027531)scale(0.091000)"/>
<use xlink:href="#c_6a3a612567bb59e037cbf13158797929" transform="translate(16.203027,-4.343750)scale(0.130000)"/>
<use xlink:href="#c_277960698c3e9ebfcde4d2161536ce57" transform="translate(31.691504,-4.343750)scale(0.130000)"/>
<use xlink:href="#c_1210e7f4d85518601ea3049211d562d0" transform="translate(39.111914,-1.027531)scale(0.091000)"/>
<use xlink:href="#c_7bbc93c01755cdeb977d08bdfb9ce616" transform="translate(47.894531,-4.343750)scale(0.130000)"/>
<use xlink:href="#c_7d09e94cce4bdf71f2297f5bbc354b76" transform="translate(63.383008,-4.343750)scale(0.130000)"/>
</g>
</g>
</g>
<g id="CircleCollection1">
<defs>
<path id="coll4_0_def950bee936d1b6b0406bb733322db5" d="M0.000000 2.185097C0.579494 2.185097 1.135332 1.954861 1.545097 1.545097
C1.954861 1.135332 2.185097 0.579494 2.185097 0.000000
C2.185097 -0.579494 1.954861 -1.135332 1.545097 -1.545097
C1.135332 -1.954861 0.579494 -2.185097 0.000000 -2.185097
C-0.579494 -2.185097 -1.135332 -1.954861 -1.545097 -1.545097
C-1.954861 -1.135332 -2.185097 -0.579494 -2.185097 0.000000
C-2.185097 0.579494 -1.954861 1.135332 -1.545097 1.545097
C-1.135332 1.954861 -0.579494 2.185097 0.000000 2.185097z"/>
</defs>
<g clip-path="url(#pb46c386742fd882829d94ef40c6f583c)"><use style="fill: #000000; opacity: 1.000000" xlink:href="#coll4_0_def950bee936d1b6b0406bb733322db5" x="103.743269" y="95.623077"/>
</g></g>
</g>
</g>
</svg>
