<?xml version="1.0" encoding="utf-8"?>
<!-- Generator: Adobe Illustrator 12.0.1, SVG Export Plug-In . SVG Version: 6.00 Build 51448)  -->
<!DOCTYPE svg PUBLIC "-//W3C//DTD SVG 1.1//EN" "http://www.w3.org/Graphics/SVG/1.1/DTD/svg11.dtd" [
	<!ENTITY ns_svg "http://www.w3.org/2000/svg">
	<!ENTITY ns_xlink "http://www.w3.org/1999/xlink">
]>
<svg  version="1.1" id="Calque_1" xmlns="&ns_svg;" xmlns:xlink="&ns_xlink;" width="1574.099" height="186.323"
	 viewBox="0 0 1574.099 186.323" overflow="visible" enable-background="new 0 0 1574.099 186.323" xml:space="preserve">
<path id="path1367" fill="none" stroke="#000000" stroke-width="2" d="M217.167,47.999v95.459h94.955V48.251h95.207"/>
<path id="path1369" fill="none" stroke="#000000" stroke-width="2" d="M476.261,48.481l-47.382,47.382l47.854,47.854l47.54-47.539
	l47.382,47.383l47.54-47.54l-47.54-47.54l47.067-47.067l47.697,47.697"/>
<path id="path1371" fill="none" stroke="#000000" stroke-width="2" d="M745.856,51.221h-47.828v47.51h47.828v48.146h48.146V99.049
	h47.508v47.828h48.466V99.049H841.83V51.541h47.827V3.713h47.51v46.552h1.275l0,0"/>
<path id="path1375" fill="none" stroke="#000000" stroke-width="2" d="M0.707,45.09l95.459,95.459l95.081-95.081l-0.126-0.126"/>
<path id="path1396" fill="none" stroke="#000000" stroke-width="2" d="M1032.241,52.86l-24.728-24.728l-23.492,23.49l24.375,24.374
	l-23.845,23.844l24.197,24.198l24.021-24.021l23.669,23.668l-24.375,24.373l24.551,24.552l24.375-24.376l-24.728-24.727
	l24.374-24.373l24.551,24.551l23.666-23.668l-23.843-23.844l23.49-23.491l23.491,23.491l-23.314,23.315l24.021,24.02l-24.55,24.551
	l24.727,24.729l24.197-24.196l-24.904-24.905l24.551-24.551l-23.49-23.491l23.668-23.668l-24.729-24.728l24.375-24.373
	l24.727,24.727l24.021-24.021l24.197,24.198l-24.551,24.551"/>
<g id="g1741" transform="translate(-507.4558,-135.8825)">
	<path id="path1477" fill="none" stroke="#000000" stroke-width="2" d="M1866.957,199.394l5.833,5.834l5.708-5.708l-5.708-5.707
		l5.455-5.453l-6.088-6.088l-5.328,5.326l-5.58-5.58l5.327-5.327l-5.579-5.58l-5.455,5.454l5.707,5.707l-5.453,5.455l-5.58-5.581
		l-5.454,5.453"/>
	<path id="path1479" fill="none" stroke="#000000" stroke-width="2" d="M1844.314,188.008l-5.83-5.829l5.785-5.784l-5.74-5.739
		l-5.693,5.695l5.828,5.829l-5.695,5.694l5.695,5.696L1844.314,188.008z"/>
	<path id="path1481" fill="none" stroke="#000000" stroke-width="2" d="M1844.134,188.189l5.695,5.695l-5.605,5.605l-5.561-5.561
		l-5.649,5.65l5.649,5.65l-5.695,5.694l-6.008-6.008l-5.65,5.65l-5.56-5.561l5.919-5.918l-5.65-5.65l-6.008,6.008l5.516,5.516
		l-5.65,5.65l5.785,5.784l5.739-5.74l5.828,5.83l-5.649,5.65l5.516,5.515l5.74-5.74l-5.695-5.694l5.47-5.471l5.784,5.784l5.83-5.829
		l5.605,5.604l-5.471,5.471l-5.561-5.56l-5.963,5.963l5.648,5.65"/>
	<path id="path1483" fill="none" stroke="#000000" stroke-width="2" d="M1822.488,246.799l-6.325-6.293l-5.708,5.707l5.708,5.707
		l-5.454,5.453l6.088,6.088l5.326-5.326l5.581,5.58l-5.327,5.326l5.58,5.58l5.454-5.451l-5.707-5.709l5.454-5.453l5.58,5.58
		l5.453-5.453"/>
	<path id="path1485" fill="none" stroke="#000000" stroke-width="2" d="M1843.827,257.713l5.83,5.828l-5.785,5.785l5.74,5.74
		l5.694-5.695l-5.829-5.83l5.695-5.693l-5.695-5.695L1843.827,257.713z"/>
	<path id="path1497" fill="none" stroke="#000000" stroke-width="2" d="M1821.534,246.834l-5.561,5.56l5.74,5.741l5.649-5.65
		l5.472,5.469l5.648-5.649l5.65,5.649"/>
	<path id="path1501" fill="none" stroke="#000000" stroke-width="2" d="M1832.656,234.463l5.919,5.92l-6.009,6.008l6.009,6.009
		l6.187-6.188l-6.098-6.098l5.65-5.65l5.739,5.74l-5.649,5.648l5.738,5.74l5.74-5.74l-5.561-5.56l5.561-5.56l5.74,5.74l5.471-5.471
		l5.828,5.828l-5.381,5.381l-5.829-5.828l-5.739,5.738l5.561,5.561l-6.01,6.008l5.92,5.92l5.919-5.92l5.381,5.381"/>
	<path id="path1503" fill="none" stroke="#000000" stroke-width="2" d="M1860.771,297.922l-5.829-5.83l5.829-5.828l5.83,5.828
		L1860.771,297.922z"/>
	<path id="path1505" fill="none" stroke="#000000" stroke-width="2" d="M1860.771,309.49l-5.829-5.828l5.829-5.83l5.83,5.83
		L1860.771,309.49z"/>
	<path id="path1507" fill="none" stroke="#000000" stroke-width="2" d="M1872.251,309.313l-5.83-5.83l5.83-5.83l5.829,5.83
		L1872.251,309.313z"/>
	<path id="path1509" fill="none" stroke="#000000" stroke-width="2" d="M1872.251,320.791l-5.83-5.83l5.83-5.83l5.829,5.83
		L1872.251,320.791z"/>
	<path id="path1511" fill="none" stroke="#000000" stroke-width="2" d="M1895.252,320.289l-5.829-5.83l5.829-5.83l5.829,5.83
		L1895.252,320.289z"/>
	<path id="path1557" fill="none" stroke="#000000" stroke-width="2" d="M1878.392,303.16l45.468-45.471"/>
	<path id="path1559" fill="none" stroke="#000000" stroke-width="2" d="M1884.132,309.078l17.219-17.219"/>
	<path id="path1561" fill="none" stroke="#000000" stroke-width="2" d="M1877.963,292.432l34.508-34.83"/>
	<path id="path1563" fill="none" stroke="#000000" stroke-width="2" d="M1877.947,280.422c28.429-28.43,29.228-29.184,29.228-29.184
		"/>
	<path id="path1565" fill="none" stroke="#000000" stroke-width="2" d="M1871.678,275.551l40.972-40.908"/>
	<path id="path1571" fill="none" stroke="#000000" stroke-width="2" d="M1878.212,291.68l17.219,17.219l-0.19-0.715"/>
	<path id="path1573" fill="none" stroke="#000000" stroke-width="2" d="M1878.751,280.201l22.51,22.508l-6.099,6.1"/>
	<path id="path1575" fill="none" stroke="#000000" stroke-width="2" d="M1871.812,274.729l-5.74-5.74l11.569-11.566l28.429,28.428
		l16.859-16.861l-11.301-11.299l0,0"/>
	<path id="path1577" fill="none" stroke="#000000" stroke-width="2" d="M1872.831,263.162c0,0,29.945,29.912,29.129,29.064"/>
	<path id="path1579" fill="none" stroke="#000000" stroke-width="2" d="M1912.65,291.5l5.829,5.83l5.74-5.74l-39.908-39.908
		l5.649-5.648l33.99,33.988L1912.65,291.5z"/>
	<path id="path1581" fill="none" stroke="#000000" stroke-width="2" d="M1906.91,252.041l-11.479-11.479l5.83-5.829l11.3,11.301
		l5.47-5.472l-5.738-5.739l-0.4-0.399"/>
	<path id="path1583" fill="none" stroke="#000000" stroke-width="2" d="M1923.326,257.291l6.005,5.871l58.382-58.383l5.918,5.919
		l-58.65,58.651l5.739,5.738l6.547-6.545l-16.77-16.771l5.29-5.291l17.22,17.219l46.544-46.543l5.471,5.469l-46.187,46.188
		l6.188,6.188l28.431-28.43l-34.888-34.886l-5.918,5.919l40.446,40.445l-22.689,22.689l22.689,22.689l-11.121,11.121l5.918,5.918
		l5.92-5.918l-23.227-23.227l28.16-28.16l6.098,6.098l-45.199,45.199l5.47,5.471l5.649-5.65l-22.599-22.6l5.381-5.381l5.649,5.65
		l-11.12,11.121l5.74,5.738l11.389-11.389l11.3,11.299l16.951-16.949l-51.209-51.208l28.43-28.429l28.787,28.789l11.568-11.569
		l5.381,5.381l-11.568,11.569l5.828,5.829l5.65-5.65l-40.535-40.536l6.367-6.367l5.561,5.561"/>
	<path id="path1585" fill="none" stroke="#000000" stroke-width="2" d="M1952.56,205.947l-11.212-11.303l5.919-5.917l11.299,11.298
		l5.471-5.47l-5.561-5.562l-17.128,17.13l-5.649-5.65l-5.561,5.56l5.74,5.741l5.56-5.561l11.03,11.03l0.359-0.357"/>
	<path id="path1587" fill="none" stroke="#000000" stroke-width="2" d="M1952.827,217.066l-17.04,17.038l-6.277-6.276l6.188-6.188
		l63.942,63.943l11.029-11.031l5.561,5.561l-11.389,11.389l6.277,6.279l5.65-5.65l-75.69-75.692l11.03-11.03"/>
	<path id="path1619" fill="none" stroke="#000000" stroke-width="2" d="M2051.403,198.947l-5.836,5.834l5.709,5.707l5.707-5.707
		l5.453,5.454l6.088-6.087l-5.326-5.327l5.58-5.581l5.326,5.327l5.58-5.581l-5.453-5.454l-5.707,5.708l-5.451-5.455l5.578-5.581
		l-5.453-5.453"/>
	<path id="path1621" fill="none" stroke="#000000" stroke-width="2" d="M2062.787,176.303l5.83-5.829l5.785,5.784l5.738-5.739
		l-5.695-5.696l-5.828,5.829l-5.697-5.695l-5.693,5.695L2062.787,176.303z"/>
	<path id="path1623" fill="none" stroke="#000000" stroke-width="2" d="M2062.608,176.124l-5.693,5.695l-5.607-5.604l5.561-5.561
		l-5.648-5.649l-5.65,5.649l-5.693-5.695l6.008-6.008l-5.65-5.649l5.561-5.562l5.918,5.919l5.65-5.65l-6.01-6.008l-5.514,5.515
		l-5.65-5.649l-5.785,5.785l5.742,5.738l-5.832,5.831l-5.648-5.65l-5.516,5.516l5.74,5.739l5.693-5.694l5.473,5.471l-5.785,5.784
		l5.828,5.829l-5.605,5.604l-5.471-5.47l5.561-5.56l-5.963-5.965l-6.316,6.227"/>
	<path id="path1625" fill="none" stroke="#000000" stroke-width="2" d="M2003.891,153.841l6.412-6.5l-5.707-5.707l-5.707,5.707
		l-5.453-5.453l-6.088,6.087l5.326,5.327l-5.58,5.58l-5.326-5.326l-5.58,5.58l5.453,5.453l5.707-5.707l5.453,5.455l-5.58,5.579
		l5.453,5.455"/>
	<path id="path1627" fill="none" stroke="#000000" stroke-width="2" d="M1993.084,175.819l-5.828,5.829l-5.785-5.785l-5.74,5.739
		l5.695,5.696l5.83-5.83l5.693,5.695l5.695-5.695L1993.084,175.819z"/>
	<path id="path1629" fill="none" stroke="#000000" stroke-width="2" d="M2004.494,153.524l-5.561-5.559l-5.738,5.74l5.65,5.65
		l-5.471,5.469l5.648,5.65l-5.648,5.649"/>
	<path id="path1631" fill="none" stroke="#000000" stroke-width="2" d="M2022.789,170.565l-6.367-6.367"/>
	<path id="path1633" fill="none" stroke="#000000" stroke-width="2" d="M2017.221,163.98l-6.541,6.674l-6.096-5.876l-5.609,5.743
		l5.965,5.877l5.744-5.744l5.65,5.65l-5.74,5.74l-5.65-5.65l-5.738,5.741l5.738,5.738l5.559-5.56l5.563,5.56l-5.74,5.74l5.471,5.47
		l-5.828,5.831l-5.381-5.381l5.828-5.829l-5.74-5.74l-5.561,5.56l-6.008-6.008l-5.918,5.918l5.918,5.917l-5.381,5.381"/>
	<path id="path1729" fill="none" stroke="#000000" stroke-width="2" d="M1838.906,227.296l-7.165,7.166"/>
	<path id="path1731" fill="none" stroke="#000000" stroke-width="2" d="M1884.705,309.58l-6.246-6.246"/>
</g>
<path id="path1375_2_" opacity="0.4" fill="none" stroke="#BC1221" stroke-dasharray="2 2" d="M216.757,47.59l95.459,95.459
	l95.08-95.08l-0.126-0.127"/>
<path id="path1367_2_" opacity="0.44" fill="none" stroke="#BC1221" stroke-dasharray="2 2" d="M476.268,47.999v95.46h94.955V48.251
	h95.208"/>
<path id="path1369_2_" opacity="0.46" fill="none" stroke="#BC1221" stroke-dasharray="2 2" d="M747.649,52.116l-47.382,47.382
	l47.854,47.854l47.539-47.539l47.382,47.383l47.54-47.539l-47.54-47.541L890.11,5.05l47.697,47.697"/>
<path id="path1371_2_" opacity="0.42" fill="none" stroke="#BC1221" stroke-dasharray="2 2" d="M1033.071,52.168h-47.827v47.51
	h47.827v48.146h48.147V99.997h47.508v47.828h48.466V99.997h-48.146V52.489h47.827V4.661h47.51v46.552h1.275l0,0"/>
<g>
	<path fill="none" stroke="#04662C" stroke-width="3" d="M66.24,49.428c-1.907,13.507-11.35,24.593-24.113,29.518"/>
	<line fill="none" stroke="#04662C" stroke-width="3" x1="42.127" y1="78.946" x2="44.314" y2="73.687"/>
	<line fill="none" stroke="#04662C" stroke-width="3" x1="42.127" y1="78.946" x2="49.958" y2="79.332"/>
</g>
<g>
	<path fill="none" stroke="#04662C" stroke-width="3" d="M340.33,111.139c-2.872-10.726-11.971-18.521-23.149-19.168"/>
	<line fill="none" stroke="#04662C" stroke-width="3" x1="317.181" y1="91.971" x2="323.433" y2="90.6"/>
	<line fill="none" stroke="#04662C" stroke-width="3" x1="317.181" y1="91.971" x2="318.547" y2="95.641"/>
</g>
<g>
	<path fill="none" stroke="#04662C" stroke-width="3" d="M257.06,88.629c-7.331,11.504-20.519,17.681-34.175,16.877"/>
	<line fill="none" stroke="#04662C" stroke-width="3" x1="222.885" y1="105.506" x2="227.054" y2="101.625"/>
	<line fill="none" stroke="#04662C" stroke-width="3" x1="222.885" y1="105.506" x2="229.853" y2="109.101"/>
</g>
</svg>
