<?xml version="1.0" encoding="utf-8"?>
<!-- Generator: Adobe Illustrator 16.0.0, SVG Export Plug-In . SVG Version: 6.00 Build 0)  -->
<!DOCTYPE svg PUBLIC "-//W3C//DTD SVG 1.1//EN" "http://www.w3.org/Graphics/SVG/1.1/DTD/svg11.dtd">
<svg version="1.1" id="Layer_1" xmlns="http://www.w3.org/2000/svg" xmlns:xlink="http://www.w3.org/1999/xlink" x="0px" y="0px"
	 width="402.52px" height="192.756px" viewBox="0 0 402.52 192.756" enable-background="new 0 0 402.52 192.756"
	 xml:space="preserve">
<polyline fill="none" stroke="#000000" stroke-width="0.8" stroke-linecap="round" stroke-linejoin="round" points="49.625,4.562 
	49.625,180.641 353.133,180.641 "/>
<path fill-rule="evenodd" clip-rule="evenodd" d="M47.688,8.746L49.617,3.5l1.926,5.246C50.406,7.91,48.848,7.914,47.688,8.746z"/>
<path fill-rule="evenodd" clip-rule="evenodd" d="M348.945,178.703l5.246,1.93l-5.246,1.93
	C349.785,181.422,349.777,179.867,348.945,178.703z"/>
<line fill="none" stroke="#8C0000" stroke-width="0.8" stroke-linecap="round" stroke-dasharray="2.4,2.4" x1="55.68" y1="166.984" x2="74.441" y2="129.637"/>
<path fill="#8C0000" d="M56.797,167.742c0,0.875-0.621,1.586-1.382,1.586c-0.763,0-1.379-0.711-1.379-1.586
	c0-0.879,0.617-1.59,1.379-1.59C56.176,166.152,56.797,166.863,56.797,167.742z"/>
<path fill="none" stroke="#000000" stroke-width="0.24" stroke-linecap="round" stroke-linejoin="round" d="M56.797,167.742
	c0,0.875-0.621,1.586-1.382,1.586c-0.763,0-1.379-0.711-1.379-1.586c0-0.879,0.617-1.59,1.379-1.59
	C56.176,166.152,56.797,166.863,56.797,167.742z"/>
<line fill="none" stroke="#8C0000" stroke-width="0.8" stroke-linecap="round" stroke-dasharray="2.4,2.4" x1="73.898" y1="130.473" x2="97.371" y2="97.539"/>
<path fill="#8C0000" d="M75.023,130.934c0,0.875-0.62,1.586-1.383,1.586c-0.761,0-1.378-0.711-1.378-1.586
	c0-0.879,0.617-1.59,1.378-1.59C74.403,129.344,75.023,130.055,75.023,130.934z"/>
<path fill="none" stroke="#000000" stroke-width="0.24" stroke-linecap="round" stroke-linejoin="round" d="M75.023,130.934
	c0,0.875-0.62,1.586-1.383,1.586c-0.761,0-1.378-0.711-1.378-1.586c0-0.879,0.617-1.59,1.378-1.59
	C74.403,129.344,75.023,130.055,75.023,130.934z"/>
<line fill="none" stroke="#8C0000" stroke-width="0.8" stroke-linecap="round" stroke-dasharray="2.4,2.4" x1="97.312" y1="98.008" x2="126.559" y2="71.785"/>
<ellipse fill="#8C0000" cx="96.725" cy="98.5" rx="1.381" ry="1.586"/>
<ellipse fill="none" stroke="#000000" stroke-width="0.24" stroke-linecap="round" stroke-linejoin="round" cx="96.725" cy="98.5" rx="1.381" ry="1.586"/>
<path fill="none" stroke="#8C0000" stroke-width="0.8" stroke-linecap="round" stroke-dasharray="2.4,2.4" d="M126.664,72.102
	c10.59-5.762,27.117-15.54,32.027-17.387"/>
<path fill="#8C0000" d="M127.043,72.648c0,0.879-0.622,1.586-1.383,1.586c-0.762,0-1.379-0.707-1.379-1.586
	c0-0.875,0.617-1.586,1.379-1.586C126.421,71.062,127.043,71.773,127.043,72.648z"/>
<path fill="none" stroke="#000000" stroke-width="0.24" stroke-linecap="round" stroke-linejoin="round" d="M127.043,72.648
	c0,0.879-0.622,1.586-1.383,1.586c-0.762,0-1.379-0.707-1.379-1.586c0-0.875,0.617-1.586,1.379-1.586
	C126.421,71.062,127.043,71.773,127.043,72.648z"/>
<line fill="none" stroke="#8C0000" stroke-width="0.8" stroke-linecap="round" stroke-dasharray="2.4,2.4" x1="159.062" y1="54.375" x2="193.363" y2="43.535"/>
<ellipse fill="#8C0000" cx="158.994" cy="54.395" rx="1.381" ry="1.585"/>
<ellipse fill="none" stroke="#000000" stroke-width="0.24" stroke-linecap="round" stroke-linejoin="round" cx="158.994" cy="54.395" rx="1.381" ry="1.585"/>
<line fill="none" stroke="#8C0000" stroke-width="0.8" stroke-linecap="round" stroke-dasharray="2.4,2.4" x1="193.805" y1="43.398" x2="223.992" y2="38.703"/>
<path fill="#8C0000" d="M194.723,43.52c0,0.875-0.617,1.585-1.379,1.585c-0.762,0-1.379-0.71-1.379-1.585
	c0-0.879,0.618-1.586,1.379-1.586C194.106,41.934,194.723,42.641,194.723,43.52z"/>
<path fill="none" stroke="#000000" stroke-width="0.24" stroke-linecap="round" stroke-linejoin="round" d="M194.723,43.52
	c0,0.875-0.617,1.585-1.379,1.585c-0.762,0-1.379-0.71-1.379-1.585c0-0.879,0.618-1.586,1.379-1.586
	C194.106,41.934,194.723,42.641,194.723,43.52z"/>
<line fill="none" stroke="#8C0000" stroke-width="0.8" stroke-linecap="round" stroke-dasharray="2.4,2.4" x1="223.98" y1="38.617" x2="255.098" y2="36.191"/>
<line fill="none" stroke="#8C0000" stroke-width="0.8" stroke-linecap="round" stroke-dasharray="2.4,2.4" x1="254.148" y1="36.352" x2="284.879" y2="35.047"/>
<ellipse fill="#8C0000" cx="284.531" cy="35.074" rx="1.379" ry="1.586"/>
<ellipse fill="none" stroke="#000000" stroke-width="0.24" stroke-linecap="round" stroke-linejoin="round" cx="284.531" cy="35.074" rx="1.379" ry="1.586"/>
<path fill="#8C0000" d="M255.262,36.285c0,0.875-0.617,1.586-1.383,1.586c-0.762,0-1.379-0.711-1.379-1.586s0.617-1.586,1.379-1.586
	C254.645,34.699,255.262,35.41,255.262,36.285z"/>
<path fill="none" stroke="#000000" stroke-width="0.24" stroke-linecap="round" stroke-linejoin="round" d="M255.262,36.285
	c0,0.875-0.617,1.586-1.383,1.586c-0.762,0-1.379-0.711-1.379-1.586s0.617-1.586,1.379-1.586
	C254.645,34.699,255.262,35.41,255.262,36.285z"/>
<ellipse fill="#8C0000" cx="223.928" cy="38.684" rx="1.381" ry="1.586"/>
<ellipse fill="none" stroke="#000000" stroke-width="0.24" stroke-linecap="round" stroke-linejoin="round" cx="223.928" cy="38.684" rx="1.381" ry="1.586"/>
<line fill="none" stroke="#8C0000" stroke-width="0.8" stroke-linecap="round" stroke-dasharray="2.4,2.4" x1="285.063" y1="35.004" x2="315.879" y2="33.906"/>
<line fill="none" stroke="#8C0000" stroke-width="0.8" stroke-linecap="round" stroke-dasharray="2.4,2.4" x1="315.691" y1="33.898" x2="346.508" y2="33.5"/>
<ellipse fill="#8C0000" cx="315.5" cy="33.75" rx="1.379" ry="1.586"/>
<ellipse fill="none" stroke="#000000" stroke-width="0.24" stroke-linecap="round" stroke-linejoin="round" cx="315.5" cy="33.75" rx="1.379" ry="1.586"/>
<path fill="#8C0000" d="M347.375,33.547c0,0.879-0.617,1.586-1.379,1.586s-1.379-0.707-1.379-1.586c0-0.875,0.617-1.586,1.379-1.586
	S347.375,32.672,347.375,33.547z"/>
<path fill="none" stroke="#000000" stroke-width="0.24" stroke-linecap="round" stroke-linejoin="round" d="M347.375,33.547
	c0,0.879-0.617,1.586-1.379,1.586s-1.379-0.707-1.379-1.586c0-0.875,0.617-1.586,1.379-1.586S347.375,32.672,347.375,33.547z"/>
<path d="M359.484,183.156h1.316c0.281,0,0.406,0,0.406-0.281c0-0.152-0.125-0.152-0.379-0.152h-1.23
	c0.504-1.973,0.574-2.254,0.574-2.336c0-0.227-0.168-0.367-0.406-0.367c-0.043,0-0.434,0.016-0.563,0.492l-0.531,2.211h-1.316
	c-0.277,0-0.418,0-0.418,0.266c0,0.168,0.109,0.168,0.391,0.168h1.23c-1.008,3.949-1.063,4.188-1.063,4.438
	c0,0.758,0.531,1.273,1.273,1.273c1.43,0,2.227-2.027,2.227-2.141c0-0.141-0.113-0.141-0.168-0.141
	c-0.125,0-0.141,0.059-0.211,0.195c-0.602,1.457-1.344,1.793-1.82,1.793c-0.277,0-0.418-0.18-0.418-0.645
	c0-0.336,0.027-0.434,0.07-0.672L359.484,183.156z"/>
<line fill="none" stroke="#000000" stroke-width="0.8" stroke-linecap="round" x1="229.684" y1="60.629" x2="224.77" y2="42.289"/>
<path fill-rule="evenodd" clip-rule="evenodd" d="M223.98,46.832l0.508-5.566l3.219,4.566
	C226.391,45.32,224.887,45.727,223.98,46.832z"/>
<path d="M216.414,68.535v-0.14l-0.016-0.028v-0.086l-0.012-0.054l-0.016-0.059l-0.012-0.055l-0.016-0.054l-0.016-0.043l-0.012-0.043
	l-0.016-0.043l-0.012-0.039l-0.027-0.028l-0.016-0.043l-0.027-0.027l-0.016-0.031l-0.055-0.055l-0.016-0.012l-0.027-0.031
	l-0.027-0.012l-0.027-0.015l-0.027-0.012l-0.031-0.016l-0.012-0.015l-0.027-0.012h-0.027l-0.031-0.015h-0.039l-0.031-0.012h-0.027
	c-0.348,0-0.684,0.363-0.684,0.672c0,0.179,0.07,0.265,0.223,0.418c0.293,0.281,0.476,0.644,0.476,1.136
	c0,0.586-0.854,3.778-2.479,3.778c-0.711,0-1.035-0.489-1.035-1.219c0-0.781,0.379-1.789,0.813-2.938
	c0.098-0.238,0.168-0.433,0.168-0.699c0-0.633-0.449-1.148-1.148-1.148c-1.301,0-1.832,2.015-1.832,2.14
	c0,0.141,0.142,0.141,0.168,0.141c0.141,0,0.152-0.027,0.224-0.254c0.405-1.398,0.995-1.719,1.397-1.719
	c0.113,0,0.353,0,0.353,0.446c0,0.351-0.142,0.73-0.239,0.98c-0.602,1.61-0.785,2.254-0.785,2.844c0,1.512,1.219,1.723,1.863,1.723
	C215.617,73.856,216.414,69.262,216.414,68.535z"/>
<path d="M221.762,77.047v-0.043l-0.016-0.016v-0.011h-0.012v-0.016l-0.016-0.012v-0.015h-0.012v-0.016h-0.016v-0.012h-0.012v-0.015
	l-0.016-0.012l-0.016-0.016l-0.012-0.015l-0.016-0.012l-0.012-0.016l-0.016-0.011v-0.016h-0.016l-0.012-0.012v-0.015h-0.016
	l-0.012-0.016l-0.016-0.012c-1.734-1.75-2.184-4.382-2.184-6.511c0-2.422,0.531-4.844,2.238-6.578
	c0.184-0.168,0.184-0.196,0.184-0.239c0-0.097-0.055-0.14-0.141-0.14c-0.141,0-1.387,0.953-2.211,2.714
	c-0.715,1.528-0.883,3.083-0.883,4.243c0,1.093,0.156,2.773,0.926,4.34c0.84,1.71,2.027,2.621,2.168,2.621
	C221.707,77.188,221.762,77.145,221.762,77.047z"/>
<path d="M225.445,68.141h1.316c0.277,0,0.418,0,0.418-0.278c0-0.156-0.141-0.156-0.391-0.156h-1.234
	c0.504-1.973,0.574-2.254,0.574-2.336c0-0.226-0.168-0.367-0.406-0.367c-0.039,0-0.434,0.016-0.559,0.492l-0.531,2.211h-1.316
	c-0.281,0-0.422,0-0.422,0.266c0,0.168,0.113,0.168,0.395,0.168h1.23c-1.008,3.949-1.063,4.187-1.063,4.437
	c0,0.758,0.531,1.278,1.285,1.278c1.414,0,2.215-2.032,2.215-2.145c0-0.141-0.113-0.141-0.168-0.141c-0.129,0-0.141,0.059-0.211,0.2
	c-0.602,1.453-1.344,1.789-1.82,1.789c-0.281,0-0.422-0.18-0.422-0.645c0-0.336,0.031-0.433,0.086-0.672L225.445,68.141z"/>
<path d="M236.406,70.508h3.891c0.195,0,0.465,0,0.465-0.281c0-0.278-0.27-0.278-0.465-0.278h-3.891v-3.894
	c0-0.196,0-0.461-0.266-0.461c-0.281,0-0.281,0.265-0.281,0.461v3.894h-3.906c-0.195,0-0.461,0-0.461,0.278
	c0,0.281,0.266,0.281,0.461,0.281h3.906v3.891c0,0.195,0,0.464,0.281,0.464c0.266,0,0.266-0.269,0.266-0.464V70.508z"/>
<path d="M250.812,63.996v-0.012l-0.026-0.027v-0.015l-0.016-0.016v-0.012l-0.012-0.015v-0.012l-0.016-0.016v-0.012l-0.016-0.015
	l-0.012-0.016l-0.016-0.011l-0.011-0.016h-0.017v-0.012h-0.016l-0.012-0.015h-0.016l-0.012-0.016h-0.07l-0.016-0.012h-0.082
	c-0.227,0-0.266,0.071-0.352,0.25l-0.082,1.149l3.734,7.504h-7.504l3.77-7.504l0.082-1.149l-4.719,9.438
	c-0.07,0.125-0.07,0.152-0.07,0.168c0,0.113,0.086,0.113,0.309,0.113h9.676c0.223,0,0.309,0,0.309-0.113c0-0.016,0-0.043-0.07-0.168
	L250.812,63.996z"/>
<path d="M259.156,68.141h1.301c0.281,0,0.422,0,0.422-0.278c0-0.156-0.141-0.156-0.395-0.156h-1.215
	c0.504-1.973,0.574-2.254,0.574-2.336c0-0.226-0.168-0.367-0.406-0.367c-0.043,0-0.438,0.016-0.563,0.492l-0.547,2.211h-1.301
	c-0.281,0-0.418,0-0.418,0.266c0,0.168,0.109,0.168,0.391,0.168h1.219c-0.996,3.949-1.051,4.187-1.051,4.437
	c0,0.758,0.52,1.278,1.273,1.278c1.43,0,2.211-2.032,2.211-2.145c0-0.141-0.109-0.141-0.168-0.141c-0.125,0-0.137,0.059-0.207,0.2
	c-0.59,1.453-1.332,1.789-1.809,1.789c-0.293,0-0.434-0.18-0.434-0.645c0-0.336,0.027-0.433,0.086-0.672L259.156,68.141z"/>
<path d="M265.344,70.227v-0.434l-0.016-0.238l-0.012-0.238l-0.027-0.25l-0.027-0.266l-0.086-0.563l-0.055-0.277l-0.07-0.297
	l-0.07-0.293l-0.086-0.293l-0.098-0.293l-0.109-0.297l-0.059-0.152l-0.07-0.156l-0.055-0.137l-0.07-0.156
	c-0.84-1.707-2.043-2.617-2.184-2.617c-0.086,0-0.141,0.054-0.141,0.14c0,0.043,0,0.071,0.266,0.321
	c1.371,1.386,2.156,3.597,2.156,6.496c0,2.382-0.504,4.832-2.238,6.582c-0.184,0.168-0.184,0.195-0.184,0.238
	c0,0.082,0.055,0.141,0.141,0.141c0.141,0,1.398-0.954,2.227-2.719C265.176,72.945,265.344,71.402,265.344,70.227z"/>
<line fill="none" stroke="#000000" stroke-width="0.8" stroke-linecap="round" x1="186.957" y1="20.641" x2="191.871" y2="38.98"/>
<path fill-rule="evenodd" clip-rule="evenodd" d="M192.66,34.438l-0.508,5.566l-3.218-4.566
	C190.25,35.949,191.754,35.543,192.66,34.438z"/>
<path d="M185.035,8.981V8.844l-0.012-0.031V8.731l-0.015-0.055l-0.016-0.059l-0.012-0.054l-0.015-0.055l-0.012-0.043l-0.015-0.043
	l-0.012-0.043L184.91,8.34l-0.027-0.031l-0.016-0.039l-0.027-0.032l-0.016-0.027l-0.054-0.055l-0.012-0.015l-0.031-0.028
	l-0.028-0.011l-0.054-0.032l-0.028-0.011l-0.015-0.016l-0.028-0.012h-0.027l-0.027-0.015h-0.043L184.449,8h-0.027
	c-0.352,0-0.688,0.367-0.688,0.676c0,0.18,0.071,0.266,0.223,0.418c0.297,0.281,0.477,0.644,0.477,1.133
	c0,0.59-0.856,3.781-2.477,3.781c-0.715,0-1.035-0.488-1.035-1.219c0-0.781,0.375-1.793,0.808-2.937
	c0.098-0.239,0.168-0.438,0.168-0.703c0-0.629-0.445-1.149-1.144-1.149c-1.305,0-1.836,2.02-1.836,2.145
	c0,0.14,0.141,0.14,0.168,0.14c0.141,0,0.152-0.027,0.223-0.254c0.406-1.398,0.996-1.722,1.402-1.722c0.109,0,0.348,0,0.348,0.449
	c0,0.351-0.137,0.726-0.239,0.98c-0.601,1.61-0.781,2.254-0.781,2.84c0,1.516,1.219,1.723,1.859,1.723
	C184.238,14.301,185.035,9.711,185.035,8.981z"/>
<path d="M190.383,17.492v-0.039l-0.012-0.015v-0.012h-0.016V17.41l-0.011-0.015v-0.012h-0.016v-0.016h-0.016v-0.011h-0.011V17.34
	l-0.043-0.043l-0.016-0.012l-0.012-0.015l-0.015-0.012v-0.016h-0.012l-0.015-0.015v-0.012h-0.012l-0.016-0.016l-0.015-0.011
	c-1.735-1.75-2.184-4.383-2.184-6.512c0-2.422,0.531-4.844,2.242-6.578c0.18-0.168,0.18-0.199,0.18-0.239
	c0-0.097-0.055-0.14-0.141-0.14c-0.137,0-1.383,0.949-2.211,2.715c-0.715,1.527-0.883,3.082-0.883,4.242
	c0,1.094,0.157,2.773,0.926,4.34c0.84,1.707,2.031,2.617,2.168,2.617C190.328,17.633,190.383,17.594,190.383,17.492z"/>
<path d="M194.066,8.59h1.317c0.277,0,0.418,0,0.418-0.281c0-0.153-0.141-0.153-0.391-0.153h-1.23
	c0.504-1.972,0.574-2.254,0.574-2.339c0-0.223-0.168-0.364-0.406-0.364c-0.043,0-0.438,0.016-0.563,0.492l-0.531,2.211h-1.316
	c-0.282,0-0.418,0-0.418,0.266c0,0.168,0.109,0.168,0.39,0.168h1.231c-1.008,3.949-1.063,4.187-1.063,4.437
	c0,0.758,0.531,1.274,1.289,1.274c1.414,0,2.211-2.027,2.211-2.141c0-0.14-0.113-0.14-0.168-0.14c-0.125,0-0.14,0.054-0.211,0.195
	c-0.601,1.457-1.344,1.793-1.82,1.793c-0.277,0-0.418-0.184-0.418-0.645c0-0.336,0.027-0.433,0.082-0.671L194.066,8.59z"/>
<path d="M200.27,10.676v-0.098l-0.016-0.113v-0.223l-0.016-0.238l-0.011-0.238l-0.028-0.25l-0.027-0.27l-0.031-0.277l-0.11-0.563
	l-0.058-0.293l-0.082-0.293l-0.086-0.293l-0.098-0.296l-0.098-0.293l-0.07-0.153l-0.055-0.156l-0.07-0.141l-0.07-0.152
	c-0.84-1.707-2.032-2.617-2.168-2.617c-0.086,0-0.141,0.055-0.141,0.14c0,0.04,0,0.071,0.266,0.321
	c1.355,1.387,2.156,3.597,2.156,6.496c0,2.379-0.519,4.832-2.242,6.582c-0.18,0.168-0.18,0.195-0.18,0.234
	c0,0.086,0.055,0.141,0.141,0.141c0.136,0,1.383-0.949,2.211-2.715C200.102,13.391,200.27,11.852,200.27,10.676z"/>
<path d="M44.238,5.488v-0.14L44.223,5.32V5.234L44.211,5.18l-0.016-0.055L44.18,5.067l-0.012-0.055l-0.016-0.043L44.141,4.93
	l-0.032-0.086l-0.027-0.027L44.07,4.774l-0.027-0.028l-0.016-0.027L43.93,4.621l-0.028-0.015l-0.027-0.012l-0.031-0.016
	l-0.028-0.015l-0.011-0.012l-0.032-0.016h-0.027l-0.027-0.011h-0.043l-0.028-0.016h-0.027c-0.351,0-0.687,0.363-0.687,0.672
	c0,0.183,0.07,0.265,0.226,0.422c0.293,0.277,0.477,0.644,0.477,1.132c0,0.59-0.856,3.782-2.481,3.782
	c-0.715,0-1.035-0.492-1.035-1.219c0-0.785,0.379-1.793,0.813-2.941c0.097-0.239,0.168-0.434,0.168-0.7
	c0-0.629-0.45-1.148-1.149-1.148c-1.301,0-1.832,2.016-1.832,2.141c0,0.14,0.137,0.14,0.168,0.14c0.137,0,0.152-0.027,0.223-0.25
	c0.406-1.402,0.992-1.722,1.398-1.722c0.113,0,0.352,0,0.352,0.449c0,0.347-0.141,0.726-0.239,0.98
	c-0.601,1.61-0.785,2.254-0.785,2.84c0,1.512,1.219,1.723,1.864,1.723C43.438,10.809,44.238,6.215,44.238,5.488z"/>
</svg>
