<?xml version="1.0" encoding="utf-8"?>
<!-- Generator: Adobe Illustrator 16.0.0, SVG Export Plug-In . SVG Version: 6.00 Build 0)  -->
<!DOCTYPE svg PUBLIC "-//W3C//DTD SVG 1.1//EN" "http://www.w3.org/Graphics/SVG/1.1/DTD/svg11.dtd">
<svg version="1.1" id="Layer_1" xmlns="http://www.w3.org/2000/svg" xmlns:xlink="http://www.w3.org/1999/xlink" x="0px" y="0px"
	 width="576px" height="432px" viewBox="0 0 576 432" enable-background="new 0 0 576 432" xml:space="preserve">
<g>
	<defs>
		<rect id="SVGID_1_" width="576" height="432"/>
	</defs>
	<clipPath id="SVGID_2_">
		<use xlink:href="#SVGID_1_"  overflow="visible"/>
	</clipPath>
	<rect clip-path="url(#SVGID_2_)" fill="#FFFFFF" width="576" height="432"/>
	<rect x="72" y="43.2" clip-path="url(#SVGID_2_)" fill="#FFFFFF" width="446.4" height="345.6"/>
	<g clip-path="url(#SVGID_2_)">
		<defs>
			<rect id="SVGID_3_" x="72" y="43.2" width="446.4" height="345.6"/>
		</defs>
		<clipPath id="SVGID_4_">
			<use xlink:href="#SVGID_3_"  overflow="visible"/>
		</clipPath>
		
			<polyline clip-path="url(#SVGID_4_)" fill="none" stroke="#0000FF" stroke-linecap="square" stroke-linejoin="round" stroke-miterlimit="10" points="
			72,387.418 79.16,366.638 86.273,346.672 93.339,327.495 100.358,309.083 107.332,291.417 114.186,274.653 120.925,258.75 
			127.623,243.509 134.211,229.068 140.693,215.397 147.005,202.598 153.219,190.495 159.273,179.183 165.237,168.507 
			171.051,158.554 176.718,149.287 182.246,140.67 187.637,132.674 192.896,125.268 198.029,118.424 202.979,112.188 
			207.812,106.455 212.529,101.202 217.079,96.464 221.522,92.156 225.806,88.308 229.989,84.843 234.076,81.748 238.013,79.04 
			241.859,76.662 245.617,74.599 249.287,72.838 252.82,71.386 256.271,70.204 259.693,69.266 263.036,68.582 266.301,68.139 
			269.539,67.925 272.703,67.939 275.841,68.175 278.956,68.633 282.046,69.313 285.113,70.214 288.203,71.354 291.317,72.745 
			294.408,74.369 297.521,76.254 300.702,78.444 303.903,80.921 307.124,83.696 310.41,86.821 313.757,90.316 317.165,94.202 
			320.632,98.498 324.155,103.224 327.734,108.399 331.409,114.113 335.135,120.321 338.951,127.121 342.856,134.541 
			346.806,142.525 350.878,151.27 355.03,160.722 359.26,170.906 363.602,181.952 368.013,193.789 372.53,206.549 377.149,220.267 
			381.903,235.091 386.75,250.938 391.722,267.965 396.813,286.202 402.021,305.684 407.371,326.574 412.86,348.911 418.48,372.723 
			424.26,398.186 430.19,425.332 431.826,433 		"/>
	</g>
	<g clip-path="url(#SVGID_2_)">
		<defs>
			<rect id="SVGID_5_" x="72" y="43.2" width="446.4" height="345.6"/>
		</defs>
		<clipPath id="SVGID_6_">
			<use xlink:href="#SVGID_5_"  overflow="visible"/>
		</clipPath>
		
			<polyline clip-path="url(#SVGID_6_)" fill="none" stroke="#008000" stroke-linecap="square" stroke-linejoin="round" stroke-miterlimit="10" points="
			72,387.418 82.313,370.07 92.368,353.592 102.177,337.939 111.752,323.076 121.104,308.97 130.143,295.732 138.984,283.178 
			147.539,271.41 155.915,260.264 164.029,249.835 171.893,240.085 179.517,230.98 186.914,222.489 194.091,214.58 201.06,207.226 
			207.828,200.4 214.402,194.079 220.792,188.238 227.004,182.857 233.044,177.916 238.919,173.394 244.634,169.273 
			250.196,165.536 255.609,162.167 260.878,159.148 266.008,156.466 271.004,154.106 275.869,152.054 280.607,150.297 
			285.223,148.822 289.72,147.616 294.101,146.668 298.434,145.958 302.656,145.49 306.835,145.25 310.907,145.239 314.938,145.45 
			318.93,145.883 322.882,146.538 326.795,147.414 330.671,148.511 334.509,149.827 338.37,151.389 342.195,153.176 
			346.041,155.219 349.909,157.528 353.796,160.112 357.702,162.979 361.627,166.139 365.569,169.598 369.582,173.421 
			373.609,177.568 377.704,182.108 381.811,186.995 385.979,192.304 390.211,198.054 394.5,204.262 398.846,210.946 
			403.246,218.122 407.747,225.895 412.297,234.198 416.942,243.144 421.63,252.657 426.406,262.855 431.267,273.761 
			436.208,285.396 441.272,297.899 446.409,311.18 451.66,325.38 456.975,340.399 462.394,356.383 467.911,373.354 473.565,391.47 
			479.308,410.619 485.175,430.962 485.75,433 		"/>
	</g>
	<g clip-path="url(#SVGID_2_)">
		<defs>
			<rect id="SVGID_7_" x="72" y="43.2" width="446.4" height="345.6"/>
		</defs>
		<clipPath id="SVGID_8_">
			<use xlink:href="#SVGID_7_"  overflow="visible"/>
		</clipPath>
		
			<polyline clip-path="url(#SVGID_8_)" fill="none" stroke="#FF0000" stroke-linecap="square" stroke-linejoin="round" stroke-miterlimit="10" points="
			72,387.418 85.276,374.517 97.863,362.592 109.812,351.575 121.167,341.405 132.087,331.921 142.483,323.185 152.387,315.147 
			161.939,307.678 171.16,300.748 179.958,294.409 188.463,288.552 196.688,283.155 204.647,278.197 212.353,273.66 
			219.815,269.524 226.951,265.82 233.867,262.476 240.575,259.475 247.081,256.803 253.483,254.413 259.697,252.332 
			265.729,250.547 271.587,249.044 277.276,247.812 282.885,246.824 288.336,246.09 293.632,245.6 298.858,245.338 303.939,245.305 
			308.958,245.493 313.913,245.903 318.732,246.524 323.494,247.36 328.2,248.409 332.853,249.672 337.523,251.173 342.141,252.892 
			346.705,254.828 351.288,257.016 355.82,259.425 360.37,262.096 364.937,265.037 369.519,268.258 374.115,271.766 
			378.726,275.568 383.348,279.674 387.981,284.09 392.626,288.823 397.342,293.951 402.065,299.418 406.855,305.307 
			411.65,311.553 416.507,318.246 421.424,325.404 426.396,333.04 431.424,341.17 436.503,349.808 441.63,358.967 446.858,368.767 
			452.128,379.119 457.492,390.148 462.943,401.877 468.428,414.202 473.992,427.257 476.368,433 		"/>
	</g>
	<g clip-path="url(#SVGID_2_)">
		<defs>
			<rect id="SVGID_9_" x="72" y="43.2" width="446.4" height="345.6"/>
		</defs>
		<clipPath id="SVGID_10_">
			<use xlink:href="#SVGID_9_"  overflow="visible"/>
		</clipPath>
		
			<polyline clip-path="url(#SVGID_10_)" fill="none" stroke="#00BFBF" stroke-linecap="square" stroke-linejoin="round" stroke-miterlimit="10" points="
			72,387.418 85.114,381.555 97.371,376.313 108.979,371.588 119.982,367.345 130.557,363.502 140.595,360.088 150.26,357.034 
			159.571,354.324 168.548,351.944 177.087,349.907 185.33,348.164 193.407,346.684 201.211,345.479 208.755,344.54 216.05,343.854 
			223.107,343.409 230.043,343.194 236.756,343.207 243.359,343.441 249.755,343.889 256.05,344.551 262.248,345.428 
			268.352,346.519 274.269,347.8 280.101,349.287 285.849,350.979 291.606,352.907 297.282,355.045 302.88,357.391 308.399,359.942 
			313.931,362.744 319.387,365.757 324.853,369.028 330.328,372.568 335.729,376.325 341.14,380.358 346.557,384.675 
			351.979,389.281 357.408,394.186 362.839,399.395 368.273,404.913 373.708,410.748 379.217,416.989 384.723,423.565 
			390.296,430.571 392.164,433 		"/>
	</g>
	<g clip-path="url(#SVGID_2_)">
		<defs>
			<rect id="SVGID_11_" x="72" y="43.2" width="446.4" height="345.6"/>
		</defs>
		<clipPath id="SVGID_12_">
			<use xlink:href="#SVGID_11_"  overflow="visible"/>
		</clipPath>
		
			<line clip-path="url(#SVGID_12_)" fill="none" stroke="#000000" stroke-width="0.5" stroke-linejoin="round" stroke-miterlimit="10" stroke-dasharray="1,3" x1="72" y1="388.8" x2="72" y2="43.2"/>
	</g>
	<line clip-path="url(#SVGID_2_)" x1="72" y1="388.8" x2="72" y2="384.8"/>
	
		<line clip-path="url(#SVGID_2_)" fill="none" stroke="#000000" stroke-width="0.5" stroke-linejoin="round" stroke-miterlimit="10" x1="72" y1="388.8" x2="72" y2="384.8"/>
	<line clip-path="url(#SVGID_2_)" x1="72" y1="43.2" x2="72" y2="47.2"/>
	
		<line clip-path="url(#SVGID_2_)" fill="none" stroke="#000000" stroke-width="0.5" stroke-linejoin="round" stroke-miterlimit="10" x1="72" y1="43.2" x2="72" y2="47.2"/>
	<path clip-path="url(#SVGID_2_)" d="M72.792,393.021c0.972,0,1.716,0.396,2.244,1.163c0.516,0.78,0.78,1.908,0.78,3.372
		c0,1.477-0.264,2.604-0.78,3.372c-0.528,0.769-1.272,1.152-2.244,1.152c-0.984,0-1.74-0.384-2.256-1.152
		c-0.516-0.768-0.768-1.896-0.768-3.372c0-1.464,0.252-2.592,0.768-3.372C71.053,393.417,71.809,393.021,72.792,393.021
		 M72.792,393.957c-0.612,0-1.068,0.3-1.38,0.9c-0.312,0.6-0.456,1.5-0.456,2.699c0,1.2,0.144,2.101,0.456,2.7
		c0.312,0.601,0.768,0.9,1.38,0.9c0.612,0,1.068-0.3,1.38-0.9c0.3-0.6,0.456-1.5,0.456-2.7c0-1.199-0.156-2.1-0.456-2.699
		C73.86,394.257,73.405,393.957,72.792,393.957"/>
	<g clip-path="url(#SVGID_2_)">
		<defs>
			<rect id="SVGID_13_" x="72" y="43.2" width="446.4" height="345.6"/>
		</defs>
		<clipPath id="SVGID_14_">
			<use xlink:href="#SVGID_13_"  overflow="visible"/>
		</clipPath>
		
			<line clip-path="url(#SVGID_14_)" fill="none" stroke="#000000" stroke-width="0.5" stroke-linejoin="round" stroke-miterlimit="10" stroke-dasharray="1,3" x1="153.164" y1="388.8" x2="153.164" y2="43.2"/>
	</g>
	<line clip-path="url(#SVGID_2_)" x1="153.164" y1="388.8" x2="153.164" y2="384.8"/>
	
		<line clip-path="url(#SVGID_2_)" fill="none" stroke="#000000" stroke-width="0.5" stroke-linejoin="round" stroke-miterlimit="10" x1="153.164" y1="388.8" x2="153.164" y2="384.8"/>
	<line clip-path="url(#SVGID_2_)" x1="153.164" y1="43.2" x2="153.164" y2="47.2"/>
	
		<line clip-path="url(#SVGID_2_)" fill="none" stroke="#000000" stroke-width="0.5" stroke-linejoin="round" stroke-miterlimit="10" x1="153.164" y1="43.2" x2="153.164" y2="47.2"/>
	<polyline clip-path="url(#SVGID_2_)" points="144.246,400.929 146.177,400.929 146.177,394.257 144.077,394.677 144.077,393.597 
		146.166,393.177 147.354,393.177 147.354,400.929 149.285,400.929 149.285,401.925 144.246,401.925 144.246,400.929 	"/>
	<path clip-path="url(#SVGID_2_)" d="M154.206,393.021c0.972,0,1.716,0.396,2.244,1.163c0.516,0.78,0.78,1.908,0.78,3.372
		c0,1.477-0.264,2.604-0.78,3.372c-0.528,0.769-1.272,1.152-2.244,1.152c-0.984,0-1.74-0.384-2.256-1.152
		c-0.516-0.768-0.768-1.896-0.768-3.372c0-1.464,0.252-2.592,0.768-3.372C152.465,393.417,153.221,393.021,154.206,393.021
		 M154.206,393.957c-0.612,0-1.068,0.3-1.38,0.9c-0.312,0.6-0.456,1.5-0.456,2.699c0,1.2,0.144,2.101,0.456,2.7
		c0.312,0.601,0.768,0.9,1.38,0.9c0.612,0,1.068-0.3,1.38-0.9c0.3-0.6,0.456-1.5,0.456-2.7c0-1.199-0.156-2.1-0.456-2.699
		C155.273,394.257,154.817,393.957,154.206,393.957"/>
	<path clip-path="url(#SVGID_2_)" d="M161.837,393.021c0.972,0,1.716,0.396,2.244,1.163c0.516,0.78,0.78,1.908,0.78,3.372
		c0,1.477-0.264,2.604-0.78,3.372c-0.528,0.769-1.272,1.152-2.244,1.152c-0.984,0-1.74-0.384-2.256-1.152
		c-0.516-0.768-0.768-1.896-0.768-3.372c0-1.464,0.252-2.592,0.768-3.372C160.098,393.417,160.854,393.021,161.837,393.021
		 M161.837,393.957c-0.612,0-1.068,0.3-1.38,0.9c-0.312,0.6-0.456,1.5-0.456,2.699c0,1.2,0.144,2.101,0.456,2.7
		c0.312,0.601,0.768,0.9,1.38,0.9s1.068-0.3,1.38-0.9c0.3-0.6,0.456-1.5,0.456-2.7c0-1.199-0.156-2.1-0.456-2.699
		C162.905,394.257,162.449,393.957,161.837,393.957"/>
	<g clip-path="url(#SVGID_2_)">
		<defs>
			<rect id="SVGID_15_" x="72" y="43.2" width="446.4" height="345.6"/>
		</defs>
		<clipPath id="SVGID_16_">
			<use xlink:href="#SVGID_15_"  overflow="visible"/>
		</clipPath>
		
			<line clip-path="url(#SVGID_16_)" fill="none" stroke="#000000" stroke-width="0.5" stroke-linejoin="round" stroke-miterlimit="10" stroke-dasharray="1,3" x1="234.327" y1="388.8" x2="234.327" y2="43.2"/>
	</g>
	<line clip-path="url(#SVGID_2_)" x1="234.327" y1="388.8" x2="234.327" y2="384.8"/>
	
		<line clip-path="url(#SVGID_2_)" fill="none" stroke="#000000" stroke-width="0.5" stroke-linejoin="round" stroke-miterlimit="10" x1="234.327" y1="388.8" x2="234.327" y2="384.8"/>
	<line clip-path="url(#SVGID_2_)" x1="234.327" y1="43.2" x2="234.327" y2="47.2"/>
	
		<line clip-path="url(#SVGID_2_)" fill="none" stroke="#000000" stroke-width="0.5" stroke-linejoin="round" stroke-miterlimit="10" x1="234.327" y1="43.2" x2="234.327" y2="47.2"/>
	<path clip-path="url(#SVGID_2_)" d="M226.006,400.929h4.128v0.996h-5.556v-0.996c0.444-0.456,1.056-1.08,1.836-1.872
		c0.768-0.779,1.26-1.283,1.464-1.512c0.384-0.42,0.648-0.78,0.792-1.08c0.144-0.288,0.228-0.588,0.228-0.876
		c0-0.456-0.168-0.84-0.492-1.128s-0.744-0.444-1.272-0.444c-0.372,0-0.768,0.072-1.176,0.192c-0.408,0.132-0.852,0.324-1.32,0.588
		v-1.2c0.48-0.191,0.924-0.336,1.332-0.432c0.408-0.096,0.792-0.144,1.14-0.144c0.9,0,1.62,0.228,2.16,0.684
		c0.54,0.456,0.816,1.056,0.816,1.812c0,0.36-0.072,0.708-0.204,1.021c-0.132,0.324-0.372,0.708-0.732,1.14
		c-0.096,0.12-0.408,0.444-0.936,0.984C227.686,399.201,226.954,399.957,226.006,400.929"/>
	<path clip-path="url(#SVGID_2_)" d="M235.15,393.021c0.972,0,1.716,0.396,2.244,1.163c0.516,0.78,0.78,1.908,0.78,3.372
		c0,1.477-0.264,2.604-0.78,3.372c-0.528,0.769-1.272,1.152-2.244,1.152c-0.984,0-1.74-0.384-2.256-1.152
		c-0.516-0.768-0.768-1.896-0.768-3.372c0-1.464,0.252-2.592,0.768-3.372C233.41,393.417,234.167,393.021,235.15,393.021
		 M235.15,393.957c-0.612,0-1.068,0.3-1.38,0.9c-0.312,0.6-0.456,1.5-0.456,2.699c0,1.2,0.144,2.101,0.456,2.7
		c0.312,0.601,0.768,0.9,1.38,0.9c0.612,0,1.068-0.3,1.38-0.9c0.3-0.6,0.456-1.5,0.456-2.7c0-1.199-0.156-2.1-0.456-2.699
		C236.218,394.257,235.762,393.957,235.15,393.957"/>
	<path clip-path="url(#SVGID_2_)" d="M242.782,393.021c0.972,0,1.716,0.396,2.244,1.163c0.516,0.78,0.78,1.908,0.78,3.372
		c0,1.477-0.264,2.604-0.78,3.372c-0.528,0.769-1.272,1.152-2.244,1.152c-0.984,0-1.74-0.384-2.256-1.152
		c-0.516-0.768-0.768-1.896-0.768-3.372c0-1.464,0.252-2.592,0.768-3.372C241.042,393.417,241.798,393.021,242.782,393.021
		 M242.782,393.957c-0.612,0-1.068,0.3-1.38,0.9c-0.312,0.6-0.456,1.5-0.456,2.699c0,1.2,0.144,2.101,0.456,2.7
		c0.312,0.601,0.768,0.9,1.38,0.9c0.612,0,1.068-0.3,1.38-0.9c0.3-0.6,0.456-1.5,0.456-2.7c0-1.199-0.156-2.1-0.456-2.699
		C243.85,394.257,243.395,393.957,242.782,393.957"/>
	<g clip-path="url(#SVGID_2_)">
		<defs>
			<rect id="SVGID_17_" x="72" y="43.2" width="446.4" height="345.6"/>
		</defs>
		<clipPath id="SVGID_18_">
			<use xlink:href="#SVGID_17_"  overflow="visible"/>
		</clipPath>
		
			<line clip-path="url(#SVGID_18_)" fill="none" stroke="#000000" stroke-width="0.5" stroke-linejoin="round" stroke-miterlimit="10" stroke-dasharray="1,3" x1="315.491" y1="388.8" x2="315.491" y2="43.2"/>
	</g>
	<line clip-path="url(#SVGID_2_)" x1="315.491" y1="388.8" x2="315.491" y2="384.8"/>
	
		<line clip-path="url(#SVGID_2_)" fill="none" stroke="#000000" stroke-width="0.5" stroke-linejoin="round" stroke-miterlimit="10" x1="315.491" y1="388.8" x2="315.491" y2="384.8"/>
	<line clip-path="url(#SVGID_2_)" x1="315.491" y1="43.2" x2="315.491" y2="47.2"/>
	
		<line clip-path="url(#SVGID_2_)" fill="none" stroke="#000000" stroke-width="0.5" stroke-linejoin="round" stroke-miterlimit="10" x1="315.491" y1="43.2" x2="315.491" y2="47.2"/>
	<path clip-path="url(#SVGID_2_)" d="M309.762,397.209c0.563,0.12,1.008,0.372,1.319,0.756c0.313,0.384,0.48,0.864,0.48,1.416
		c0,0.864-0.3,1.536-0.888,2.004c-0.601,0.468-1.44,0.696-2.532,0.696c-0.372,0-0.756-0.036-1.141-0.108
		c-0.384-0.06-0.792-0.168-1.199-0.312v-1.14c0.323,0.191,0.684,0.336,1.079,0.432c0.385,0.096,0.793,0.144,1.225,0.144
		c0.744,0,1.308-0.144,1.691-0.432c0.385-0.288,0.589-0.72,0.589-1.284c0-0.504-0.181-0.912-0.54-1.2
		c-0.36-0.288-0.864-0.443-1.513-0.443h-1.02v-0.973h1.067c0.576,0,1.021-0.107,1.332-0.348c0.313-0.228,0.469-0.564,0.469-1.008
		c0-0.444-0.168-0.792-0.48-1.032c-0.324-0.24-0.78-0.36-1.368-0.36c-0.323,0-0.672,0.036-1.044,0.108s-0.779,0.18-1.224,0.324
		v-1.057c0.444-0.119,0.864-0.216,1.26-0.275c0.384-0.061,0.756-0.096,1.116-0.096c0.888,0,1.596,0.203,2.124,0.611
		s0.792,0.96,0.792,1.656c0,0.479-0.145,0.888-0.42,1.224C310.661,396.849,310.266,397.089,309.762,397.209"/>
	<path clip-path="url(#SVGID_2_)" d="M316.337,393.021c0.973,0,1.717,0.396,2.244,1.163c0.517,0.78,0.78,1.908,0.78,3.372
		c0,1.477-0.264,2.604-0.78,3.372c-0.527,0.769-1.271,1.152-2.244,1.152c-0.983,0-1.739-0.384-2.256-1.152
		c-0.516-0.768-0.768-1.896-0.768-3.372c0-1.464,0.252-2.592,0.768-3.372C314.598,393.417,315.354,393.021,316.337,393.021
		 M316.337,393.957c-0.611,0-1.067,0.3-1.38,0.9c-0.312,0.6-0.456,1.5-0.456,2.699c0,1.2,0.145,2.101,0.456,2.7
		c0.313,0.601,0.769,0.9,1.38,0.9c0.612,0,1.068-0.3,1.381-0.9c0.3-0.6,0.456-1.5,0.456-2.7c0-1.199-0.156-2.1-0.456-2.699
		C317.405,394.257,316.949,393.957,316.337,393.957"/>
	<path clip-path="url(#SVGID_2_)" d="M323.97,393.021c0.972,0,1.716,0.396,2.243,1.163c0.517,0.78,0.78,1.908,0.78,3.372
		c0,1.477-0.264,2.604-0.78,3.372c-0.527,0.769-1.271,1.152-2.243,1.152c-0.984,0-1.74-0.384-2.257-1.152
		c-0.516-0.768-0.768-1.896-0.768-3.372c0-1.464,0.252-2.592,0.768-3.372C322.229,393.417,322.985,393.021,323.97,393.021
		 M323.97,393.957c-0.612,0-1.068,0.3-1.38,0.9c-0.313,0.6-0.456,1.5-0.456,2.699c0,1.2,0.144,2.101,0.456,2.7
		c0.312,0.601,0.768,0.9,1.38,0.9c0.611,0,1.067-0.3,1.38-0.9c0.3-0.6,0.456-1.5,0.456-2.7c0-1.199-0.156-2.1-0.456-2.699
		C325.037,394.257,324.581,393.957,323.97,393.957"/>
	<g clip-path="url(#SVGID_2_)">
		<defs>
			<rect id="SVGID_19_" x="72" y="43.2" width="446.4" height="345.6"/>
		</defs>
		<clipPath id="SVGID_20_">
			<use xlink:href="#SVGID_19_"  overflow="visible"/>
		</clipPath>
		
			<line clip-path="url(#SVGID_20_)" fill="none" stroke="#000000" stroke-width="0.5" stroke-linejoin="round" stroke-miterlimit="10" stroke-dasharray="1,3" x1="396.654" y1="388.8" x2="396.654" y2="43.2"/>
	</g>
	<line clip-path="url(#SVGID_2_)" x1="396.654" y1="388.8" x2="396.654" y2="384.8"/>
	
		<line clip-path="url(#SVGID_2_)" fill="none" stroke="#000000" stroke-width="0.5" stroke-linejoin="round" stroke-miterlimit="10" x1="396.654" y1="388.8" x2="396.654" y2="384.8"/>
	<line clip-path="url(#SVGID_2_)" x1="396.654" y1="43.2" x2="396.654" y2="47.2"/>
	
		<line clip-path="url(#SVGID_2_)" fill="none" stroke="#000000" stroke-width="0.5" stroke-linejoin="round" stroke-miterlimit="10" x1="396.654" y1="43.2" x2="396.654" y2="47.2"/>
	<path clip-path="url(#SVGID_2_)" d="M390.113,393.177h1.487v5.7h1.248v0.984h-1.248v2.063h-1.176v-2.063h-3.948v-1.141
		L390.113,393.177 M390.425,394.209l-2.988,4.668h2.988V394.209"/>
	<path clip-path="url(#SVGID_2_)" d="M397.337,393.021c0.972,0,1.716,0.396,2.244,1.163c0.516,0.78,0.78,1.908,0.78,3.372
		c0,1.477-0.265,2.604-0.78,3.372c-0.528,0.769-1.272,1.152-2.244,1.152c-0.984,0-1.74-0.384-2.256-1.152
		c-0.517-0.768-0.769-1.896-0.769-3.372c0-1.464,0.252-2.592,0.769-3.372C395.597,393.417,396.353,393.021,397.337,393.021
		 M397.337,393.957c-0.612,0-1.068,0.3-1.38,0.9c-0.313,0.6-0.456,1.5-0.456,2.699c0,1.2,0.144,2.101,0.456,2.7
		c0.312,0.601,0.768,0.9,1.38,0.9s1.068-0.3,1.38-0.9c0.3-0.6,0.456-1.5,0.456-2.7c0-1.199-0.156-2.1-0.456-2.699
		C398.405,394.257,397.949,393.957,397.337,393.957"/>
	<path clip-path="url(#SVGID_2_)" d="M404.969,393.021c0.973,0,1.716,0.396,2.244,1.163c0.516,0.78,0.78,1.908,0.78,3.372
		c0,1.477-0.265,2.604-0.78,3.372c-0.528,0.769-1.271,1.152-2.244,1.152c-0.983,0-1.74-0.384-2.256-1.152
		c-0.516-0.768-0.768-1.896-0.768-3.372c0-1.464,0.252-2.592,0.768-3.372C403.229,393.417,403.985,393.021,404.969,393.021
		 M404.969,393.957c-0.611,0-1.067,0.3-1.38,0.9c-0.312,0.6-0.456,1.5-0.456,2.699c0,1.2,0.145,2.101,0.456,2.7
		c0.313,0.601,0.769,0.9,1.38,0.9c0.612,0,1.068-0.3,1.38-0.9c0.301-0.6,0.456-1.5,0.456-2.7c0-1.199-0.155-2.1-0.456-2.699
		C406.037,394.257,405.581,393.957,404.969,393.957"/>
	<g clip-path="url(#SVGID_2_)">
		<defs>
			<rect id="SVGID_21_" x="72" y="43.2" width="446.4" height="345.6"/>
		</defs>
		<clipPath id="SVGID_22_">
			<use xlink:href="#SVGID_21_"  overflow="visible"/>
		</clipPath>
		
			<line clip-path="url(#SVGID_22_)" fill="none" stroke="#000000" stroke-width="0.5" stroke-linejoin="round" stroke-miterlimit="10" stroke-dasharray="1,3" x1="477.818" y1="388.8" x2="477.818" y2="43.2"/>
	</g>
	<line clip-path="url(#SVGID_2_)" x1="477.818" y1="388.8" x2="477.818" y2="384.8"/>
	
		<line clip-path="url(#SVGID_2_)" fill="none" stroke="#000000" stroke-width="0.5" stroke-linejoin="round" stroke-miterlimit="10" x1="477.818" y1="388.8" x2="477.818" y2="384.8"/>
	<line clip-path="url(#SVGID_2_)" x1="477.818" y1="43.2" x2="477.818" y2="47.2"/>
	
		<line clip-path="url(#SVGID_2_)" fill="none" stroke="#000000" stroke-width="0.5" stroke-linejoin="round" stroke-miterlimit="10" x1="477.818" y1="43.2" x2="477.818" y2="47.2"/>
	<path clip-path="url(#SVGID_2_)" d="M468.513,393.177h4.644v0.996h-3.563v2.148c0.168-0.061,0.348-0.108,0.516-0.132
		c0.168-0.024,0.349-0.049,0.517-0.049c0.972,0,1.739,0.276,2.315,0.805c0.576,0.54,0.864,1.26,0.864,2.172
		c0,0.948-0.3,1.68-0.888,2.196c-0.589,0.516-1.416,0.768-2.473,0.768c-0.372,0-0.744-0.036-1.128-0.084
		c-0.384-0.061-0.768-0.145-1.176-0.276v-1.188c0.348,0.191,0.708,0.336,1.092,0.432c0.372,0.096,0.769,0.132,1.188,0.132
		c0.672,0,1.212-0.168,1.607-0.527c0.385-0.36,0.588-0.841,0.588-1.452c0-0.601-0.203-1.08-0.588-1.44
		c-0.396-0.359-0.936-0.54-1.607-0.54c-0.313,0-0.637,0.036-0.948,0.108c-0.313,0.072-0.636,0.18-0.96,0.324V393.177"/>
	<path clip-path="url(#SVGID_2_)" d="M478.665,393.021c0.972,0,1.716,0.396,2.243,1.163c0.517,0.78,0.78,1.908,0.78,3.372
		c0,1.477-0.264,2.604-0.78,3.372c-0.527,0.769-1.271,1.152-2.243,1.152c-0.984,0-1.74-0.384-2.257-1.152
		c-0.516-0.768-0.768-1.896-0.768-3.372c0-1.464,0.252-2.592,0.768-3.372C476.925,393.417,477.681,393.021,478.665,393.021
		 M478.665,393.957c-0.612,0-1.068,0.3-1.381,0.9c-0.312,0.6-0.455,1.5-0.455,2.699c0,1.2,0.144,2.101,0.455,2.7
		c0.313,0.601,0.769,0.9,1.381,0.9c0.611,0,1.067-0.3,1.38-0.9c0.3-0.6,0.456-1.5,0.456-2.7c0-1.199-0.156-2.1-0.456-2.699
		C479.732,394.257,479.276,393.957,478.665,393.957"/>
	<path clip-path="url(#SVGID_2_)" d="M486.297,393.021c0.972,0,1.716,0.396,2.244,1.163c0.516,0.78,0.779,1.908,0.779,3.372
		c0,1.477-0.264,2.604-0.779,3.372c-0.528,0.769-1.272,1.152-2.244,1.152c-0.984,0-1.74-0.384-2.256-1.152
		c-0.517-0.768-0.769-1.896-0.769-3.372c0-1.464,0.252-2.592,0.769-3.372C484.557,393.417,485.313,393.021,486.297,393.021
		 M486.297,393.957c-0.612,0-1.068,0.3-1.38,0.9c-0.313,0.6-0.456,1.5-0.456,2.699c0,1.2,0.144,2.101,0.456,2.7
		c0.312,0.601,0.768,0.9,1.38,0.9c0.611,0,1.067-0.3,1.38-0.9c0.3-0.6,0.456-1.5,0.456-2.7c0-1.199-0.156-2.1-0.456-2.699
		C487.364,394.257,486.908,393.957,486.297,393.957"/>
	<polyline clip-path="url(#SVGID_2_)" points="224.571,409.802 225.759,409.802 225.759,413.39 230.055,413.39 230.055,409.802 
		231.243,409.802 231.243,418.55 230.055,418.55 230.055,414.386 225.759,414.386 225.759,418.55 224.571,418.55 224.571,409.802 	
		"/>
	<path clip-path="url(#SVGID_2_)" d="M236.091,411.83c0.936,0,1.668,0.312,2.208,0.912c0.528,0.611,0.804,1.452,0.804,2.532
		c0,1.079-0.276,1.92-0.804,2.52c-0.54,0.612-1.272,0.912-2.208,0.912c-0.948,0-1.692-0.3-2.22-0.912
		c-0.528-0.6-0.792-1.44-0.792-2.52c0-1.08,0.264-1.921,0.792-2.532C234.399,412.142,235.143,411.83,236.091,411.83
		 M236.091,412.742c-0.576,0-1.032,0.228-1.368,0.684s-0.504,1.068-0.504,1.849c0,0.792,0.156,1.403,0.492,1.859
		s0.792,0.672,1.38,0.672c0.576,0,1.032-0.216,1.368-0.672c0.336-0.456,0.504-1.067,0.504-1.859c0-0.769-0.168-1.393-0.504-1.849
		C237.123,412.97,236.667,412.742,236.091,412.742"/>
	<path clip-path="url(#SVGID_2_)" d="M244.695,412.994c-0.12-0.072-0.252-0.12-0.396-0.156c-0.144-0.023-0.3-0.048-0.468-0.048
		c-0.612,0-1.08,0.204-1.404,0.6c-0.336,0.396-0.492,0.96-0.492,1.704v3.456h-1.08v-6.563h1.08v1.02
		c0.216-0.396,0.516-0.696,0.876-0.888c0.36-0.192,0.804-0.288,1.332-0.288c0.072,0,0.156,0.012,0.252,0.012
		c0.084,0.012,0.18,0.024,0.3,0.048V412.994"/>
	<path clip-path="url(#SVGID_2_)" d="M245.823,409.43h1.08v1.368h-1.08V409.43 M245.823,411.986h1.08v6.563h-1.08V411.986"/>
	<polyline clip-path="url(#SVGID_2_)" points="248.691,411.986 253.815,411.986 253.815,412.97 249.759,417.686 253.815,417.686 
		253.815,418.55 248.547,418.55 248.547,417.566 252.603,412.85 248.691,412.85 248.691,411.986 	"/>
	<path clip-path="url(#SVGID_2_)" d="M258.003,411.83c0.936,0,1.668,0.312,2.208,0.912c0.528,0.611,0.804,1.452,0.804,2.532
		c0,1.079-0.276,1.92-0.804,2.52c-0.54,0.612-1.272,0.912-2.208,0.912c-0.948,0-1.692-0.3-2.22-0.912
		c-0.528-0.6-0.792-1.44-0.792-2.52c0-1.08,0.264-1.921,0.792-2.532C256.311,412.142,257.055,411.83,258.003,411.83
		 M258.003,412.742c-0.576,0-1.032,0.228-1.368,0.684s-0.504,1.068-0.504,1.849c0,0.792,0.156,1.403,0.492,1.859
		s0.792,0.672,1.38,0.672c0.576,0,1.032-0.216,1.368-0.672s0.504-1.067,0.504-1.859c0-0.769-0.168-1.393-0.504-1.849
		S258.579,412.742,258.003,412.742"/>
	<path clip-path="url(#SVGID_2_)" d="M268.263,414.59v3.96h-1.08v-3.924c0-0.624-0.132-1.08-0.372-1.392
		c-0.24-0.313-0.6-0.469-1.08-0.469c-0.588,0-1.044,0.192-1.38,0.564s-0.504,0.876-0.504,1.512v3.708h-1.08v-6.563h1.08v1.02
		c0.252-0.384,0.552-0.684,0.912-0.876c0.348-0.191,0.756-0.3,1.212-0.3c0.744,0,1.32,0.24,1.704,0.708
		C268.059,413.006,268.263,413.69,268.263,414.59"/>
	<path clip-path="url(#SVGID_2_)" d="M271.479,410.126v1.86h2.22v0.84h-2.22v3.563c0,0.54,0.072,0.889,0.216,1.032
		c0.144,0.156,0.444,0.229,0.9,0.229h1.104v0.899h-1.104c-0.84,0-1.416-0.156-1.728-0.468c-0.312-0.313-0.468-0.876-0.468-1.692
		v-3.563h-0.792v-0.84h0.792v-1.86H271.479"/>
	<path clip-path="url(#SVGID_2_)" d="M280.251,414.806v3.744h-1.08v-0.996c-0.252,0.408-0.564,0.696-0.924,0.876
		c-0.36,0.181-0.816,0.276-1.344,0.276c-0.672,0-1.212-0.18-1.608-0.552s-0.588-0.876-0.588-1.513c0-0.731,0.24-1.283,0.744-1.668
		c0.492-0.372,1.224-0.563,2.208-0.563h1.512v-0.108c0-0.492-0.168-0.876-0.492-1.151c-0.324-0.265-0.78-0.408-1.368-0.408
		c-0.384,0-0.744,0.048-1.104,0.144c-0.36,0.097-0.696,0.229-1.02,0.396v-0.996c0.384-0.145,0.768-0.264,1.14-0.336
		s0.732-0.12,1.092-0.12c0.948,0,1.656,0.252,2.124,0.744C280.011,413.066,280.251,413.81,280.251,414.806 M278.103,415.25
		c-0.876,0-1.476,0.108-1.812,0.3c-0.336,0.204-0.504,0.54-0.504,1.021c0,0.384,0.12,0.695,0.372,0.912
		c0.252,0.228,0.6,0.336,1.032,0.336c0.6,0,1.08-0.204,1.44-0.637c0.36-0.42,0.54-0.983,0.54-1.691v-0.24H278.103"/>
	<polyline clip-path="url(#SVGID_2_)" points="282.471,409.43 283.551,409.43 283.551,418.55 282.471,418.55 282.471,409.43 	"/>
	<path clip-path="url(#SVGID_2_)" d="M290.271,415.274c0,0.792,0.155,1.416,0.479,1.872c0.324,0.455,0.78,0.672,1.356,0.672
		c0.563,0,1.008-0.217,1.344-0.672c0.324-0.456,0.492-1.08,0.492-1.872s-0.168-1.404-0.492-1.86
		c-0.336-0.456-0.78-0.684-1.344-0.684c-0.576,0-1.032,0.228-1.356,0.684S290.271,414.482,290.271,415.274 M293.943,412.982v-3.553
		h1.08v9.12h-1.08v-0.983c-0.229,0.396-0.517,0.684-0.864,0.863c-0.348,0.181-0.756,0.276-1.236,0.276
		c-0.792,0-1.439-0.313-1.943-0.937c-0.504-0.623-0.744-1.464-0.744-2.495c0-1.032,0.24-1.86,0.744-2.496
		c0.504-0.624,1.151-0.948,1.943-0.948c0.48,0,0.889,0.096,1.236,0.288C293.427,412.31,293.715,412.598,293.943,412.982"/>
	<path clip-path="url(#SVGID_2_)" d="M297.243,409.43h1.08v1.368h-1.08V409.43 M297.243,411.986h1.08v6.563h-1.08V411.986"/>
	<path clip-path="url(#SVGID_2_)" d="M304.768,412.178v1.021c-0.313-0.145-0.624-0.265-0.948-0.349
		c-0.336-0.071-0.672-0.119-1.021-0.119c-0.54,0-0.947,0.084-1.212,0.252c-0.264,0.168-0.396,0.407-0.396,0.731
		c0,0.252,0.096,0.444,0.288,0.588c0.191,0.145,0.575,0.288,1.151,0.408l0.372,0.084c0.769,0.168,1.309,0.408,1.632,0.696
		c0.313,0.3,0.48,0.72,0.48,1.248c0,0.611-0.24,1.092-0.72,1.439c-0.48,0.36-1.152,0.528-1.992,0.528
		c-0.36,0-0.72-0.036-1.104-0.096c-0.384-0.061-0.779-0.156-1.199-0.301v-1.115c0.396,0.216,0.791,0.372,1.176,0.468
		c0.384,0.107,0.768,0.156,1.151,0.156c0.504,0,0.9-0.084,1.177-0.252c0.264-0.168,0.407-0.42,0.407-0.744
		c0-0.288-0.107-0.517-0.3-0.672c-0.191-0.156-0.624-0.313-1.296-0.456l-0.372-0.084c-0.672-0.145-1.164-0.36-1.452-0.648
		c-0.3-0.288-0.443-0.684-0.443-1.2c0-0.611,0.216-1.092,0.647-1.428c0.433-0.336,1.057-0.504,1.872-0.504
		c0.396,0,0.769,0.036,1.128,0.096C304.144,411.986,304.467,412.07,304.768,412.178"/>
	<path clip-path="url(#SVGID_2_)" d="M307.899,410.126v1.86h2.22v0.84h-2.22v3.563c0,0.54,0.071,0.889,0.216,1.032
		c0.144,0.156,0.443,0.229,0.899,0.229h1.104v0.899h-1.104c-0.84,0-1.416-0.156-1.728-0.468c-0.313-0.313-0.468-0.876-0.468-1.692
		v-3.563h-0.792v-0.84h0.792v-1.86H307.899"/>
	<path clip-path="url(#SVGID_2_)" d="M316.671,414.806v3.744h-1.08v-0.996c-0.252,0.408-0.563,0.696-0.924,0.876
		c-0.36,0.181-0.816,0.276-1.344,0.276c-0.672,0-1.212-0.18-1.608-0.552c-0.396-0.372-0.588-0.876-0.588-1.513
		c0-0.731,0.24-1.283,0.744-1.668c0.492-0.372,1.224-0.563,2.208-0.563h1.512v-0.108c0-0.492-0.168-0.876-0.492-1.151
		c-0.323-0.265-0.779-0.408-1.367-0.408c-0.385,0-0.744,0.048-1.104,0.144c-0.36,0.097-0.696,0.229-1.02,0.396v-0.996
		c0.384-0.145,0.768-0.264,1.14-0.336s0.732-0.12,1.092-0.12c0.948,0,1.656,0.252,2.124,0.744S316.671,413.81,316.671,414.806
		 M314.523,415.25c-0.876,0-1.477,0.108-1.813,0.3c-0.336,0.204-0.504,0.54-0.504,1.021c0,0.384,0.12,0.695,0.372,0.912
		c0.252,0.228,0.6,0.336,1.032,0.336c0.6,0,1.08-0.204,1.439-0.637c0.36-0.42,0.54-0.983,0.54-1.691v-0.24H314.523"/>
	<path clip-path="url(#SVGID_2_)" d="M324.352,414.59v3.96h-1.08v-3.924c0-0.624-0.133-1.08-0.372-1.392
		c-0.24-0.313-0.601-0.469-1.08-0.469c-0.588,0-1.044,0.192-1.38,0.564s-0.504,0.876-0.504,1.512v3.708h-1.08v-6.563h1.08v1.02
		c0.252-0.384,0.552-0.684,0.911-0.876c0.349-0.191,0.757-0.3,1.213-0.3c0.743,0,1.319,0.24,1.703,0.708
		C324.147,413.006,324.352,413.69,324.352,414.59"/>
	<path clip-path="url(#SVGID_2_)" d="M331.228,412.238v1.008c-0.313-0.168-0.612-0.288-0.925-0.372
		c-0.312-0.084-0.611-0.132-0.924-0.132c-0.695,0-1.248,0.228-1.632,0.672s-0.576,1.068-0.576,1.86c0,0.804,0.192,1.428,0.576,1.872
		c0.384,0.443,0.937,0.659,1.632,0.659c0.313,0,0.612-0.036,0.924-0.12c0.313-0.084,0.612-0.216,0.925-0.384v0.996
		c-0.313,0.145-0.624,0.252-0.937,0.313c-0.324,0.06-0.672,0.096-1.032,0.096c-0.983,0-1.775-0.3-2.352-0.924
		c-0.588-0.612-0.876-1.452-0.876-2.508c0-1.068,0.288-1.908,0.876-2.521s1.392-0.924,2.424-0.924c0.336,0,0.66,0.036,0.972,0.108
		C330.615,412.01,330.927,412.106,331.228,412.238"/>
	<path clip-path="url(#SVGID_2_)" d="M337.635,414.686c-0.012-0.588-0.18-1.056-0.491-1.416c-0.324-0.348-0.757-0.527-1.284-0.527
		c-0.601,0-1.08,0.18-1.44,0.516c-0.359,0.336-0.576,0.816-0.624,1.428H337.635 M338.715,414.998v0.528h-4.956
		c0.049,0.743,0.265,1.319,0.673,1.704c0.396,0.384,0.947,0.575,1.668,0.575c0.407,0,0.815-0.048,1.199-0.144
		c0.385-0.096,0.78-0.252,1.164-0.468v1.02c-0.384,0.168-0.779,0.3-1.188,0.372s-0.828,0.12-1.236,0.12
		c-1.056,0-1.884-0.3-2.496-0.9c-0.611-0.6-0.912-1.428-0.912-2.472c0-1.068,0.288-1.92,0.864-2.556
		c0.576-0.624,1.368-0.948,2.353-0.948c0.888,0,1.584,0.288,2.1,0.852C338.451,413.258,338.715,414.026,338.715,414.998"/>
	<polyline clip-path="url(#SVGID_2_)" points="340.755,417.062 341.991,417.062 341.991,418.07 341.031,419.93 340.275,419.93 
		340.755,418.07 340.755,417.062 	"/>
	<polyline clip-path="url(#SVGID_2_)" points="348.015,409.43 350.499,409.43 350.499,410.27 349.095,410.27 349.095,419.282 
		350.499,419.282 350.499,420.122 348.015,420.122 348.015,409.43 	"/>
	<path clip-path="url(#SVGID_2_)" d="M357.903,413.246c0.264-0.48,0.588-0.828,0.96-1.068c0.372-0.228,0.815-0.348,1.332-0.348
		c0.672,0,1.2,0.24,1.572,0.72c0.371,0.48,0.563,1.164,0.563,2.04v3.96h-1.08v-3.924c0-0.624-0.12-1.092-0.336-1.404
		c-0.228-0.3-0.563-0.456-1.02-0.456c-0.564,0-1.009,0.192-1.332,0.564c-0.324,0.372-0.48,0.876-0.48,1.512v3.708h-1.08v-3.924
		c0-0.624-0.12-1.092-0.336-1.404c-0.228-0.3-0.576-0.456-1.032-0.456c-0.552,0-0.996,0.192-1.319,0.564
		c-0.324,0.372-0.48,0.876-0.48,1.512v3.708h-1.08v-6.563h1.08v1.02c0.24-0.396,0.54-0.696,0.888-0.888
		c0.336-0.192,0.744-0.288,1.225-0.288c0.479,0,0.876,0.12,1.212,0.36C357.495,412.43,357.735,412.79,357.903,413.246"/>
	<polyline clip-path="url(#SVGID_2_)" points="366.999,409.43 366.999,420.122 364.515,420.122 364.515,419.282 365.919,419.282 
		365.919,410.27 364.515,410.27 364.515,409.43 366.999,409.43 	"/>
	<g clip-path="url(#SVGID_2_)">
		<defs>
			<rect id="SVGID_23_" x="72" y="43.2" width="446.4" height="345.6"/>
		</defs>
		<clipPath id="SVGID_24_">
			<use xlink:href="#SVGID_23_"  overflow="visible"/>
		</clipPath>
		
			<line clip-path="url(#SVGID_24_)" fill="none" stroke="#000000" stroke-width="0.5" stroke-linejoin="round" stroke-miterlimit="10" stroke-dasharray="1,3" x1="72" y1="388.8" x2="518.4" y2="388.8"/>
	</g>
	<line clip-path="url(#SVGID_2_)" x1="72" y1="388.8" x2="76" y2="388.8"/>
	
		<line clip-path="url(#SVGID_2_)" fill="none" stroke="#000000" stroke-width="0.5" stroke-linejoin="round" stroke-miterlimit="10" x1="72" y1="388.8" x2="76" y2="388.8"/>
	<line clip-path="url(#SVGID_2_)" x1="518.4" y1="388.8" x2="514.4" y2="388.8"/>
	
		<line clip-path="url(#SVGID_2_)" fill="none" stroke="#000000" stroke-width="0.5" stroke-linejoin="round" stroke-miterlimit="10" x1="518.4" y1="388.8" x2="514.4" y2="388.8"/>
	<path clip-path="url(#SVGID_2_)" d="M65.769,383.209c0.972,0,1.716,0.396,2.244,1.163c0.516,0.78,0.78,1.908,0.78,3.372
		c0,1.477-0.264,2.604-0.78,3.372c-0.528,0.769-1.272,1.152-2.244,1.152c-0.984,0-1.74-0.384-2.256-1.152
		c-0.516-0.768-0.768-1.896-0.768-3.372c0-1.464,0.252-2.592,0.768-3.372C64.029,383.604,64.785,383.209,65.769,383.209
		 M65.769,384.145c-0.612,0-1.068,0.3-1.38,0.9c-0.312,0.6-0.456,1.5-0.456,2.699c0,1.2,0.144,2.101,0.456,2.7
		c0.312,0.601,0.768,0.9,1.38,0.9c0.612,0,1.068-0.3,1.38-0.9c0.3-0.6,0.456-1.5,0.456-2.7c0-1.199-0.156-2.1-0.456-2.699
		C66.837,384.444,66.381,384.145,65.769,384.145"/>
	<g clip-path="url(#SVGID_2_)">
		<defs>
			<rect id="SVGID_25_" x="72" y="43.2" width="446.4" height="345.6"/>
		</defs>
		<clipPath id="SVGID_26_">
			<use xlink:href="#SVGID_25_"  overflow="visible"/>
		</clipPath>
		
			<line clip-path="url(#SVGID_26_)" fill="none" stroke="#000000" stroke-width="0.5" stroke-linejoin="round" stroke-miterlimit="10" stroke-dasharray="1,3" x1="72" y1="319.68" x2="518.4" y2="319.68"/>
	</g>
	<line clip-path="url(#SVGID_2_)" x1="72" y1="319.68" x2="76" y2="319.68"/>
	
		<line clip-path="url(#SVGID_2_)" fill="none" stroke="#000000" stroke-width="0.5" stroke-linejoin="round" stroke-miterlimit="10" x1="72" y1="319.68" x2="76" y2="319.68"/>
	<line clip-path="url(#SVGID_2_)" x1="518.4" y1="319.68" x2="514.4" y2="319.68"/>
	
		<line clip-path="url(#SVGID_2_)" fill="none" stroke="#000000" stroke-width="0.5" stroke-linejoin="round" stroke-miterlimit="10" x1="518.4" y1="319.68" x2="514.4" y2="319.68"/>
	<path clip-path="url(#SVGID_2_)" d="M55.733,314.244h4.644v0.996h-3.564v2.148c0.168-0.061,0.348-0.108,0.516-0.132
		c0.168-0.024,0.348-0.048,0.516-0.048c0.972,0,1.74,0.275,2.316,0.804c0.576,0.54,0.864,1.26,0.864,2.172
		c0,0.948-0.3,1.68-0.888,2.196c-0.588,0.516-1.416,0.768-2.472,0.768c-0.372,0-0.744-0.036-1.128-0.084
		c-0.384-0.06-0.768-0.144-1.176-0.276v-1.188c0.348,0.192,0.708,0.336,1.092,0.432c0.372,0.097,0.768,0.132,1.188,0.132
		c0.672,0,1.212-0.168,1.608-0.527c0.384-0.36,0.588-0.84,0.588-1.452c0-0.6-0.204-1.08-0.588-1.44
		c-0.396-0.359-0.936-0.54-1.608-0.54c-0.312,0-0.636,0.036-0.948,0.108s-0.636,0.18-0.96,0.324V314.244"/>
	<path clip-path="url(#SVGID_2_)" d="M65.886,314.089c0.972,0,1.716,0.396,2.244,1.164c0.516,0.779,0.78,1.907,0.78,3.371
		c0,1.477-0.264,2.604-0.78,3.372c-0.528,0.769-1.272,1.152-2.244,1.152c-0.984,0-1.74-0.384-2.256-1.152
		c-0.516-0.768-0.768-1.896-0.768-3.372c0-1.464,0.252-2.592,0.768-3.371C64.146,314.484,64.901,314.089,65.886,314.089
		 M65.886,315.024c-0.612,0-1.068,0.3-1.38,0.9c-0.312,0.6-0.456,1.5-0.456,2.699c0,1.2,0.144,2.101,0.456,2.7
		c0.312,0.601,0.768,0.9,1.38,0.9c0.612,0,1.068-0.3,1.38-0.9c0.3-0.6,0.456-1.5,0.456-2.7c0-1.199-0.156-2.1-0.456-2.699
		C66.954,315.324,66.498,315.024,65.886,315.024"/>
	<g clip-path="url(#SVGID_2_)">
		<defs>
			<rect id="SVGID_27_" x="72" y="43.2" width="446.4" height="345.6"/>
		</defs>
		<clipPath id="SVGID_28_">
			<use xlink:href="#SVGID_27_"  overflow="visible"/>
		</clipPath>
		
			<line clip-path="url(#SVGID_28_)" fill="none" stroke="#000000" stroke-width="0.5" stroke-linejoin="round" stroke-miterlimit="10" stroke-dasharray="1,3" x1="72" y1="250.56" x2="518.4" y2="250.56"/>
	</g>
	<line clip-path="url(#SVGID_2_)" x1="72" y1="250.56" x2="76" y2="250.56"/>
	
		<line clip-path="url(#SVGID_2_)" fill="none" stroke="#000000" stroke-width="0.5" stroke-linejoin="round" stroke-miterlimit="10" x1="72" y1="250.56" x2="76" y2="250.56"/>
	<line clip-path="url(#SVGID_2_)" x1="518.4" y1="250.56" x2="514.4" y2="250.56"/>
	
		<line clip-path="url(#SVGID_2_)" fill="none" stroke="#000000" stroke-width="0.5" stroke-linejoin="round" stroke-miterlimit="10" x1="518.4" y1="250.56" x2="514.4" y2="250.56"/>
	<polyline clip-path="url(#SVGID_2_)" points="48.675,252.877 50.607,252.877 50.607,246.204 48.507,246.624 48.507,245.545 
		50.596,245.124 51.784,245.124 51.784,252.877 53.715,252.877 53.715,253.872 48.675,253.872 48.675,252.877 	"/>
	<path clip-path="url(#SVGID_2_)" d="M58.636,244.969c0.972,0,1.716,0.396,2.244,1.164c0.516,0.779,0.78,1.907,0.78,3.372
		c0,1.476-0.264,2.604-0.78,3.372c-0.528,0.768-1.272,1.151-2.244,1.151c-0.984,0-1.74-0.384-2.256-1.151
		c-0.516-0.769-0.768-1.896-0.768-3.372c0-1.465,0.252-2.593,0.768-3.372C56.896,245.364,57.651,244.969,58.636,244.969
		 M58.636,245.904c-0.612,0-1.068,0.3-1.38,0.9c-0.312,0.6-0.456,1.5-0.456,2.7c0,1.199,0.144,2.1,0.456,2.699
		c0.312,0.601,0.768,0.9,1.38,0.9c0.612,0,1.068-0.3,1.38-0.9c0.3-0.6,0.456-1.5,0.456-2.699c0-1.2-0.156-2.101-0.456-2.7
		C59.704,246.204,59.248,245.904,58.636,245.904"/>
	<path clip-path="url(#SVGID_2_)" d="M66.268,244.969c0.972,0,1.716,0.396,2.244,1.164c0.516,0.779,0.78,1.907,0.78,3.372
		c0,1.476-0.264,2.604-0.78,3.372c-0.528,0.768-1.272,1.151-2.244,1.151c-0.984,0-1.74-0.384-2.256-1.151
		c-0.516-0.769-0.768-1.896-0.768-3.372c0-1.465,0.252-2.593,0.768-3.372C64.527,245.364,65.284,244.969,66.268,244.969
		 M66.268,245.904c-0.612,0-1.068,0.3-1.38,0.9c-0.312,0.6-0.456,1.5-0.456,2.7c0,1.199,0.144,2.1,0.456,2.699
		c0.312,0.601,0.768,0.9,1.38,0.9s1.068-0.3,1.38-0.9c0.3-0.6,0.456-1.5,0.456-2.699c0-1.2-0.156-2.101-0.456-2.7
		C67.335,246.204,66.879,245.904,66.268,245.904"/>
	<g clip-path="url(#SVGID_2_)">
		<defs>
			<rect id="SVGID_29_" x="72" y="43.2" width="446.4" height="345.6"/>
		</defs>
		<clipPath id="SVGID_30_">
			<use xlink:href="#SVGID_29_"  overflow="visible"/>
		</clipPath>
		
			<line clip-path="url(#SVGID_30_)" fill="none" stroke="#000000" stroke-width="0.5" stroke-linejoin="round" stroke-miterlimit="10" stroke-dasharray="1,3" x1="72" y1="181.44" x2="518.4" y2="181.44"/>
	</g>
	<line clip-path="url(#SVGID_2_)" x1="72" y1="181.44" x2="76" y2="181.44"/>
	
		<line clip-path="url(#SVGID_2_)" fill="none" stroke="#000000" stroke-width="0.5" stroke-linejoin="round" stroke-miterlimit="10" x1="72" y1="181.44" x2="76" y2="181.44"/>
	<line clip-path="url(#SVGID_2_)" x1="518.4" y1="181.44" x2="514.4" y2="181.44"/>
	
		<line clip-path="url(#SVGID_2_)" fill="none" stroke="#000000" stroke-width="0.5" stroke-linejoin="round" stroke-miterlimit="10" x1="518.4" y1="181.44" x2="514.4" y2="181.44"/>
	<polyline clip-path="url(#SVGID_2_)" points="48.675,183.756 50.607,183.756 50.607,177.084 48.507,177.504 48.507,176.424 
		50.596,176.004 51.784,176.004 51.784,183.756 53.715,183.756 53.715,184.752 48.675,184.752 48.675,183.756 	"/>
	<path clip-path="url(#SVGID_2_)" d="M56.116,176.004h4.644V177h-3.564v2.148c0.168-0.06,0.348-0.108,0.516-0.132
		s0.348-0.048,0.516-0.048c0.972,0,1.74,0.276,2.316,0.804c0.576,0.54,0.864,1.26,0.864,2.172c0,0.948-0.3,1.68-0.888,2.196
		s-1.416,0.768-2.472,0.768c-0.372,0-0.744-0.036-1.128-0.084c-0.384-0.06-0.768-0.144-1.176-0.276v-1.188
		c0.348,0.192,0.708,0.336,1.092,0.432c0.372,0.096,0.768,0.132,1.188,0.132c0.672,0,1.212-0.168,1.608-0.528
		c0.384-0.36,0.588-0.84,0.588-1.452c0-0.6-0.204-1.08-0.588-1.44c-0.396-0.36-0.936-0.54-1.608-0.54
		c-0.312,0-0.636,0.036-0.948,0.108c-0.312,0.072-0.636,0.18-0.96,0.324V176.004"/>
	<path clip-path="url(#SVGID_2_)" d="M66.268,175.849c0.972,0,1.716,0.396,2.244,1.164c0.516,0.78,0.78,1.908,0.78,3.372
		c0,1.476-0.264,2.604-0.78,3.372c-0.528,0.768-1.272,1.152-2.244,1.152c-0.984,0-1.74-0.384-2.256-1.152
		c-0.516-0.768-0.768-1.896-0.768-3.372c0-1.464,0.252-2.592,0.768-3.372C64.527,176.245,65.284,175.849,66.268,175.849
		 M66.268,176.785c-0.612,0-1.068,0.3-1.38,0.9s-0.456,1.5-0.456,2.7c0,1.2,0.144,2.1,0.456,2.7s0.768,0.9,1.38,0.9
		s1.068-0.3,1.38-0.9c0.3-0.6,0.456-1.5,0.456-2.7c0-1.2-0.156-2.1-0.456-2.7C67.335,177.084,66.879,176.785,66.268,176.785"/>
	<g clip-path="url(#SVGID_2_)">
		<defs>
			<rect id="SVGID_31_" x="72" y="43.2" width="446.4" height="345.6"/>
		</defs>
		<clipPath id="SVGID_32_">
			<use xlink:href="#SVGID_31_"  overflow="visible"/>
		</clipPath>
		
			<line clip-path="url(#SVGID_32_)" fill="none" stroke="#000000" stroke-width="0.5" stroke-linejoin="round" stroke-miterlimit="10" stroke-dasharray="1,3" x1="72" y1="112.32" x2="518.4" y2="112.32"/>
	</g>
	<line clip-path="url(#SVGID_2_)" x1="72" y1="112.32" x2="76" y2="112.32"/>
	
		<line clip-path="url(#SVGID_2_)" fill="none" stroke="#000000" stroke-width="0.5" stroke-linejoin="round" stroke-miterlimit="10" x1="72" y1="112.32" x2="76" y2="112.32"/>
	<line clip-path="url(#SVGID_2_)" x1="518.4" y1="112.32" x2="514.4" y2="112.32"/>
	
		<line clip-path="url(#SVGID_2_)" fill="none" stroke="#000000" stroke-width="0.5" stroke-linejoin="round" stroke-miterlimit="10" x1="518.4" y1="112.32" x2="514.4" y2="112.32"/>
	<path clip-path="url(#SVGID_2_)" d="M49.054,114.637h4.128v0.996h-5.556v-0.996c0.444-0.456,1.056-1.08,1.836-1.872
		c0.768-0.78,1.26-1.284,1.464-1.512c0.384-0.42,0.648-0.78,0.792-1.08c0.144-0.288,0.228-0.588,0.228-0.876
		c0-0.456-0.168-0.84-0.492-1.128c-0.324-0.288-0.744-0.444-1.272-0.444c-0.372,0-0.768,0.072-1.176,0.192
		c-0.408,0.132-0.852,0.324-1.32,0.588v-1.2c0.48-0.192,0.924-0.336,1.332-0.432c0.408-0.096,0.792-0.144,1.14-0.144
		c0.9,0,1.62,0.228,2.16,0.684s0.816,1.056,0.816,1.812c0,0.36-0.072,0.708-0.204,1.02c-0.132,0.324-0.372,0.708-0.732,1.14
		c-0.096,0.12-0.408,0.444-0.936,0.984C50.734,112.909,50.002,113.665,49.054,114.637"/>
	<path clip-path="url(#SVGID_2_)" d="M58.198,106.729c0.972,0,1.716,0.396,2.244,1.164c0.516,0.78,0.78,1.908,0.78,3.372
		c0,1.476-0.264,2.604-0.78,3.372c-0.528,0.768-1.272,1.152-2.244,1.152c-0.984,0-1.74-0.384-2.256-1.152
		c-0.516-0.768-0.768-1.896-0.768-3.372c0-1.464,0.252-2.592,0.768-3.372C56.458,107.125,57.214,106.729,58.198,106.729
		 M58.198,107.665c-0.612,0-1.068,0.3-1.38,0.9s-0.456,1.5-0.456,2.7c0,1.2,0.144,2.1,0.456,2.7s0.768,0.9,1.38,0.9
		c0.612,0,1.068-0.3,1.38-0.9c0.3-0.6,0.456-1.5,0.456-2.7c0-1.2-0.156-2.1-0.456-2.7C59.266,107.964,58.81,107.665,58.198,107.665"
		/>
	<path clip-path="url(#SVGID_2_)" d="M65.83,106.729c0.972,0,1.716,0.396,2.244,1.164c0.516,0.78,0.78,1.908,0.78,3.372
		c0,1.476-0.264,2.604-0.78,3.372c-0.528,0.768-1.272,1.152-2.244,1.152c-0.984,0-1.74-0.384-2.256-1.152
		c-0.516-0.768-0.768-1.896-0.768-3.372c0-1.464,0.252-2.592,0.768-3.372C64.09,107.125,64.846,106.729,65.83,106.729
		 M65.83,107.665c-0.612,0-1.068,0.3-1.38,0.9s-0.456,1.5-0.456,2.7c0,1.2,0.144,2.1,0.456,2.7s0.768,0.9,1.38,0.9
		s1.068-0.3,1.38-0.9c0.3-0.6,0.456-1.5,0.456-2.7c0-1.2-0.156-2.1-0.456-2.7C66.898,107.964,66.442,107.665,65.83,107.665"/>
	<g clip-path="url(#SVGID_2_)">
		<defs>
			<rect id="SVGID_33_" x="72" y="43.2" width="446.4" height="345.6"/>
		</defs>
		<clipPath id="SVGID_34_">
			<use xlink:href="#SVGID_33_"  overflow="visible"/>
		</clipPath>
		
			<line clip-path="url(#SVGID_34_)" fill="none" stroke="#000000" stroke-width="0.5" stroke-linejoin="round" stroke-miterlimit="10" stroke-dasharray="1,3" x1="72" y1="43.2" x2="518.4" y2="43.2"/>
	</g>
	<line clip-path="url(#SVGID_2_)" x1="72" y1="43.2" x2="76" y2="43.2"/>
	
		<line clip-path="url(#SVGID_2_)" fill="none" stroke="#000000" stroke-width="0.5" stroke-linejoin="round" stroke-miterlimit="10" x1="72" y1="43.2" x2="76" y2="43.2"/>
	<line clip-path="url(#SVGID_2_)" x1="518.4" y1="43.2" x2="514.4" y2="43.2"/>
	
		<line clip-path="url(#SVGID_2_)" fill="none" stroke="#000000" stroke-width="0.5" stroke-linejoin="round" stroke-miterlimit="10" x1="518.4" y1="43.2" x2="514.4" y2="43.2"/>
	<path clip-path="url(#SVGID_2_)" d="M49.054,45.517h4.128v0.996h-5.556v-0.996c0.444-0.456,1.056-1.08,1.836-1.872
		c0.768-0.78,1.26-1.284,1.464-1.512c0.384-0.42,0.648-0.78,0.792-1.08c0.144-0.288,0.228-0.588,0.228-0.876
		c0-0.456-0.168-0.84-0.492-1.128c-0.324-0.288-0.744-0.444-1.272-0.444c-0.372,0-0.768,0.072-1.176,0.192
		c-0.408,0.132-0.852,0.324-1.32,0.588v-1.2c0.48-0.192,0.924-0.336,1.332-0.432c0.408-0.096,0.792-0.144,1.14-0.144
		c0.9,0,1.62,0.228,2.16,0.684s0.816,1.056,0.816,1.812c0,0.36-0.072,0.708-0.204,1.02c-0.132,0.324-0.372,0.708-0.732,1.14
		c-0.096,0.12-0.408,0.444-0.936,0.984C50.734,43.789,50.002,44.544,49.054,45.517"/>
	<path clip-path="url(#SVGID_2_)" d="M55.678,37.765h4.644v0.996h-3.564v2.148c0.168-0.06,0.348-0.108,0.516-0.132
		s0.348-0.048,0.516-0.048c0.972,0,1.74,0.276,2.316,0.804c0.576,0.54,0.864,1.26,0.864,2.172c0,0.948-0.3,1.68-0.888,2.196
		c-0.588,0.516-1.416,0.768-2.472,0.768c-0.372,0-0.744-0.036-1.128-0.084c-0.384-0.06-0.768-0.144-1.176-0.276v-1.188
		c0.348,0.192,0.708,0.336,1.092,0.432c0.372,0.096,0.768,0.132,1.188,0.132c0.672,0,1.212-0.168,1.608-0.528
		c0.384-0.36,0.588-0.84,0.588-1.452c0-0.6-0.204-1.08-0.588-1.44c-0.396-0.36-0.936-0.54-1.608-0.54
		c-0.312,0-0.636,0.036-0.948,0.108s-0.636,0.18-0.96,0.324V37.765"/>
	<path clip-path="url(#SVGID_2_)" d="M65.83,37.608c0.972,0,1.716,0.396,2.244,1.164c0.516,0.78,0.78,1.908,0.78,3.372
		c0,1.476-0.264,2.604-0.78,3.372c-0.528,0.768-1.272,1.152-2.244,1.152c-0.984,0-1.74-0.384-2.256-1.152
		c-0.516-0.768-0.768-1.896-0.768-3.372c0-1.464,0.252-2.592,0.768-3.372C64.09,38.004,64.846,37.608,65.83,37.608 M65.83,38.544
		c-0.612,0-1.068,0.3-1.38,0.9c-0.312,0.6-0.456,1.5-0.456,2.7s0.144,2.1,0.456,2.7c0.312,0.6,0.768,0.9,1.38,0.9
		s1.068-0.3,1.38-0.9c0.3-0.6,0.456-1.5,0.456-2.7s-0.156-2.1-0.456-2.7C66.898,38.845,66.442,38.544,65.83,38.544"/>
	<polyline clip-path="url(#SVGID_2_)" points="39.25,276.217 30.502,279.553 30.502,278.316 37.87,275.545 30.502,272.772 
		30.502,271.536 39.25,274.872 39.25,276.217 	"/>
	<path clip-path="url(#SVGID_2_)" d="M35.386,265.776c-0.588,0.012-1.056,0.18-1.416,0.492c-0.348,0.324-0.528,0.756-0.528,1.284
		c0,0.6,0.18,1.08,0.516,1.439c0.336,0.36,0.816,0.576,1.428,0.624V265.776 M35.698,264.696h0.528v4.956
		c0.744-0.048,1.32-0.264,1.704-0.672c0.384-0.396,0.576-0.948,0.576-1.668c0-0.408-0.048-0.816-0.144-1.2
		c-0.096-0.384-0.252-0.78-0.468-1.164h1.02c0.168,0.384,0.3,0.78,0.372,1.188c0.072,0.407,0.12,0.828,0.12,1.235
		c0,1.057-0.3,1.885-0.9,2.496c-0.6,0.612-1.428,0.912-2.472,0.912c-1.068,0-1.92-0.288-2.556-0.864
		c-0.624-0.575-0.948-1.367-0.948-2.352c0-0.888,0.288-1.584,0.852-2.1C33.958,264.96,34.726,264.696,35.698,264.696"/>
	<path clip-path="url(#SVGID_2_)" d="M33.694,259.128c-0.072,0.12-0.12,0.252-0.156,0.396c-0.024,0.144-0.048,0.3-0.048,0.468
		c0,0.612,0.204,1.08,0.6,1.404c0.396,0.336,0.96,0.492,1.704,0.492h3.456v1.08h-6.564v-1.08h1.02
		c-0.396-0.217-0.696-0.517-0.888-0.876c-0.192-0.36-0.288-0.805-0.288-1.332c0-0.072,0.012-0.156,0.012-0.252
		c0.012-0.084,0.024-0.181,0.048-0.301H33.694"/>
	<path clip-path="url(#SVGID_2_)" d="M30.826,256.933h1.86v-2.221h0.84v2.221h3.564c0.54,0,0.888-0.072,1.032-0.216
		c0.156-0.145,0.228-0.444,0.228-0.9v-1.104h0.9v1.104c0,0.84-0.156,1.416-0.468,1.728c-0.312,0.313-0.876,0.469-1.692,0.469h-3.564
		v0.792h-0.84v-0.792h-1.86V256.933"/>
	<path clip-path="url(#SVGID_2_)" d="M30.13,253.296v-1.079h1.368v1.079H30.13 M32.686,253.296v-1.079h6.564v1.079H32.686"/>
	<path clip-path="url(#SVGID_2_)" d="M32.938,245.232h1.008c-0.168,0.312-0.288,0.612-0.372,0.924
		c-0.084,0.313-0.132,0.612-0.132,0.924c0,0.696,0.228,1.248,0.672,1.632c0.444,0.385,1.068,0.576,1.86,0.576
		c0.804,0,1.428-0.191,1.872-0.576c0.444-0.384,0.66-0.936,0.66-1.632c0-0.312-0.036-0.611-0.12-0.924
		c-0.084-0.312-0.216-0.612-0.384-0.924h0.996c0.144,0.312,0.252,0.624,0.312,0.936c0.06,0.324,0.096,0.673,0.096,1.032
		c0,0.984-0.3,1.776-0.924,2.353c-0.612,0.588-1.452,0.876-2.508,0.876c-1.068,0-1.908-0.288-2.52-0.876
		c-0.612-0.588-0.924-1.393-0.924-2.425c0-0.336,0.036-0.659,0.108-0.972C32.71,245.845,32.806,245.532,32.938,245.232"/>
	<path clip-path="url(#SVGID_2_)" d="M35.506,238.225h3.744v1.08h-0.996c0.408,0.252,0.696,0.563,0.876,0.924
		c0.18,0.359,0.276,0.815,0.276,1.344c0,0.672-0.18,1.212-0.552,1.608c-0.372,0.396-0.876,0.588-1.512,0.588
		c-0.732,0-1.284-0.24-1.668-0.744c-0.372-0.492-0.564-1.224-0.564-2.208v-1.512h-0.108c-0.492,0-0.876,0.168-1.152,0.491
		c-0.264,0.324-0.408,0.78-0.408,1.368c0,0.385,0.048,0.744,0.144,1.104c0.096,0.359,0.228,0.695,0.396,1.02h-0.996
		c-0.144-0.384-0.264-0.768-0.336-1.14c-0.072-0.372-0.12-0.732-0.12-1.092c0-0.948,0.252-1.656,0.744-2.124
		C33.766,238.464,34.51,238.225,35.506,238.225 M35.95,240.372c0,0.876,0.108,1.477,0.3,1.813c0.204,0.336,0.54,0.504,1.02,0.504
		c0.384,0,0.696-0.12,0.912-0.372c0.228-0.252,0.336-0.6,0.336-1.032c0-0.6-0.204-1.08-0.636-1.439
		c-0.42-0.36-0.984-0.54-1.692-0.54h-0.24V240.372"/>
	<polyline clip-path="url(#SVGID_2_)" points="30.13,236.004 30.13,234.924 39.25,234.924 39.25,236.004 30.13,236.004 	"/>
	<path clip-path="url(#SVGID_2_)" d="M35.974,228.204c0.792,0,1.416-0.155,1.872-0.479c0.456-0.324,0.672-0.78,0.672-1.356
		c0-0.563-0.216-1.008-0.672-1.344c-0.456-0.324-1.08-0.492-1.872-0.492s-1.404,0.168-1.86,0.492
		c-0.456,0.336-0.684,0.78-0.684,1.344c0,0.576,0.228,1.032,0.684,1.356C34.57,228.049,35.182,228.204,35.974,228.204
		 M33.682,224.532H30.13v-1.08h9.12v1.08h-0.984c0.396,0.229,0.684,0.517,0.864,0.864c0.18,0.348,0.276,0.756,0.276,1.236
		c0,0.792-0.312,1.439-0.936,1.943s-1.464,0.744-2.496,0.744c-1.032,0-1.86-0.24-2.496-0.744c-0.624-0.504-0.948-1.151-0.948-1.943
		c0-0.48,0.096-0.889,0.288-1.236S33.298,224.761,33.682,224.532"/>
	<path clip-path="url(#SVGID_2_)" d="M30.13,221.232v-1.08h1.368v1.08H30.13 M32.686,221.232v-1.08h6.564v1.08H32.686"/>
	<path clip-path="url(#SVGID_2_)" d="M32.878,213.708h1.02c-0.144,0.312-0.264,0.624-0.348,0.948c-0.072,0.336-0.12,0.672-0.12,1.02
		c0,0.54,0.084,0.948,0.252,1.212c0.168,0.264,0.408,0.396,0.732,0.396c0.252,0,0.444-0.096,0.588-0.288
		c0.144-0.192,0.288-0.576,0.408-1.152l0.084-0.372c0.168-0.768,0.408-1.308,0.696-1.632c0.3-0.312,0.72-0.48,1.248-0.48
		c0.612,0,1.092,0.24,1.44,0.72c0.36,0.48,0.528,1.152,0.528,1.992c0,0.36-0.036,0.72-0.096,1.104
		c-0.06,0.384-0.156,0.779-0.3,1.199h-1.116c0.216-0.396,0.372-0.792,0.468-1.176c0.108-0.384,0.156-0.768,0.156-1.152
		c0-0.504-0.084-0.9-0.252-1.176c-0.168-0.264-0.42-0.408-0.744-0.408c-0.288,0-0.516,0.108-0.672,0.3
		c-0.156,0.192-0.312,0.624-0.456,1.296l-0.084,0.372c-0.144,0.672-0.36,1.164-0.648,1.452c-0.288,0.3-0.684,0.443-1.2,0.443
		c-0.612,0-1.092-0.216-1.428-0.647c-0.336-0.433-0.504-1.056-0.504-1.872c0-0.396,0.036-0.768,0.096-1.128
		C32.686,214.333,32.77,214.008,32.878,213.708"/>
	<path clip-path="url(#SVGID_2_)" d="M30.826,210.577h1.86v-2.22h0.84v2.22h3.564c0.54,0,0.888-0.072,1.032-0.216
		c0.156-0.144,0.228-0.444,0.228-0.9v-1.104h0.9v1.104c0,0.84-0.156,1.416-0.468,1.728s-0.876,0.468-1.692,0.468h-3.564v0.792h-0.84
		v-0.792h-1.86V210.577"/>
	<path clip-path="url(#SVGID_2_)" d="M35.506,201.805h3.744v1.08h-0.996c0.408,0.252,0.696,0.564,0.876,0.924
		c0.18,0.36,0.276,0.816,0.276,1.344c0,0.672-0.18,1.212-0.552,1.608s-0.876,0.588-1.512,0.588c-0.732,0-1.284-0.24-1.668-0.744
		c-0.372-0.492-0.564-1.224-0.564-2.208v-1.512h-0.108c-0.492,0-0.876,0.168-1.152,0.492c-0.264,0.324-0.408,0.78-0.408,1.368
		c0,0.384,0.048,0.744,0.144,1.104c0.096,0.36,0.228,0.696,0.396,1.02h-0.996c-0.144-0.384-0.264-0.768-0.336-1.14
		c-0.072-0.372-0.12-0.732-0.12-1.092c0-0.948,0.252-1.656,0.744-2.124C33.766,202.044,34.51,201.805,35.506,201.805 M35.95,203.953
		c0,0.876,0.108,1.476,0.3,1.812c0.204,0.336,0.54,0.504,1.02,0.504c0.384,0,0.696-0.12,0.912-0.372
		c0.228-0.252,0.336-0.6,0.336-1.032c0-0.6-0.204-1.08-0.636-1.44c-0.42-0.36-0.984-0.54-1.692-0.54h-0.24V203.953"/>
	<path clip-path="url(#SVGID_2_)" d="M35.29,194.125h3.96v1.08h-3.924c-0.624,0-1.08,0.132-1.392,0.372
		c-0.312,0.24-0.468,0.6-0.468,1.08c0,0.588,0.192,1.044,0.564,1.38c0.372,0.336,0.876,0.504,1.512,0.504h3.708v1.08h-6.564v-1.08
		h1.02c-0.384-0.252-0.684-0.552-0.876-0.912c-0.192-0.348-0.3-0.756-0.3-1.212c0-0.744,0.24-1.32,0.708-1.704
		C33.706,194.329,34.39,194.125,35.29,194.125"/>
	<path clip-path="url(#SVGID_2_)" d="M32.938,187.249h1.008c-0.168,0.312-0.288,0.612-0.372,0.924s-0.132,0.612-0.132,0.924
		c0,0.696,0.228,1.248,0.672,1.632c0.444,0.384,1.068,0.576,1.86,0.576c0.804,0,1.428-0.192,1.872-0.576
		c0.444-0.384,0.66-0.936,0.66-1.632c0-0.312-0.036-0.612-0.12-0.924c-0.084-0.312-0.216-0.612-0.384-0.924h0.996
		c0.144,0.312,0.252,0.624,0.312,0.936c0.06,0.324,0.096,0.672,0.096,1.032c0,0.984-0.3,1.776-0.924,2.352
		c-0.612,0.588-1.452,0.876-2.508,0.876c-1.068,0-1.908-0.288-2.52-0.876c-0.612-0.588-0.924-1.392-0.924-2.424
		c0-0.336,0.036-0.66,0.108-0.972C32.71,187.86,32.806,187.548,32.938,187.249"/>
	<path clip-path="url(#SVGID_2_)" d="M35.386,180.84c-0.588,0.012-1.056,0.18-1.416,0.492c-0.348,0.324-0.528,0.756-0.528,1.284
		c0,0.6,0.18,1.08,0.516,1.44c0.336,0.36,0.816,0.576,1.428,0.624V180.84 M35.698,179.76h0.528v4.956
		c0.744-0.048,1.32-0.264,1.704-0.672c0.384-0.396,0.576-0.948,0.576-1.668c0-0.408-0.048-0.816-0.144-1.2
		c-0.096-0.384-0.252-0.78-0.468-1.164h1.02c0.168,0.384,0.3,0.78,0.372,1.188c0.072,0.408,0.12,0.828,0.12,1.236
		c0,1.056-0.3,1.884-0.9,2.496c-0.6,0.612-1.428,0.912-2.472,0.912c-1.068,0-1.92-0.288-2.556-0.864
		c-0.624-0.576-0.948-1.368-0.948-2.352c0-0.888,0.288-1.584,0.852-2.1C33.958,180.024,34.726,179.76,35.698,179.76"/>
	<polyline clip-path="url(#SVGID_2_)" points="37.762,177.72 37.762,176.484 38.77,176.484 40.63,177.444 40.63,178.2 38.77,177.72 
		37.762,177.72 	"/>
	<polyline clip-path="url(#SVGID_2_)" points="30.13,170.46 30.13,167.977 30.97,167.977 30.97,169.38 39.982,169.38 
		39.982,167.977 40.822,167.977 40.822,170.46 30.13,170.46 	"/>
	<path clip-path="url(#SVGID_2_)" d="M33.946,160.572c-0.48-0.264-0.828-0.588-1.068-0.96c-0.228-0.372-0.348-0.816-0.348-1.332
		c0-0.672,0.24-1.2,0.72-1.572s1.164-0.564,2.04-0.564h3.96v1.08h-3.924c-0.624,0-1.092,0.12-1.404,0.336
		c-0.3,0.228-0.456,0.564-0.456,1.02c0,0.564,0.192,1.008,0.564,1.332c0.372,0.324,0.876,0.48,1.512,0.48h3.708v1.08h-3.924
		c-0.624,0-1.092,0.12-1.404,0.336c-0.3,0.228-0.456,0.576-0.456,1.032c0,0.552,0.192,0.996,0.564,1.32
		c0.372,0.324,0.876,0.48,1.512,0.48h3.708v1.08h-6.564v-1.08h1.02c-0.396-0.24-0.696-0.54-0.888-0.888
		c-0.192-0.336-0.288-0.744-0.288-1.224s0.12-0.876,0.36-1.212C33.13,160.98,33.49,160.74,33.946,160.572"/>
	<polyline clip-path="url(#SVGID_2_)" points="30.13,151.477 40.822,151.477 40.822,153.96 39.982,153.96 39.982,152.557 
		30.97,152.557 30.97,153.96 30.13,153.96 30.13,151.477 	"/>
	
		<line clip-path="url(#SVGID_2_)" fill="none" stroke="#000000" stroke-linejoin="round" stroke-miterlimit="10" x1="72" y1="43.2" x2="518.4" y2="43.2"/>
	
		<line clip-path="url(#SVGID_2_)" fill="none" stroke="#000000" stroke-linejoin="round" stroke-miterlimit="10" x1="518.4" y1="388.8" x2="518.4" y2="43.2"/>
	
		<line clip-path="url(#SVGID_2_)" fill="none" stroke="#000000" stroke-linejoin="round" stroke-miterlimit="10" x1="72" y1="388.8" x2="518.4" y2="388.8"/>
	
		<line clip-path="url(#SVGID_2_)" fill="none" stroke="#000000" stroke-linejoin="round" stroke-miterlimit="10" x1="72" y1="388.8" x2="72" y2="43.2"/>
	<polyline clip-path="url(#SVGID_2_)" points="184.171,27.703 193.042,27.703 193.042,28.897 189.312,28.897 189.312,38.2 
		187.886,38.2 187.886,28.897 184.171,28.897 184.171,27.703 	"/>
	<path clip-path="url(#SVGID_2_)" d="M198.917,31.533c-0.144-0.086-0.302-0.144-0.475-0.187c-0.173-0.029-0.36-0.058-0.562-0.058
		c-0.734,0-1.296,0.245-1.685,0.72c-0.403,0.476-0.591,1.152-0.591,2.045V38.2h-1.296v-7.877h1.296v1.224
		c0.259-0.475,0.62-0.835,1.051-1.066c0.432-0.23,0.965-0.345,1.599-0.345c0.086,0,0.187,0.014,0.302,0.014
		c0.101,0.015,0.216,0.029,0.36,0.058V31.533"/>
	<path clip-path="url(#SVGID_2_)" d="M206.434,33.707V38.2h-1.296v-1.195c-0.302,0.49-0.677,0.835-1.108,1.051
		c-0.432,0.216-0.979,0.331-1.613,0.331c-0.807,0-1.455-0.216-1.93-0.663c-0.475-0.446-0.706-1.051-0.706-1.814
		c0-0.878,0.288-1.541,0.893-2.001c0.59-0.446,1.469-0.677,2.65-0.677h1.814v-0.129c0-0.59-0.201-1.051-0.59-1.382
		c-0.389-0.317-0.936-0.49-1.642-0.49c-0.46,0-0.893,0.058-1.325,0.173s-0.835,0.273-1.224,0.475v-1.195
		c0.461-0.173,0.922-0.317,1.368-0.403s0.878-0.144,1.311-0.144c1.138,0,1.987,0.302,2.549,0.893S206.434,32.512,206.434,33.707
		 M203.856,34.24c-1.051,0-1.771,0.129-2.174,0.36c-0.403,0.245-0.605,0.648-0.605,1.224c0,0.46,0.144,0.835,0.446,1.094
		c0.302,0.273,0.72,0.403,1.238,0.403c0.72,0,1.296-0.245,1.728-0.763c0.432-0.504,0.648-1.181,0.648-2.031V34.24H203.856"/>
	<path clip-path="url(#SVGID_2_)" d="M209.098,27.256h1.296v1.642h-1.296V27.256 M209.098,30.323h1.296v8.006
		c0,0.994-0.202,1.713-0.576,2.174c-0.389,0.446-1.008,0.677-1.843,0.677h-0.475v-1.094h0.331c0.49,0,0.821-0.115,0.994-0.346
		s0.274-0.706,0.274-1.411V30.323"/>
	<path clip-path="url(#SVGID_2_)" d="M218.544,33.563c-0.015-0.706-0.216-1.267-0.59-1.699c-0.389-0.418-0.907-0.634-1.541-0.634
		c-0.72,0-1.296,0.216-1.728,0.619c-0.432,0.403-0.691,0.979-0.749,1.713H218.544 M219.84,33.938v0.634h-5.947
		c0.058,0.893,0.317,1.584,0.807,2.045c0.475,0.46,1.138,0.691,2.001,0.691c0.49,0,0.979-0.058,1.44-0.173s0.936-0.302,1.397-0.562
		v1.224c-0.461,0.202-0.936,0.36-1.426,0.446s-0.994,0.144-1.483,0.144c-1.268,0-2.261-0.36-2.996-1.08
		c-0.734-0.72-1.094-1.713-1.094-2.966c0-1.282,0.346-2.304,1.037-3.067c0.691-0.749,1.642-1.137,2.823-1.137
		c1.065,0,1.901,0.345,2.52,1.022C219.523,31.85,219.84,32.771,219.84,33.938"/>
	<path clip-path="url(#SVGID_2_)" d="M227.63,30.625v1.209c-0.375-0.201-0.734-0.345-1.109-0.446
		c-0.375-0.101-0.734-0.158-1.109-0.158c-0.835,0-1.498,0.273-1.958,0.806c-0.461,0.533-0.691,1.282-0.691,2.232
		c0,0.965,0.23,1.714,0.691,2.247c0.46,0.533,1.123,0.792,1.958,0.792c0.375,0,0.734-0.043,1.109-0.144
		c0.375-0.101,0.734-0.259,1.109-0.46v1.195c-0.375,0.173-0.749,0.303-1.123,0.375c-0.389,0.072-0.807,0.115-1.239,0.115
		c-1.181,0-2.131-0.36-2.822-1.109c-0.706-0.734-1.051-1.742-1.051-3.01c0-1.281,0.346-2.29,1.051-3.024s1.67-1.108,2.909-1.108
		c0.403,0,0.792,0.043,1.167,0.129S227.271,30.467,227.63,30.625"/>
	<path clip-path="url(#SVGID_2_)" d="M231.158,28.091v2.232h2.664v1.008h-2.664v4.277c0,0.648,0.086,1.066,0.259,1.238
		c0.173,0.188,0.533,0.274,1.08,0.274h1.325v1.08h-1.325c-1.008,0-1.699-0.188-2.074-0.562c-0.374-0.374-0.562-1.051-0.562-2.03
		v-4.277h-0.95v-1.008h0.95v-2.232H231.158"/>
	<path clip-path="url(#SVGID_2_)" d="M238.574,30.136c1.124,0,2.002,0.374,2.65,1.094c0.633,0.734,0.965,1.742,0.965,3.038
		c0,1.296-0.332,2.304-0.965,3.024c-0.648,0.734-1.526,1.094-2.65,1.094c-1.137,0-2.03-0.36-2.664-1.094
		c-0.634-0.72-0.951-1.728-0.951-3.024c0-1.296,0.317-2.304,0.951-3.038C236.544,30.51,237.437,30.136,238.574,30.136
		 M238.574,31.23c-0.691,0-1.238,0.273-1.642,0.821c-0.403,0.547-0.604,1.282-0.604,2.217c0,0.951,0.187,1.685,0.59,2.232
		c0.403,0.547,0.95,0.806,1.656,0.806c0.691,0,1.239-0.259,1.642-0.806c0.403-0.547,0.605-1.282,0.605-2.232
		c0-0.921-0.202-1.67-0.605-2.217C239.813,31.504,239.266,31.23,238.574,31.23"/>
	<path clip-path="url(#SVGID_2_)" d="M248.899,31.533c-0.144-0.086-0.303-0.144-0.476-0.187c-0.173-0.029-0.36-0.058-0.562-0.058
		c-0.734,0-1.296,0.245-1.685,0.72c-0.403,0.476-0.59,1.152-0.59,2.045V38.2h-1.296v-7.877h1.296v1.224
		c0.259-0.475,0.619-0.835,1.051-1.066c0.432-0.23,0.965-0.345,1.599-0.345c0.086,0,0.187,0.014,0.302,0.014
		c0.101,0.015,0.216,0.029,0.36,0.058V31.533"/>
	<path clip-path="url(#SVGID_2_)" d="M253.536,38.92c-0.375,0.922-0.734,1.541-1.08,1.829c-0.346,0.288-0.807,0.432-1.382,0.432
		h-1.037v-1.08h0.763c0.346,0,0.619-0.086,0.821-0.259s0.418-0.562,0.663-1.195l0.23-0.576l-3.183-7.747h1.368l2.462,6.163
		l2.462-6.163h1.368L253.536,38.92"/>
	<path clip-path="url(#SVGID_2_)" d="M266.409,30.136c1.124,0,2.002,0.374,2.65,1.094c0.633,0.734,0.965,1.742,0.965,3.038
		c0,1.296-0.332,2.304-0.965,3.024c-0.648,0.734-1.526,1.094-2.65,1.094c-1.137,0-2.03-0.36-2.664-1.094
		c-0.634-0.72-0.951-1.728-0.951-3.024c0-1.296,0.317-2.304,0.951-3.038C264.379,30.51,265.272,30.136,266.409,30.136
		 M266.409,31.23c-0.691,0-1.238,0.273-1.642,0.821c-0.403,0.547-0.604,1.282-0.604,2.217c0,0.951,0.187,1.685,0.59,2.232
		c0.403,0.547,0.95,0.806,1.656,0.806c0.691,0,1.239-0.259,1.642-0.806c0.403-0.547,0.605-1.282,0.605-2.232
		c0-0.921-0.202-1.67-0.605-2.217C267.648,31.504,267.101,31.23,266.409,31.23"/>
	<path clip-path="url(#SVGID_2_)" d="M276.158,27.256v1.08h-1.238c-0.461,0-0.792,0.101-0.965,0.288
		c-0.188,0.187-0.274,0.519-0.274,1.008v0.691h2.131v1.008h-2.131V38.2h-1.296v-6.869h-1.238v-1.008h1.238v-0.547
		c0-0.864,0.202-1.512,0.605-1.915s1.051-0.605,1.944-0.605H276.158"/>
	<path clip-path="url(#SVGID_2_)" d="M287.98,33.707V38.2h-1.296v-1.195c-0.302,0.49-0.677,0.835-1.109,1.051
		c-0.432,0.216-0.979,0.331-1.613,0.331c-0.806,0-1.454-0.216-1.93-0.663c-0.475-0.446-0.706-1.051-0.706-1.814
		c0-0.878,0.288-1.541,0.893-2.001c0.59-0.446,1.469-0.677,2.649-0.677h1.814v-0.129c0-0.59-0.202-1.051-0.59-1.382
		c-0.389-0.317-0.936-0.49-1.642-0.49c-0.461,0-0.893,0.058-1.325,0.173c-0.432,0.115-0.835,0.273-1.224,0.475v-1.195
		c0.461-0.173,0.921-0.317,1.368-0.403c0.446-0.086,0.878-0.144,1.31-0.144c1.138,0,1.987,0.302,2.549,0.893
		S287.98,32.512,287.98,33.707 M285.403,34.24c-1.051,0-1.771,0.129-2.174,0.36c-0.403,0.245-0.605,0.648-0.605,1.224
		c0,0.46,0.144,0.835,0.447,1.094c0.302,0.273,0.72,0.403,1.238,0.403c0.72,0,1.296-0.245,1.728-0.763
		c0.432-0.504,0.648-1.181,0.648-2.031V34.24H285.403"/>
	<path clip-path="url(#SVGID_2_)" d="M299.213,27.256v1.08h-1.238c-0.461,0-0.793,0.101-0.965,0.288
		c-0.188,0.187-0.274,0.519-0.274,1.008v0.691h2.132v1.008h-2.132V38.2h-1.296v-6.869h-1.238v-1.008h1.238v-0.547
		c0-0.864,0.202-1.512,0.605-1.915c0.402-0.403,1.051-0.605,1.943-0.605H299.213"/>
	<path clip-path="url(#SVGID_2_)" d="M300.293,27.256h1.296v1.642h-1.296V27.256 M300.293,30.323h1.296V38.2h-1.296V30.323"/>
	<path clip-path="url(#SVGID_2_)" d="M308.86,31.533c-0.144-0.086-0.302-0.144-0.475-0.187c-0.173-0.029-0.36-0.058-0.562-0.058
		c-0.734,0-1.297,0.245-1.686,0.72c-0.403,0.476-0.59,1.152-0.59,2.045V38.2h-1.296v-7.877h1.296v1.224
		c0.259-0.475,0.619-0.835,1.051-1.066c0.433-0.23,0.965-0.345,1.599-0.345c0.086,0,0.188,0.014,0.303,0.014
		c0.101,0.015,0.216,0.029,0.359,0.058V31.533"/>
	<path clip-path="url(#SVGID_2_)" d="M315.657,33.563c-0.015-0.706-0.216-1.267-0.59-1.699c-0.39-0.418-0.907-0.634-1.541-0.634
		c-0.721,0-1.296,0.216-1.729,0.619c-0.432,0.403-0.69,0.979-0.748,1.713H315.657 M316.953,33.938v0.634h-5.947
		c0.058,0.893,0.317,1.584,0.807,2.045c0.476,0.46,1.138,0.691,2.002,0.691c0.489,0,0.979-0.058,1.439-0.173
		s0.937-0.302,1.397-0.562v1.224c-0.461,0.202-0.937,0.36-1.426,0.446c-0.49,0.086-0.994,0.144-1.483,0.144
		c-1.268,0-2.261-0.36-2.995-1.08c-0.734-0.72-1.095-1.713-1.095-2.966c0-1.282,0.346-2.304,1.037-3.067
		c0.691-0.749,1.642-1.137,2.822-1.137c1.065,0,1.9,0.345,2.52,1.022C316.637,31.85,316.953,32.771,316.953,33.938"/>
	<path clip-path="url(#SVGID_2_)" d="M319.848,34.269c0,0.951,0.188,1.699,0.576,2.247s0.936,0.807,1.627,0.807
		c0.677,0,1.21-0.259,1.613-0.807c0.389-0.547,0.59-1.296,0.59-2.247c0-0.95-0.201-1.685-0.59-2.232
		c-0.403-0.547-0.937-0.821-1.613-0.821c-0.691,0-1.238,0.274-1.627,0.821C320.035,32.584,319.848,33.318,319.848,34.269
		 M324.254,31.519v-4.263h1.296V38.2h-1.296v-1.181c-0.273,0.476-0.619,0.821-1.036,1.037c-0.418,0.216-0.907,0.331-1.483,0.331
		c-0.95,0-1.729-0.375-2.333-1.123c-0.604-0.749-0.893-1.757-0.893-2.996c0-1.238,0.288-2.232,0.893-2.995
		c0.604-0.749,1.383-1.137,2.333-1.137c0.576,0,1.065,0.115,1.483,0.345C323.635,30.712,323.98,31.058,324.254,31.519"/>
	<path clip-path="url(#SVGID_2_)" d="M338.467,30.625v1.209c-0.374-0.201-0.734-0.345-1.108-0.446
		c-0.375-0.101-0.734-0.158-1.109-0.158c-0.835,0-1.497,0.273-1.958,0.806c-0.461,0.533-0.691,1.282-0.691,2.232
		c0,0.965,0.23,1.714,0.691,2.247s1.123,0.792,1.958,0.792c0.375,0,0.734-0.043,1.109-0.144c0.374-0.101,0.734-0.259,1.108-0.46
		v1.195c-0.374,0.173-0.749,0.303-1.123,0.375c-0.389,0.072-0.807,0.115-1.238,0.115c-1.181,0-2.132-0.36-2.822-1.109
		c-0.706-0.734-1.052-1.742-1.052-3.01c0-1.281,0.346-2.29,1.052-3.024c0.705-0.734,1.67-1.108,2.908-1.108
		c0.403,0,0.792,0.043,1.167,0.129C337.732,30.352,338.106,30.467,338.467,30.625"/>
	<path clip-path="url(#SVGID_2_)" d="M346.877,33.707V38.2h-1.297v-1.195c-0.302,0.49-0.677,0.835-1.108,1.051
		c-0.432,0.216-0.979,0.331-1.612,0.331c-0.807,0-1.455-0.216-1.93-0.663c-0.476-0.446-0.706-1.051-0.706-1.814
		c0-0.878,0.288-1.541,0.893-2.001c0.591-0.446,1.469-0.677,2.649-0.677h1.814v-0.129c0-0.59-0.201-1.051-0.59-1.382
		c-0.389-0.317-0.937-0.49-1.642-0.49c-0.461,0-0.893,0.058-1.325,0.173c-0.432,0.115-0.835,0.273-1.224,0.475v-1.195
		c0.461-0.173,0.922-0.317,1.368-0.403s0.878-0.144,1.311-0.144c1.137,0,1.986,0.302,2.549,0.893
		C346.589,31.619,346.877,32.512,346.877,33.707 M344.299,34.24c-1.051,0-1.771,0.129-2.175,0.36
		c-0.402,0.245-0.604,0.648-0.604,1.224c0,0.46,0.145,0.835,0.446,1.094c0.303,0.273,0.721,0.403,1.238,0.403
		c0.721,0,1.296-0.245,1.729-0.763c0.432-0.504,0.647-1.181,0.647-2.031V34.24H344.299"/>
	<path clip-path="url(#SVGID_2_)" d="M356.093,33.448V38.2h-1.296v-4.709c0-0.749-0.158-1.296-0.446-1.67s-0.721-0.562-1.297-0.562
		c-0.705,0-1.252,0.23-1.655,0.677s-0.605,1.051-0.605,1.814v4.45h-1.296v-7.877h1.296v1.224c0.303-0.461,0.663-0.821,1.095-1.051
		c0.418-0.23,0.907-0.36,1.454-0.36c0.894,0,1.584,0.288,2.045,0.85C355.848,31.547,356.093,32.368,356.093,33.448"/>
	<path clip-path="url(#SVGID_2_)" d="M365.223,33.448V38.2h-1.297v-4.709c0-0.749-0.158-1.296-0.446-1.67s-0.72-0.562-1.296-0.562
		c-0.705,0-1.253,0.23-1.656,0.677c-0.402,0.446-0.604,1.051-0.604,1.814v4.45h-1.296v-7.877h1.296v1.224
		c0.303-0.461,0.662-0.821,1.095-1.051c0.417-0.23,0.907-0.36,1.454-0.36c0.893,0,1.584,0.288,2.045,0.85
		C364.978,31.547,365.223,32.368,365.223,33.448"/>
	<path clip-path="url(#SVGID_2_)" d="M370.853,30.136c1.123,0,2.002,0.374,2.649,1.094c0.634,0.734,0.965,1.742,0.965,3.038
		c0,1.296-0.331,2.304-0.965,3.024c-0.647,0.734-1.526,1.094-2.649,1.094c-1.138,0-2.03-0.36-2.664-1.094
		c-0.634-0.72-0.95-1.728-0.95-3.024c0-1.296,0.316-2.304,0.95-3.038C368.822,30.51,369.715,30.136,370.853,30.136 M370.853,31.23
		c-0.691,0-1.238,0.273-1.642,0.821s-0.604,1.282-0.604,2.217c0,0.951,0.187,1.685,0.59,2.232c0.403,0.547,0.951,0.806,1.656,0.806
		c0.691,0,1.238-0.259,1.642-0.806c0.403-0.547,0.604-1.282,0.604-2.232c0-0.921-0.201-1.67-0.604-2.217
		S371.544,31.23,370.853,31.23"/>
	<path clip-path="url(#SVGID_2_)" d="M383.165,33.448V38.2h-1.297v-4.709c0-0.749-0.158-1.296-0.446-1.67s-0.72-0.562-1.296-0.562
		c-0.705,0-1.253,0.23-1.655,0.677c-0.403,0.446-0.605,1.051-0.605,1.814v4.45h-1.296v-7.877h1.296v1.224
		c0.303-0.461,0.662-0.821,1.095-1.051c0.417-0.23,0.907-0.36,1.454-0.36c0.893,0,1.584,0.288,2.045,0.85
		C382.92,31.547,383.165,32.368,383.165,33.448"/>
	<path clip-path="url(#SVGID_2_)" d="M386.995,31.519c0.259-0.461,0.604-0.807,1.022-1.037s0.922-0.345,1.497-0.345
		c0.951,0,1.729,0.389,2.333,1.137c0.591,0.763,0.893,1.757,0.893,2.995c0,1.239-0.302,2.247-0.893,2.996
		c-0.604,0.749-1.382,1.123-2.333,1.123c-0.575,0-1.079-0.115-1.497-0.331c-0.418-0.216-0.764-0.562-1.022-1.037V38.2h-1.296V27.256
		h1.296V31.519 M391.401,34.269c0-0.95-0.201-1.685-0.59-2.232c-0.403-0.547-0.937-0.821-1.613-0.821
		c-0.691,0-1.224,0.274-1.612,0.821c-0.403,0.547-0.591,1.282-0.591,2.232c0,0.951,0.188,1.699,0.591,2.247
		c0.389,0.547,0.921,0.807,1.612,0.807c0.677,0,1.21-0.259,1.613-0.807C391.2,35.968,391.401,35.219,391.401,34.269"/>
	<path clip-path="url(#SVGID_2_)" d="M401.05,33.707V38.2h-1.297v-1.195c-0.302,0.49-0.677,0.835-1.108,1.051
		c-0.432,0.216-0.979,0.331-1.612,0.331c-0.807,0-1.455-0.216-1.93-0.663c-0.476-0.446-0.706-1.051-0.706-1.814
		c0-0.878,0.288-1.541,0.893-2.001c0.591-0.446,1.469-0.677,2.65-0.677h1.813v-0.129c0-0.59-0.201-1.051-0.59-1.382
		c-0.389-0.317-0.937-0.49-1.642-0.49c-0.461,0-0.893,0.058-1.325,0.173c-0.432,0.115-0.835,0.273-1.224,0.475v-1.195
		c0.461-0.173,0.922-0.317,1.368-0.403s0.878-0.144,1.311-0.144c1.138,0,1.987,0.302,2.549,0.893S401.05,32.512,401.05,33.707
		 M398.472,34.24c-1.051,0-1.771,0.129-2.174,0.36c-0.403,0.245-0.605,0.648-0.605,1.224c0,0.46,0.145,0.835,0.446,1.094
		c0.303,0.273,0.721,0.403,1.238,0.403c0.721,0,1.297-0.245,1.729-0.763c0.432-0.504,0.647-1.181,0.647-2.031V34.24H398.472"/>
	<polyline clip-path="url(#SVGID_2_)" points="403.714,27.256 405.01,27.256 405.01,38.2 403.714,38.2 403.714,27.256 	"/>
	<polyline clip-path="url(#SVGID_2_)" points="407.717,27.256 409.013,27.256 409.013,38.2 407.717,38.2 407.717,27.256 	"/>
	<rect x="408.782" y="50.4" clip-path="url(#SVGID_2_)" fill="#FFFFFF" width="102.418" height="87.308"/>
	
		<rect x="408.782" y="50.4" clip-path="url(#SVGID_2_)" fill="none" stroke="#000000" stroke-linejoin="round" stroke-miterlimit="10" width="102.418" height="87.308"/>
	
		<line clip-path="url(#SVGID_2_)" fill="none" stroke="#0000FF" stroke-linecap="square" stroke-linejoin="round" stroke-miterlimit="10" x1="418.862" y1="61.761" x2="439.021" y2="61.761"/>
	<path clip-path="url(#SVGID_2_)" d="M462.437,56.533v1.296c-0.36-0.173-0.721-0.303-1.08-0.389
		c-0.375-0.086-0.734-0.129-1.08-0.129c-0.95,0-1.671,0.317-2.16,0.95c-0.489,0.634-0.777,1.599-0.835,2.866
		c0.273-0.403,0.619-0.72,1.037-0.936c0.417-0.216,0.878-0.331,1.382-0.331c1.052,0,1.887,0.331,2.491,0.965
		c0.604,0.633,0.922,1.512,0.922,2.606c0,1.08-0.331,1.944-0.965,2.592s-1.483,0.965-2.534,0.965c-1.21,0-2.146-0.461-2.779-1.382
		c-0.648-0.922-0.965-2.275-0.965-4.046c0-1.656,0.389-2.981,1.181-3.96c0.777-0.979,1.843-1.483,3.168-1.483
		c0.346,0,0.705,0.043,1.08,0.101C461.658,56.289,462.033,56.39,462.437,56.533 M459.614,60.983c-0.634,0-1.138,0.23-1.513,0.663
		c-0.374,0.432-0.562,1.037-0.562,1.786c0,0.763,0.188,1.368,0.562,1.8c0.375,0.432,0.879,0.648,1.513,0.648
		c0.633,0,1.138-0.216,1.512-0.648s0.562-1.037,0.562-1.8c0-0.749-0.188-1.354-0.562-1.786S460.247,60.983,459.614,60.983"/>
	<path clip-path="url(#SVGID_2_)" d="M468.6,56.116c1.166,0,2.059,0.475,2.692,1.397c0.619,0.936,0.937,2.29,0.937,4.046
		c0,1.771-0.317,3.125-0.937,4.046c-0.634,0.921-1.526,1.382-2.692,1.382c-1.181,0-2.088-0.461-2.707-1.382
		c-0.619-0.922-0.922-2.275-0.922-4.046c0-1.757,0.303-3.11,0.922-4.046C466.512,56.591,467.419,56.116,468.6,56.116 M468.6,57.239
		c-0.734,0-1.281,0.36-1.656,1.08c-0.374,0.72-0.547,1.8-0.547,3.24s0.173,2.52,0.547,3.24c0.375,0.72,0.922,1.08,1.656,1.08
		s1.281-0.36,1.656-1.08c0.359-0.72,0.547-1.8,0.547-3.24s-0.188-2.52-0.547-3.24C469.881,57.599,469.334,57.239,468.6,57.239"/>
	<path clip-path="url(#SVGID_2_)" d="M479.889,62.87c0,0.95,0.188,1.699,0.576,2.246c0.389,0.547,0.937,0.807,1.627,0.807
		c0.677,0,1.21-0.259,1.613-0.807c0.389-0.547,0.59-1.296,0.59-2.246c0-0.951-0.201-1.685-0.59-2.232
		c-0.403-0.547-0.937-0.821-1.613-0.821c-0.69,0-1.238,0.274-1.627,0.821C480.076,61.185,479.889,61.919,479.889,62.87
		 M484.295,60.119v-4.263h1.297v10.944h-1.297V65.62c-0.273,0.476-0.619,0.821-1.036,1.037c-0.418,0.216-0.907,0.331-1.483,0.331
		c-0.95,0-1.728-0.375-2.333-1.123c-0.604-0.749-0.893-1.757-0.893-2.995c0-1.239,0.288-2.232,0.893-2.996
		c0.605-0.749,1.383-1.137,2.333-1.137c0.576,0,1.065,0.115,1.483,0.345C483.676,59.313,484.021,59.658,484.295,60.119"/>
	<path clip-path="url(#SVGID_2_)" d="M493.698,62.164c-0.014-0.706-0.216-1.268-0.59-1.699c-0.389-0.418-0.907-0.634-1.541-0.634
		c-0.72,0-1.296,0.216-1.729,0.619c-0.432,0.403-0.69,0.979-0.748,1.714H493.698 M494.994,62.538v0.634h-5.947
		c0.058,0.893,0.317,1.584,0.807,2.045c0.476,0.46,1.138,0.691,2.002,0.691c0.489,0,0.979-0.058,1.439-0.173
		c0.461-0.115,0.937-0.302,1.397-0.562v1.224c-0.461,0.202-0.937,0.36-1.426,0.446s-0.994,0.144-1.483,0.144
		c-1.267,0-2.261-0.36-2.995-1.08c-0.734-0.72-1.095-1.713-1.095-2.966c0-1.282,0.346-2.304,1.037-3.067
		c0.691-0.749,1.642-1.137,2.822-1.137c1.065,0,1.901,0.345,2.521,1.022C494.678,60.45,494.994,61.372,494.994,62.538"/>
	<path clip-path="url(#SVGID_2_)" d="M503.592,65.821c0,1.325-0.303,2.318-0.894,2.981c-0.604,0.648-1.512,0.979-2.735,0.979
		c-0.461,0-0.879-0.043-1.282-0.101c-0.403-0.072-0.806-0.173-1.181-0.317v-1.253c0.375,0.202,0.749,0.346,1.123,0.447
		c0.375,0.101,0.749,0.158,1.138,0.158c0.836,0,1.469-0.23,1.901-0.663c0.417-0.446,0.633-1.108,0.633-2.001v-0.633
		c-0.273,0.46-0.619,0.806-1.036,1.037c-0.418,0.23-0.907,0.346-1.483,0.346c-0.979,0-1.757-0.36-2.348-1.095
		c-0.59-0.734-0.878-1.713-0.878-2.938c0-1.209,0.288-2.188,0.878-2.923c0.591-0.734,1.368-1.108,2.348-1.108
		c0.576,0,1.065,0.115,1.483,0.345c0.417,0.23,0.763,0.576,1.036,1.037v-1.195h1.297V65.821 M502.295,62.769
		c0-0.921-0.201-1.656-0.575-2.174c-0.389-0.519-0.937-0.778-1.628-0.778c-0.69,0-1.238,0.259-1.627,0.778s-0.576,1.253-0.576,2.174
		c0,0.936,0.188,1.656,0.576,2.174c0.389,0.519,0.937,0.778,1.627,0.778c0.691,0,1.239-0.259,1.628-0.778
		C502.094,64.425,502.295,63.705,502.295,62.769"/>
	
		<line clip-path="url(#SVGID_2_)" fill="none" stroke="#008000" stroke-linecap="square" stroke-linejoin="round" stroke-miterlimit="10" x1="418.862" y1="82.507" x2="439.021" y2="82.507"/>
	<path clip-path="url(#SVGID_2_)" d="M459.931,77.05h1.785v6.84h1.498v1.181h-1.498v2.477h-1.411v-2.477h-4.737v-1.368
		L459.931,77.05 M460.305,78.288l-3.585,5.602h3.585V78.288"/>
	<path clip-path="url(#SVGID_2_)" d="M465.575,77.05h5.573v1.195h-4.277v2.578c0.202-0.072,0.418-0.13,0.619-0.159
		c0.202-0.028,0.418-0.058,0.62-0.058c1.166,0,2.088,0.332,2.778,0.965c0.691,0.648,1.037,1.512,1.037,2.606
		c0,1.138-0.36,2.016-1.065,2.635c-0.706,0.619-1.699,0.922-2.967,0.922c-0.446,0-0.893-0.043-1.354-0.101
		c-0.461-0.072-0.921-0.173-1.411-0.331v-1.426c0.418,0.23,0.85,0.403,1.311,0.519c0.446,0.115,0.922,0.158,1.426,0.158
		c0.807,0,1.454-0.201,1.93-0.633c0.461-0.432,0.705-1.008,0.705-1.743c0-0.72-0.244-1.296-0.705-1.728
		c-0.476-0.432-1.123-0.648-1.93-0.648c-0.375,0-0.764,0.043-1.138,0.13s-0.764,0.216-1.152,0.389V77.05"/>
	<path clip-path="url(#SVGID_2_)" d="M479.169,77.05h2.923c2.031,0,3.528,0.432,4.479,1.267c0.951,0.85,1.426,2.175,1.426,3.975
		c0,1.814-0.489,3.139-1.439,3.989c-0.951,0.85-2.448,1.267-4.465,1.267h-2.923V77.05 M480.595,78.216v8.165h1.714
		c1.439,0,2.505-0.316,3.182-0.979c0.663-0.663,1.009-1.699,1.009-3.11s-0.346-2.434-1.009-3.096
		c-0.677-0.648-1.742-0.979-3.182-0.979H480.595"/>
	<path clip-path="url(#SVGID_2_)" d="M495.643,82.911c-0.015-0.706-0.216-1.267-0.59-1.699c-0.39-0.417-0.907-0.633-1.541-0.633
		c-0.721,0-1.296,0.216-1.729,0.619c-0.432,0.403-0.691,0.979-0.748,1.713H495.643 M496.938,83.285v0.633h-5.947
		c0.058,0.893,0.317,1.584,0.807,2.045c0.476,0.461,1.138,0.691,2.002,0.691c0.489,0,0.979-0.058,1.439-0.173
		s0.937-0.302,1.397-0.562v1.224c-0.461,0.201-0.937,0.36-1.426,0.446c-0.49,0.086-0.994,0.144-1.483,0.144
		c-1.268,0-2.261-0.36-2.995-1.08c-0.734-0.72-1.095-1.714-1.095-2.966c0-1.282,0.346-2.304,1.037-3.067
		c0.691-0.749,1.642-1.138,2.822-1.138c1.065,0,1.9,0.346,2.521,1.022C496.622,81.197,496.938,82.119,496.938,83.285"/>
	<path clip-path="url(#SVGID_2_)" d="M505.535,86.568c0,1.325-0.302,2.318-0.893,2.98c-0.604,0.648-1.512,0.979-2.735,0.979
		c-0.461,0-0.879-0.043-1.282-0.101c-0.403-0.072-0.807-0.173-1.181-0.317v-1.253c0.374,0.202,0.749,0.346,1.123,0.446
		c0.375,0.101,0.749,0.159,1.138,0.159c0.835,0,1.469-0.23,1.9-0.663c0.418-0.446,0.634-1.109,0.634-2.001v-0.634
		c-0.273,0.461-0.619,0.807-1.036,1.037c-0.418,0.23-0.907,0.346-1.483,0.346c-0.979,0-1.757-0.36-2.348-1.094
		c-0.59-0.734-0.878-1.714-0.878-2.938c0-1.21,0.288-2.189,0.878-2.923c0.591-0.734,1.368-1.109,2.348-1.109
		c0.576,0,1.065,0.115,1.483,0.346c0.417,0.23,0.763,0.576,1.036,1.037v-1.195h1.296V86.568 M504.239,83.516
		c0-0.922-0.201-1.656-0.575-2.174c-0.39-0.519-0.937-0.778-1.628-0.778s-1.238,0.259-1.627,0.778
		c-0.389,0.518-0.576,1.252-0.576,2.174c0,0.936,0.188,1.656,0.576,2.174s0.936,0.777,1.627,0.777s1.238-0.259,1.628-0.777
		C504.038,85.171,504.239,84.452,504.239,83.516"/>
	
		<line clip-path="url(#SVGID_2_)" fill="none" stroke="#FF0000" stroke-linecap="square" stroke-linejoin="round" stroke-miterlimit="10" x1="418.862" y1="103.254" x2="439.021" y2="103.254"/>
	<path clip-path="url(#SVGID_2_)" d="M460.708,102.635c0.677,0.144,1.21,0.446,1.584,0.907c0.375,0.46,0.576,1.037,0.576,1.699
		c0,1.037-0.36,1.843-1.065,2.405c-0.72,0.562-1.729,0.835-3.038,0.835c-0.446,0-0.907-0.043-1.368-0.129
		c-0.461-0.072-0.95-0.202-1.44-0.375v-1.368c0.389,0.23,0.821,0.403,1.296,0.519c0.461,0.115,0.951,0.173,1.469,0.173
		c0.894,0,1.57-0.173,2.031-0.519c0.46-0.346,0.705-0.864,0.705-1.541c0-0.605-0.216-1.095-0.648-1.44
		c-0.432-0.346-1.036-0.533-1.813-0.533h-1.225v-1.166h1.282c0.69,0,1.224-0.13,1.598-0.418c0.375-0.273,0.562-0.677,0.562-1.209
		s-0.201-0.95-0.575-1.238c-0.39-0.288-0.937-0.432-1.642-0.432c-0.39,0-0.807,0.043-1.253,0.13s-0.937,0.216-1.469,0.389v-1.267
		c0.532-0.144,1.036-0.259,1.512-0.332c0.461-0.072,0.907-0.115,1.339-0.115c1.065,0,1.915,0.245,2.549,0.734
		c0.634,0.49,0.95,1.152,0.95,1.987c0,0.576-0.172,1.066-0.504,1.469C461.788,102.203,461.313,102.491,460.708,102.635"/>
	<path clip-path="url(#SVGID_2_)" d="M468.6,97.609c1.166,0,2.059,0.476,2.692,1.397c0.619,0.936,0.937,2.29,0.937,4.046
		c0,1.771-0.317,3.125-0.937,4.046c-0.634,0.922-1.526,1.382-2.692,1.382c-1.181,0-2.088-0.46-2.707-1.382
		c-0.619-0.921-0.922-2.275-0.922-4.046c0-1.757,0.303-3.11,0.922-4.046C466.512,98.085,467.419,97.609,468.6,97.609 M468.6,98.733
		c-0.734,0-1.281,0.36-1.656,1.08c-0.374,0.72-0.547,1.8-0.547,3.24s0.173,2.52,0.547,3.24c0.375,0.72,0.922,1.08,1.656,1.08
		s1.281-0.36,1.656-1.08c0.359-0.72,0.547-1.8,0.547-3.24s-0.188-2.52-0.547-3.24C469.881,99.093,469.334,98.733,468.6,98.733"/>
	<path clip-path="url(#SVGID_2_)" d="M479.889,104.363c0,0.95,0.188,1.699,0.576,2.246c0.389,0.547,0.937,0.807,1.627,0.807
		c0.677,0,1.21-0.259,1.613-0.807c0.389-0.547,0.59-1.296,0.59-2.246c0-0.951-0.201-1.685-0.59-2.232
		c-0.403-0.547-0.937-0.821-1.613-0.821c-0.69,0-1.238,0.273-1.627,0.821C480.076,102.678,479.889,103.413,479.889,104.363
		 M484.295,101.613v-4.262h1.297v10.944h-1.297v-1.181c-0.273,0.475-0.619,0.821-1.036,1.037c-0.418,0.216-0.907,0.331-1.483,0.331
		c-0.95,0-1.728-0.374-2.333-1.123c-0.604-0.749-0.893-1.757-0.893-2.995s0.288-2.232,0.893-2.995
		c0.605-0.749,1.383-1.138,2.333-1.138c0.576,0,1.065,0.115,1.483,0.346C483.676,100.806,484.021,101.152,484.295,101.613"/>
	<path clip-path="url(#SVGID_2_)" d="M493.698,103.658c-0.014-0.706-0.216-1.267-0.59-1.699c-0.389-0.417-0.907-0.634-1.541-0.634
		c-0.72,0-1.296,0.216-1.729,0.619c-0.432,0.403-0.69,0.979-0.748,1.714H493.698 M494.994,104.032v0.633h-5.947
		c0.058,0.893,0.317,1.584,0.807,2.045c0.476,0.461,1.138,0.691,2.002,0.691c0.489,0,0.979-0.058,1.439-0.173
		c0.461-0.115,0.937-0.302,1.397-0.562v1.224c-0.461,0.202-0.937,0.36-1.426,0.446s-0.994,0.144-1.483,0.144
		c-1.267,0-2.261-0.36-2.995-1.08c-0.734-0.72-1.095-1.713-1.095-2.966c0-1.282,0.346-2.304,1.037-3.067
		c0.691-0.749,1.642-1.138,2.822-1.138c1.065,0,1.901,0.346,2.521,1.022C494.678,101.944,494.994,102.866,494.994,104.032"/>
	<path clip-path="url(#SVGID_2_)" d="M503.592,107.315c0,1.325-0.303,2.318-0.894,2.98c-0.604,0.648-1.512,0.979-2.735,0.979
		c-0.461,0-0.879-0.043-1.282-0.101c-0.403-0.072-0.806-0.173-1.181-0.317v-1.252c0.375,0.201,0.749,0.345,1.123,0.446
		c0.375,0.101,0.749,0.158,1.138,0.158c0.836,0,1.469-0.23,1.901-0.662c0.417-0.447,0.633-1.109,0.633-2.002v-0.633
		c-0.273,0.46-0.619,0.806-1.036,1.037c-0.418,0.23-0.907,0.346-1.483,0.346c-0.979,0-1.757-0.36-2.348-1.094
		c-0.59-0.734-0.878-1.714-0.878-2.938c0-1.209,0.288-2.188,0.878-2.923c0.591-0.734,1.368-1.109,2.348-1.109
		c0.576,0,1.065,0.115,1.483,0.346c0.417,0.23,0.763,0.576,1.036,1.037v-1.195h1.297V107.315 M502.295,104.262
		c0-0.921-0.201-1.656-0.575-2.174c-0.389-0.519-0.937-0.777-1.628-0.777c-0.69,0-1.238,0.259-1.627,0.777s-0.576,1.253-0.576,2.174
		c0,0.936,0.188,1.656,0.576,2.174c0.389,0.519,0.937,0.778,1.627,0.778c0.691,0,1.239-0.259,1.628-0.778
		C502.094,105.918,502.295,105.198,502.295,104.262"/>
	
		<line clip-path="url(#SVGID_2_)" fill="none" stroke="#00BFBF" stroke-linecap="square" stroke-linejoin="round" stroke-miterlimit="10" x1="418.862" y1="124.001" x2="439.021" y2="124.001"/>
	<polyline clip-path="url(#SVGID_2_)" points="456.647,127.846 458.966,127.846 458.966,119.84 456.446,120.344 456.446,119.048 
		458.951,118.543 460.377,118.543 460.377,127.846 462.695,127.846 462.695,129.041 456.647,129.041 456.647,127.846 	"/>
	<path clip-path="url(#SVGID_2_)" d="M465.575,118.543h5.573v1.195h-4.277v2.578c0.202-0.072,0.418-0.129,0.619-0.158
		c0.202-0.029,0.418-0.058,0.62-0.058c1.166,0,2.088,0.331,2.778,0.965c0.691,0.648,1.037,1.512,1.037,2.606
		c0,1.137-0.36,2.016-1.065,2.635c-0.706,0.62-1.699,0.922-2.967,0.922c-0.446,0-0.893-0.043-1.354-0.101
		c-0.461-0.072-0.921-0.172-1.411-0.331v-1.425c0.418,0.23,0.85,0.403,1.311,0.518c0.446,0.115,0.922,0.159,1.426,0.159
		c0.807,0,1.454-0.202,1.93-0.634c0.461-0.432,0.705-1.008,0.705-1.742c0-0.72-0.244-1.296-0.705-1.728
		c-0.476-0.432-1.123-0.648-1.93-0.648c-0.375,0-0.764,0.043-1.138,0.129s-0.764,0.216-1.152,0.389V118.543"/>
	<path clip-path="url(#SVGID_2_)" d="M479.889,125.11c0,0.951,0.188,1.699,0.576,2.247s0.937,0.807,1.627,0.807
		c0.677,0,1.21-0.259,1.613-0.807c0.389-0.547,0.59-1.296,0.59-2.247c0-0.95-0.201-1.685-0.59-2.232
		c-0.403-0.547-0.937-0.821-1.613-0.821c-0.69,0-1.238,0.274-1.627,0.821C480.076,123.425,479.889,124.16,479.889,125.11
		 M484.295,122.36v-4.263h1.297v10.944h-1.297v-1.181c-0.273,0.475-0.619,0.821-1.036,1.037c-0.418,0.216-0.907,0.331-1.483,0.331
		c-0.95,0-1.728-0.375-2.333-1.123c-0.604-0.749-0.893-1.757-0.893-2.996c0-1.238,0.288-2.232,0.893-2.995
		c0.605-0.749,1.383-1.138,2.333-1.138c0.576,0,1.065,0.115,1.483,0.346C483.676,121.553,484.021,121.899,484.295,122.36"/>
	<path clip-path="url(#SVGID_2_)" d="M493.698,124.404c-0.014-0.706-0.216-1.267-0.59-1.699c-0.389-0.417-0.907-0.633-1.541-0.633
		c-0.72,0-1.296,0.216-1.729,0.619c-0.432,0.403-0.69,0.979-0.748,1.713H493.698 M494.994,124.779v0.634h-5.947
		c0.058,0.893,0.317,1.584,0.807,2.044c0.476,0.461,1.138,0.691,2.002,0.691c0.489,0,0.979-0.058,1.439-0.173
		c0.461-0.115,0.937-0.302,1.397-0.562v1.224c-0.461,0.202-0.937,0.36-1.426,0.446s-0.994,0.144-1.483,0.144
		c-1.267,0-2.261-0.36-2.995-1.08c-0.734-0.72-1.095-1.713-1.095-2.966c0-1.282,0.346-2.304,1.037-3.067
		c0.691-0.749,1.642-1.138,2.822-1.138c1.065,0,1.901,0.346,2.521,1.022C494.678,122.691,494.994,123.612,494.994,124.779"/>
	<path clip-path="url(#SVGID_2_)" d="M503.592,128.062c0,1.325-0.303,2.318-0.894,2.981c-0.604,0.648-1.512,0.979-2.735,0.979
		c-0.461,0-0.879-0.043-1.282-0.101c-0.403-0.072-0.806-0.173-1.181-0.317v-1.253c0.375,0.202,0.749,0.346,1.123,0.446
		c0.375,0.101,0.749,0.159,1.138,0.159c0.836,0,1.469-0.23,1.901-0.663c0.417-0.446,0.633-1.109,0.633-2.001v-0.634
		c-0.273,0.461-0.619,0.807-1.036,1.037c-0.418,0.23-0.907,0.345-1.483,0.345c-0.979,0-1.757-0.36-2.348-1.094
		c-0.59-0.734-0.878-1.713-0.878-2.938c0-1.209,0.288-2.189,0.878-2.923c0.591-0.734,1.368-1.109,2.348-1.109
		c0.576,0,1.065,0.115,1.483,0.346c0.417,0.23,0.763,0.576,1.036,1.037v-1.195h1.297V128.062 M502.295,125.009
		c0-0.921-0.201-1.656-0.575-2.174c-0.389-0.519-0.937-0.778-1.628-0.778c-0.69,0-1.238,0.259-1.627,0.778s-0.576,1.253-0.576,2.174
		c0,0.936,0.188,1.656,0.576,2.174s0.937,0.778,1.627,0.778c0.691,0,1.239-0.259,1.628-0.778
		C502.094,126.665,502.295,125.945,502.295,125.009"/>
</g>
</svg>
